<svg width="39" height="40" viewBox="0 0 39 40" fill="none" xmlns="http://www.w3.org/2000/svg">
<path d="M26.7022 9.90032L33.2207 9.18634C35.7592 8.90867 37.4118 11.7332 35.8848 13.7391L28.6482 23.2426L31.5902 27.6801L33.5771 26.2678C34.9433 25.2968 36.862 25.6424 37.7844 27.0272C38.6372 28.3082 38.3233 30.0191 37.0698 30.9305L25.8344 39.0968L19.1359 30.4121L12.4375 39.0986L1.20028 30.9305C-0.0530253 30.0191 -0.365091 28.3098 0.487485 27.0289C1.41 25.6439 3.32849 25.2963 4.69475 26.2678L6.68166 27.6801L9.62371 23.2443L2.3853 13.7391C0.85805 11.7333 2.51094 8.90885 5.04936 9.18634L11.5679 9.90032L18.4363 1.17831C18.7885 0.730962 19.4798 0.730923 19.8321 1.17823L26.7022 9.90032ZM11.8387 14.2488C11.4405 14.2164 10.5592 14.4633 10.2189 15.7065C9.79426 17.259 10.547 23.3002 19.111 23.3159V23.3176H19.1591V23.3159C27.7223 23.3 28.4757 17.2593 28.0512 15.7065C27.711 14.464 26.8298 14.2167 26.4314 14.2488H11.8387ZM16.8568 9.27013C15.849 9.27013 15.032 10.1251 15.032 11.1782C15.0323 12.231 15.8492 13.0844 16.8568 13.0844C17.8639 13.0839 18.6812 12.2306 18.6815 11.1782C18.6815 10.1254 17.8641 9.27067 16.8568 9.27013ZM21.4151 9.27013C20.4073 9.27013 19.5903 10.1251 19.5903 11.1782C19.5906 12.231 20.4075 13.0844 21.4151 13.0844C22.4221 13.0838 23.2396 12.2306 23.2398 11.1782C23.2398 10.1255 22.4223 9.27081 21.4151 9.27013Z" fill="#151B37"/>
</svg>
