<svg width="249" height="239" viewBox="0 0 249 239" fill="none" xmlns="http://www.w3.org/2000/svg">
<path d="M170.55 66.1131L198.808 108.269L225.603 106.993C236.038 106.497 242.022 118.753 235.25 126.748L203.156 164.624L213.968 183.97L222.458 178.581C228.295 174.875 236.032 176.826 239.424 182.864C242.559 188.449 240.817 195.528 235.456 199.014L187.403 230.243L162.405 192.134L132.728 226.733L89.0665 189.594C84.197 185.45 83.3838 178.214 87.2082 173.077C91.3462 167.522 99.2695 166.571 104.584 170.996L112.312 177.429L125.514 159.636L98.5327 117.951C92.8399 109.154 100.346 97.7666 110.631 99.5947L137.042 104.295L170.477 66.1084L170.483 66.0208L170.509 66.0665L170.556 66.0254L170.55 66.1131ZM136.976 122.567C135.36 122.327 131.697 123.128 129.973 128.242C127.822 134.629 129.267 160.112 164.214 162.427L164.213 162.434L164.41 162.447L164.41 162.439C199.362 164.622 204.064 139.536 202.75 132.925C201.696 127.635 198.166 126.369 196.531 126.399L136.976 122.567ZM158.797 103.046C154.684 102.781 151.119 106.145 150.836 110.553C150.553 114.96 153.657 118.746 157.77 119.011C161.88 119.273 165.445 115.916 165.73 111.511C166.014 107.105 162.908 103.313 158.797 103.046ZM177.4 104.243C173.287 103.978 169.723 107.342 169.439 111.75C169.157 116.157 172.261 119.943 176.373 120.208C180.483 120.47 184.049 117.113 184.333 112.708C184.617 108.302 181.511 104.51 177.4 104.243Z" fill="black"/>
<path d="M77.8896 14.4082C88.0366 7.69136 101.704 11.311 107.664 21.6348L115.946 35.9805C121.348 45.3369 118.781 57.1785 110.089 63.6572L110.083 63.6611L90.332 78.2705V78.2715C85.0679 82.1627 78.4066 83.4511 72.1504 81.8135L58.8428 78.3301C54.6688 77.2375 50.3235 78.9236 48.2393 82.5381C36.0146 103.739 29.4587 127.717 29.1387 151.996C29.0826 156.246 32.0675 159.96 36.3223 161.073L49.3008 164.471C55.5585 166.109 60.6844 170.486 63.2627 176.449L72.9893 198.915L72.9932 198.924C77.2211 208.814 73.3656 220.323 63.9541 225.635L49.459 234.004C39.0672 240.004 25.3597 236.513 19.9805 225.684V225.683C-16.8663 151.466 7.9614 60.7106 77.8887 14.4082H77.8896Z" fill="black" stroke="black" stroke-width="4"/>
<path d="M77.8896 6.4082C88.0366 -0.308644 101.704 3.311 107.664 13.6348L115.946 27.9805C121.348 37.3369 118.781 49.1785 110.089 55.6572L110.083 55.6611L90.332 70.2705V70.2715C85.0679 74.1627 78.4066 75.4511 72.1504 73.8135L58.8428 70.3301C54.6688 69.2375 50.3235 70.9236 48.2393 74.5381C36.0146 95.7391 29.4587 119.717 29.1387 143.996C29.0826 148.246 32.0675 151.96 36.3223 153.073L49.3008 156.471C55.5585 158.109 60.6844 162.486 63.2627 168.449L72.9893 190.915L72.9932 190.924C77.2211 200.814 73.3656 212.323 63.9541 217.635L49.459 226.004C39.0672 232.004 25.3597 228.513 19.9805 217.684V217.683C-16.8663 143.466 7.9614 52.7106 77.8887 6.4082H77.8896Z" fill="#F2EEEB" stroke="black" stroke-width="4"/>
</svg>
