<svg width="145" height="106" viewBox="0 0 145 106" fill="none" xmlns="http://www.w3.org/2000/svg">
<g filter="url(#filter0_d_310_274)">
<path d="M88.0908 80H5C3.34315 80 2 78.6569 2 77V5C2 3.34315 3.34315 2 5 2H136C137.657 2 139 3.34315 139 5V77C139 78.6569 137.657 80 136 80H121V99L88.0908 80Z" fill="#D9D9D9"/>
<path d="M88.0908 80L88.8408 78.701L88.4927 78.5H88.0908V80ZM2 77L0.5 77V77L2 77ZM2 5L0.5 5V5H2ZM139 5L140.5 5V5L139 5ZM139 77L140.5 77V77H139ZM121 80V78.5H119.5V80H121ZM121 99L120.25 100.299L122.5 101.598V99H121ZM88.0908 80V78.5H5V80V81.5H88.0908V80ZM5 80V78.5C4.17157 78.5 3.5 77.8284 3.5 77L2 77L0.5 77C0.5 79.4853 2.51472 81.5 5 81.5V80ZM2 77H3.5V5H2H0.5V77H2ZM2 5L3.5 5C3.5 4.17157 4.17157 3.5 5 3.5V2V0.5C2.51472 0.5 0.500002 2.51472 0.5 5L2 5ZM5 2V3.5H136V2V0.5H5V2ZM136 2V3.5C136.828 3.5 137.5 4.17157 137.5 5L139 5L140.5 5C140.5 2.51472 138.485 0.5 136 0.5V2ZM139 5H137.5V77H139H140.5V5H139ZM139 77L137.5 77C137.5 77.8284 136.828 78.5 136 78.5V80V81.5C138.485 81.5 140.5 79.4853 140.5 77L139 77ZM136 80V78.5H121V80V81.5H136V80ZM121 80H119.5V99H121H122.5V80H121ZM121 99L121.75 97.701L88.8408 78.701L88.0908 80L87.3408 81.299L120.25 100.299L121 99Z" fill="black"/>
</g>
<circle cx="104" cy="41" r="9" transform="rotate(180 104 41)" fill="white"/>
<circle cx="70" cy="41" r="9" transform="rotate(180 70 41)" fill="white"/>
<circle cx="36" cy="41" r="9" transform="rotate(180 36 41)" fill="white"/>
<defs>
<filter id="filter0_d_310_274" x="0.5" y="0.5" width="144" height="105.098" filterUnits="userSpaceOnUse" color-interpolation-filters="sRGB">
<feFlood flood-opacity="0" result="BackgroundImageFix"/>
<feColorMatrix in="SourceAlpha" type="matrix" values="0 0 0 0 0 0 0 0 0 0 0 0 0 0 0 0 0 0 127 0" result="hardAlpha"/>
<feOffset dx="4" dy="4"/>
<feComposite in2="hardAlpha" operator="out"/>
<feColorMatrix type="matrix" values="0 0 0 0 0 0 0 0 0 0 0 0 0 0 0 0 0 0 1 0"/>
<feBlend mode="normal" in2="BackgroundImageFix" result="effect1_dropShadow_310_274"/>
<feBlend mode="normal" in="SourceGraphic" in2="effect1_dropShadow_310_274" result="shape"/>
</filter>
</defs>
</svg>
