<svg width="654" height="886" viewBox="0 0 654 886" fill="none" xmlns="http://www.w3.org/2000/svg">
<g filter="url(#filter0_d_403_785)">
<rect width="654" height="873" rx="36" fill="#FDE192"/>
<rect x="2.78069" y="2.78069" width="648.439" height="867.439" rx="33.2193" stroke="#151B37" stroke-width="5.56138"/>
<path d="M285.547 94V72.25H295.359C296.87 72.25 298.167 72.4844 299.25 72.9531C300.344 73.4219 301.172 74.1042 301.734 75C302.307 75.8854 302.594 76.9635 302.594 78.2344C302.594 79.224 302.401 80.1042 302.016 80.875C301.63 81.6458 301.068 82.276 300.328 82.7656C299.599 83.2552 298.719 83.5729 297.688 83.7188L297.5 83.3594C298.5 83.3906 299.286 83.5312 299.859 83.7812C300.432 84.0312 300.87 84.4271 301.172 84.9688C301.474 85.5104 301.703 86.276 301.859 87.2656C301.911 87.6198 301.958 87.974 302 88.3281C302.042 88.6719 302.089 89.0156 302.141 89.3594C302.182 89.7448 302.224 90.1302 302.266 90.5156C302.318 90.901 302.375 91.276 302.438 91.6406C302.531 92.2344 302.651 92.7344 302.797 93.1406C302.943 93.5469 303.099 93.8333 303.266 94H298.766C298.63 93.875 298.505 93.651 298.391 93.3281C298.276 93.0052 298.188 92.6094 298.125 92.1406C298.083 91.7969 298.042 91.4531 298 91.1094C297.969 90.7552 297.932 90.4062 297.891 90.0625C297.849 89.7083 297.807 89.349 297.766 88.9844C297.734 88.6198 297.693 88.2604 297.641 87.9062C297.547 87.2708 297.411 86.776 297.234 86.4219C297.057 86.0573 296.76 85.7812 296.344 85.5938C295.938 85.4062 295.359 85.3125 294.609 85.3125H289.891V94H285.547ZM294.594 82.0781C295.844 82.0781 296.766 81.8229 297.359 81.3125C297.953 80.7917 298.25 79.9844 298.25 78.8906C298.25 78.1823 298.115 77.5885 297.844 77.1094C297.583 76.6302 297.188 76.2708 296.656 76.0312C296.125 75.7917 295.458 75.6719 294.656 75.6719H289.891V82.0781H294.594ZM313.672 94.5156C311.974 94.5156 310.448 94.151 309.094 93.4219C307.75 92.6927 306.693 91.6823 305.922 90.3906C305.161 89.099 304.781 87.6406 304.781 86.0156C304.781 84.3906 305.161 82.9323 305.922 81.6406C306.693 80.3385 307.75 79.3229 309.094 78.5938C310.448 77.8646 311.974 77.5 313.672 77.5C315.37 77.5 316.896 77.8646 318.25 78.5938C319.604 79.3229 320.661 80.3385 321.422 81.6406C322.182 82.9323 322.562 84.3906 322.562 86.0156C322.562 87.6406 322.182 89.099 321.422 90.3906C320.661 91.6823 319.604 92.6927 318.25 93.4219C316.896 94.151 315.37 94.5156 313.672 94.5156ZM313.672 91.0781C314.62 91.0781 315.458 90.8646 316.188 90.4375C316.917 90.0104 317.479 89.4167 317.875 88.6562C318.271 87.8854 318.469 87.0052 318.469 86.0156C318.469 85.0156 318.271 84.1354 317.875 83.375C317.479 82.6042 316.917 82.0052 316.188 81.5781C315.458 81.151 314.62 80.9375 313.672 80.9375C312.724 80.9375 311.885 81.151 311.156 81.5781C310.438 82.0052 309.875 82.6042 309.469 83.375C309.073 84.1354 308.875 85.0156 308.875 86.0156C308.875 87.0052 309.073 87.8854 309.469 88.6562C309.875 89.4167 310.438 90.0104 311.156 90.4375C311.885 90.8646 312.724 91.0781 313.672 91.0781ZM334.969 94.5156C333.844 94.5156 332.839 94.3229 331.953 93.9375C331.078 93.5521 330.307 92.9896 329.641 92.25C329.505 92.0938 329.391 91.9896 329.297 91.9375C329.214 91.875 329.12 91.8438 329.016 91.8438C328.891 91.8438 328.792 91.8906 328.719 91.9844C328.646 92.0677 328.589 92.2188 328.547 92.4375C328.495 92.6771 328.453 92.9375 328.422 93.2188C328.391 93.5 328.37 93.7604 328.359 94H325.391V71.4062H329.406V79.0938C329.406 79.25 329.427 79.3698 329.469 79.4531C329.51 79.526 329.583 79.5625 329.688 79.5625C329.76 79.5625 329.823 79.5521 329.875 79.5312C329.927 79.5 330 79.4375 330.094 79.3438C330.646 78.7812 331.328 78.3385 332.141 78.0156C332.953 77.6927 333.859 77.5312 334.859 77.5312C336.38 77.5312 337.755 77.901 338.984 78.6406C340.224 79.3698 341.193 80.3802 341.891 81.6719C342.599 82.9635 342.953 84.4115 342.953 86.0156C342.953 87.6302 342.604 89.0833 341.906 90.375C341.219 91.6667 340.266 92.6823 339.047 93.4219C337.839 94.151 336.479 94.5156 334.969 94.5156ZM334.094 91.0781C335.021 91.0781 335.844 90.8646 336.562 90.4375C337.281 90.0104 337.839 89.4167 338.234 88.6562C338.641 87.8854 338.844 87.0052 338.844 86.0156C338.844 85.026 338.641 84.151 338.234 83.3906C337.839 82.6198 337.281 82.026 336.562 81.6094C335.844 81.1823 335.021 80.9688 334.094 80.9688C333.427 80.9688 332.812 81.0781 332.25 81.2969C331.698 81.5052 331.208 81.8177 330.781 82.2344C330.312 82.6823 329.948 83.2292 329.688 83.875C329.427 84.5208 329.297 85.2344 329.297 86.0156C329.297 86.7969 329.427 87.5156 329.688 88.1719C329.948 88.8177 330.312 89.3646 330.781 89.8125C331.208 90.2292 331.698 90.5469 332.25 90.7656C332.812 90.974 333.427 91.0781 334.094 91.0781ZM345.828 94V78.0156H349.844V94H345.828ZM347.844 75.8281C347.375 75.8281 346.948 75.7292 346.562 75.5312C346.188 75.3229 345.896 75.0417 345.688 74.6875C345.479 74.3333 345.375 73.9375 345.375 73.5C345.375 73.0521 345.479 72.6562 345.688 72.3125C345.896 71.9583 346.188 71.6823 346.562 71.4844C346.948 71.276 347.375 71.1719 347.844 71.1719C348.312 71.1719 348.734 71.276 349.109 71.4844C349.484 71.6823 349.776 71.9583 349.984 72.3125C350.203 72.6562 350.312 73.0521 350.312 73.5C350.312 73.9375 350.203 74.3333 349.984 74.6875C349.776 75.0417 349.484 75.3229 349.109 75.5312C348.734 75.7292 348.312 75.8281 347.844 75.8281ZM353.734 94V78.0156H356.703C356.714 78.276 356.734 78.5521 356.766 78.8438C356.797 79.125 356.833 79.3854 356.875 79.625C356.927 79.8542 356.995 80.0208 357.078 80.125C357.161 80.2292 357.266 80.2812 357.391 80.2812C357.505 80.2812 357.599 80.2552 357.672 80.2031C357.755 80.151 357.865 80.0417 358 79.875C358.615 79.0833 359.328 78.4896 360.141 78.0938C360.964 77.6979 361.927 77.5 363.031 77.5C364.302 77.5 365.385 77.7604 366.281 78.2812C367.177 78.7917 367.859 79.5417 368.328 80.5312C368.797 81.5104 369.031 82.6927 369.031 84.0781V94H365.031V84.75C365.031 83.9583 364.911 83.2865 364.672 82.7344C364.432 82.1823 364.078 81.7656 363.609 81.4844C363.151 81.2031 362.594 81.0625 361.938 81.0625C361.281 81.0625 360.698 81.1875 360.188 81.4375C359.677 81.6771 359.234 82.0469 358.859 82.5469C358.474 83.0677 358.193 83.6823 358.016 84.3906C357.839 85.099 357.75 85.901 357.75 86.7969V94H353.734Z" fill="black"/>
<g filter="url(#filter1_d_403_785)">
<mask id="path-4-outside-1_403_785" maskUnits="userSpaceOnUse" x="56.1094" y="139" width="445" height="129" fill="black">
<rect fill="white" x="56.1094" y="139" width="445" height="129"/>
<path d="M107.827 264.998C107.827 264.998 107.826 264.998 107.826 264.999C107.826 265 107.826 265 107.825 265H64.0073C60.5134 265 58.6988 260.835 61.0779 258.276L97.0388 219.601C97.7269 218.861 98.1094 217.887 98.1094 216.877V146.915C98.1094 144.201 100.31 142 103.024 142H488.279C493.708 142 498.109 146.401 498.109 151.83V255.17C498.109 260.599 493.708 265 488.279 265H107.939C107.902 265 107.865 264.998 107.827 264.998Z"/>
</mask>
<path d="M107.827 264.998C107.827 264.998 107.826 264.998 107.826 264.999C107.826 265 107.826 265 107.825 265H64.0073C60.5134 265 58.6988 260.835 61.0779 258.276L97.0388 219.601C97.7269 218.861 98.1094 217.887 98.1094 216.877V146.915C98.1094 144.201 100.31 142 103.024 142H488.279C493.708 142 498.109 146.401 498.109 151.83V255.17C498.109 260.599 493.708 265 488.279 265H107.939C107.902 265 107.865 264.998 107.827 264.998Z" fill="white"/>
<path d="M98.1094 146.915L95.1094 146.915V146.915H98.1094ZM103.024 142V139H103.024L103.024 142ZM488.279 142L488.279 139H488.279V142ZM498.109 151.83H501.109V151.83L498.109 151.83ZM498.109 255.17L501.109 255.17V255.17H498.109ZM488.279 265V268H488.279L488.279 265ZM107.939 265L107.939 268H107.939V265ZM97.0388 219.601L99.2358 221.643L97.0388 219.601ZM61.0779 258.276L63.275 260.319L61.0779 258.276ZM107.827 264.998L107.792 267.998L107.827 264.998ZM107.825 265V262H64.0073V265V268H107.825V265ZM61.0779 258.276L63.275 260.319L99.2358 221.643L97.0388 219.601L94.8417 217.558L58.8809 256.233L61.0779 258.276ZM98.1094 216.877H101.109V146.915H98.1094H95.1094V216.877H98.1094ZM98.1094 146.915L101.109 146.915C101.109 145.857 101.967 145 103.024 145L103.024 142L103.024 139C98.6531 139 95.1094 142.544 95.1094 146.915L98.1094 146.915ZM103.024 142V145H488.279V142V139H103.024V142ZM488.279 142L488.279 145C492.051 145 495.109 148.058 495.109 151.83L498.109 151.83L501.109 151.83C501.109 144.744 495.365 139 488.279 139L488.279 142ZM498.109 151.83H495.109V255.17H498.109H501.109V151.83H498.109ZM498.109 255.17L495.109 255.17C495.109 258.942 492.051 262 488.279 262L488.279 265L488.279 268C495.365 268 501.109 262.256 501.109 255.17L498.109 255.17ZM488.279 265V262H107.939V265V268H488.279V265ZM107.939 265L107.939 262C107.95 262 107.957 262 107.959 262C107.96 262 107.959 262 107.952 262C107.948 262 107.945 262 107.939 262C107.934 262 107.928 261.999 107.92 261.999C107.906 261.999 107.886 261.999 107.863 261.998L107.827 264.998L107.792 267.998C107.787 267.998 107.786 267.998 107.79 267.998C107.797 267.998 107.799 267.998 107.814 267.998C107.836 267.999 107.884 268 107.939 268L107.939 265ZM97.0388 219.601L99.2358 221.643C100.44 220.348 101.109 218.645 101.109 216.877H98.1094H95.1094C95.1094 217.13 95.0138 217.373 94.8417 217.558L97.0388 219.601ZM64.0073 265V262C63.1339 262 62.6802 260.959 63.275 260.319L61.0779 258.276L58.8809 256.233C54.7174 260.711 57.893 268 64.0073 268V265ZM107.826 264.999H104.826C104.826 263.343 106.169 262 107.825 262V265V268C109.483 268 110.826 266.656 110.826 264.999H107.826ZM107.826 264.999H110.826C110.826 266.668 109.463 268.018 107.792 267.998L107.827 264.998L107.863 261.998C106.19 261.979 104.826 263.329 104.826 264.999H107.826Z" fill="#151B37" mask="url(#path-4-outside-1_403_785)"/>
</g>
<g filter="url(#filter2_d_403_785)">
<mask id="path-6-outside-2_403_785" maskUnits="userSpaceOnUse" x="353.783" y="298" width="244" height="64" fill="black">
<rect fill="white" x="353.783" y="298" width="244" height="64"/>
<path d="M589.993 359C593.47 359 595.291 354.869 592.946 352.302L574.83 332.477C574.157 331.74 573.783 330.777 573.783 329.779V305.915C573.783 303.201 571.583 301 568.868 301H366.613C361.184 301 356.783 305.401 356.783 310.83V349.17C356.783 354.599 361.184 359 366.613 359H589.993Z"/>
</mask>
<path d="M589.993 359C593.47 359 595.291 354.869 592.946 352.302L574.83 332.477C574.157 331.74 573.783 330.777 573.783 329.779V305.915C573.783 303.201 571.583 301 568.868 301H366.613C361.184 301 356.783 305.401 356.783 310.83V349.17C356.783 354.599 361.184 359 366.613 359H589.993Z" fill="#F5B810"/>
<path d="M573.783 305.915L576.783 305.915V305.915H573.783ZM568.868 301V298H568.868L568.868 301ZM366.613 301L366.613 298H366.613V301ZM356.783 310.83H353.783V310.83L356.783 310.83ZM356.783 349.17L353.783 349.17V349.17H356.783ZM366.613 359V362H366.613L366.613 359ZM574.83 332.477L577.045 330.453L574.83 332.477ZM592.946 352.302L590.731 354.325L592.946 352.302ZM592.946 352.302L590.731 354.325L572.616 334.501L574.83 332.477L577.045 330.453L595.16 350.278L592.946 352.302ZM573.783 329.779H570.783V305.915H573.783H576.783V329.779H573.783ZM573.783 305.915L570.783 305.915C570.783 304.857 569.926 304 568.868 304L568.868 301L568.868 298C573.24 298 576.783 301.544 576.783 305.915L573.783 305.915ZM568.868 301V304H366.613V301V298H568.868V301ZM366.613 301L366.613 304C362.841 304 359.783 307.058 359.783 310.83L356.783 310.83L353.783 310.83C353.783 303.744 359.527 298 366.613 298L366.613 301ZM356.783 310.83H359.783V349.17H356.783H353.783V310.83H356.783ZM356.783 349.17L359.783 349.17C359.783 352.942 362.841 356 366.613 356L366.613 359L366.613 362C359.527 362 353.783 356.256 353.783 349.17L356.783 349.17ZM366.613 359V356H589.993V359V362H366.613V359ZM574.83 332.477L572.616 334.501C571.437 333.211 570.783 331.526 570.783 329.779H573.783H576.783C576.783 330.028 576.877 330.269 577.045 330.453L574.83 332.477ZM592.946 352.302L595.16 350.278C599.265 354.77 596.078 362 589.993 362V359V356C590.862 356 591.317 354.967 590.731 354.325L592.946 352.302Z" fill="#151B37" mask="url(#path-6-outside-2_403_785)"/>
</g>
<g filter="url(#filter3_d_403_785)">
<mask id="path-8-outside-3_403_785" maskUnits="userSpaceOnUse" x="56.1094" y="392" width="445" height="152" fill="black">
<rect fill="white" x="56.1094" y="392" width="445" height="152"/>
<path d="M107.827 540.998C107.827 540.998 107.826 540.998 107.826 540.999C107.826 541 107.826 541 107.825 541H64.0073C60.5134 541 58.6988 536.835 61.0779 534.276L97.0388 495.601C97.7269 494.861 98.1094 493.887 98.1094 492.877V399.915C98.1094 397.201 100.31 395 103.024 395H488.279C493.708 395 498.109 399.401 498.109 404.83V531.17C498.109 536.599 493.708 541 488.279 541H107.939C107.902 541 107.865 540.998 107.827 540.998Z"/>
</mask>
<path d="M107.827 540.998C107.827 540.998 107.826 540.998 107.826 540.999C107.826 541 107.826 541 107.825 541H64.0073C60.5134 541 58.6988 536.835 61.0779 534.276L97.0388 495.601C97.7269 494.861 98.1094 493.887 98.1094 492.877V399.915C98.1094 397.201 100.31 395 103.024 395H488.279C493.708 395 498.109 399.401 498.109 404.83V531.17C498.109 536.599 493.708 541 488.279 541H107.939C107.902 541 107.865 540.998 107.827 540.998Z" fill="white"/>
<path d="M98.1094 399.915L95.1094 399.915V399.915H98.1094ZM103.024 395V392H103.024L103.024 395ZM488.279 395L488.279 392H488.279V395ZM498.109 404.83H501.109V404.83L498.109 404.83ZM498.109 531.17L501.109 531.17V531.17H498.109ZM488.279 541V544H488.279L488.279 541ZM107.939 541L107.939 544H107.939V541ZM97.0388 495.601L99.2358 497.643L97.0388 495.601ZM61.0779 534.276L63.275 536.319L61.0779 534.276ZM107.827 540.998L107.792 543.998L107.827 540.998ZM107.825 541V538H64.0073V541V544H107.825V541ZM61.0779 534.276L63.275 536.319L99.2358 497.643L97.0388 495.601L94.8417 493.558L58.8809 532.233L61.0779 534.276ZM98.1094 492.877H101.109V399.915H98.1094H95.1094V492.877H98.1094ZM98.1094 399.915L101.109 399.915C101.109 398.857 101.967 398 103.024 398L103.024 395L103.024 392C98.6531 392 95.1094 395.544 95.1094 399.915L98.1094 399.915ZM103.024 395V398H488.279V395V392H103.024V395ZM488.279 395L488.279 398C492.051 398 495.109 401.058 495.109 404.83L498.109 404.83L501.109 404.83C501.109 397.744 495.365 392 488.279 392L488.279 395ZM498.109 404.83H495.109V531.17H498.109H501.109V404.83H498.109ZM498.109 531.17L495.109 531.17C495.109 534.942 492.051 538 488.279 538L488.279 541L488.279 544C495.365 544 501.109 538.256 501.109 531.17L498.109 531.17ZM488.279 541V538H107.939V541V544H488.279V541ZM107.939 541L107.939 538C107.95 538 107.957 538 107.959 538C107.96 538 107.959 538 107.952 538C107.948 538 107.945 538 107.939 538C107.934 538 107.928 537.999 107.92 537.999C107.906 537.999 107.886 537.999 107.863 537.998L107.827 540.998L107.792 543.998C107.787 543.998 107.786 543.998 107.79 543.998C107.797 543.998 107.799 543.998 107.814 543.998C107.836 543.999 107.884 544 107.939 544L107.939 541ZM97.0388 495.601L99.2358 497.643C100.44 496.348 101.109 494.645 101.109 492.877H98.1094H95.1094C95.1094 493.13 95.0138 493.373 94.8417 493.558L97.0388 495.601ZM64.0073 541V538C63.1339 538 62.6802 536.959 63.275 536.319L61.0779 534.276L58.8809 532.233C54.7174 536.711 57.893 544 64.0073 544V541ZM107.826 540.999H104.826C104.826 539.343 106.169 538 107.825 538V541V544C109.483 544 110.826 542.656 110.826 540.999H107.826ZM107.826 540.999H110.826C110.826 542.668 109.463 544.018 107.792 543.998L107.827 540.998L107.863 537.998C106.19 537.979 104.826 539.329 104.826 540.999H107.826Z" fill="#151B37" mask="url(#path-8-outside-3_403_785)"/>
</g>
<g filter="url(#filter4_d_403_785)">
<mask id="path-10-outside-4_403_785" maskUnits="userSpaceOnUse" x="409.783" y="574" width="188" height="64" fill="black">
<rect fill="white" x="409.783" y="574" width="188" height="64"/>
<path d="M589.993 635C593.47 635 595.291 630.869 592.946 628.302L574.83 608.477C574.157 607.74 573.783 606.777 573.783 605.779V581.915C573.783 579.201 571.583 577 568.868 577H422.613C417.184 577 412.783 581.401 412.783 586.83V625.17C412.783 630.599 417.184 635 422.613 635H589.993Z"/>
</mask>
<path d="M589.993 635C593.47 635 595.291 630.869 592.946 628.302L574.83 608.477C574.157 607.74 573.783 606.777 573.783 605.779V581.915C573.783 579.201 571.583 577 568.868 577H422.613C417.184 577 412.783 581.401 412.783 586.83V625.17C412.783 630.599 417.184 635 422.613 635H589.993Z" fill="#F5B810"/>
<path d="M573.783 581.915L576.783 581.915V581.915H573.783ZM568.868 577V574H568.868L568.868 577ZM422.613 577L422.613 574H422.613V577ZM412.783 586.83H409.783V586.83L412.783 586.83ZM412.783 625.17L409.783 625.17V625.17H412.783ZM422.613 635V638H422.613L422.613 635ZM574.83 608.477L577.045 606.453L574.83 608.477ZM592.946 628.302L590.731 630.325L592.946 628.302ZM592.946 628.302L590.731 630.325L572.616 610.501L574.83 608.477L577.045 606.453L595.16 626.278L592.946 628.302ZM573.783 605.779H570.783V581.915H573.783H576.783V605.779H573.783ZM573.783 581.915L570.783 581.915C570.783 580.857 569.926 580 568.868 580L568.868 577L568.868 574C573.24 574 576.783 577.544 576.783 581.915L573.783 581.915ZM568.868 577V580H422.613V577V574H568.868V577ZM422.613 577L422.613 580C418.841 580 415.783 583.058 415.783 586.83L412.783 586.83L409.783 586.83C409.783 579.744 415.527 574 422.613 574L422.613 577ZM412.783 586.83H415.783V625.17H412.783H409.783V586.83H412.783ZM412.783 625.17L415.783 625.17C415.783 628.942 418.841 632 422.613 632L422.613 635L422.613 638C415.527 638 409.783 632.256 409.783 625.17L412.783 625.17ZM422.613 635V632H589.993V635V638H422.613V635ZM574.83 608.477L572.616 610.501C571.437 609.211 570.783 607.526 570.783 605.779H573.783H576.783C576.783 606.028 576.877 606.269 577.045 606.453L574.83 608.477ZM592.946 628.302L595.16 626.278C599.265 630.77 596.078 638 589.993 638V635V632C590.862 632 591.318 630.967 590.731 630.325L592.946 628.302Z" fill="#151B37" mask="url(#path-10-outside-4_403_785)"/>
</g>
<g filter="url(#filter5_d_403_785)">
<mask id="path-12-outside-5_403_785" maskUnits="userSpaceOnUse" x="56.1094" y="668" width="445" height="136" fill="black">
<rect fill="white" x="56.1094" y="668" width="445" height="136"/>
<path d="M107.827 800.998C107.827 800.998 107.826 800.998 107.826 800.999C107.826 801 107.826 801 107.825 801H64.0073C60.5134 801 58.6988 796.835 61.0779 794.276L97.0388 755.601C97.7269 754.861 98.1094 753.887 98.1094 752.877V675.915C98.1094 673.201 100.31 671 103.024 671H488.279C493.708 671 498.109 675.401 498.109 680.83V791.17C498.109 796.599 493.708 801 488.279 801H107.939C107.902 801 107.865 800.998 107.827 800.998Z"/>
</mask>
<path d="M107.827 800.998C107.827 800.998 107.826 800.998 107.826 800.999C107.826 801 107.826 801 107.825 801H64.0073C60.5134 801 58.6988 796.835 61.0779 794.276L97.0388 755.601C97.7269 754.861 98.1094 753.887 98.1094 752.877V675.915C98.1094 673.201 100.31 671 103.024 671H488.279C493.708 671 498.109 675.401 498.109 680.83V791.17C498.109 796.599 493.708 801 488.279 801H107.939C107.902 801 107.865 800.998 107.827 800.998Z" fill="white"/>
<path d="M98.1094 675.915L95.1094 675.915V675.915H98.1094ZM103.024 671V668H103.024L103.024 671ZM488.279 671L488.279 668H488.279V671ZM498.109 680.83H501.109V680.83L498.109 680.83ZM498.109 791.17L501.109 791.17V791.17H498.109ZM488.279 801V804H488.279L488.279 801ZM107.939 801L107.939 804H107.939V801ZM97.0388 755.601L99.2358 757.643L97.0388 755.601ZM61.0779 794.276L63.275 796.319L61.0779 794.276ZM107.827 800.998L107.863 797.998L107.827 800.998ZM107.825 801V798H64.0073V801V804H107.825V801ZM61.0779 794.276L63.275 796.319L99.2358 757.643L97.0388 755.601L94.8417 753.558L58.8809 792.233L61.0779 794.276ZM98.1094 752.877H101.109V675.915H98.1094H95.1094V752.877H98.1094ZM98.1094 675.915L101.109 675.915C101.109 674.857 101.967 674 103.024 674L103.024 671L103.024 668C98.6531 668 95.1094 671.544 95.1094 675.915L98.1094 675.915ZM103.024 671V674H488.279V671V668H103.024V671ZM488.279 671L488.279 674C492.051 674 495.109 677.058 495.109 680.83L498.109 680.83L501.109 680.83C501.109 673.744 495.365 668 488.279 668L488.279 671ZM498.109 680.83H495.109V791.17H498.109H501.109V680.83H498.109ZM498.109 791.17L495.109 791.17C495.109 794.942 492.051 798 488.279 798L488.279 801L488.279 804C495.365 804 501.109 798.256 501.109 791.17L498.109 791.17ZM488.279 801V798H107.939V801V804H488.279V801ZM107.939 801L107.939 798C107.95 798 107.957 798 107.959 798C107.96 798 107.959 798 107.952 798C107.948 798 107.945 798 107.939 798C107.934 798 107.928 797.999 107.92 797.999C107.906 797.999 107.886 797.999 107.863 797.998L107.827 800.998L107.792 803.998C107.787 803.998 107.786 803.998 107.79 803.998C107.797 803.998 107.799 803.998 107.814 803.998C107.836 803.999 107.884 804 107.939 804L107.939 801ZM97.0388 755.601L99.2358 757.643C100.44 756.348 101.109 754.645 101.109 752.877H98.1094H95.1094C95.1094 753.13 95.0138 753.373 94.8417 753.558L97.0388 755.601ZM64.0073 801V798C63.1339 798 62.6802 796.959 63.275 796.319L61.0779 794.276L58.8809 792.233C54.7174 796.711 57.893 804 64.0073 804V801ZM107.826 800.999H104.826C104.826 799.343 106.169 798 107.825 798V801V804C109.483 804 110.826 802.656 110.826 800.999H107.826ZM107.826 800.999H110.826C110.826 802.668 109.463 804.018 107.792 803.998L107.827 800.998L107.863 797.998C106.19 797.979 104.826 799.329 104.826 800.999H107.826Z" fill="#151B37" mask="url(#path-12-outside-5_403_785)"/>
</g>
</g>
<defs>
<filter id="filter0_d_403_785" x="0" y="0" width="654" height="885.05" filterUnits="userSpaceOnUse" color-interpolation-filters="sRGB">
<feFlood flood-opacity="0" result="BackgroundImageFix"/>
<feColorMatrix in="SourceAlpha" type="matrix" values="0 0 0 0 0 0 0 0 0 0 0 0 0 0 0 0 0 0 127 0" result="hardAlpha"/>
<feOffset dy="12.0497"/>
<feComposite in2="hardAlpha" operator="out"/>
<feColorMatrix type="matrix" values="0 0 0 0 0.0823529 0 0 0 0 0.105882 0 0 0 0 0.215686 0 0 0 1 0"/>
<feBlend mode="normal" in2="BackgroundImageFix" result="effect1_dropShadow_403_785"/>
<feBlend mode="normal" in="SourceGraphic" in2="effect1_dropShadow_403_785" result="shape"/>
</filter>
<filter id="filter1_d_403_785" x="56.9941" y="139" width="449.891" height="133.126" filterUnits="userSpaceOnUse" color-interpolation-filters="sRGB">
<feFlood flood-opacity="0" result="BackgroundImageFix"/>
<feColorMatrix in="SourceAlpha" type="matrix" values="0 0 0 0 0 0 0 0 0 0 0 0 0 0 0 0 0 0 127 0" result="hardAlpha"/>
<feOffset dx="5.77623" dy="4.12588"/>
<feComposite in2="hardAlpha" operator="out"/>
<feColorMatrix type="matrix" values="0 0 0 0 0 0 0 0 0 0 0 0 0 0 0 0 0 0 1 0"/>
<feBlend mode="normal" in2="BackgroundImageFix" result="effect1_dropShadow_403_785"/>
<feBlend mode="normal" in="SourceGraphic" in2="effect1_dropShadow_403_785" result="shape"/>
</filter>
<filter id="filter2_d_403_785" x="353.783" y="298" width="248.999" height="68.1259" filterUnits="userSpaceOnUse" color-interpolation-filters="sRGB">
<feFlood flood-opacity="0" result="BackgroundImageFix"/>
<feColorMatrix in="SourceAlpha" type="matrix" values="0 0 0 0 0 0 0 0 0 0 0 0 0 0 0 0 0 0 127 0" result="hardAlpha"/>
<feOffset dx="5.77623" dy="4.12588"/>
<feComposite in2="hardAlpha" operator="out"/>
<feColorMatrix type="matrix" values="0 0 0 0 0 0 0 0 0 0 0 0 0 0 0 0 0 0 1 0"/>
<feBlend mode="normal" in2="BackgroundImageFix" result="effect1_dropShadow_403_785"/>
<feBlend mode="normal" in="SourceGraphic" in2="effect1_dropShadow_403_785" result="shape"/>
</filter>
<filter id="filter3_d_403_785" x="56.9941" y="392" width="449.891" height="156.126" filterUnits="userSpaceOnUse" color-interpolation-filters="sRGB">
<feFlood flood-opacity="0" result="BackgroundImageFix"/>
<feColorMatrix in="SourceAlpha" type="matrix" values="0 0 0 0 0 0 0 0 0 0 0 0 0 0 0 0 0 0 127 0" result="hardAlpha"/>
<feOffset dx="5.77623" dy="4.12588"/>
<feComposite in2="hardAlpha" operator="out"/>
<feColorMatrix type="matrix" values="0 0 0 0 0 0 0 0 0 0 0 0 0 0 0 0 0 0 1 0"/>
<feBlend mode="normal" in2="BackgroundImageFix" result="effect1_dropShadow_403_785"/>
<feBlend mode="normal" in="SourceGraphic" in2="effect1_dropShadow_403_785" result="shape"/>
</filter>
<filter id="filter4_d_403_785" x="409.783" y="574" width="192.999" height="68.1259" filterUnits="userSpaceOnUse" color-interpolation-filters="sRGB">
<feFlood flood-opacity="0" result="BackgroundImageFix"/>
<feColorMatrix in="SourceAlpha" type="matrix" values="0 0 0 0 0 0 0 0 0 0 0 0 0 0 0 0 0 0 127 0" result="hardAlpha"/>
<feOffset dx="5.77623" dy="4.12588"/>
<feComposite in2="hardAlpha" operator="out"/>
<feColorMatrix type="matrix" values="0 0 0 0 0 0 0 0 0 0 0 0 0 0 0 0 0 0 1 0"/>
<feBlend mode="normal" in2="BackgroundImageFix" result="effect1_dropShadow_403_785"/>
<feBlend mode="normal" in="SourceGraphic" in2="effect1_dropShadow_403_785" result="shape"/>
</filter>
<filter id="filter5_d_403_785" x="56.9941" y="668" width="449.891" height="140.126" filterUnits="userSpaceOnUse" color-interpolation-filters="sRGB">
<feFlood flood-opacity="0" result="BackgroundImageFix"/>
<feColorMatrix in="SourceAlpha" type="matrix" values="0 0 0 0 0 0 0 0 0 0 0 0 0 0 0 0 0 0 127 0" result="hardAlpha"/>
<feOffset dx="5.77623" dy="4.12588"/>
<feComposite in2="hardAlpha" operator="out"/>
<feColorMatrix type="matrix" values="0 0 0 0 0 0 0 0 0 0 0 0 0 0 0 0 0 0 1 0"/>
<feBlend mode="normal" in2="BackgroundImageFix" result="effect1_dropShadow_403_785"/>
<feBlend mode="normal" in="SourceGraphic" in2="effect1_dropShadow_403_785" result="shape"/>
</filter>
</defs>
</svg>
