<svg width="716" height="768" viewBox="0 0 716 768" fill="none" xmlns="http://www.w3.org/2000/svg">
<g filter="url(#filter0_d_454_1329)">
<rect width="716" height="755" rx="36" fill="#FDE192" shape-rendering="crispEdges"/>
<rect x="3" y="3" width="710" height="749" rx="33" stroke="#151B37" stroke-width="6" shape-rendering="crispEdges"/>
<g filter="url(#filter1_d_454_1329)">
<rect x="155" y="78" width="367" height="590.805" rx="12" fill="white"/>
<rect x="153" y="76" width="371" height="594.805" rx="14" stroke="#151B37" stroke-width="4"/>
<path d="M197.586 138H193.164V127.125H197.586C199.844 127.125 201.625 128.055 202.57 129.703C203.047 130.523 203.281 131.477 203.281 132.562C203.281 133.648 203.047 134.602 202.57 135.422C202.094 136.242 201.43 136.883 200.57 137.328C199.711 137.773 198.719 138 197.586 138ZM195.367 136.219H197.43C199.664 136.219 200.984 134.859 200.984 132.562C200.984 130.266 199.664 128.906 197.43 128.906H195.367V136.219ZM212.586 133.773C212.586 134.18 212.57 134.469 212.531 134.633H206.297C206.391 135.867 207.266 136.672 208.523 136.672C209.516 136.672 210.242 136.234 210.469 135.516H212.445C212.055 137.188 210.57 138.258 208.508 138.258C206.859 138.258 205.523 137.516 204.805 136.227C204.445 135.578 204.266 134.836 204.266 134C204.266 132.336 205.055 131 206.336 130.281C206.977 129.93 207.688 129.75 208.477 129.75C210.109 129.75 211.391 130.461 212.078 131.68C212.414 132.289 212.586 132.984 212.586 133.773ZM208.508 131.312C207.305 131.312 206.43 132.109 206.305 133.281H210.641C210.578 132.109 209.719 131.312 208.508 131.312ZM217.078 138.258C214.992 138.258 213.664 137.25 213.414 135.578H215.406C215.531 136.336 216.117 136.789 217.094 136.789C217.93 136.789 218.445 136.43 218.445 135.867C218.445 135.266 218.102 134.992 216.844 134.773C214.578 134.367 213.734 133.695 213.734 132.195C213.734 130.734 215.023 129.75 216.922 129.75C218.891 129.75 220.039 130.656 220.25 132.336H218.312C218.188 131.562 217.758 131.211 216.938 131.211C216.164 131.211 215.68 131.539 215.68 132.078C215.68 132.68 216.07 132.938 217.25 133.141C218.812 133.398 219.688 133.805 220.102 134.469C220.305 134.805 220.406 135.227 220.406 135.742C220.406 136.711 219.812 137.508 218.805 137.938C218.297 138.148 217.727 138.258 217.078 138.258ZM225.695 138.258C224 138.258 222.625 137.492 221.891 136.203C221.523 135.555 221.336 134.828 221.336 134.008C221.336 132.359 222.109 131.016 223.43 130.289C224.094 129.93 224.844 129.75 225.695 129.75C227.359 129.75 228.594 130.469 229.25 131.508C229.57 132.031 229.758 132.586 229.805 133.172H227.828C227.641 132.117 226.852 131.469 225.727 131.469C224.328 131.469 223.383 132.492 223.383 134.008C223.383 135.516 224.328 136.539 225.727 136.539C226.852 136.539 227.641 135.891 227.828 134.836H229.805C229.711 136.016 229.062 137.117 227.852 137.766C227.25 138.094 226.531 138.258 225.695 138.258ZM233.156 138H231.148V130.008H232.562C232.586 130.406 232.625 130.672 232.672 130.805C232.719 130.945 232.789 131.016 232.883 131.016C232.969 131.016 233.008 130.977 233.078 130.852C233.43 130.234 234.094 129.883 234.977 129.883C235.242 129.883 235.461 129.906 235.625 129.945V131.703C235.336 131.656 235.086 131.633 234.875 131.633C234.289 131.633 233.891 131.773 233.602 132.078C233.305 132.391 233.156 132.898 233.156 133.602V138ZM237.891 128.914C237.188 128.914 236.656 128.406 236.656 127.75C236.656 127.07 237.172 126.586 237.891 126.586C238.594 126.586 239.125 127.094 239.125 127.75C239.125 128.406 238.594 128.914 237.891 128.914ZM238.891 130.008V138H236.883V130.008H238.891ZM242.844 141.359H240.836V130.008H242.32C242.328 130.312 242.359 130.578 242.414 130.797C242.453 131.008 242.516 131.094 242.648 131.094C242.75 131.094 242.828 131.047 242.961 130.891C243.633 130.141 244.523 129.766 245.625 129.766C247.133 129.766 248.406 130.547 249.102 131.836C249.445 132.484 249.617 133.203 249.617 134.008C249.617 134.812 249.445 135.531 249.094 136.18C248.742 136.828 248.258 137.336 247.641 137.703C247.023 138.078 246.328 138.258 245.57 138.258C244.57 138.258 243.742 137.906 243.188 137.344C243.094 137.258 243.055 137.234 242.984 137.234C242.891 137.234 242.844 137.312 242.844 137.469V141.359ZM245.188 136.531C246.586 136.531 247.562 135.5 247.562 134.008C247.562 132.516 246.586 131.484 245.188 131.484C244.516 131.484 243.961 131.695 243.531 132.117C243.062 132.562 242.789 133.227 242.789 134.008C242.789 134.789 243.062 135.453 243.531 135.898C243.961 136.32 244.516 136.531 245.188 136.531ZM254.422 138.102C252.492 138.102 251.602 137.258 251.602 135.25V131.641H250.078V130.008H250.977C251.562 130.008 251.836 129.82 251.969 129.344C252.016 129.156 252.062 128.906 252.109 128.602C252.148 128.297 252.188 128.008 252.211 127.742H253.578V130.008H255.695V131.641H253.578V135.07C253.578 136.094 253.945 136.492 254.875 136.492C255.18 136.492 255.5 136.453 255.828 136.375V137.898C255.672 137.953 255.461 138.008 255.188 138.047C254.914 138.086 254.664 138.102 254.422 138.102ZM258.109 128.914C257.406 128.914 256.875 128.406 256.875 127.75C256.875 127.07 257.391 126.586 258.109 126.586C258.812 126.586 259.344 127.094 259.344 127.75C259.344 128.406 258.812 128.914 258.109 128.914ZM259.109 130.008V138H257.102V130.008H259.109ZM264.992 138.258C263.297 138.258 261.891 137.484 261.125 136.195C260.742 135.547 260.547 134.82 260.547 134.008C260.547 133.195 260.742 132.461 261.125 131.812C261.508 131.164 262.031 130.664 262.711 130.297C263.383 129.93 264.141 129.75 264.992 129.75C265.844 129.75 266.602 129.93 267.281 130.297C267.961 130.664 268.484 131.164 268.867 131.812C269.25 132.461 269.438 133.188 269.438 134.008C269.438 135.633 268.633 136.984 267.281 137.711C266.602 138.078 265.844 138.258 264.992 138.258ZM264.992 136.539C266.422 136.539 267.391 135.5 267.391 134.008C267.391 132.508 266.422 131.469 264.992 131.469C263.562 131.469 262.594 132.508 262.594 134.008C262.594 135.5 263.562 136.539 264.992 136.539ZM272.859 138H270.852V130.008H272.336C272.344 130.281 272.375 130.555 272.422 130.812C272.477 131.055 272.547 131.141 272.68 131.141C272.797 131.141 272.852 131.102 272.984 130.938C273.586 130.156 274.398 129.75 275.5 129.75C277.406 129.75 278.5 130.945 278.5 133.039V138H276.5V133.375C276.5 132.188 275.953 131.531 274.953 131.531C274.289 131.531 273.781 131.781 273.414 132.273C273.047 132.773 272.859 133.484 272.859 134.398V138ZM286.094 138H283.898V127.125H288.32C290.797 127.125 292.25 128.516 292.25 130.711C292.25 132.906 290.797 134.297 288.312 134.297H286.094V138ZM286.094 132.586H288.109C289.391 132.586 290.07 131.93 290.07 130.719C290.07 129.5 289.391 128.844 288.109 128.844H286.094V132.586ZM297.289 138.258C295.594 138.258 294.188 137.484 293.422 136.195C293.039 135.547 292.844 134.82 292.844 134.008C292.844 133.195 293.039 132.461 293.422 131.812C293.805 131.164 294.328 130.664 295.008 130.297C295.68 129.93 296.438 129.75 297.289 129.75C298.141 129.75 298.898 129.93 299.578 130.297C300.258 130.664 300.781 131.164 301.164 131.812C301.547 132.461 301.734 133.188 301.734 134.008C301.734 135.633 300.93 136.984 299.578 137.711C298.898 138.078 298.141 138.258 297.289 138.258ZM297.289 136.539C298.719 136.539 299.688 135.5 299.688 134.008C299.688 132.508 298.719 131.469 297.289 131.469C295.859 131.469 294.891 132.508 294.891 134.008C294.891 135.5 295.859 136.539 297.289 136.539ZM306.203 138.258C304.117 138.258 302.789 137.25 302.539 135.578H304.531C304.656 136.336 305.242 136.789 306.219 136.789C307.055 136.789 307.57 136.43 307.57 135.867C307.57 135.266 307.227 134.992 305.969 134.773C303.703 134.367 302.859 133.695 302.859 132.195C302.859 130.734 304.148 129.75 306.047 129.75C308.016 129.75 309.164 130.656 309.375 132.336H307.438C307.312 131.562 306.883 131.211 306.062 131.211C305.289 131.211 304.805 131.539 304.805 132.078C304.805 132.68 305.195 132.938 306.375 133.141C307.938 133.398 308.812 133.805 309.227 134.469C309.43 134.805 309.531 135.227 309.531 135.742C309.531 136.711 308.938 137.508 307.93 137.938C307.422 138.148 306.852 138.258 306.203 138.258ZM314.469 138.102C312.539 138.102 311.648 137.258 311.648 135.25V131.641H310.125V130.008H311.023C311.609 130.008 311.883 129.82 312.016 129.344C312.062 129.156 312.109 128.906 312.156 128.602C312.195 128.297 312.234 128.008 312.258 127.742H313.625V130.008H315.742V131.641H313.625V135.07C313.625 136.094 313.992 136.492 314.922 136.492C315.227 136.492 315.547 136.453 315.875 136.375V137.898C315.719 137.953 315.508 138.008 315.234 138.047C314.961 138.086 314.711 138.102 314.469 138.102Z" fill="black"/>
<rect x="192" y="149" width="293" height="183" rx="6" fill="#F2EEEB"/>
<path opacity="0.3" d="M217.011 172.057V180H215.09V172.057H212.191V170.484H219.916V172.057H217.011ZM221.304 173.007L223.231 178.059L225.118 173.007H226.943L222.835 182.939H221.023L222.247 179.993L219.355 173.007H221.304ZM229.562 182.939H227.805V173.007H229.104C229.11 173.273 229.138 173.506 229.186 173.697C229.22 173.882 229.274 173.957 229.391 173.957C229.479 173.957 229.548 173.916 229.664 173.779C230.252 173.123 231.031 172.795 231.995 172.795C233.314 172.795 234.429 173.479 235.037 174.606C235.338 175.174 235.488 175.803 235.488 176.507C235.488 177.211 235.338 177.84 235.03 178.407C234.723 178.975 234.299 179.419 233.759 179.74C233.219 180.068 232.61 180.226 231.947 180.226C231.072 180.226 230.348 179.918 229.862 179.426C229.78 179.351 229.746 179.33 229.685 179.33C229.603 179.33 229.562 179.398 229.562 179.535V182.939ZM231.612 178.715C232.836 178.715 233.69 177.812 233.69 176.507C233.69 175.201 232.836 174.299 231.612 174.299C231.024 174.299 230.539 174.483 230.163 174.853C229.753 175.242 229.514 175.823 229.514 176.507C229.514 177.19 229.753 177.771 230.163 178.161C230.539 178.53 231.024 178.715 231.612 178.715ZM243.582 176.302C243.582 176.657 243.568 176.91 243.534 177.054H238.079C238.161 178.134 238.927 178.838 240.027 178.838C240.896 178.838 241.531 178.455 241.729 177.826H243.459C243.117 179.289 241.818 180.226 240.014 180.226C238.571 180.226 237.402 179.576 236.773 178.448C236.459 177.881 236.302 177.231 236.302 176.5C236.302 175.044 236.992 173.875 238.113 173.246C238.674 172.938 239.296 172.781 239.986 172.781C241.415 172.781 242.536 173.403 243.138 174.47C243.432 175.003 243.582 175.611 243.582 176.302ZM240.014 174.148C238.961 174.148 238.195 174.846 238.086 175.871H241.88C241.825 174.846 241.073 174.148 240.014 174.148ZM249.536 182.939H247.779V173.007H249.078C249.085 173.273 249.112 173.506 249.16 173.697C249.194 173.882 249.249 173.957 249.365 173.957C249.454 173.957 249.522 173.916 249.639 173.779C250.227 173.123 251.006 172.795 251.97 172.795C253.289 172.795 254.403 173.479 255.012 174.606C255.312 175.174 255.463 175.803 255.463 176.507C255.463 177.211 255.312 177.84 255.005 178.407C254.697 178.975 254.273 179.419 253.733 179.74C253.193 180.068 252.585 180.226 251.922 180.226C251.047 180.226 250.322 179.918 249.837 179.426C249.755 179.351 249.721 179.33 249.659 179.33C249.577 179.33 249.536 179.398 249.536 179.535V182.939ZM251.587 178.715C252.811 178.715 253.665 177.812 253.665 176.507C253.665 175.201 252.811 174.299 251.587 174.299C250.999 174.299 250.514 174.483 250.138 174.853C249.728 175.242 249.488 175.823 249.488 176.507C249.488 177.19 249.728 177.771 250.138 178.161C250.514 178.53 250.999 178.715 251.587 178.715ZM260.152 180.226C258.669 180.226 257.438 179.549 256.769 178.421C256.434 177.854 256.263 177.218 256.263 176.507C256.263 175.796 256.434 175.153 256.769 174.586C257.104 174.019 257.562 173.581 258.156 173.26C258.744 172.938 259.407 172.781 260.152 172.781C260.897 172.781 261.561 172.938 262.155 173.26C262.75 173.581 263.208 174.019 263.543 174.586C263.878 175.153 264.042 175.789 264.042 176.507C264.042 177.929 263.338 179.111 262.155 179.747C261.561 180.068 260.897 180.226 260.152 180.226ZM260.152 178.722C261.403 178.722 262.251 177.812 262.251 176.507C262.251 175.194 261.403 174.285 260.152 174.285C258.901 174.285 258.054 175.194 258.054 176.507C258.054 177.812 258.901 178.722 260.152 178.722ZM267.952 180.226C266.127 180.226 264.965 179.344 264.746 177.881H266.489C266.599 178.544 267.111 178.94 267.966 178.94C268.697 178.94 269.148 178.626 269.148 178.134C269.148 177.607 268.848 177.368 267.747 177.177C265.765 176.821 265.026 176.233 265.026 174.921C265.026 173.643 266.154 172.781 267.815 172.781C269.538 172.781 270.543 173.574 270.728 175.044H269.032C268.923 174.367 268.547 174.06 267.829 174.06C267.152 174.06 266.729 174.347 266.729 174.818C266.729 175.345 267.07 175.57 268.103 175.748C269.47 175.974 270.235 176.329 270.598 176.91C270.775 177.204 270.864 177.573 270.864 178.024C270.864 178.872 270.345 179.569 269.463 179.945C269.019 180.13 268.52 180.226 267.952 180.226ZM275.185 180.089C273.496 180.089 272.717 179.351 272.717 177.594V174.436H271.384V173.007H272.17C272.683 173.007 272.922 172.843 273.038 172.426C273.079 172.262 273.12 172.043 273.161 171.776C273.195 171.51 273.229 171.257 273.25 171.024H274.446V173.007H276.299V174.436H274.446V177.437C274.446 178.332 274.768 178.681 275.581 178.681C275.848 178.681 276.128 178.646 276.415 178.578V179.911C276.278 179.959 276.094 180.007 275.854 180.041C275.615 180.075 275.396 180.089 275.185 180.089ZM283.518 180.226C282.185 180.226 281.077 179.542 280.476 178.407C280.168 177.84 280.018 177.211 280.018 176.507C280.018 175.803 280.175 175.174 280.482 174.606C280.79 174.039 281.221 173.595 281.761 173.273C282.301 172.952 282.902 172.795 283.565 172.795C284.434 172.795 285.158 173.103 285.644 173.588C285.726 173.663 285.76 173.684 285.821 173.684C285.91 173.684 285.951 173.615 285.951 173.479V170.115H287.701V180H286.402C286.396 179.747 286.368 179.521 286.327 179.316C286.279 179.125 286.231 179.057 286.115 179.057C286.026 179.057 285.958 179.098 285.842 179.234C285.247 179.897 284.475 180.226 283.518 180.226ZM283.894 178.722C284.475 178.722 284.96 178.537 285.35 178.168C285.76 177.778 285.999 177.19 285.999 176.507C285.999 175.823 285.76 175.242 285.35 174.853C284.96 174.483 284.475 174.299 283.894 174.299C282.67 174.299 281.822 175.201 281.822 176.507C281.822 177.819 282.67 178.722 283.894 178.722ZM296.232 176.302C296.232 176.657 296.219 176.91 296.185 177.054H290.729C290.812 178.134 291.577 178.838 292.678 178.838C293.546 178.838 294.182 178.455 294.38 177.826H296.109C295.768 179.289 294.469 180.226 292.664 180.226C291.222 180.226 290.053 179.576 289.424 178.448C289.109 177.881 288.952 177.231 288.952 176.5C288.952 175.044 289.643 173.875 290.764 173.246C291.324 172.938 291.946 172.781 292.637 172.781C294.065 172.781 295.187 173.403 295.788 174.47C296.082 175.003 296.232 175.611 296.232 176.302ZM292.664 174.148C291.611 174.148 290.846 174.846 290.736 175.871H294.53C294.476 174.846 293.724 174.148 292.664 174.148ZM300.163 180.226C298.338 180.226 297.176 179.344 296.957 177.881H298.7C298.81 178.544 299.322 178.94 300.177 178.94C300.908 178.94 301.359 178.626 301.359 178.134C301.359 177.607 301.059 177.368 299.958 177.177C297.976 176.821 297.237 176.233 297.237 174.921C297.237 173.643 298.365 172.781 300.026 172.781C301.749 172.781 302.754 173.574 302.938 175.044H301.243C301.134 174.367 300.758 174.06 300.04 174.06C299.363 174.06 298.939 174.347 298.939 174.818C298.939 175.345 299.281 175.57 300.313 175.748C301.681 175.974 302.446 176.329 302.809 176.91C302.986 177.204 303.075 177.573 303.075 178.024C303.075 178.872 302.556 179.569 301.674 179.945C301.229 180.13 300.73 180.226 300.163 180.226ZM307.703 180.226C306.22 180.226 305.017 179.556 304.374 178.428C304.053 177.86 303.889 177.225 303.889 176.507C303.889 175.064 304.565 173.889 305.721 173.253C306.302 172.938 306.958 172.781 307.703 172.781C309.159 172.781 310.239 173.41 310.813 174.319C311.094 174.777 311.258 175.263 311.299 175.775H309.569C309.405 174.853 308.715 174.285 307.73 174.285C306.507 174.285 305.68 175.181 305.68 176.507C305.68 177.826 306.507 178.722 307.73 178.722C308.715 178.722 309.405 178.154 309.569 177.231H311.299C311.217 178.264 310.649 179.228 309.59 179.795C309.063 180.082 308.435 180.226 307.703 180.226ZM314.231 180H312.475V173.007H313.712C313.732 173.355 313.767 173.588 313.808 173.704C313.849 173.827 313.91 173.889 313.992 173.889C314.067 173.889 314.102 173.854 314.163 173.745C314.471 173.205 315.052 172.897 315.824 172.897C316.057 172.897 316.248 172.918 316.392 172.952V174.49C316.139 174.449 315.92 174.429 315.735 174.429C315.223 174.429 314.874 174.552 314.621 174.818C314.361 175.092 314.231 175.536 314.231 176.151V180ZM318.374 172.05C317.759 172.05 317.294 171.605 317.294 171.031C317.294 170.437 317.745 170.013 318.374 170.013C318.989 170.013 319.454 170.457 319.454 171.031C319.454 171.605 318.989 172.05 318.374 172.05ZM319.249 173.007V180H317.492V173.007H319.249ZM322.708 182.939H320.951V173.007H322.25C322.257 173.273 322.284 173.506 322.332 173.697C322.366 173.882 322.421 173.957 322.537 173.957C322.626 173.957 322.694 173.916 322.811 173.779C323.398 173.123 324.178 172.795 325.142 172.795C326.461 172.795 327.575 173.479 328.184 174.606C328.484 175.174 328.635 175.803 328.635 176.507C328.635 177.211 328.484 177.84 328.177 178.407C327.869 178.975 327.445 179.419 326.905 179.74C326.365 180.068 325.757 180.226 325.094 180.226C324.219 180.226 323.494 179.918 323.009 179.426C322.927 179.351 322.893 179.33 322.831 179.33C322.749 179.33 322.708 179.398 322.708 179.535V182.939ZM324.759 178.715C325.982 178.715 326.837 177.812 326.837 176.507C326.837 175.201 325.982 174.299 324.759 174.299C324.171 174.299 323.686 174.483 323.31 174.853C322.899 175.242 322.66 175.823 322.66 176.507C322.66 177.19 322.899 177.771 323.31 178.161C323.686 178.53 324.171 178.715 324.759 178.715ZM332.839 180.089C331.15 180.089 330.371 179.351 330.371 177.594V174.436H329.038V173.007H329.824C330.337 173.007 330.576 172.843 330.692 172.426C330.733 172.262 330.774 172.043 330.815 171.776C330.85 171.51 330.884 171.257 330.904 171.024H332.101V173.007H333.953V174.436H332.101V177.437C332.101 178.332 332.422 178.681 333.235 178.681C333.502 178.681 333.782 178.646 334.069 178.578V179.911C333.933 179.959 333.748 180.007 333.509 180.041C333.27 180.075 333.051 180.089 332.839 180.089ZM336.065 172.05C335.45 172.05 334.985 171.605 334.985 171.031C334.985 170.437 335.437 170.013 336.065 170.013C336.681 170.013 337.146 170.457 337.146 171.031C337.146 171.605 336.681 172.05 336.065 172.05ZM336.94 173.007V180H335.184V173.007H336.94ZM342.088 180.226C340.604 180.226 339.374 179.549 338.704 178.421C338.369 177.854 338.198 177.218 338.198 176.507C338.198 175.796 338.369 175.153 338.704 174.586C339.039 174.019 339.497 173.581 340.092 173.26C340.68 172.938 341.343 172.781 342.088 172.781C342.833 172.781 343.496 172.938 344.091 173.26C344.686 173.581 345.144 174.019 345.479 174.586C345.813 175.153 345.978 175.789 345.978 176.507C345.978 177.929 345.273 179.111 344.091 179.747C343.496 180.068 342.833 180.226 342.088 180.226ZM342.088 178.722C343.339 178.722 344.187 177.812 344.187 176.507C344.187 175.194 343.339 174.285 342.088 174.285C340.837 174.285 339.989 175.194 339.989 176.507C339.989 177.812 340.837 178.722 342.088 178.722ZM348.972 180H347.215V173.007H348.514C348.521 173.246 348.548 173.485 348.589 173.711C348.637 173.923 348.698 173.998 348.814 173.998C348.917 173.998 348.965 173.964 349.081 173.82C349.607 173.137 350.318 172.781 351.282 172.781C352.95 172.781 353.907 173.827 353.907 175.659V180H352.157V175.953C352.157 174.914 351.679 174.34 350.804 174.34C350.223 174.34 349.778 174.559 349.457 174.989C349.136 175.427 348.972 176.049 348.972 176.849V180ZM360.21 180H358.453V170.115H360.21V173.677C360.21 173.82 360.251 173.889 360.333 173.889C360.408 173.889 360.449 173.861 360.552 173.725C361.051 173.103 361.7 172.781 362.603 172.781C364.188 172.781 365.146 173.841 365.146 175.666V180H363.396V175.946C363.396 174.907 362.924 174.333 362.056 174.333C361.481 174.333 361.01 174.565 360.702 174.982C360.374 175.413 360.21 176.035 360.21 176.842V180ZM373.602 176.302C373.602 176.657 373.588 176.91 373.554 177.054H368.099C368.181 178.134 368.946 178.838 370.047 178.838C370.915 178.838 371.551 178.455 371.749 177.826H373.479C373.137 179.289 371.838 180.226 370.033 180.226C368.591 180.226 367.422 179.576 366.793 178.448C366.479 177.881 366.321 177.231 366.321 176.5C366.321 175.044 367.012 173.875 368.133 173.246C368.693 172.938 369.315 172.781 370.006 172.781C371.435 172.781 372.556 173.403 373.157 174.47C373.451 175.003 373.602 175.611 373.602 176.302ZM370.033 174.148C368.98 174.148 368.215 174.846 368.105 175.871H371.899C371.845 174.846 371.093 174.148 370.033 174.148ZM376.616 180H374.859V173.007H376.097C376.117 173.355 376.151 173.588 376.192 173.704C376.233 173.827 376.295 173.889 376.377 173.889C376.452 173.889 376.486 173.854 376.548 173.745C376.855 173.205 377.437 172.897 378.209 172.897C378.441 172.897 378.633 172.918 378.776 172.952V174.49C378.523 174.449 378.305 174.429 378.12 174.429C377.607 174.429 377.259 174.552 377.006 174.818C376.746 175.092 376.616 175.536 376.616 176.151V180ZM386.549 176.302C386.549 176.657 386.535 176.91 386.501 177.054H381.046C381.128 178.134 381.894 178.838 382.994 178.838C383.862 178.838 384.498 178.455 384.696 177.826H386.426C386.084 179.289 384.785 180.226 382.98 180.226C381.538 180.226 380.369 179.576 379.74 178.448C379.426 177.881 379.269 177.231 379.269 176.5C379.269 175.044 379.959 173.875 381.08 173.246C381.641 172.938 382.263 172.781 382.953 172.781C384.382 172.781 385.503 173.403 386.104 174.47C386.398 175.003 386.549 175.611 386.549 176.302ZM382.98 174.148C381.928 174.148 381.162 174.846 381.053 175.871H384.847C384.792 174.846 384.04 174.148 382.98 174.148Z" fill="#151B37"/>
<path d="M199.07 384.83V395.705H196.867V384.83H199.07ZM203.141 395.705H201.133V387.713H202.602C202.625 388.002 202.656 388.26 202.695 388.502C202.75 388.752 202.828 388.853 202.961 388.853C203.062 388.853 203.102 388.822 203.25 388.658C203.898 387.853 204.641 387.455 205.617 387.455C206.719 387.455 207.422 387.861 207.898 388.713C208.031 388.939 208.094 389.002 208.211 389.002C208.328 389.002 208.406 388.947 208.562 388.736C209.227 387.838 209.961 387.455 210.992 387.455C212.734 387.455 213.781 388.674 213.781 390.689V395.705H211.773V391.017C211.773 389.869 211.273 389.22 210.367 389.22C209.773 389.22 209.297 389.486 208.938 390.01C208.617 390.486 208.461 391.166 208.461 392.049V395.705H206.461V391.017C206.461 389.869 205.961 389.22 205.047 389.22C204.445 389.22 203.977 389.486 203.625 390.01C203.305 390.502 203.141 391.181 203.141 392.049V395.705ZM219.07 387.455C221.312 387.455 222.516 388.642 222.516 390.806V395.705H221.047C221.023 395.322 220.984 395.049 220.938 394.885C220.883 394.752 220.836 394.689 220.742 394.689C220.625 394.689 220.578 394.736 220.453 394.9C219.914 395.619 219.164 395.955 218.094 395.955C216.359 395.955 215.133 394.994 215.133 393.377C215.133 391.877 216.203 391.056 218.32 390.931C219.383 390.861 220.141 390.767 220.586 390.65V390.635C220.586 389.58 220.023 389.017 219.023 389.017C218.148 389.017 217.57 389.455 217.383 390.166H215.383C215.711 388.564 217.031 387.455 219.07 387.455ZM220.297 393.51C220.492 393.127 220.586 392.642 220.586 392.049V391.916C220.219 392.041 219.648 392.119 218.617 392.213C217.555 392.314 217.133 392.642 217.133 393.299C217.133 394.049 217.695 394.47 218.594 394.47C219.414 394.47 219.977 394.15 220.297 393.51ZM228.344 399.205C226.008 399.205 224.516 397.869 224.164 396.189H226.172C226.43 397.095 227.258 397.642 228.359 397.642C229.703 397.642 230.438 396.947 230.438 395.603V394.666C230.438 394.533 230.398 394.47 230.312 394.47C230.25 394.47 230.203 394.502 230.117 394.595C229.562 395.181 228.758 395.478 227.789 395.478C226.312 395.478 225.062 394.752 224.383 393.549C224.047 392.947 223.875 392.275 223.875 391.525C223.875 389.931 224.617 388.658 225.789 387.978C226.375 387.642 227.016 387.47 227.719 387.47C228.742 387.47 229.531 387.814 230.242 388.533C230.406 388.697 230.477 388.744 230.578 388.744C230.695 388.744 230.766 388.658 230.805 388.447C230.844 388.283 230.875 388.033 230.898 387.713H232.375V395.478C232.375 397.845 230.789 399.205 228.344 399.205ZM228.203 393.853C228.836 393.853 229.391 393.65 229.773 393.275C230.211 392.861 230.461 392.244 230.461 391.525C230.461 390.814 230.211 390.197 229.773 389.783C229.391 389.408 228.836 389.197 228.203 389.197C226.852 389.197 225.93 390.15 225.93 391.525C225.93 392.9 226.852 393.853 228.203 393.853ZM242.117 391.478C242.117 391.885 242.102 392.174 242.062 392.338H235.828C235.922 393.572 236.797 394.377 238.055 394.377C239.047 394.377 239.773 393.939 240 393.22H241.977C241.586 394.892 240.102 395.963 238.039 395.963C236.391 395.963 235.055 395.22 234.336 393.931C233.977 393.283 233.797 392.541 233.797 391.705C233.797 390.041 234.586 388.705 235.867 387.986C236.508 387.635 237.219 387.455 238.008 387.455C239.641 387.455 240.922 388.166 241.609 389.385C241.945 389.994 242.117 390.689 242.117 391.478ZM238.039 389.017C236.836 389.017 235.961 389.814 235.836 390.986H240.172C240.109 389.814 239.25 389.017 238.039 389.017ZM249.398 384.83H250.93V395.705H248.844V388.142C248.242 388.713 247.273 389.158 246.281 389.306V387.385C247.914 387.095 249 386.181 249.398 384.83Z" fill="#151B37"/>
<rect x="195.703" y="410.705" width="81.2949" height="79.9928" rx="4" fill="#F2EEEB"/>
<g clip-path="url(#clip0_454_1329)">
<rect opacity="0.67" x="209" y="423" width="55" height="54" fill="white"/>
<path d="M208.539 478.698L223.107 457.136C223.695 456.266 224.975 456.262 225.568 457.13L231.804 466.25L246.387 445.28C246.976 444.433 248.227 444.427 248.823 445.269L264.904 467.96V478.698H208.539Z" fill="#6174D1"/>
<circle cx="224.165" cy="441.121" r="4.74357" fill="#6174D1"/>
<path d="M212.168 422.705V424.193H209.191V427.17H207.703V422.705H212.168Z" fill="#6174D1"/>
<path d="M212.168 422.705V424.193H209.191V427.17H207.703V422.705H212.168Z" fill="#6174D1"/>
<path d="M260.535 422.705V424.193H263.512V427.17H265V422.705H260.535Z" fill="#6174D1"/>
<path d="M260.535 422.705V424.193H263.512V427.17H265V422.705H260.535Z" fill="#6174D1"/>
<rect x="215.891" y="424.193" width="1.48818" height="7.4409" transform="rotate(-90 215.891 424.193)" fill="#6174D1"/>
<rect width="1.48818" height="7.4409" transform="matrix(1 8.74228e-08 8.74228e-08 -1 263.508 471.815)" fill="#6174D1"/>
<rect x="215.891" y="424.193" width="1.48818" height="7.4409" transform="rotate(-90 215.891 424.193)" fill="#6174D1"/>
<rect width="1.48818" height="14.3237" transform="matrix(1 8.74228e-08 8.74228e-08 -1 263.508 478.697)" fill="#6174D1"/>
<rect width="1.48818" height="7.4409" transform="matrix(1 8.74228e-08 8.74228e-08 -1 207.703 471.815)" fill="#6174D1"/>
<rect width="1.48818" height="3.16238" transform="matrix(1 8.74228e-08 8.74228e-08 -1 207.703 478.697)" fill="#6174D1"/>
<rect x="227.051" y="424.193" width="1.48818" height="7.4409" transform="rotate(-90 227.051 424.193)" fill="#6174D1"/>
<rect width="1.48818" height="7.4409" transform="matrix(1 8.74228e-08 8.74228e-08 -1 263.508 460.653)" fill="#6174D1"/>
<rect x="227.051" y="424.193" width="1.48818" height="7.4409" transform="rotate(-90 227.051 424.193)" fill="#6174D1"/>
<rect width="1.48818" height="7.4409" transform="matrix(1 8.74228e-08 8.74228e-08 -1 263.508 460.653)" fill="#6174D1"/>
<rect width="1.48818" height="7.4409" transform="matrix(1 8.74228e-08 8.74228e-08 -1 207.703 460.653)" fill="#6174D1"/>
<rect x="238.211" y="424.193" width="1.48818" height="7.4409" transform="rotate(-90 238.211 424.193)" fill="#6174D1"/>
<rect width="1.48818" height="7.4409" transform="matrix(1 8.74228e-08 8.74228e-08 -1 263.508 449.492)" fill="#6174D1"/>
<rect x="238.211" y="424.193" width="1.48818" height="7.4409" transform="rotate(-90 238.211 424.193)" fill="#6174D1"/>
<rect width="1.48818" height="7.4409" transform="matrix(1 8.74228e-08 8.74228e-08 -1 263.508 449.492)" fill="#6174D1"/>
<rect width="1.48818" height="7.4409" transform="matrix(1 8.74228e-08 8.74228e-08 -1 207.703 449.492)" fill="#6174D1"/>
<rect x="249.371" y="424.193" width="1.48818" height="7.4409" transform="rotate(-90 249.371 424.193)" fill="#6174D1"/>
<rect width="1.48818" height="7.4409" transform="matrix(1 8.74228e-08 8.74228e-08 -1 263.508 438.331)" fill="#6174D1"/>
<rect x="249.371" y="424.193" width="1.48818" height="7.4409" transform="rotate(-90 249.371 424.193)" fill="#6174D1"/>
<rect width="1.48818" height="7.4409" transform="matrix(1 8.74228e-08 8.74228e-08 -1 263.508 438.331)" fill="#6174D1"/>
<rect width="1.48818" height="7.4409" transform="matrix(1 8.74228e-08 8.74228e-08 -1 207.703 438.331)" fill="#6174D1"/>
</g>
<path d="M299.773 384.83V395.705H297.57V384.83H299.773ZM303.844 395.705H301.836V387.713H303.305C303.328 388.002 303.359 388.26 303.398 388.502C303.453 388.752 303.531 388.853 303.664 388.853C303.766 388.853 303.805 388.822 303.953 388.658C304.602 387.853 305.344 387.455 306.32 387.455C307.422 387.455 308.125 387.861 308.602 388.713C308.734 388.939 308.797 389.002 308.914 389.002C309.031 389.002 309.109 388.947 309.266 388.736C309.93 387.838 310.664 387.455 311.695 387.455C313.438 387.455 314.484 388.674 314.484 390.689V395.705H312.477V391.017C312.477 389.869 311.977 389.22 311.07 389.22C310.477 389.22 310 389.486 309.641 390.01C309.32 390.486 309.164 391.166 309.164 392.049V395.705H307.164V391.017C307.164 389.869 306.664 389.22 305.75 389.22C305.148 389.22 304.68 389.486 304.328 390.01C304.008 390.502 303.844 391.181 303.844 392.049V395.705ZM319.773 387.455C322.016 387.455 323.219 388.642 323.219 390.806V395.705H321.75C321.727 395.322 321.688 395.049 321.641 394.885C321.586 394.752 321.539 394.689 321.445 394.689C321.328 394.689 321.281 394.736 321.156 394.9C320.617 395.619 319.867 395.955 318.797 395.955C317.062 395.955 315.836 394.994 315.836 393.377C315.836 391.877 316.906 391.056 319.023 390.931C320.086 390.861 320.844 390.767 321.289 390.65V390.635C321.289 389.58 320.727 389.017 319.727 389.017C318.852 389.017 318.273 389.455 318.086 390.166H316.086C316.414 388.564 317.734 387.455 319.773 387.455ZM321 393.51C321.195 393.127 321.289 392.642 321.289 392.049V391.916C320.922 392.041 320.352 392.119 319.32 392.213C318.258 392.314 317.836 392.642 317.836 393.299C317.836 394.049 318.398 394.47 319.297 394.47C320.117 394.47 320.68 394.15 321 393.51ZM329.047 399.205C326.711 399.205 325.219 397.869 324.867 396.189H326.875C327.133 397.095 327.961 397.642 329.062 397.642C330.406 397.642 331.141 396.947 331.141 395.603V394.666C331.141 394.533 331.102 394.47 331.016 394.47C330.953 394.47 330.906 394.502 330.82 394.595C330.266 395.181 329.461 395.478 328.492 395.478C327.016 395.478 325.766 394.752 325.086 393.549C324.75 392.947 324.578 392.275 324.578 391.525C324.578 389.931 325.32 388.658 326.492 387.978C327.078 387.642 327.719 387.47 328.422 387.47C329.445 387.47 330.234 387.814 330.945 388.533C331.109 388.697 331.18 388.744 331.281 388.744C331.398 388.744 331.469 388.658 331.508 388.447C331.547 388.283 331.578 388.033 331.602 387.713H333.078V395.478C333.078 397.845 331.492 399.205 329.047 399.205ZM328.906 393.853C329.539 393.853 330.094 393.65 330.477 393.275C330.914 392.861 331.164 392.244 331.164 391.525C331.164 390.814 330.914 390.197 330.477 389.783C330.094 389.408 329.539 389.197 328.906 389.197C327.555 389.197 326.633 390.15 326.633 391.525C326.633 392.9 327.555 393.853 328.906 393.853ZM342.82 391.478C342.82 391.885 342.805 392.174 342.766 392.338H336.531C336.625 393.572 337.5 394.377 338.758 394.377C339.75 394.377 340.477 393.939 340.703 393.22H342.68C342.289 394.892 340.805 395.963 338.742 395.963C337.094 395.963 335.758 395.22 335.039 393.931C334.68 393.283 334.5 392.541 334.5 391.705C334.5 390.041 335.289 388.705 336.57 387.986C337.211 387.635 337.922 387.455 338.711 387.455C340.344 387.455 341.625 388.166 342.312 389.385C342.648 389.994 342.82 390.689 342.82 391.478ZM338.742 389.017C337.539 389.017 336.664 389.814 336.539 390.986H340.875C340.812 389.814 339.953 389.017 338.742 389.017ZM350.102 384.83H351.633V395.705H349.547V388.142C348.945 388.713 347.977 389.158 346.984 389.306V387.385C348.617 387.095 349.703 386.181 350.102 384.83Z" fill="#151B37"/>
<rect x="296.406" y="410.705" width="81.2949" height="79.9928" rx="4" fill="#F2EEEB"/>
<g clip-path="url(#clip1_454_1329)">
<rect opacity="0.67" x="309.703" y="423" width="55" height="54" fill="white"/>
<path d="M309.242 478.698L323.81 457.136C324.398 456.266 325.679 456.262 326.271 457.13L332.507 466.25L347.09 445.28C347.679 444.433 348.93 444.427 349.526 445.269L365.607 467.96V478.698H309.242Z" fill="#6174D1"/>
<circle cx="324.869" cy="441.121" r="4.74357" fill="#6174D1"/>
<path d="M312.871 422.705V424.193H309.895V427.17H308.406V422.705H312.871Z" fill="#6174D1"/>
<path d="M312.871 422.705V424.193H309.895V427.17H308.406V422.705H312.871Z" fill="#6174D1"/>
<path d="M361.238 422.705V424.193H364.215V427.17H365.703V422.705H361.238Z" fill="#6174D1"/>
<path d="M361.238 422.705V424.193H364.215V427.17H365.703V422.705H361.238Z" fill="#6174D1"/>
<rect x="316.594" y="424.193" width="1.48818" height="7.4409" transform="rotate(-90 316.594 424.193)" fill="#6174D1"/>
<rect width="1.48818" height="7.4409" transform="matrix(1 8.74228e-08 8.74228e-08 -1 364.211 471.815)" fill="#6174D1"/>
<rect x="316.594" y="424.193" width="1.48818" height="7.4409" transform="rotate(-90 316.594 424.193)" fill="#6174D1"/>
<rect width="1.48818" height="14.3237" transform="matrix(1 8.74228e-08 8.74228e-08 -1 364.211 478.697)" fill="#6174D1"/>
<rect width="1.48818" height="7.4409" transform="matrix(1 8.74228e-08 8.74228e-08 -1 308.406 471.815)" fill="#6174D1"/>
<rect width="1.48818" height="3.16238" transform="matrix(1 8.74228e-08 8.74228e-08 -1 308.406 478.697)" fill="#6174D1"/>
<rect x="327.754" y="424.193" width="1.48818" height="7.4409" transform="rotate(-90 327.754 424.193)" fill="#6174D1"/>
<rect width="1.48818" height="7.4409" transform="matrix(1 8.74228e-08 8.74228e-08 -1 364.211 460.653)" fill="#6174D1"/>
<rect x="327.754" y="424.193" width="1.48818" height="7.4409" transform="rotate(-90 327.754 424.193)" fill="#6174D1"/>
<rect width="1.48818" height="7.4409" transform="matrix(1 8.74228e-08 8.74228e-08 -1 364.211 460.653)" fill="#6174D1"/>
<rect width="1.48818" height="7.4409" transform="matrix(1 8.74228e-08 8.74228e-08 -1 308.406 460.653)" fill="#6174D1"/>
<rect x="338.914" y="424.193" width="1.48818" height="7.4409" transform="rotate(-90 338.914 424.193)" fill="#6174D1"/>
<rect width="1.48818" height="7.4409" transform="matrix(1 8.74228e-08 8.74228e-08 -1 364.211 449.492)" fill="#6174D1"/>
<rect x="338.914" y="424.193" width="1.48818" height="7.4409" transform="rotate(-90 338.914 424.193)" fill="#6174D1"/>
<rect width="1.48818" height="7.4409" transform="matrix(1 8.74228e-08 8.74228e-08 -1 364.211 449.492)" fill="#6174D1"/>
<rect width="1.48818" height="7.4409" transform="matrix(1 8.74228e-08 8.74228e-08 -1 308.406 449.492)" fill="#6174D1"/>
<rect x="350.074" y="424.193" width="1.48818" height="7.4409" transform="rotate(-90 350.074 424.193)" fill="#6174D1"/>
<rect width="1.48818" height="7.4409" transform="matrix(1 8.74228e-08 8.74228e-08 -1 364.211 438.331)" fill="#6174D1"/>
<rect x="350.074" y="424.193" width="1.48818" height="7.4409" transform="rotate(-90 350.074 424.193)" fill="#6174D1"/>
<rect width="1.48818" height="7.4409" transform="matrix(1 8.74228e-08 8.74228e-08 -1 364.211 438.331)" fill="#6174D1"/>
<rect width="1.48818" height="7.4409" transform="matrix(1 8.74228e-08 8.74228e-08 -1 308.406 438.331)" fill="#6174D1"/>
</g>
<path d="M400.48 384.83V395.705H398.277V384.83H400.48ZM404.551 395.705H402.543V387.713H404.012C404.035 388.002 404.066 388.26 404.105 388.502C404.16 388.752 404.238 388.853 404.371 388.853C404.473 388.853 404.512 388.822 404.66 388.658C405.309 387.853 406.051 387.455 407.027 387.455C408.129 387.455 408.832 387.861 409.309 388.713C409.441 388.939 409.504 389.002 409.621 389.002C409.738 389.002 409.816 388.947 409.973 388.736C410.637 387.838 411.371 387.455 412.402 387.455C414.145 387.455 415.191 388.674 415.191 390.689V395.705H413.184V391.017C413.184 389.869 412.684 389.22 411.777 389.22C411.184 389.22 410.707 389.486 410.348 390.01C410.027 390.486 409.871 391.166 409.871 392.049V395.705H407.871V391.017C407.871 389.869 407.371 389.22 406.457 389.22C405.855 389.22 405.387 389.486 405.035 390.01C404.715 390.502 404.551 391.181 404.551 392.049V395.705ZM420.48 387.455C422.723 387.455 423.926 388.642 423.926 390.806V395.705H422.457C422.434 395.322 422.395 395.049 422.348 394.885C422.293 394.752 422.246 394.689 422.152 394.689C422.035 394.689 421.988 394.736 421.863 394.9C421.324 395.619 420.574 395.955 419.504 395.955C417.77 395.955 416.543 394.994 416.543 393.377C416.543 391.877 417.613 391.056 419.73 390.931C420.793 390.861 421.551 390.767 421.996 390.65V390.635C421.996 389.58 421.434 389.017 420.434 389.017C419.559 389.017 418.98 389.455 418.793 390.166H416.793C417.121 388.564 418.441 387.455 420.48 387.455ZM421.707 393.51C421.902 393.127 421.996 392.642 421.996 392.049V391.916C421.629 392.041 421.059 392.119 420.027 392.213C418.965 392.314 418.543 392.642 418.543 393.299C418.543 394.049 419.105 394.47 420.004 394.47C420.824 394.47 421.387 394.15 421.707 393.51ZM429.754 399.205C427.418 399.205 425.926 397.869 425.574 396.189H427.582C427.84 397.095 428.668 397.642 429.77 397.642C431.113 397.642 431.848 396.947 431.848 395.603V394.666C431.848 394.533 431.809 394.47 431.723 394.47C431.66 394.47 431.613 394.502 431.527 394.595C430.973 395.181 430.168 395.478 429.199 395.478C427.723 395.478 426.473 394.752 425.793 393.549C425.457 392.947 425.285 392.275 425.285 391.525C425.285 389.931 426.027 388.658 427.199 387.978C427.785 387.642 428.426 387.47 429.129 387.47C430.152 387.47 430.941 387.814 431.652 388.533C431.816 388.697 431.887 388.744 431.988 388.744C432.105 388.744 432.176 388.658 432.215 388.447C432.254 388.283 432.285 388.033 432.309 387.713H433.785V395.478C433.785 397.845 432.199 399.205 429.754 399.205ZM429.613 393.853C430.246 393.853 430.801 393.65 431.184 393.275C431.621 392.861 431.871 392.244 431.871 391.525C431.871 390.814 431.621 390.197 431.184 389.783C430.801 389.408 430.246 389.197 429.613 389.197C428.262 389.197 427.34 390.15 427.34 391.525C427.34 392.9 428.262 393.853 429.613 393.853ZM443.527 391.478C443.527 391.885 443.512 392.174 443.473 392.338H437.238C437.332 393.572 438.207 394.377 439.465 394.377C440.457 394.377 441.184 393.939 441.41 393.22H443.387C442.996 394.892 441.512 395.963 439.449 395.963C437.801 395.963 436.465 395.22 435.746 393.931C435.387 393.283 435.207 392.541 435.207 391.705C435.207 390.041 435.996 388.705 437.277 387.986C437.918 387.635 438.629 387.455 439.418 387.455C441.051 387.455 442.332 388.166 443.02 389.385C443.355 389.994 443.527 390.689 443.527 391.478ZM439.449 389.017C438.246 389.017 437.371 389.814 437.246 390.986H441.582C441.52 389.814 440.66 389.017 439.449 389.017ZM450.809 384.83H452.34V395.705H450.254V388.142C449.652 388.713 448.684 389.158 447.691 389.306V387.385C449.324 387.095 450.41 386.181 450.809 384.83Z" fill="#151B37"/>
<rect x="397.113" y="410.705" width="81.2949" height="79.9928" rx="4" fill="#6174D1"/>
<g clip-path="url(#clip2_454_1329)">
<rect opacity="0.67" x="410.406" y="423" width="55" height="54" fill="white"/>
<path d="M409.949 478.698L424.517 457.136C425.105 456.266 426.386 456.262 426.979 457.13L433.214 466.25L447.797 445.28C448.386 444.433 449.637 444.427 450.233 445.269L466.314 467.96V478.698H409.949Z" fill="#6174D1"/>
<circle cx="425.576" cy="441.121" r="4.74357" fill="#6174D1"/>
<path d="M413.578 422.705V424.193H410.602V427.17H409.113V422.705H413.578Z" fill="#6174D1"/>
<path d="M413.578 422.705V424.193H410.602V427.17H409.113V422.705H413.578Z" fill="#6174D1"/>
<path d="M461.941 422.705V424.193H464.918V427.17H466.406V422.705H461.941Z" fill="#6174D1"/>
<path d="M461.941 422.705V424.193H464.918V427.17H466.406V422.705H461.941Z" fill="#6174D1"/>
<rect x="417.297" y="424.193" width="1.48818" height="7.4409" transform="rotate(-90 417.297 424.193)" fill="#6174D1"/>
<rect width="1.48818" height="7.4409" transform="matrix(1 8.74228e-08 8.74228e-08 -1 464.922 471.815)" fill="#6174D1"/>
<rect x="417.297" y="424.193" width="1.48818" height="7.4409" transform="rotate(-90 417.297 424.193)" fill="#6174D1"/>
<rect width="1.48818" height="14.3237" transform="matrix(1 8.74228e-08 8.74228e-08 -1 464.922 478.697)" fill="#6174D1"/>
<rect width="1.48818" height="7.4409" transform="matrix(1 8.74228e-08 8.74228e-08 -1 409.113 471.815)" fill="#6174D1"/>
<rect width="1.48818" height="3.16238" transform="matrix(1 8.74228e-08 8.74228e-08 -1 409.113 478.697)" fill="#6174D1"/>
<rect x="428.461" y="424.193" width="1.48818" height="7.4409" transform="rotate(-90 428.461 424.193)" fill="#6174D1"/>
<rect width="1.48818" height="7.4409" transform="matrix(1 8.74228e-08 8.74228e-08 -1 464.922 460.653)" fill="#6174D1"/>
<rect x="428.461" y="424.193" width="1.48818" height="7.4409" transform="rotate(-90 428.461 424.193)" fill="#6174D1"/>
<rect width="1.48818" height="7.4409" transform="matrix(1 8.74228e-08 8.74228e-08 -1 464.922 460.653)" fill="#6174D1"/>
<rect width="1.48818" height="7.4409" transform="matrix(1 8.74228e-08 8.74228e-08 -1 409.113 460.653)" fill="#6174D1"/>
<rect x="439.621" y="424.193" width="1.48818" height="7.4409" transform="rotate(-90 439.621 424.193)" fill="#6174D1"/>
<rect width="1.48818" height="7.4409" transform="matrix(1 8.74228e-08 8.74228e-08 -1 464.922 449.492)" fill="#6174D1"/>
<rect x="439.621" y="424.193" width="1.48818" height="7.4409" transform="rotate(-90 439.621 424.193)" fill="#6174D1"/>
<rect width="1.48818" height="7.4409" transform="matrix(1 8.74228e-08 8.74228e-08 -1 464.922 449.492)" fill="#6174D1"/>
<rect width="1.48818" height="7.4409" transform="matrix(1 8.74228e-08 8.74228e-08 -1 409.113 449.492)" fill="#6174D1"/>
<rect x="450.781" y="424.193" width="1.48818" height="7.4409" transform="rotate(-90 450.781 424.193)" fill="#6174D1"/>
<rect width="1.48818" height="7.4409" transform="matrix(1 8.74228e-08 8.74228e-08 -1 464.922 438.331)" fill="#6174D1"/>
<rect x="450.781" y="424.193" width="1.48818" height="7.4409" transform="rotate(-90 450.781 424.193)" fill="#6174D1"/>
<rect width="1.48818" height="7.4409" transform="matrix(1 8.74228e-08 8.74228e-08 -1 464.922 438.331)" fill="#6174D1"/>
<rect width="1.48818" height="7.4409" transform="matrix(1 8.74228e-08 8.74228e-08 -1 409.113 438.331)" fill="#6174D1"/>
</g>
<path d="M199.07 511.232V522.107H196.867V511.232H199.07ZM203.141 522.107H201.133V514.115H202.602C202.625 514.404 202.656 514.662 202.695 514.904C202.75 515.154 202.828 515.256 202.961 515.256C203.062 515.256 203.102 515.224 203.25 515.06C203.898 514.256 204.641 513.857 205.617 513.857C206.719 513.857 207.422 514.263 207.898 515.115C208.031 515.342 208.094 515.404 208.211 515.404C208.328 515.404 208.406 515.349 208.562 515.138C209.227 514.24 209.961 513.857 210.992 513.857C212.734 513.857 213.781 515.076 213.781 517.092V522.107H211.773V517.42C211.773 516.271 211.273 515.623 210.367 515.623C209.773 515.623 209.297 515.888 208.938 516.412C208.617 516.888 208.461 517.568 208.461 518.451V522.107H206.461V517.42C206.461 516.271 205.961 515.623 205.047 515.623C204.445 515.623 203.977 515.888 203.625 516.412C203.305 516.904 203.141 517.584 203.141 518.451V522.107ZM219.07 513.857C221.312 513.857 222.516 515.045 222.516 517.209V522.107H221.047C221.023 521.724 220.984 521.451 220.938 521.287C220.883 521.154 220.836 521.092 220.742 521.092C220.625 521.092 220.578 521.138 220.453 521.302C219.914 522.021 219.164 522.357 218.094 522.357C216.359 522.357 215.133 521.396 215.133 519.779C215.133 518.279 216.203 517.459 218.32 517.334C219.383 517.263 220.141 517.17 220.586 517.052V517.037C220.586 515.982 220.023 515.42 219.023 515.42C218.148 515.42 217.57 515.857 217.383 516.568H215.383C215.711 514.967 217.031 513.857 219.07 513.857ZM220.297 519.912C220.492 519.529 220.586 519.045 220.586 518.451V518.318C220.219 518.443 219.648 518.521 218.617 518.615C217.555 518.717 217.133 519.045 217.133 519.701C217.133 520.451 217.695 520.873 218.594 520.873C219.414 520.873 219.977 520.552 220.297 519.912ZM228.344 525.607C226.008 525.607 224.516 524.271 224.164 522.592H226.172C226.43 523.498 227.258 524.045 228.359 524.045C229.703 524.045 230.438 523.349 230.438 522.006V521.068C230.438 520.935 230.398 520.873 230.312 520.873C230.25 520.873 230.203 520.904 230.117 520.998C229.562 521.584 228.758 521.881 227.789 521.881C226.312 521.881 225.062 521.154 224.383 519.951C224.047 519.349 223.875 518.677 223.875 517.927C223.875 516.334 224.617 515.06 225.789 514.381C226.375 514.045 227.016 513.873 227.719 513.873C228.742 513.873 229.531 514.217 230.242 514.935C230.406 515.099 230.477 515.146 230.578 515.146C230.695 515.146 230.766 515.06 230.805 514.849C230.844 514.685 230.875 514.435 230.898 514.115H232.375V521.881C232.375 524.248 230.789 525.607 228.344 525.607ZM228.203 520.256C228.836 520.256 229.391 520.052 229.773 519.677C230.211 519.263 230.461 518.646 230.461 517.927C230.461 517.217 230.211 516.599 229.773 516.185C229.391 515.81 228.836 515.599 228.203 515.599C226.852 515.599 225.93 516.552 225.93 517.927C225.93 519.302 226.852 520.256 228.203 520.256ZM242.117 517.881C242.117 518.287 242.102 518.576 242.062 518.74H235.828C235.922 519.974 236.797 520.779 238.055 520.779C239.047 520.779 239.773 520.342 240 519.623H241.977C241.586 521.295 240.102 522.365 238.039 522.365C236.391 522.365 235.055 521.623 234.336 520.334C233.977 519.685 233.797 518.943 233.797 518.107C233.797 516.443 234.586 515.107 235.867 514.388C236.508 514.037 237.219 513.857 238.008 513.857C239.641 513.857 240.922 514.568 241.609 515.787C241.945 516.396 242.117 517.092 242.117 517.881ZM238.039 515.42C236.836 515.42 235.961 516.217 235.836 517.388H240.172C240.109 516.217 239.25 515.42 238.039 515.42ZM249.398 511.232H250.93V522.107H248.844V514.545C248.242 515.115 247.273 515.56 246.281 515.709V513.787C247.914 513.498 249 512.584 249.398 511.232Z" fill="#151B37"/>
<rect x="195.703" y="537.107" width="81.2949" height="79.9928" rx="4" fill="#F2EEEB"/>
<g clip-path="url(#clip3_454_1329)">
<rect opacity="0.67" x="209" y="549.403" width="55" height="54" fill="white"/>
<path d="M208.539 605.1L223.107 583.539C223.695 582.668 224.975 582.665 225.568 583.532L231.804 592.652L246.387 571.682C246.976 570.835 248.227 570.83 248.823 571.671L264.904 594.362V605.1H208.539Z" fill="#6174D1"/>
<circle cx="224.165" cy="567.523" r="4.74357" fill="#6174D1"/>
<path d="M212.168 549.107V550.595H209.191V553.572H207.703V549.107H212.168Z" fill="#6174D1"/>
<path d="M212.168 549.107V550.595H209.191V553.572H207.703V549.107H212.168Z" fill="#6174D1"/>
<path d="M260.535 549.107V550.595H263.512V553.572H265V549.107H260.535Z" fill="#6174D1"/>
<path d="M260.535 549.107V550.595H263.512V553.572H265V549.107H260.535Z" fill="#6174D1"/>
<rect x="215.891" y="550.595" width="1.48818" height="7.4409" transform="rotate(-90 215.891 550.595)" fill="#6174D1"/>
<rect width="1.48818" height="7.4409" transform="matrix(1 8.74228e-08 8.74228e-08 -1 263.508 598.217)" fill="#6174D1"/>
<rect x="215.891" y="550.595" width="1.48818" height="7.4409" transform="rotate(-90 215.891 550.595)" fill="#6174D1"/>
<rect width="1.48818" height="14.3237" transform="matrix(1 8.74228e-08 8.74228e-08 -1 263.508 605.099)" fill="#6174D1"/>
<rect width="1.48818" height="7.4409" transform="matrix(1 8.74228e-08 8.74228e-08 -1 207.703 598.217)" fill="#6174D1"/>
<rect width="1.48818" height="3.16238" transform="matrix(1 8.74228e-08 8.74228e-08 -1 207.703 605.1)" fill="#6174D1"/>
<rect x="227.051" y="550.595" width="1.48818" height="7.4409" transform="rotate(-90 227.051 550.595)" fill="#6174D1"/>
<rect width="1.48818" height="7.4409" transform="matrix(1 8.74228e-08 8.74228e-08 -1 263.508 587.055)" fill="#6174D1"/>
<rect x="227.051" y="550.595" width="1.48818" height="7.4409" transform="rotate(-90 227.051 550.595)" fill="#6174D1"/>
<rect width="1.48818" height="7.4409" transform="matrix(1 8.74228e-08 8.74228e-08 -1 263.508 587.055)" fill="#6174D1"/>
<rect width="1.48818" height="7.4409" transform="matrix(1 8.74228e-08 8.74228e-08 -1 207.703 587.055)" fill="#6174D1"/>
<rect x="238.211" y="550.595" width="1.48818" height="7.4409" transform="rotate(-90 238.211 550.595)" fill="#6174D1"/>
<rect width="1.48818" height="7.4409" transform="matrix(1 8.74228e-08 8.74228e-08 -1 263.508 575.894)" fill="#6174D1"/>
<rect x="238.211" y="550.595" width="1.48818" height="7.4409" transform="rotate(-90 238.211 550.595)" fill="#6174D1"/>
<rect width="1.48818" height="7.4409" transform="matrix(1 8.74228e-08 8.74228e-08 -1 263.508 575.894)" fill="#6174D1"/>
<rect width="1.48818" height="7.4409" transform="matrix(1 8.74228e-08 8.74228e-08 -1 207.703 575.895)" fill="#6174D1"/>
<rect x="249.371" y="550.595" width="1.48818" height="7.4409" transform="rotate(-90 249.371 550.595)" fill="#6174D1"/>
<rect width="1.48818" height="7.4409" transform="matrix(1 8.74228e-08 8.74228e-08 -1 263.508 564.733)" fill="#6174D1"/>
<rect x="249.371" y="550.595" width="1.48818" height="7.4409" transform="rotate(-90 249.371 550.595)" fill="#6174D1"/>
<rect width="1.48818" height="7.4409" transform="matrix(1 8.74228e-08 8.74228e-08 -1 263.508 564.733)" fill="#6174D1"/>
<rect width="1.48818" height="7.4409" transform="matrix(1 8.74228e-08 8.74228e-08 -1 207.703 564.733)" fill="#6174D1"/>
</g>
<path d="M299.773 511.232V522.107H297.57V511.232H299.773ZM303.844 522.107H301.836V514.115H303.305C303.328 514.404 303.359 514.662 303.398 514.904C303.453 515.154 303.531 515.256 303.664 515.256C303.766 515.256 303.805 515.224 303.953 515.06C304.602 514.256 305.344 513.857 306.32 513.857C307.422 513.857 308.125 514.263 308.602 515.115C308.734 515.342 308.797 515.404 308.914 515.404C309.031 515.404 309.109 515.349 309.266 515.138C309.93 514.24 310.664 513.857 311.695 513.857C313.438 513.857 314.484 515.076 314.484 517.092V522.107H312.477V517.42C312.477 516.271 311.977 515.623 311.07 515.623C310.477 515.623 310 515.888 309.641 516.412C309.32 516.888 309.164 517.568 309.164 518.451V522.107H307.164V517.42C307.164 516.271 306.664 515.623 305.75 515.623C305.148 515.623 304.68 515.888 304.328 516.412C304.008 516.904 303.844 517.584 303.844 518.451V522.107ZM319.773 513.857C322.016 513.857 323.219 515.045 323.219 517.209V522.107H321.75C321.727 521.724 321.688 521.451 321.641 521.287C321.586 521.154 321.539 521.092 321.445 521.092C321.328 521.092 321.281 521.138 321.156 521.302C320.617 522.021 319.867 522.357 318.797 522.357C317.062 522.357 315.836 521.396 315.836 519.779C315.836 518.279 316.906 517.459 319.023 517.334C320.086 517.263 320.844 517.17 321.289 517.052V517.037C321.289 515.982 320.727 515.42 319.727 515.42C318.852 515.42 318.273 515.857 318.086 516.568H316.086C316.414 514.967 317.734 513.857 319.773 513.857ZM321 519.912C321.195 519.529 321.289 519.045 321.289 518.451V518.318C320.922 518.443 320.352 518.521 319.32 518.615C318.258 518.717 317.836 519.045 317.836 519.701C317.836 520.451 318.398 520.873 319.297 520.873C320.117 520.873 320.68 520.552 321 519.912ZM329.047 525.607C326.711 525.607 325.219 524.271 324.867 522.592H326.875C327.133 523.498 327.961 524.045 329.062 524.045C330.406 524.045 331.141 523.349 331.141 522.006V521.068C331.141 520.935 331.102 520.873 331.016 520.873C330.953 520.873 330.906 520.904 330.82 520.998C330.266 521.584 329.461 521.881 328.492 521.881C327.016 521.881 325.766 521.154 325.086 519.951C324.75 519.349 324.578 518.677 324.578 517.927C324.578 516.334 325.32 515.06 326.492 514.381C327.078 514.045 327.719 513.873 328.422 513.873C329.445 513.873 330.234 514.217 330.945 514.935C331.109 515.099 331.18 515.146 331.281 515.146C331.398 515.146 331.469 515.06 331.508 514.849C331.547 514.685 331.578 514.435 331.602 514.115H333.078V521.881C333.078 524.248 331.492 525.607 329.047 525.607ZM328.906 520.256C329.539 520.256 330.094 520.052 330.477 519.677C330.914 519.263 331.164 518.646 331.164 517.927C331.164 517.217 330.914 516.599 330.477 516.185C330.094 515.81 329.539 515.599 328.906 515.599C327.555 515.599 326.633 516.552 326.633 517.927C326.633 519.302 327.555 520.256 328.906 520.256ZM342.82 517.881C342.82 518.287 342.805 518.576 342.766 518.74H336.531C336.625 519.974 337.5 520.779 338.758 520.779C339.75 520.779 340.477 520.342 340.703 519.623H342.68C342.289 521.295 340.805 522.365 338.742 522.365C337.094 522.365 335.758 521.623 335.039 520.334C334.68 519.685 334.5 518.943 334.5 518.107C334.5 516.443 335.289 515.107 336.57 514.388C337.211 514.037 337.922 513.857 338.711 513.857C340.344 513.857 341.625 514.568 342.312 515.787C342.648 516.396 342.82 517.092 342.82 517.881ZM338.742 515.42C337.539 515.42 336.664 516.217 336.539 517.388H340.875C340.812 516.217 339.953 515.42 338.742 515.42ZM350.102 511.232H351.633V522.107H349.547V514.545C348.945 515.115 347.977 515.56 346.984 515.709V513.787C348.617 513.498 349.703 512.584 350.102 511.232Z" fill="#151B37"/>
<rect x="296.406" y="537.107" width="81.2949" height="79.9928" rx="4" fill="#F2EEEB"/>
<g clip-path="url(#clip4_454_1329)">
<rect opacity="0.67" x="309.703" y="549.403" width="55" height="54" fill="white"/>
<path d="M309.242 605.1L323.81 583.539C324.398 582.668 325.679 582.665 326.271 583.532L332.507 592.652L347.09 571.682C347.679 570.835 348.93 570.83 349.526 571.671L365.607 594.362V605.1H309.242Z" fill="#6174D1"/>
<circle cx="324.869" cy="567.523" r="4.74357" fill="#6174D1"/>
<path d="M312.871 549.107V550.595H309.895V553.572H308.406V549.107H312.871Z" fill="#6174D1"/>
<path d="M312.871 549.107V550.595H309.895V553.572H308.406V549.107H312.871Z" fill="#6174D1"/>
<path d="M361.238 549.107V550.595H364.215V553.572H365.703V549.107H361.238Z" fill="#6174D1"/>
<path d="M361.238 549.107V550.595H364.215V553.572H365.703V549.107H361.238Z" fill="#6174D1"/>
<rect x="316.594" y="550.595" width="1.48818" height="7.4409" transform="rotate(-90 316.594 550.595)" fill="#6174D1"/>
<rect width="1.48818" height="7.4409" transform="matrix(1 8.74228e-08 8.74228e-08 -1 364.211 598.217)" fill="#6174D1"/>
<rect x="316.594" y="550.595" width="1.48818" height="7.4409" transform="rotate(-90 316.594 550.595)" fill="#6174D1"/>
<rect width="1.48818" height="14.3237" transform="matrix(1 8.74228e-08 8.74228e-08 -1 364.211 605.099)" fill="#6174D1"/>
<rect width="1.48818" height="7.4409" transform="matrix(1 8.74228e-08 8.74228e-08 -1 308.406 598.217)" fill="#6174D1"/>
<rect width="1.48818" height="3.16238" transform="matrix(1 8.74228e-08 8.74228e-08 -1 308.406 605.1)" fill="#6174D1"/>
<rect x="327.754" y="550.595" width="1.48818" height="7.4409" transform="rotate(-90 327.754 550.595)" fill="#6174D1"/>
<rect width="1.48818" height="7.4409" transform="matrix(1 8.74228e-08 8.74228e-08 -1 364.211 587.055)" fill="#6174D1"/>
<rect x="327.754" y="550.595" width="1.48818" height="7.4409" transform="rotate(-90 327.754 550.595)" fill="#6174D1"/>
<rect width="1.48818" height="7.4409" transform="matrix(1 8.74228e-08 8.74228e-08 -1 364.211 587.055)" fill="#6174D1"/>
<rect width="1.48818" height="7.4409" transform="matrix(1 8.74228e-08 8.74228e-08 -1 308.406 587.055)" fill="#6174D1"/>
<rect x="338.914" y="550.595" width="1.48818" height="7.4409" transform="rotate(-90 338.914 550.595)" fill="#6174D1"/>
<rect width="1.48818" height="7.4409" transform="matrix(1 8.74228e-08 8.74228e-08 -1 364.211 575.894)" fill="#6174D1"/>
<rect x="338.914" y="550.595" width="1.48818" height="7.4409" transform="rotate(-90 338.914 550.595)" fill="#6174D1"/>
<rect width="1.48818" height="7.4409" transform="matrix(1 8.74228e-08 8.74228e-08 -1 364.211 575.894)" fill="#6174D1"/>
<rect width="1.48818" height="7.4409" transform="matrix(1 8.74228e-08 8.74228e-08 -1 308.406 575.895)" fill="#6174D1"/>
<rect x="350.074" y="550.595" width="1.48818" height="7.4409" transform="rotate(-90 350.074 550.595)" fill="#6174D1"/>
<rect width="1.48818" height="7.4409" transform="matrix(1 8.74228e-08 8.74228e-08 -1 364.211 564.733)" fill="#6174D1"/>
<rect x="350.074" y="550.595" width="1.48818" height="7.4409" transform="rotate(-90 350.074 550.595)" fill="#6174D1"/>
<rect width="1.48818" height="7.4409" transform="matrix(1 8.74228e-08 8.74228e-08 -1 364.211 564.733)" fill="#6174D1"/>
<rect width="1.48818" height="7.4409" transform="matrix(1 8.74228e-08 8.74228e-08 -1 308.406 564.733)" fill="#6174D1"/>
</g>
<path d="M400.48 511.232V522.107H398.277V511.232H400.48ZM404.551 522.107H402.543V514.115H404.012C404.035 514.404 404.066 514.662 404.105 514.904C404.16 515.154 404.238 515.256 404.371 515.256C404.473 515.256 404.512 515.224 404.66 515.06C405.309 514.256 406.051 513.857 407.027 513.857C408.129 513.857 408.832 514.263 409.309 515.115C409.441 515.342 409.504 515.404 409.621 515.404C409.738 515.404 409.816 515.349 409.973 515.138C410.637 514.24 411.371 513.857 412.402 513.857C414.145 513.857 415.191 515.076 415.191 517.092V522.107H413.184V517.42C413.184 516.271 412.684 515.623 411.777 515.623C411.184 515.623 410.707 515.888 410.348 516.412C410.027 516.888 409.871 517.568 409.871 518.451V522.107H407.871V517.42C407.871 516.271 407.371 515.623 406.457 515.623C405.855 515.623 405.387 515.888 405.035 516.412C404.715 516.904 404.551 517.584 404.551 518.451V522.107ZM420.48 513.857C422.723 513.857 423.926 515.045 423.926 517.209V522.107H422.457C422.434 521.724 422.395 521.451 422.348 521.287C422.293 521.154 422.246 521.092 422.152 521.092C422.035 521.092 421.988 521.138 421.863 521.302C421.324 522.021 420.574 522.357 419.504 522.357C417.77 522.357 416.543 521.396 416.543 519.779C416.543 518.279 417.613 517.459 419.73 517.334C420.793 517.263 421.551 517.17 421.996 517.052V517.037C421.996 515.982 421.434 515.42 420.434 515.42C419.559 515.42 418.98 515.857 418.793 516.568H416.793C417.121 514.967 418.441 513.857 420.48 513.857ZM421.707 519.912C421.902 519.529 421.996 519.045 421.996 518.451V518.318C421.629 518.443 421.059 518.521 420.027 518.615C418.965 518.717 418.543 519.045 418.543 519.701C418.543 520.451 419.105 520.873 420.004 520.873C420.824 520.873 421.387 520.552 421.707 519.912ZM429.754 525.607C427.418 525.607 425.926 524.271 425.574 522.592H427.582C427.84 523.498 428.668 524.045 429.77 524.045C431.113 524.045 431.848 523.349 431.848 522.006V521.068C431.848 520.935 431.809 520.873 431.723 520.873C431.66 520.873 431.613 520.904 431.527 520.998C430.973 521.584 430.168 521.881 429.199 521.881C427.723 521.881 426.473 521.154 425.793 519.951C425.457 519.349 425.285 518.677 425.285 517.927C425.285 516.334 426.027 515.06 427.199 514.381C427.785 514.045 428.426 513.873 429.129 513.873C430.152 513.873 430.941 514.217 431.652 514.935C431.816 515.099 431.887 515.146 431.988 515.146C432.105 515.146 432.176 515.06 432.215 514.849C432.254 514.685 432.285 514.435 432.309 514.115H433.785V521.881C433.785 524.248 432.199 525.607 429.754 525.607ZM429.613 520.256C430.246 520.256 430.801 520.052 431.184 519.677C431.621 519.263 431.871 518.646 431.871 517.927C431.871 517.217 431.621 516.599 431.184 516.185C430.801 515.81 430.246 515.599 429.613 515.599C428.262 515.599 427.34 516.552 427.34 517.927C427.34 519.302 428.262 520.256 429.613 520.256ZM443.527 517.881C443.527 518.287 443.512 518.576 443.473 518.74H437.238C437.332 519.974 438.207 520.779 439.465 520.779C440.457 520.779 441.184 520.342 441.41 519.623H443.387C442.996 521.295 441.512 522.365 439.449 522.365C437.801 522.365 436.465 521.623 435.746 520.334C435.387 519.685 435.207 518.943 435.207 518.107C435.207 516.443 435.996 515.107 437.277 514.388C437.918 514.037 438.629 513.857 439.418 513.857C441.051 513.857 442.332 514.568 443.02 515.787C443.355 516.396 443.527 517.092 443.527 517.881ZM439.449 515.42C438.246 515.42 437.371 516.217 437.246 517.388H441.582C441.52 516.217 440.66 515.42 439.449 515.42ZM450.809 511.232H452.34V522.107H450.254V514.545C449.652 515.115 448.684 515.56 447.691 515.709V513.787C449.324 513.498 450.41 512.584 450.809 511.232Z" fill="#151B37"/>
<rect x="397.113" y="537.107" width="81.2949" height="79.9928" rx="4" fill="#F2EEEB"/>
<g clip-path="url(#clip5_454_1329)">
<rect opacity="0.67" x="410.406" y="549.403" width="55" height="54" fill="white"/>
<path d="M409.949 605.1L424.517 583.539C425.105 582.668 426.386 582.665 426.979 583.532L433.214 592.652L447.797 571.682C448.386 570.835 449.637 570.83 450.233 571.671L466.314 594.362V605.1H409.949Z" fill="#6174D1"/>
<circle cx="425.576" cy="567.523" r="4.74357" fill="#6174D1"/>
<path d="M413.578 549.107V550.595H410.602V553.572H409.113V549.107H413.578Z" fill="#6174D1"/>
<path d="M413.578 549.107V550.595H410.602V553.572H409.113V549.107H413.578Z" fill="#6174D1"/>
<path d="M461.941 549.107V550.595H464.918V553.572H466.406V549.107H461.941Z" fill="#6174D1"/>
<path d="M461.941 549.107V550.595H464.918V553.572H466.406V549.107H461.941Z" fill="#6174D1"/>
<rect x="417.297" y="550.595" width="1.48818" height="7.4409" transform="rotate(-90 417.297 550.595)" fill="#6174D1"/>
<rect width="1.48818" height="7.4409" transform="matrix(1 8.74228e-08 8.74228e-08 -1 464.922 598.217)" fill="#6174D1"/>
<rect x="417.297" y="550.595" width="1.48818" height="7.4409" transform="rotate(-90 417.297 550.595)" fill="#6174D1"/>
<rect width="1.48818" height="14.3237" transform="matrix(1 8.74228e-08 8.74228e-08 -1 464.922 605.099)" fill="#6174D1"/>
<rect width="1.48818" height="7.4409" transform="matrix(1 8.74228e-08 8.74228e-08 -1 409.113 598.217)" fill="#6174D1"/>
<rect width="1.48818" height="3.16238" transform="matrix(1 8.74228e-08 8.74228e-08 -1 409.113 605.1)" fill="#6174D1"/>
<rect x="428.461" y="550.595" width="1.48818" height="7.4409" transform="rotate(-90 428.461 550.595)" fill="#6174D1"/>
<rect width="1.48818" height="7.4409" transform="matrix(1 8.74228e-08 8.74228e-08 -1 464.922 587.055)" fill="#6174D1"/>
<rect x="428.461" y="550.595" width="1.48818" height="7.4409" transform="rotate(-90 428.461 550.595)" fill="#6174D1"/>
<rect width="1.48818" height="7.4409" transform="matrix(1 8.74228e-08 8.74228e-08 -1 464.922 587.055)" fill="#6174D1"/>
<rect width="1.48818" height="7.4409" transform="matrix(1 8.74228e-08 8.74228e-08 -1 409.113 587.055)" fill="#6174D1"/>
<rect x="439.621" y="550.595" width="1.48818" height="7.4409" transform="rotate(-90 439.621 550.595)" fill="#6174D1"/>
<rect width="1.48818" height="7.4409" transform="matrix(1 8.74228e-08 8.74228e-08 -1 464.922 575.894)" fill="#6174D1"/>
<rect x="439.621" y="550.595" width="1.48818" height="7.4409" transform="rotate(-90 439.621 550.595)" fill="#6174D1"/>
<rect width="1.48818" height="7.4409" transform="matrix(1 8.74228e-08 8.74228e-08 -1 464.922 575.894)" fill="#6174D1"/>
<rect width="1.48818" height="7.4409" transform="matrix(1 8.74228e-08 8.74228e-08 -1 409.113 575.895)" fill="#6174D1"/>
<rect x="450.781" y="550.595" width="1.48818" height="7.4409" transform="rotate(-90 450.781 550.595)" fill="#6174D1"/>
<rect width="1.48818" height="7.4409" transform="matrix(1 8.74228e-08 8.74228e-08 -1 464.922 564.733)" fill="#6174D1"/>
<rect x="450.781" y="550.595" width="1.48818" height="7.4409" transform="rotate(-90 450.781 550.595)" fill="#6174D1"/>
<rect width="1.48818" height="7.4409" transform="matrix(1 8.74228e-08 8.74228e-08 -1 464.922 564.733)" fill="#6174D1"/>
<rect width="1.48818" height="7.4409" transform="matrix(1 8.74228e-08 8.74228e-08 -1 409.113 564.733)" fill="#6174D1"/>
</g>
</g>
<g filter="url(#filter2_d_454_1329)">
<rect x="78" y="203" width="400" height="75" rx="4" fill="white" shape-rendering="crispEdges"/>
<rect x="76.5" y="201.5" width="403" height="78" rx="5.5" stroke="#151B37" stroke-width="3" shape-rendering="crispEdges"/>
<rect x="91" y="216" width="46" height="46" rx="5" fill="#F5B810" fill-opacity="0.1"/>
<rect x="91" y="216" width="46" height="46" rx="5" stroke="#F5B810" stroke-width="2"/>
<path d="M120 229H117C115.674 229 114.402 229.527 113.464 230.464C112.527 231.402 112 232.674 112 234V237H109V241H112V249H116V241H119L120 237H116V234C116 233.735 116.105 233.48 116.293 233.293C116.48 233.105 116.735 233 117 233H120V229Z" fill="#42A3FA"/>
<path d="M155 215V266" stroke="#151B37" stroke-opacity="0.1" stroke-width="2"/>
<rect x="173" y="216" width="46" height="46" rx="5" fill="#F5B810" fill-opacity="0.1"/>
<rect x="173" y="216" width="46" height="46" rx="5" stroke="#F5B810" stroke-width="2"/>
<rect x="184" y="227" width="24" height="24" rx="4" fill="#1275B1"/>
<path d="M193.464 234.269C193.464 234.97 192.856 235.538 192.107 235.538C191.358 235.538 190.75 234.97 190.75 234.269C190.75 233.568 191.358 233 192.107 233C192.856 233 193.464 233.568 193.464 234.269Z" fill="white"/>
<path d="M190.936 236.471H193.255V243.5H190.936V236.471Z" fill="white"/>
<path d="M196.99 236.471H194.67V243.5H196.99C196.99 243.5 196.99 241.287 196.99 239.904C196.99 239.073 197.273 238.239 198.405 238.239C199.683 238.239 199.676 239.326 199.67 240.168C199.662 241.268 199.68 242.391 199.68 243.5H202V239.79C201.98 237.422 201.363 236.33 199.332 236.33C198.127 236.33 197.379 236.878 196.99 237.373V236.471Z" fill="white"/>
<path d="M237 215V266" stroke="#151B37" stroke-opacity="0.1" stroke-width="2"/>
<rect x="254" y="215" width="48" height="48" rx="6" fill="#F2EEEB"/>
<g opacity="0.3">
<circle cx="278" cy="239" r="10.5" fill="white"/>
<path d="M278 249.5C283.799 249.5 288.5 244.799 288.5 239C288.5 233.201 283.799 228.5 278 228.5C272.201 228.5 267.5 233.201 267.5 239C267.5 243.26 270.037 246.928 273.683 248.574C273.688 248.461 273.693 248.356 273.698 248.267C273.704 248.145 273.709 248.051 273.709 247.998C273.709 247.683 273.924 246.118 273.924 246.118L275.236 240.729C275.034 240.401 274.883 239.707 274.883 239.177C274.883 236.728 276.246 236.198 277.079 236.198C278.139 236.198 278.379 237.347 278.379 238.192C278.379 238.64 278.147 239.34 277.908 240.06C277.655 240.824 277.394 241.61 277.394 242.142C277.394 243.177 278.416 243.695 279.123 243.695C280.991 243.695 282.707 241.347 282.707 239C282.707 236.653 281.609 233.813 278.013 233.813C274.416 233.813 272.8 236.552 272.8 238.647C272.8 240.06 273.331 241.095 273.596 241.272C273.671 241.339 273.8 241.547 273.709 241.84C273.618 242.132 273.453 242.786 273.381 243.076C273.373 243.144 273.293 243.258 273.04 243.177C272.725 243.076 270.718 241.814 270.718 238.647C270.718 235.479 273.204 231.794 278.013 231.794C282.821 231.794 285.282 235.025 285.282 239C285.282 242.975 282.064 245.512 279.615 245.512C277.657 245.512 276.889 244.637 276.751 244.2L276.006 247.039C275.83 247.51 275.502 248.357 275.098 249.094C276.02 249.358 276.993 249.5 278 249.5Z" fill="#BB0F23"/>
</g>
<path d="M319 215V266" stroke="#151B37" stroke-opacity="0.1" stroke-width="2"/>
<rect x="336" y="215" width="48" height="48" rx="6" fill="#F2EEEB"/>
<g opacity="0.3">
<path d="M354.337 241.844C354.454 240.874 354.852 240.331 355.602 239.774C356.675 239.019 358.016 239.446 358.016 239.446V236.915C358.342 236.906 358.668 236.926 358.99 236.972V240.23C358.99 240.23 357.65 239.803 356.577 240.558C355.827 241.115 355.428 241.658 355.311 242.629C355.308 243.156 355.407 243.844 355.862 244.44C355.749 244.382 355.635 244.317 355.518 244.243C354.515 243.569 354.332 242.559 354.337 241.844ZM364.525 232.234C363.787 231.425 363.508 230.608 363.407 230.035H364.335C364.335 230.035 364.15 231.539 365.5 233.018L365.518 233.038C365.155 232.81 364.821 232.54 364.525 232.234ZM368.999 234.528V237.72C368.999 237.72 367.814 237.673 366.937 237.45C365.712 237.138 364.925 236.66 364.925 236.66C364.925 236.66 364.381 236.318 364.337 236.294V242.886C364.337 243.253 364.237 244.17 363.93 244.934C363.53 245.934 362.913 246.591 362.799 246.725C362.799 246.725 362.049 247.612 360.724 248.21C359.53 248.749 358.482 248.735 358.168 248.749C358.168 248.749 356.356 248.821 354.725 247.761C354.373 247.527 354.044 247.263 353.742 246.971L353.75 246.977C355.381 248.036 357.193 247.965 357.193 247.965C357.507 247.951 358.555 247.965 359.749 247.425C361.072 246.828 361.824 245.941 361.824 245.941C361.937 245.806 362.557 245.15 362.955 244.15C363.261 243.385 363.362 242.468 363.362 242.101V235.51C363.406 235.535 363.949 235.876 363.949 235.876C363.949 235.876 364.737 236.355 365.961 236.667C366.839 236.89 368.024 236.936 368.024 236.936V234.435C368.429 234.526 368.774 234.55 368.999 234.528Z" fill="#EE1D52"/>
<path d="M368.026 234.435V236.935C368.026 236.935 366.841 236.889 365.964 236.666C364.739 236.354 363.952 235.875 363.952 235.875C363.952 235.875 363.408 235.534 363.364 235.51V242.102C363.364 242.469 363.264 243.386 362.957 244.15C362.557 245.151 361.94 245.807 361.826 245.941C361.826 245.941 361.075 246.829 359.751 247.426C358.557 247.965 357.509 247.952 357.195 247.965C357.195 247.965 355.384 248.037 353.752 246.977L353.744 246.971C353.572 246.805 353.41 246.629 353.259 246.444C352.738 245.81 352.419 245.059 352.339 244.845C352.339 244.844 352.339 244.843 352.339 244.842C352.21 244.47 351.939 243.577 351.976 242.711C352.042 241.184 352.579 240.247 352.721 240.012C353.097 239.372 353.586 238.799 354.167 238.319C354.679 237.905 355.26 237.575 355.885 237.344C356.561 237.072 357.285 236.926 358.017 236.915V239.446C358.017 239.446 356.677 239.021 355.604 239.774C354.854 240.331 354.456 240.874 354.339 241.844C354.334 242.559 354.517 243.569 355.519 244.243C355.636 244.317 355.751 244.383 355.863 244.44C356.038 244.668 356.252 244.866 356.494 245.027C357.473 245.647 358.294 245.691 359.343 245.288C360.042 245.019 360.569 244.412 360.813 243.74C360.967 243.321 360.965 242.898 360.965 242.461V230.035H363.406C363.507 230.608 363.786 231.425 364.525 232.234C364.821 232.54 365.154 232.81 365.518 233.038C365.625 233.15 366.175 233.699 366.88 234.036C367.245 234.211 367.629 234.345 368.026 234.435Z" fill="black"/>
<path d="M351.367 244.068V244.07L351.428 244.234C351.421 244.215 351.398 244.157 351.367 244.068Z" fill="#69C9D0"/>
<path d="M355.885 237.344C355.259 237.575 354.679 237.905 354.166 238.319C353.586 238.8 353.097 239.374 352.721 240.016C352.579 240.25 352.042 241.188 351.976 242.715C351.939 243.58 352.21 244.474 352.339 244.846C352.339 244.847 352.339 244.848 352.339 244.849C352.421 245.061 352.738 245.811 353.259 246.448C353.41 246.632 353.572 246.808 353.744 246.975C353.193 246.609 352.701 246.167 352.284 245.663C351.768 245.034 351.45 244.291 351.367 244.072C351.367 244.07 351.367 244.069 351.367 244.067V244.065C351.238 243.693 350.966 242.799 351.004 241.932C351.069 240.405 351.606 239.468 351.748 239.233C352.124 238.591 352.613 238.017 353.194 237.536C353.706 237.122 354.287 236.793 354.912 236.561C355.302 236.406 355.708 236.292 356.124 236.22C356.75 236.115 357.39 236.106 358.019 236.193V236.915C357.286 236.926 356.561 237.072 355.885 237.344Z" fill="#69C9D0"/>
<path d="M363.408 230.035H360.966V242.462C360.966 242.899 360.966 243.32 360.815 243.741C360.568 244.412 360.044 245.019 359.344 245.288C358.295 245.692 357.474 245.647 356.496 245.028C356.253 244.867 356.039 244.67 355.863 244.443C356.697 244.869 357.443 244.861 358.368 244.506C359.067 244.237 359.592 243.63 359.838 242.958C359.992 242.538 359.99 242.116 359.99 241.679V229.25H363.361C363.361 229.25 363.324 229.559 363.408 230.035ZM368.025 233.743V234.435C367.629 234.344 367.246 234.211 366.882 234.037C366.176 233.699 365.627 233.15 365.52 233.038C365.644 233.117 365.774 233.188 365.907 233.252C366.764 233.663 367.609 233.785 368.025 233.743Z" fill="#69C9D0"/>
</g>
<path d="M401 215V266" stroke="#151B37" stroke-opacity="0.1" stroke-width="2"/>
<rect x="418" y="215" width="48" height="48" rx="6" fill="#F2EEEB"/>
<g opacity="0.3">
<path d="M431.683 234.456C431.78 232.972 432.973 231.809 434.458 231.735C436.609 231.629 439.684 231.5 442 231.5C444.316 231.5 447.391 231.629 449.542 231.735C451.027 231.809 452.22 232.972 452.317 234.456C452.409 235.878 452.5 237.627 452.5 239C452.5 240.373 452.409 242.122 452.317 243.544C452.22 245.028 451.027 246.191 449.542 246.265C447.391 246.371 444.316 246.5 442 246.5C439.684 246.5 436.609 246.371 434.458 246.265C432.973 246.191 431.78 245.028 431.683 243.544C431.591 242.122 431.5 240.373 431.5 239C431.5 237.627 431.591 235.878 431.683 234.456Z" fill="#FC0D1B"/>
<path d="M439.75 236V242L445.75 239L439.75 236Z" fill="white"/>
</g>
</g>
<g filter="url(#filter3_d_454_1329)">
<rect x="348" y="329" width="291" height="210" rx="4" fill="white" shape-rendering="crispEdges"/>
<rect x="346.5" y="327.5" width="294" height="213" rx="5.5" stroke="#151B37" stroke-width="3" shape-rendering="crispEdges"/>
<path d="M384.883 361.125L388.805 372H386.383L385.492 369.438H381.227L380.336 372H378.055L381.898 361.125H384.883ZM381.664 367.844H385.07L383.352 362.75L381.664 367.844ZM392.578 372.258C390.648 372.258 389.547 371.047 389.547 368.961V364.008H391.555V368.609C391.555 369.82 392.102 370.484 393.125 370.484C393.805 370.484 394.312 370.25 394.648 369.773C394.984 369.297 395.156 368.633 395.156 367.773V364.008H397.156V372H395.688C395.68 371.781 395.641 371.438 395.602 371.242C395.547 371 395.484 370.914 395.336 370.914C395.234 370.914 395.172 370.961 395.039 371.117C394.422 371.875 393.664 372.258 392.578 372.258ZM402.648 372.102C400.719 372.102 399.828 371.258 399.828 369.25V365.641H398.305V364.008H399.203C399.789 364.008 400.062 363.82 400.195 363.344C400.242 363.156 400.289 362.906 400.336 362.602C400.375 362.297 400.414 362.008 400.438 361.742H401.805V364.008H403.922V365.641H401.805V369.07C401.805 370.094 402.172 370.492 403.102 370.492C403.406 370.492 403.727 370.453 404.055 370.375V371.898C403.898 371.953 403.688 372.008 403.414 372.047C403.141 372.086 402.891 372.102 402.648 372.102ZM409.109 372.258C407.414 372.258 406.008 371.484 405.242 370.195C404.859 369.547 404.664 368.82 404.664 368.008C404.664 367.195 404.859 366.461 405.242 365.812C405.625 365.164 406.148 364.664 406.828 364.297C407.5 363.93 408.258 363.75 409.109 363.75C409.961 363.75 410.719 363.93 411.398 364.297C412.078 364.664 412.602 365.164 412.984 365.812C413.367 366.461 413.555 367.188 413.555 368.008C413.555 369.633 412.75 370.984 411.398 371.711C410.719 372.078 409.961 372.258 409.109 372.258ZM409.109 370.539C410.539 370.539 411.508 369.5 411.508 368.008C411.508 366.508 410.539 365.469 409.109 365.469C407.68 365.469 406.711 366.508 406.711 368.008C406.711 369.5 407.68 370.539 409.109 370.539ZM416.977 375.359H414.969V364.008H416.453C416.461 364.312 416.492 364.578 416.547 364.797C416.586 365.008 416.648 365.094 416.781 365.094C416.883 365.094 416.961 365.047 417.094 364.891C417.766 364.141 418.656 363.766 419.758 363.766C421.266 363.766 422.539 364.547 423.234 365.836C423.578 366.484 423.75 367.203 423.75 368.008C423.75 368.812 423.578 369.531 423.227 370.18C422.875 370.828 422.391 371.336 421.773 371.703C421.156 372.078 420.461 372.258 419.703 372.258C418.703 372.258 417.875 371.906 417.32 371.344C417.227 371.258 417.188 371.234 417.117 371.234C417.023 371.234 416.977 371.312 416.977 371.469V375.359ZM419.32 370.531C420.719 370.531 421.695 369.5 421.695 368.008C421.695 366.516 420.719 365.484 419.32 365.484C418.648 365.484 418.094 365.695 417.664 366.117C417.195 366.562 416.922 367.227 416.922 368.008C416.922 368.789 417.195 369.453 417.664 369.898C418.094 370.32 418.648 370.531 419.32 370.531ZM429.109 372.258C427.414 372.258 426.008 371.484 425.242 370.195C424.859 369.547 424.664 368.82 424.664 368.008C424.664 367.195 424.859 366.461 425.242 365.812C425.625 365.164 426.148 364.664 426.828 364.297C427.5 363.93 428.258 363.75 429.109 363.75C429.961 363.75 430.719 363.93 431.398 364.297C432.078 364.664 432.602 365.164 432.984 365.812C433.367 366.461 433.555 367.188 433.555 368.008C433.555 369.633 432.75 370.984 431.398 371.711C430.719 372.078 429.961 372.258 429.109 372.258ZM429.109 370.539C430.539 370.539 431.508 369.5 431.508 368.008C431.508 366.508 430.539 365.469 429.109 365.469C427.68 365.469 426.711 366.508 426.711 368.008C426.711 369.5 427.68 370.539 429.109 370.539ZM438.023 372.258C435.938 372.258 434.609 371.25 434.359 369.578H436.352C436.477 370.336 437.062 370.789 438.039 370.789C438.875 370.789 439.391 370.43 439.391 369.867C439.391 369.266 439.047 368.992 437.789 368.773C435.523 368.367 434.68 367.695 434.68 366.195C434.68 364.734 435.969 363.75 437.867 363.75C439.836 363.75 440.984 364.656 441.195 366.336H439.258C439.133 365.562 438.703 365.211 437.883 365.211C437.109 365.211 436.625 365.539 436.625 366.078C436.625 366.68 437.016 366.938 438.195 367.141C439.758 367.398 440.633 367.805 441.047 368.469C441.25 368.805 441.352 369.227 441.352 369.742C441.352 370.711 440.758 371.508 439.75 371.938C439.242 372.148 438.672 372.258 438.023 372.258ZM446.289 372.102C444.359 372.102 443.469 371.258 443.469 369.25V365.641H441.945V364.008H442.844C443.43 364.008 443.703 363.82 443.836 363.344C443.883 363.156 443.93 362.906 443.977 362.602C444.016 362.297 444.055 362.008 444.078 361.742H445.445V364.008H447.562V365.641H445.445V369.07C445.445 370.094 445.812 370.492 446.742 370.492C447.047 370.492 447.367 370.453 447.695 370.375V371.898C447.539 371.953 447.328 372.008 447.055 372.047C446.781 372.086 446.531 372.102 446.289 372.102Z" fill="#151B37"/>
<rect x="563" y="355" width="46" height="25" rx="12.5" fill="#F5B810"/>
<circle cx="596.5" cy="367.5" r="10.5" fill="#FDFCF8"/>
<rect x="378" y="405" width="231" height="48" rx="8" fill="#FEFEFE"/>
<rect x="379" y="406" width="229" height="46" rx="7" stroke="#151B37" stroke-opacity="0.2" stroke-width="2"/>
<path d="M395.234 433.766C393.484 433.766 392.125 432.836 391.406 431.117C391.039 430.266 390.859 429.242 390.859 428.062C390.859 425.695 391.617 423.945 392.938 423.039C393.594 422.586 394.359 422.359 395.234 422.359C396.992 422.359 398.352 423.289 399.07 425C399.43 425.859 399.609 426.883 399.609 428.062C399.609 430.43 398.859 432.18 397.547 433.086C396.883 433.539 396.117 433.766 395.234 433.766ZM395.234 431.977C395.953 431.977 396.5 431.633 396.883 430.938C397.266 430.25 397.453 429.289 397.453 428.062C397.453 426.836 397.266 425.875 396.883 425.18C396.5 424.492 395.953 424.148 395.234 424.148C394.516 424.148 393.969 424.492 393.594 425.18C393.211 425.875 393.023 426.836 393.023 428.062C393.023 429.289 393.211 430.25 393.594 430.938C393.969 431.633 394.516 431.977 395.234 431.977ZM407.812 422.625V429.25H409.023V430.922H407.812V433.5H405.828V430.922H400.609V429.133L405.703 422.625H407.812ZM405.828 429.25V424.867L402.477 429.25H405.828ZM416.031 422.203L411.828 433.5H409.938L414.141 422.203H416.031ZM421.297 433.766C419.547 433.766 418.188 432.836 417.469 431.117C417.102 430.266 416.922 429.242 416.922 428.062C416.922 425.695 417.68 423.945 419 423.039C419.656 422.586 420.422 422.359 421.297 422.359C423.055 422.359 424.414 423.289 425.133 425C425.492 425.859 425.672 426.883 425.672 428.062C425.672 430.43 424.922 432.18 423.609 433.086C422.945 433.539 422.18 433.766 421.297 433.766ZM421.297 431.977C422.016 431.977 422.562 431.633 422.945 430.938C423.328 430.25 423.516 429.289 423.516 428.062C423.516 426.836 423.328 425.875 422.945 425.18C422.562 424.492 422.016 424.148 421.297 424.148C420.578 424.148 420.031 424.492 419.656 425.18C419.273 425.875 419.086 426.836 419.086 428.062C419.086 429.289 419.273 430.25 419.656 430.938C420.031 431.633 420.578 431.977 421.297 431.977ZM431.859 426.523C433.203 426.523 434.305 427.141 434.898 428.195C435.188 428.719 435.336 429.32 435.336 429.992C435.336 431.438 434.617 432.633 433.406 433.281C432.797 433.602 432.102 433.766 431.328 433.766C428.617 433.766 427.047 431.867 427.047 428.469C427.047 424.531 428.531 422.359 431.508 422.359C433.57 422.359 434.938 423.555 435.219 425.609H433.203C433.023 424.609 432.422 424.047 431.484 424.047C429.914 424.047 429.102 425.383 429.062 428.062C429.594 427.094 430.609 426.523 431.859 426.523ZM431.297 432.102C432.477 432.102 433.32 431.266 433.32 430.07C433.32 428.859 432.461 428.023 431.297 428.023C430.133 428.023 429.281 428.859 429.281 430.07C429.281 431.266 430.125 432.102 431.297 432.102ZM442.453 422.203L438.25 433.5H436.359L440.562 422.203H442.453ZM445.812 431.805H450.984V433.5H443.398C443.398 432.594 443.516 431.805 443.742 431.141C443.969 430.477 444.352 429.859 444.891 429.297C445.43 428.742 446.18 428.195 447.133 427.656C448.516 426.883 448.922 426.391 448.922 425.531C448.922 424.633 448.328 424.086 447.383 424.086C446.258 424.086 445.57 424.773 445.484 426.047H443.414C443.508 424.57 444.188 423.422 445.359 422.812C445.945 422.508 446.625 422.359 447.406 422.359C449.602 422.359 450.945 423.586 450.945 425.578C450.945 426.57 450.617 427.297 449.812 428.016C449.414 428.375 448.859 428.758 448.156 429.164C447.094 429.781 446.477 430.289 446.133 430.852C445.961 431.141 445.852 431.453 445.812 431.805ZM456.719 433.766C454.969 433.766 453.609 432.836 452.891 431.117C452.523 430.266 452.344 429.242 452.344 428.062C452.344 425.695 453.102 423.945 454.422 423.039C455.078 422.586 455.844 422.359 456.719 422.359C458.477 422.359 459.836 423.289 460.555 425C460.914 425.859 461.094 426.883 461.094 428.062C461.094 430.43 460.344 432.18 459.031 433.086C458.367 433.539 457.602 433.766 456.719 433.766ZM456.719 431.977C457.438 431.977 457.984 431.633 458.367 430.938C458.75 430.25 458.938 429.289 458.938 428.062C458.938 426.836 458.75 425.875 458.367 425.18C457.984 424.492 457.438 424.148 456.719 424.148C456 424.148 455.453 424.492 455.078 425.18C454.695 425.875 454.508 426.836 454.508 428.062C454.508 429.289 454.695 430.25 455.078 430.938C455.453 431.633 456 431.977 456.719 431.977ZM464.812 431.805H469.984V433.5H462.398C462.398 432.594 462.516 431.805 462.742 431.141C462.969 430.477 463.352 429.859 463.891 429.297C464.43 428.742 465.18 428.195 466.133 427.656C467.516 426.883 467.922 426.391 467.922 425.531C467.922 424.633 467.328 424.086 466.383 424.086C465.258 424.086 464.57 424.773 464.484 426.047H462.414C462.508 424.57 463.188 423.422 464.359 422.812C464.945 422.508 465.625 422.359 466.406 422.359C468.602 422.359 469.945 423.586 469.945 425.578C469.945 426.57 469.617 427.297 468.812 428.016C468.414 428.375 467.859 428.758 467.156 429.164C466.094 429.781 465.477 430.289 465.133 430.852C464.961 431.141 464.852 431.453 464.812 431.805ZM477.047 427.766C477.711 427.945 478.234 428.273 478.617 428.758C478.992 429.25 479.18 429.82 479.18 430.469C479.18 431.758 478.523 432.797 477.359 433.352C476.773 433.625 476.102 433.766 475.336 433.766C472.93 433.766 471.297 432.359 471.125 430.227H473.18C473.328 431.391 474.148 432.062 475.328 432.062C476.484 432.062 477.195 431.391 477.195 430.352C477.195 429.281 476.422 428.664 475.195 428.664H474.133V427.062H475.094C476.164 427.062 476.812 426.508 476.812 425.539C476.812 424.641 476.211 424.062 475.273 424.062C474.273 424.062 473.57 424.672 473.469 425.68H471.43C471.68 423.711 473.062 422.359 475.328 422.359C476.695 422.359 477.773 422.883 478.344 423.781C478.633 424.234 478.773 424.758 478.773 425.344C478.773 426.469 478.141 427.328 477.047 427.766Z" fill="#151B37"/>
<rect width="46" height="48" transform="translate(563 405)" fill="#F5B810"/>
<path d="M590 419V423M582 419V423M577 427H595M582 431H582.01M586 431H586.01M590 431H590.01M582 435H582.01M586 435H586.01M590 435H590.01M579 421H593C594.105 421 595 421.895 595 423V437C595 438.105 594.105 439 593 439H579C577.895 439 577 438.105 577 437V423C577 421.895 577.895 421 579 421Z" stroke="white" stroke-width="2" stroke-linecap="round" stroke-linejoin="round"/>
<rect x="378" y="465" width="231" height="48" rx="8" fill="#FEFEFE"/>
<rect x="379" y="466" width="229" height="46" rx="7" stroke="#151B37" stroke-opacity="0.2" stroke-width="2"/>
<path d="M393.625 482.625H395.156V493.5H393.07V485.938C392.469 486.508 391.5 486.953 390.508 487.102V485.18C392.141 484.891 393.227 483.977 393.625 482.625ZM398.484 493.656C397.719 493.656 397.156 493.117 397.156 492.398C397.156 491.68 397.719 491.141 398.484 491.141C399.234 491.141 399.805 491.68 399.805 492.398C399.805 493.109 399.234 493.656 398.484 493.656ZM398.484 488.023C397.719 488.023 397.156 487.484 397.156 486.766C397.156 486.047 397.719 485.508 398.484 485.508C399.234 485.508 399.805 486.047 399.805 486.766C399.805 487.477 399.234 488.023 398.484 488.023ZM405.922 486.281C407.242 486.281 408.352 486.922 408.953 487.977C409.258 488.508 409.406 489.102 409.406 489.766C409.406 491.305 408.695 492.57 407.469 493.25C406.852 493.594 406.148 493.766 405.352 493.766C402.898 493.766 401.406 492.359 401.047 490.305H403.148C403.367 491.391 404.156 492.07 405.32 492.07C406.547 492.07 407.383 491.188 407.383 489.883C407.383 488.656 406.516 487.789 405.305 487.789C404.5 487.789 403.836 488.141 403.461 488.742H401.438L402.305 482.625H408.562V484.344H403.945L403.531 487.273C404.062 486.617 404.898 486.281 405.922 486.281ZM412.961 491.805H418.133V493.5H410.547C410.547 492.594 410.664 491.805 410.891 491.141C411.117 490.477 411.5 489.859 412.039 489.297C412.578 488.742 413.328 488.195 414.281 487.656C415.664 486.883 416.07 486.391 416.07 485.531C416.07 484.633 415.477 484.086 414.531 484.086C413.406 484.086 412.719 484.773 412.633 486.047H410.562C410.656 484.57 411.336 483.422 412.508 482.812C413.094 482.508 413.773 482.359 414.555 482.359C416.75 482.359 418.094 483.586 418.094 485.578C418.094 486.57 417.766 487.297 416.961 488.016C416.562 488.375 416.008 488.758 415.305 489.164C414.242 489.781 413.625 490.289 413.281 490.852C413.109 491.141 413 491.453 412.961 491.805Z" fill="#151B37"/>
<rect width="46" height="48" transform="translate(563 465)" fill="#F5B810"/>
<path d="M586 483V489L590 491M576 489C576 494.523 580.477 499 586 499C591.523 499 596 494.523 596 489C596 483.477 591.523 479 586 479C580.477 479 576 483.477 576 489Z" stroke="white" stroke-width="2" stroke-linecap="round" stroke-linejoin="round"/>
</g>
</g>
<defs>
<filter id="filter0_d_454_1329" x="0" y="0" width="716" height="768" filterUnits="userSpaceOnUse" color-interpolation-filters="sRGB">
<feFlood flood-opacity="0" result="BackgroundImageFix"/>
<feColorMatrix in="SourceAlpha" type="matrix" values="0 0 0 0 0 0 0 0 0 0 0 0 0 0 0 0 0 0 127 0" result="hardAlpha"/>
<feOffset dy="13"/>
<feComposite in2="hardAlpha" operator="out"/>
<feColorMatrix type="matrix" values="0 0 0 0 0.0823529 0 0 0 0 0.105882 0 0 0 0 0.215686 0 0 0 1 0"/>
<feBlend mode="normal" in2="BackgroundImageFix" result="effect1_dropShadow_454_1329"/>
<feBlend mode="normal" in="SourceGraphic" in2="effect1_dropShadow_454_1329" result="shape"/>
</filter>
<filter id="filter1_d_454_1329" x="151" y="74" width="380.776" height="602.931" filterUnits="userSpaceOnUse" color-interpolation-filters="sRGB">
<feFlood flood-opacity="0" result="BackgroundImageFix"/>
<feColorMatrix in="SourceAlpha" type="matrix" values="0 0 0 0 0 0 0 0 0 0 0 0 0 0 0 0 0 0 127 0" result="hardAlpha"/>
<feOffset dx="5.77623" dy="4.12588"/>
<feComposite in2="hardAlpha" operator="out"/>
<feColorMatrix type="matrix" values="0 0 0 0 0.0823529 0 0 0 0 0.105882 0 0 0 0 0.215686 0 0 0 1 0"/>
<feBlend mode="normal" in2="BackgroundImageFix" result="effect1_dropShadow_454_1329"/>
<feBlend mode="normal" in="SourceGraphic" in2="effect1_dropShadow_454_1329" result="shape"/>
</filter>
<filter id="filter2_d_454_1329" x="75" y="200" width="411.776" height="85.1259" filterUnits="userSpaceOnUse" color-interpolation-filters="sRGB">
<feFlood flood-opacity="0" result="BackgroundImageFix"/>
<feColorMatrix in="SourceAlpha" type="matrix" values="0 0 0 0 0 0 0 0 0 0 0 0 0 0 0 0 0 0 127 0" result="hardAlpha"/>
<feOffset dx="5.77623" dy="4.12588"/>
<feComposite in2="hardAlpha" operator="out"/>
<feColorMatrix type="matrix" values="0 0 0 0 0 0 0 0 0 0 0 0 0 0 0 0 0 0 1 0"/>
<feBlend mode="normal" in2="BackgroundImageFix" result="effect1_dropShadow_454_1329"/>
<feBlend mode="normal" in="SourceGraphic" in2="effect1_dropShadow_454_1329" result="shape"/>
</filter>
<filter id="filter3_d_454_1329" x="345" y="326" width="302.776" height="220.126" filterUnits="userSpaceOnUse" color-interpolation-filters="sRGB">
<feFlood flood-opacity="0" result="BackgroundImageFix"/>
<feColorMatrix in="SourceAlpha" type="matrix" values="0 0 0 0 0 0 0 0 0 0 0 0 0 0 0 0 0 0 127 0" result="hardAlpha"/>
<feOffset dx="5.77623" dy="4.12588"/>
<feComposite in2="hardAlpha" operator="out"/>
<feColorMatrix type="matrix" values="0 0 0 0 0 0 0 0 0 0 0 0 0 0 0 0 0 0 1 0"/>
<feBlend mode="normal" in2="BackgroundImageFix" result="effect1_dropShadow_454_1329"/>
<feBlend mode="normal" in="SourceGraphic" in2="effect1_dropShadow_454_1329" result="shape"/>
</filter>
<clipPath id="clip0_454_1329">
<rect x="207.703" y="422.705" width="57.2949" height="55.9928" rx="0.930112" fill="white"/>
</clipPath>
<clipPath id="clip1_454_1329">
<rect x="308.406" y="422.705" width="57.2949" height="55.9928" rx="0.930112" fill="white"/>
</clipPath>
<clipPath id="clip2_454_1329">
<rect x="409.113" y="422.705" width="57.2949" height="55.9928" rx="0.930112" fill="white"/>
</clipPath>
<clipPath id="clip3_454_1329">
<rect x="207.703" y="549.107" width="57.2949" height="55.9928" rx="0.930112" fill="white"/>
</clipPath>
<clipPath id="clip4_454_1329">
<rect x="308.406" y="549.107" width="57.2949" height="55.9928" rx="0.930112" fill="white"/>
</clipPath>
<clipPath id="clip5_454_1329">
<rect x="409.113" y="549.107" width="57.2949" height="55.9928" rx="0.930112" fill="white"/>
</clipPath>
</defs>
</svg>
