<svg width="30" height="30" viewBox="0 0 30 30" fill="none" xmlns="http://www.w3.org/2000/svg">
<path d="M26 0C28.2091 0 30 1.79086 30 4V26C30 28.2091 28.2091 30 26 30H4C1.79086 30 1.12747e-07 28.2091 0 26V4C0 1.79086 1.79086 1.12745e-07 4 0H26Z" fill="#F56C10"/>
<path d="M15.4875 4.01172L19.6291 9.38086L23.2013 8.98145C24.5925 8.82611 25.4981 10.4062 24.6613 11.5283L20.6955 16.8447L22.3078 19.3271L23.3967 18.5371C24.1454 17.9939 25.1968 18.1872 25.7023 18.9619C26.1697 19.6785 25.9977 20.6356 25.3107 21.1455L19.1535 25.7139L15.4826 20.8555L11.8117 25.7148L5.6535 21.1455C4.96666 20.6356 4.79564 19.6794 5.26287 18.9629C5.76843 18.1881 6.8198 17.9936 7.56853 18.5371L8.6574 19.3271L10.2697 16.8457L6.30291 11.5283C5.46595 10.4062 6.37176 8.82621 7.76287 8.98145L11.3351 9.38086L15.4777 4.01172V4L15.4816 4.00586L15.4875 4V4.01172ZM15.4875 11.8145H11.4836C11.2653 11.7964 10.7813 11.9336 10.5949 12.6289C10.3623 13.4978 10.776 16.877 15.4689 16.8857V16.8867C15.4717 16.8867 15.475 16.8858 15.4777 16.8857H15.4865C15.4893 16.8858 15.4925 16.8867 15.4953 16.8867V16.8857C20.1882 16.877 20.6019 13.4977 20.3693 12.6289C20.1831 11.9342 19.7002 11.7957 19.4816 11.8135H15.4875V11.8145ZM14.2336 9.02832C13.6813 9.02832 13.2336 9.5066 13.2336 10.0957C13.2337 10.6847 13.6814 11.1621 14.2336 11.1621C14.7855 11.1618 15.2334 10.6845 15.2336 10.0957C15.2336 9.50678 14.7856 9.02862 14.2336 9.02832ZM16.7316 9.02832C16.1793 9.02832 15.7316 9.5066 15.7316 10.0957C15.7318 10.6847 16.1794 11.1621 16.7316 11.1621C17.2835 11.1617 17.7315 10.6844 17.7316 10.0957C17.7316 9.50683 17.2836 9.0287 16.7316 9.02832Z" fill="black"/>
</svg>
