<svg width="81" height="81" viewBox="0 0 81 81" fill="none" xmlns="http://www.w3.org/2000/svg">
<rect width="80.1992" height="80.1992" rx="4.78801" fill="black"/>
<path d="M40.1101 15.5867L49.571 27.7225L59.6091 26.6121C62.0729 26.3396 63.6777 29.1087 62.1955 31.0754L52.0056 44.5924L55.688 50.202L58.1745 48.4165C59.8845 47.1882 62.2849 47.6266 63.4394 49.3779C64.5067 50.9977 64.115 53.1601 62.5457 54.3123L48.484 64.6381L40.0997 53.6551L31.7154 64.6381L17.6524 54.3123C16.0832 53.16 15.6926 50.9976 16.76 49.3779C17.9145 47.6266 20.3149 47.188 22.0249 48.4165L24.5114 50.202L28.1938 44.5924L18.0039 31.0754C16.5213 29.1086 18.1262 26.3394 20.5903 26.6121L30.6271 27.7225L40.0893 15.5867V15.561L40.0984 15.5739L40.1101 15.561V15.5867ZM30.9643 33.2204C30.4658 33.1797 29.3627 33.4912 28.937 35.0625C28.4057 37.026 29.3494 44.6658 40.0686 44.6848V44.6861C40.075 44.6861 40.0815 44.6848 40.088 44.6848H40.0893V44.6836L40.0906 44.6848C40.0966 44.6848 40.1028 44.6851 40.1088 44.6848L40.1101 44.6836V44.6848H40.1114C40.1182 44.6849 40.1253 44.6861 40.1321 44.6861V44.6848C50.8484 44.6648 51.7921 37.0279 51.2611 35.0638C50.8353 33.492 49.7322 33.1796 49.2337 33.2204H30.9643ZM37.2461 26.9266C35.9849 26.9267 34.9619 28.0059 34.9619 29.3373C34.9622 30.6685 35.9851 31.748 37.2461 31.7481C38.5072 31.748 39.53 30.6685 39.5303 29.3373C39.5303 28.0059 38.5074 26.9266 37.2461 26.9266ZM42.9533 26.9266C41.692 26.9267 40.6691 28.0059 40.6691 29.3373C40.6694 30.6685 41.6922 31.748 42.9533 31.7481C44.2141 31.7477 45.2358 30.6683 45.2361 29.3373C45.2361 28.0061 44.2143 26.9269 42.9533 26.9266Z" fill="#FF8800"/>
</svg>
