<svg width="773" height="510" viewBox="0 0 773 510" fill="none" xmlns="http://www.w3.org/2000/svg">
<path d="M0 49.9535C0 30.0712 16.1178 13.9535 36 13.9535H737C756.882 13.9535 773 30.0712 773 49.9535V473.953C773 493.836 756.882 509.953 737 509.953H36C16.1177 509.953 0 493.836 0 473.953V49.9535Z" fill="#151B37"/>
<path d="M36 3H737C755.225 3 770 17.7746 770 36V460C770 478.225 755.225 493 737 493H36C17.7746 493 3 478.225 3 460V36C3 17.7746 17.7746 3 36 3Z" fill="#FDE192" stroke="#151B37" stroke-width="6"/>
<rect x="307.5" y="177" width="138" height="142" rx="10" fill="#151C38"/>
<path d="M396.018 228.386L410.501 228.691C416.141 228.811 418.911 235.636 414.966 239.692L396.272 258.908L401.38 269.732L406.153 267.143C409.435 265.363 413.532 266.7 415.135 270.079C416.617 273.205 415.417 276.954 412.399 278.633L385.353 293.677L373.297 272.219L356.027 289.759L333.881 268.132C331.411 265.719 331.241 261.791 333.492 259.165C335.927 256.325 340.231 256.107 342.93 258.688L346.855 262.44L354.627 253.343L341.636 229.885C338.895 224.935 343.361 219.078 348.834 220.444L362.889 223.955L381.413 205.519C381.879 205.055 382.658 205.159 382.986 205.729L396.018 228.386ZM362.176 233.797C361.315 233.608 359.311 233.904 358.193 236.595C356.797 239.956 356.631 253.739 375.373 256.281L375.373 256.285L375.478 256.299L375.479 256.295C394.228 258.766 397.691 245.426 397.228 241.815C396.856 238.926 395.001 238.113 394.12 238.069L362.176 233.797ZM374.656 224.089C372.45 223.794 370.405 225.474 370.088 227.838C369.773 230.202 371.305 232.357 373.51 232.652C375.715 232.946 377.761 231.269 378.077 228.907C378.393 226.543 376.861 224.385 374.656 224.089ZM384.634 225.423C382.428 225.128 380.383 226.808 380.067 229.173C379.751 231.536 381.283 233.691 383.489 233.986C385.693 234.28 387.739 232.603 388.055 230.241C388.371 227.878 386.838 225.72 384.634 225.423Z" fill="#F8C63B"/>
<path d="M279.5 164.996C279.5 166.536 277.833 167.498 276.5 166.729L246.591 149.46H166.5C163.186 149.46 160.5 146.774 160.5 143.46V77.4603C160.5 74.1467 163.186 71.4603 166.5 71.4603H291.5C294.814 71.4603 297.5 74.1467 297.5 77.4603V143.46C297.5 146.774 294.814 149.46 291.5 149.46H279.5V164.996Z" fill="#151B37"/>
<path d="M279.5 164.996L281 164.997V164.996H279.5ZM276.5 166.729L275.75 168.028L275.75 168.028L276.5 166.729ZM246.591 149.46L247.341 148.161L246.993 147.96H246.591V149.46ZM166.5 149.46L166.5 150.96H166.5V149.46ZM160.5 77.4603L159 77.4603V77.4603H160.5ZM291.5 71.4603L291.5 69.9603H291.5V71.4603ZM297.5 77.4603L299 77.4603L299 77.4603L297.5 77.4603ZM279.5 149.46V147.96H278V149.46H279.5ZM279.5 164.996L278 164.996C278 165.382 277.583 165.622 277.25 165.43L276.5 166.729L275.75 168.028C278.084 169.375 281 167.69 281 164.997L279.5 164.996ZM276.5 166.729L277.25 165.43L247.341 148.161L246.591 149.46L245.841 150.759L275.75 168.028L276.5 166.729ZM246.591 149.46V147.96H166.5V149.46V150.96H246.591V149.46ZM166.5 149.46L166.5 147.96C164.015 147.96 162 145.946 162 143.46H160.5H159C159 147.602 162.358 150.96 166.5 150.96L166.5 149.46ZM160.5 143.46H162V77.4603H160.5H159V143.46H160.5ZM160.5 77.4603L162 77.4603C162 74.9751 164.015 72.9603 166.5 72.9603V71.4603V69.9603C162.358 69.9603 159 73.3183 159 77.4603L160.5 77.4603ZM166.5 71.4603V72.9603H291.5V71.4603V69.9603H166.5V71.4603ZM291.5 71.4603L291.5 72.9603C293.985 72.9603 296 74.9751 296 77.4603L297.5 77.4603L299 77.4603C299 73.3183 295.642 69.9603 291.5 69.9603L291.5 71.4603ZM297.5 77.4603H296V143.46H297.5H299V77.4603H297.5ZM297.5 143.46H296C296 145.946 293.985 147.96 291.5 147.96V149.46V150.96C295.642 150.96 299 147.602 299 143.46H297.5ZM291.5 149.46V147.96H279.5V149.46V150.96H291.5V149.46ZM279.5 149.46H278V164.996H279.5H281V149.46H279.5Z" fill="#151B37"/>
<path d="M279.5 160.996C279.5 162.536 277.833 163.499 276.5 162.729L246.592 145.461H166.5C163.186 145.461 160.5 142.775 160.5 139.461V73.4612C160.5 70.1475 163.186 67.4612 166.5 67.4612H291.5C294.814 67.4612 297.5 70.1475 297.5 73.4612V139.461C297.5 142.775 294.814 145.461 291.5 145.461H279.5V160.996Z" fill="#9DA5E4"/>
<path d="M276.5 162.729L275.75 164.028L275.75 164.028L276.5 162.729ZM246.592 145.461L247.342 144.162L246.994 143.961H246.592V145.461ZM166.5 145.461L166.5 146.961H166.5V145.461ZM160.5 139.461L159 139.461L159 139.461L160.5 139.461ZM291.5 67.4612L291.5 65.9612H291.5V67.4612ZM297.5 139.461L299 139.461V139.461H297.5ZM279.5 145.461V143.961H278V145.461H279.5ZM279.5 160.996H278C278 161.382 277.583 161.622 277.25 161.43L276.5 162.729L275.75 164.028C278.084 165.375 281 163.69 281 160.996H279.5ZM276.5 162.729L277.25 161.43L247.342 144.162L246.592 145.461L245.842 146.76L275.75 164.028L276.5 162.729ZM246.592 145.461V143.961H166.5V145.461V146.961H246.592V145.461ZM166.5 145.461L166.5 143.961C164.015 143.961 162 141.946 162 139.461L160.5 139.461L159 139.461C159 143.603 162.358 146.961 166.5 146.961L166.5 145.461ZM160.5 139.461H162V73.4612H160.5H159V139.461H160.5ZM160.5 73.4612H162C162 70.9759 164.015 68.9612 166.5 68.9612V67.4612V65.9612C162.358 65.9612 159 69.3191 159 73.4612H160.5ZM166.5 67.4612V68.9612H291.5V67.4612V65.9612H166.5V67.4612ZM291.5 67.4612L291.5 68.9612C293.985 68.9612 296 70.9759 296 73.4612H297.5H299C299 69.3191 295.642 65.9612 291.5 65.9612L291.5 67.4612ZM297.5 73.4612H296V139.461H297.5H299V73.4612H297.5ZM297.5 139.461L296 139.461C296 141.946 293.985 143.961 291.5 143.961V145.461V146.961C295.642 146.961 299 143.603 299 139.461L297.5 139.461ZM291.5 145.461V143.961H279.5V145.461V146.961H291.5V145.461ZM279.5 145.461H278V160.996H279.5H281V145.461H279.5Z" fill="#151B37"/>
<circle cx="271.371" cy="106.5" r="7.5" transform="rotate(180 271.371 106.5)" fill="#151B37"/>
<circle cx="242.371" cy="106.5" r="7.5" transform="rotate(180 242.371 106.5)" fill="#151B37"/>
<circle cx="213.371" cy="106.5" r="7.5" transform="rotate(180 213.371 106.5)" fill="#151B37"/>
<path d="M189.183 79.8912C189.248 79.8803 189.314 79.875 189.379 79.8746L196.511 79.8389C197.195 79.8355 197.763 80.3721 197.802 81.0594L198.386 91.313C198.423 91.9745 197.958 92.5566 197.307 92.6606L191.874 93.5291C191.613 93.5708 191.367 93.6873 191.201 93.8929C189.27 96.2826 189.77 101.899 190.651 106.779L190.652 106.779C190.653 106.784 190.653 106.789 190.654 106.795C190.655 106.8 190.655 106.805 190.656 106.811C191.34 111.722 192.616 117.215 195.196 118.883C195.418 119.027 195.688 119.061 195.948 119.019L201.381 118.151C202.032 118.047 202.656 118.455 202.827 119.095L205.468 129.02C205.645 129.685 205.273 130.372 204.621 130.582L197.834 132.771C197.772 132.791 197.708 132.807 197.643 132.816C192.367 133.613 187.13 130.605 183.527 108.988L183.356 107.945C179.759 85.4088 183.841 80.7921 189.183 79.8912Z" fill="#151B37"/>
<path d="M493.5 164.997C493.5 166.536 495.167 167.498 496.5 166.728L526.409 149.461H606.5C609.814 149.461 612.5 146.774 612.5 143.461V77.4606C612.5 74.1469 609.814 71.4606 606.5 71.4606H481.5C478.186 71.4606 475.5 74.1469 475.5 77.4606V143.461C475.5 146.774 478.186 149.461 481.5 149.461H493.5V164.997Z" fill="#151B37"/>
<path d="M493.5 164.997L492 164.997V164.997H493.5ZM496.5 166.728L495.75 165.429L495.75 165.429L496.5 166.728ZM526.409 149.461L525.659 148.162L526.007 147.961H526.409V149.461ZM606.5 149.461L606.5 150.961H606.5V149.461ZM612.5 143.461L614 143.461L614 143.461L612.5 143.461ZM481.5 71.4606L481.5 69.9606H481.5V71.4606ZM475.5 143.461L474 143.461V143.461H475.5ZM493.5 149.461V147.961H495V149.461H493.5ZM493.5 164.997L495 164.996C495 165.381 495.416 165.622 495.75 165.429L496.5 166.728L497.25 168.027C494.917 169.374 492 167.691 492 164.997L493.5 164.997ZM496.5 166.728L495.75 165.429L525.659 148.162L526.409 149.461L527.159 150.76L497.25 168.027L496.5 166.728ZM526.409 149.461V147.961H606.5V149.461V150.961H526.409V149.461ZM606.5 149.461L606.5 147.961C608.985 147.961 611 145.946 611 143.461L612.5 143.461L614 143.461C614 147.603 610.642 150.961 606.5 150.961L606.5 149.461ZM612.5 143.461H611V77.4606H612.5H614V143.461H612.5ZM612.5 77.4606H611C611 74.9753 608.985 72.9606 606.5 72.9606V71.4606V69.9606C610.642 69.9606 614 73.3185 614 77.4606H612.5ZM606.5 71.4606V72.9606H481.5V71.4606V69.9606H606.5V71.4606ZM481.5 71.4606L481.5 72.9606C479.015 72.9606 477 74.9753 477 77.4606H475.5H474C474 73.3185 477.358 69.9606 481.5 69.9606L481.5 71.4606ZM475.5 77.4606H477V143.461H475.5H474V77.4606H475.5ZM475.5 143.461L477 143.461C477 145.946 479.015 147.961 481.5 147.961V149.461V150.961C477.358 150.961 474 147.603 474 143.461L475.5 143.461ZM481.5 149.461V147.961H493.5V149.461V150.961H481.5V149.461ZM493.5 149.461H495V164.997H493.5H492V149.461H493.5Z" fill="#151B37"/>
<path d="M493.5 160.997C493.5 162.536 495.167 163.499 496.5 162.729L526.409 145.461H606.5C609.814 145.461 612.5 142.774 612.5 139.461V73.4606C612.5 70.1469 609.814 67.4606 606.5 67.4606H481.5C478.186 67.4606 475.5 70.1469 475.5 73.4606V139.461C475.5 142.774 478.186 145.461 481.5 145.461H493.5V160.997Z" fill="#9DA5E4"/>
<path d="M493.5 160.997L492 160.997V160.997H493.5ZM496.5 162.729L497.25 164.028L497.25 164.028L496.5 162.729ZM526.409 145.461L525.659 144.162L526.007 143.961H526.409V145.461ZM606.5 145.461L606.5 146.961H606.5V145.461ZM612.5 73.4606L614 73.4605V73.4606H612.5ZM481.5 67.4606L481.5 65.9606H481.5V67.4606ZM475.5 73.4606L474 73.4606L474 73.4605L475.5 73.4606ZM493.5 145.461V143.961H495V145.461H493.5ZM493.5 160.997L495 160.997C495 161.382 495.417 161.622 495.75 161.43L496.5 162.729L497.25 164.028C494.916 165.375 492 163.691 492 160.997L493.5 160.997ZM496.5 162.729L495.75 161.43L525.659 144.162L526.409 145.461L527.159 146.76L497.25 164.028L496.5 162.729ZM526.409 145.461V143.961H606.5V145.461V146.961H526.409V145.461ZM606.5 145.461L606.5 143.961C608.985 143.961 611 141.946 611 139.461H612.5H614C614 143.603 610.642 146.961 606.5 146.961L606.5 145.461ZM612.5 139.461H611V73.4606H612.5H614V139.461H612.5ZM612.5 73.4606L611 73.4606C611 70.9753 608.985 68.9606 606.5 68.9606V67.4606V65.9606C610.642 65.9606 614 69.3185 614 73.4605L612.5 73.4606ZM606.5 67.4606V68.9606H481.5V67.4606V65.9606H606.5V67.4606ZM481.5 67.4606L481.5 68.9606C479.015 68.9606 477 70.9753 477 73.4606L475.5 73.4606L474 73.4605C474 69.3185 477.358 65.9606 481.5 65.9606L481.5 67.4606ZM475.5 73.4606H477V139.461H475.5H474V73.4606H475.5ZM475.5 139.461H477C477 141.946 479.015 143.961 481.5 143.961V145.461V146.961C477.358 146.961 474 143.603 474 139.461H475.5ZM481.5 145.461V143.961H493.5V145.461V146.961H481.5V145.461ZM493.5 145.461H495V160.997H493.5H492V145.461H493.5Z" fill="#151B37"/>
<circle cx="7.5" cy="7.5" r="7.5" transform="matrix(-1 0 0 1 522.5 98.4612)" fill="#151B37"/>
<circle cx="7.5" cy="7.5" r="7.5" transform="matrix(-1 0 0 1 551.5 98.4612)" fill="#151B37"/>
<circle cx="7.5" cy="7.5" r="7.5" transform="matrix(-1 0 0 1 580.5 98.4612)" fill="#151B37"/>
<path d="M279.5 335.003C279.5 333.463 277.833 332.502 276.5 333.271L246.591 350.539H166.5C163.186 350.539 160.5 353.225 160.5 356.539V422.539C160.5 425.853 163.186 428.539 166.5 428.539H291.5C294.814 428.539 297.5 425.853 297.5 422.539V356.539C297.5 353.225 294.814 350.539 291.5 350.539H279.5V335.003Z" fill="#151B37"/>
<path d="M279.5 335.003L281 335.003V335.003H279.5ZM276.5 333.271L277.25 334.57L277.25 334.57L276.5 333.271ZM246.591 350.539L247.341 351.838L246.993 352.039H246.591V350.539ZM166.5 350.539L166.5 349.039H166.5V350.539ZM160.5 356.539L159 356.539L159 356.539L160.5 356.539ZM291.5 428.539L291.5 430.039H291.5V428.539ZM297.5 356.539L299 356.539V356.539H297.5ZM279.5 350.539V352.039H278V350.539H279.5ZM279.5 335.003L278 335.003C278 334.619 277.584 334.378 277.25 334.57L276.5 333.271L275.75 331.972C278.083 330.625 281 332.308 281 335.003L279.5 335.003ZM276.5 333.271L277.25 334.57L247.341 351.838L246.591 350.539L245.841 349.24L275.75 331.972L276.5 333.271ZM246.591 350.539V352.039H166.5V350.539V349.039H246.591V350.539ZM166.5 350.539L166.5 352.039C164.015 352.039 162 354.054 162 356.539L160.5 356.539L159 356.539C159 352.397 162.358 349.039 166.5 349.039L166.5 350.539ZM160.5 356.539H162V422.539H160.5H159V356.539H160.5ZM160.5 422.539H162C162 425.024 164.015 427.039 166.5 427.039V428.539V430.039C162.358 430.039 159 426.681 159 422.539H160.5ZM166.5 428.539V427.039H291.5V428.539V430.039H166.5V428.539ZM291.5 428.539L291.5 427.039C293.985 427.039 296 425.024 296 422.539H297.5H299C299 426.681 295.642 430.039 291.5 430.039L291.5 428.539ZM297.5 422.539H296V356.539H297.5H299V422.539H297.5ZM297.5 356.539L296 356.539C296 354.054 293.985 352.039 291.5 352.039V350.539V349.039C295.642 349.039 299 352.397 299 356.539L297.5 356.539ZM291.5 350.539V352.039H279.5V350.539V349.039H291.5V350.539ZM279.5 350.539H278V335.003H279.5H281V350.539H279.5Z" fill="#151B37"/>
<path d="M279.5 331.003C279.5 329.463 277.833 328.501 276.5 329.27L246.591 346.539H166.5C163.186 346.539 160.5 349.225 160.5 352.539V418.539C160.5 421.853 163.186 424.539 166.5 424.539H291.5C294.814 424.539 297.5 421.853 297.5 418.539V352.539C297.5 349.225 294.814 346.539 291.5 346.539H279.5V331.003Z" fill="#9DA5E4"/>
<path d="M279.5 331.003L281 331.003V331.003H279.5ZM276.5 329.27L275.75 327.971L275.75 327.971L276.5 329.27ZM246.591 346.539L247.341 347.838L246.993 348.039H246.591V346.539ZM166.5 346.539L166.5 345.039H166.5V346.539ZM160.5 418.539L159 418.539V418.539H160.5ZM291.5 424.539L291.5 426.039H291.5V424.539ZM297.5 418.539L299 418.539L299 418.539L297.5 418.539ZM279.5 346.539V348.039H278V346.539H279.5ZM279.5 331.003L278 331.003C278 330.618 277.583 330.377 277.25 330.57L276.5 329.27L275.75 327.971C278.084 326.624 281 328.309 281 331.003L279.5 331.003ZM276.5 329.27L277.25 330.569L247.341 347.838L246.591 346.539L245.841 345.24L275.75 327.971L276.5 329.27ZM246.591 346.539V348.039H166.5V346.539V345.039H246.591V346.539ZM166.5 346.539L166.5 348.039C164.015 348.039 162 350.054 162 352.539H160.5H159C159 348.397 162.358 345.039 166.5 345.039L166.5 346.539ZM160.5 352.539H162V418.539H160.5H159V352.539H160.5ZM160.5 418.539L162 418.539C162 421.024 164.015 423.039 166.5 423.039V424.539V426.039C162.358 426.039 159 422.681 159 418.539L160.5 418.539ZM166.5 424.539V423.039H291.5V424.539V426.039H166.5V424.539ZM291.5 424.539L291.5 423.039C293.985 423.039 296 421.024 296 418.539L297.5 418.539L299 418.539C299 422.681 295.642 426.039 291.5 426.039L291.5 424.539ZM297.5 418.539H296V352.539H297.5H299V418.539H297.5ZM297.5 352.539H296C296 350.054 293.985 348.039 291.5 348.039V346.539V345.039C295.642 345.039 299 348.397 299 352.539H297.5ZM291.5 346.539V348.039H279.5V346.539V345.039H291.5V346.539ZM279.5 346.539H278V331.003H279.5H281V346.539H279.5Z" fill="#151B37"/>
<circle cx="7.5" cy="7.5" r="7.5" transform="matrix(-1 0 0 1 207.629 378)" fill="#151B37"/>
<circle cx="7.5" cy="7.5" r="7.5" transform="matrix(-1 0 0 1 236.629 378)" fill="#151B37"/>
<circle cx="7.5" cy="7.5" r="7.5" transform="matrix(-1 0 0 1 265.629 378)" fill="#151B37"/>
<path d="M493.5 335.003C493.5 333.464 495.167 332.501 496.5 333.271L526.409 350.539H606.5C609.814 350.539 612.5 353.226 612.5 356.539V422.539C612.5 425.853 609.814 428.539 606.5 428.539H481.5C478.186 428.539 475.5 425.853 475.5 422.539V356.539C475.5 353.226 478.186 350.539 481.5 350.539H493.5V335.003Z" fill="#151B37"/>
<path d="M496.5 333.271L497.25 331.972L497.25 331.972L496.5 333.271ZM526.409 350.539L525.659 351.838L526.007 352.039H526.409V350.539ZM606.5 350.539L606.5 349.039H606.5V350.539ZM612.5 422.539L614 422.539V422.539H612.5ZM481.5 428.539L481.5 430.039H481.5V428.539ZM475.5 422.539L474 422.539L474 422.539L475.5 422.539ZM493.5 350.539V352.039H495V350.539H493.5ZM493.5 335.003H495C495 334.618 495.417 334.378 495.75 334.57L496.5 333.271L497.25 331.972C494.916 330.625 492 332.309 492 335.003H493.5ZM496.5 333.271L495.75 334.57L525.659 351.838L526.409 350.539L527.159 349.24L497.25 331.972L496.5 333.271ZM526.409 350.539V352.039H606.5V350.539V349.039H526.409V350.539ZM606.5 350.539L606.5 352.039C608.985 352.039 611 354.054 611 356.539H612.5H614C614 352.397 610.642 349.039 606.5 349.039L606.5 350.539ZM612.5 356.539H611V422.539H612.5H614V356.539H612.5ZM612.5 422.539L611 422.539C611 425.025 608.985 427.039 606.5 427.039V428.539V430.039C610.642 430.039 614 426.681 614 422.539L612.5 422.539ZM606.5 428.539V427.039H481.5V428.539V430.039H606.5V428.539ZM481.5 428.539L481.5 427.039C479.015 427.039 477 425.025 477 422.539L475.5 422.539L474 422.539C474 426.681 477.358 430.039 481.5 430.039L481.5 428.539ZM475.5 422.539H477V356.539H475.5H474V422.539H475.5ZM475.5 356.539H477C477 354.054 479.015 352.039 481.5 352.039V350.539V349.039C477.358 349.039 474 352.397 474 356.539H475.5ZM481.5 350.539V352.039H493.5V350.539V349.039H481.5V350.539ZM493.5 350.539H495V335.003H493.5H492V350.539H493.5Z" fill="#151B37"/>
<path d="M493.5 331.003C493.5 329.463 495.167 328.501 496.5 329.271L526.409 346.539H606.5C609.814 346.539 612.5 349.225 612.5 352.539V418.539C612.5 421.852 609.814 424.539 606.5 424.539H481.5C478.186 424.539 475.5 421.852 475.5 418.539V352.539C475.5 349.225 478.186 346.539 481.5 346.539H493.5V331.003Z" fill="#9DA5E4"/>
<path d="M493.5 331.003L492 331.002V331.003H493.5ZM496.5 329.271L495.75 330.57L495.75 330.57L496.5 329.271ZM526.409 346.539L525.659 347.838L526.007 348.039H526.409V346.539ZM606.5 346.539L606.5 345.039H606.5V346.539ZM612.5 352.539L614 352.539L614 352.539L612.5 352.539ZM481.5 424.539L481.5 426.039H481.5V424.539ZM475.5 352.539L474 352.539V352.539H475.5ZM493.5 346.539V348.039H495V346.539H493.5ZM493.5 331.003L495 331.003C495 330.618 495.416 330.378 495.75 330.57L496.5 329.271L497.25 327.972C494.917 326.625 492 328.308 492 331.002L493.5 331.003ZM496.5 329.271L495.75 330.57L525.659 347.838L526.409 346.539L527.159 345.24L497.25 327.972L496.5 329.271ZM526.409 346.539V348.039H606.5V346.539V345.039H526.409V346.539ZM606.5 346.539L606.5 348.039C608.985 348.039 611 350.053 611 352.539L612.5 352.539L614 352.539C614 348.397 610.642 345.039 606.5 345.039L606.5 346.539ZM612.5 352.539H611V418.539H612.5H614V352.539H612.5ZM612.5 418.539H611C611 421.024 608.985 423.039 606.5 423.039V424.539V426.039C610.642 426.039 614 422.681 614 418.539H612.5ZM606.5 424.539V423.039H481.5V424.539V426.039H606.5V424.539ZM481.5 424.539L481.5 423.039C479.015 423.039 477 421.024 477 418.539H475.5H474C474 422.681 477.358 426.039 481.5 426.039L481.5 424.539ZM475.5 418.539H477V352.539H475.5H474V418.539H475.5ZM475.5 352.539L477 352.539C477 350.053 479.015 348.039 481.5 348.039V346.539V345.039C477.358 345.039 474 348.397 474 352.539L475.5 352.539ZM481.5 346.539V348.039H493.5V346.539V345.039H481.5V346.539ZM493.5 346.539H495V331.003H493.5H492V346.539H493.5Z" fill="#151B37"/>
<circle cx="586.371" cy="386.039" r="7.5" transform="rotate(180 586.371 386.039)" fill="#151B37"/>
<circle cx="557.371" cy="386.039" r="7.5" transform="rotate(180 557.371 386.039)" fill="#151B37"/>
<circle cx="528.371" cy="386.039" r="7.5" transform="rotate(180 528.371 386.039)" fill="#151B37"/>
<path d="M504.183 359.43C504.248 359.419 504.314 359.414 504.379 359.414L511.511 359.378C512.195 359.375 512.763 359.911 512.802 360.598L513.386 370.852C513.423 371.514 512.958 372.096 512.307 372.2L506.874 373.068C506.613 373.11 506.367 373.226 506.201 373.432C504.27 375.822 504.77 381.439 505.651 386.318L505.652 386.318C505.653 386.323 505.653 386.328 505.654 386.334C505.655 386.339 505.655 386.344 505.656 386.35C506.34 391.261 507.616 396.754 510.196 398.422C510.418 398.566 510.688 398.6 510.948 398.558L516.381 397.69C517.032 397.586 517.656 397.994 517.827 398.634L520.468 408.559C520.645 409.224 520.273 409.911 519.621 410.121L512.834 412.31C512.772 412.33 512.708 412.346 512.643 412.355C507.367 413.152 502.13 410.144 498.527 388.527L498.356 387.484C494.759 364.948 498.841 360.331 504.183 359.43Z" fill="#151B37"/>
<path d="M115.499 211C112.185 211 109.499 213.686 109.499 217V283C109.499 286.313 112.185 289 115.499 289H240.499C243.813 289 246.499 286.313 246.499 283V268.475L275.5 251.732C276.833 250.962 276.833 249.038 275.5 248.268L246.499 231.524V217C246.499 213.686 243.813 211 240.499 211H115.499Z" fill="#151B37"/>
<path d="M115.499 211L115.499 209.5H115.499V211ZM109.499 217L107.999 217V217L109.499 217ZM115.499 289L115.499 290.5L115.499 290.5L115.499 289ZM246.499 283L247.999 283V283L246.499 283ZM246.499 268.475H244.999V267.609L245.749 267.176L246.499 268.475ZM275.5 251.732L276.25 253.031L276.25 253.031L275.5 251.732ZM275.5 248.268L274.75 249.567L274.75 249.567L275.5 248.268ZM246.499 231.524L245.749 232.823L244.999 232.39V231.524H246.499ZM115.499 211L115.499 212.5C113.014 212.5 110.999 214.514 110.999 217L109.499 217L107.999 217C107.999 212.858 111.357 209.5 115.499 209.5L115.499 211ZM109.499 217H110.999V283H109.499H107.999V217H109.499ZM109.499 283H110.999C110.999 285.485 113.014 287.5 115.499 287.5L115.499 289L115.499 290.5C111.357 290.5 107.999 287.142 107.999 283H109.499ZM115.499 289V287.5H240.499V289V290.5H115.499V289ZM240.499 289V287.5C242.984 287.5 244.999 285.485 244.999 283L246.499 283L247.999 283C247.999 287.142 244.641 290.5 240.499 290.5V289ZM246.499 283H244.999V268.475H246.499H247.999V283H246.499ZM246.499 268.475L245.749 267.176L274.75 250.433L275.5 251.732L276.25 253.031L247.249 269.774L246.499 268.475ZM275.5 251.732L274.75 250.433C275.083 250.241 275.083 249.76 274.75 249.567L275.5 248.268L276.25 246.969C278.583 248.316 278.583 251.684 276.25 253.031L275.5 251.732ZM275.5 248.268L274.75 249.567L245.749 232.823L246.499 231.524L247.249 230.225L276.25 246.969L275.5 248.268ZM246.499 231.524H244.999V217H246.499H247.999V231.524H246.499ZM246.499 217H244.999C244.999 214.514 242.984 212.5 240.499 212.5V211V209.5C244.641 209.5 247.999 212.857 247.999 217H246.499ZM240.499 211V212.5H115.499V211V209.5H240.499V211Z" fill="#151B37"/>
<path d="M116.499 207C113.185 207 110.499 209.686 110.499 213V279C110.499 282.313 113.185 285 116.499 285H241.499C244.813 285 247.499 282.313 247.499 279V264.475L276.5 247.732C277.833 246.962 277.833 245.038 276.5 244.268L247.499 227.524V213C247.499 209.686 244.813 207 241.499 207H116.499Z" fill="#9DA5E4"/>
<path d="M116.499 207L116.499 205.5H116.499V207ZM110.499 213L108.999 213V213L110.499 213ZM116.499 285L116.499 286.5L116.499 286.5L116.499 285ZM247.499 279L248.999 279V279L247.499 279ZM247.499 264.475H245.999V263.609L246.749 263.176L247.499 264.475ZM276.5 247.732L277.25 249.031L277.25 249.031L276.5 247.732ZM276.5 244.268L275.75 245.567L275.75 245.567L276.5 244.268ZM247.499 227.524L246.749 228.823L245.999 228.39V227.524H247.499ZM116.499 207L116.499 208.5C114.014 208.5 111.999 210.514 111.999 213L110.499 213L108.999 213C108.999 208.858 112.357 205.5 116.499 205.5L116.499 207ZM110.499 213H111.999V279H110.499H108.999V213H110.499ZM110.499 279H111.999C111.999 281.485 114.014 283.5 116.499 283.5L116.499 285L116.499 286.5C112.357 286.5 108.999 283.142 108.999 279H110.499ZM116.499 285V283.5H241.499V285V286.5H116.499V285ZM241.499 285V283.5C243.984 283.5 245.999 281.485 245.999 279L247.499 279L248.999 279C248.999 283.142 245.641 286.5 241.499 286.5V285ZM247.499 279H245.999V264.475H247.499H248.999V279H247.499ZM247.499 264.475L246.749 263.176L275.75 246.433L276.5 247.732L277.25 249.031L248.249 265.774L247.499 264.475ZM276.5 247.732L275.75 246.433C276.083 246.241 276.083 245.76 275.75 245.567L276.5 244.268L277.25 242.969C279.583 244.316 279.583 247.684 277.25 249.031L276.5 247.732ZM276.5 244.268L275.75 245.567L246.749 228.823L247.499 227.524L248.249 226.225L277.25 242.969L276.5 244.268ZM247.499 227.524H245.999V213H247.499H248.999V227.524H247.499ZM247.499 213H245.999C245.999 210.514 243.984 208.5 241.499 208.5V207V205.5C245.641 205.5 248.999 208.857 248.999 213H247.499ZM241.499 207V208.5H116.499V207V205.5H241.499V207Z" fill="#151B37"/>
<circle cx="221.5" cy="246.5" r="7.5" transform="rotate(180 221.5 246.5)" fill="#151B37"/>
<circle cx="192.5" cy="246.5" r="7.5" transform="rotate(180 192.5 246.5)" fill="#151B37"/>
<circle cx="163.5" cy="246.5" r="7.5" transform="rotate(180 163.5 246.5)" fill="#151B37"/>
<path d="M139.312 219.891C139.377 219.88 139.443 219.875 139.508 219.875L146.639 219.839C147.324 219.835 147.892 220.372 147.931 221.059L148.515 231.313C148.552 231.975 148.087 232.557 147.436 232.661L142.003 233.529C141.742 233.571 141.496 233.687 141.33 233.893C139.399 236.283 139.899 241.899 140.78 246.779L140.781 246.779C140.782 246.784 140.782 246.789 140.783 246.795C140.784 246.8 140.784 246.805 140.785 246.811C141.469 251.722 142.745 257.215 145.325 258.883C145.546 259.027 145.817 259.061 146.077 259.019L151.51 258.151C152.161 258.047 152.785 258.455 152.956 259.095L155.597 269.02C155.774 269.685 155.402 270.372 154.75 270.582L147.963 272.771C147.901 272.791 147.837 272.807 147.772 272.816C142.496 273.613 137.258 270.605 133.656 248.988L133.485 247.945C129.888 225.409 133.97 220.792 139.312 219.891Z" fill="#151B37"/>
<path d="M657.501 211C660.815 211 663.501 213.686 663.501 217V283C663.501 286.313 660.815 289 657.501 289H532.501C529.187 289 526.501 286.313 526.501 283V268.475L497.5 251.732C496.167 250.962 496.167 249.038 497.5 248.268L526.501 231.524V217C526.501 213.686 529.187 211 532.501 211H657.501Z" fill="#151B37"/>
<path d="M657.501 211L657.501 209.5H657.501V211ZM663.501 217L665.001 217V217L663.501 217ZM657.501 289L657.501 290.5L657.501 290.5L657.501 289ZM526.501 283L525.001 283V283L526.501 283ZM526.501 268.475H528.001V267.609L527.251 267.176L526.501 268.475ZM497.5 251.732L496.75 253.031L496.75 253.031L497.5 251.732ZM497.5 248.268L498.25 249.567L498.25 249.567L497.5 248.268ZM526.501 231.524L527.251 232.823L528.001 232.39V231.524H526.501ZM657.501 211L657.501 212.5C659.986 212.5 662.001 214.514 662.001 217L663.501 217L665.001 217C665.001 212.858 661.643 209.5 657.501 209.5L657.501 211ZM663.501 217H662.001V283H663.501H665.001V217H663.501ZM663.501 283H662.001C662.001 285.485 659.986 287.5 657.501 287.5L657.501 289L657.501 290.5C661.643 290.5 665.001 287.142 665.001 283H663.501ZM657.501 289V287.5H532.501V289V290.5H657.501V289ZM532.501 289V287.5C530.016 287.5 528.001 285.485 528.001 283L526.501 283L525.001 283C525.001 287.142 528.359 290.5 532.501 290.5V289ZM526.501 283H528.001V268.475H526.501H525.001V283H526.501ZM526.501 268.475L527.251 267.176L498.25 250.433L497.5 251.732L496.75 253.031L525.751 269.774L526.501 268.475ZM497.5 251.732L498.25 250.433C497.917 250.241 497.917 249.76 498.25 249.567L497.5 248.268L496.75 246.969C494.417 248.316 494.417 251.684 496.75 253.031L497.5 251.732ZM497.5 248.268L498.25 249.567L527.251 232.823L526.501 231.524L525.751 230.225L496.75 246.969L497.5 248.268ZM526.501 231.524H528.001V217H526.501H525.001V231.524H526.501ZM526.501 217H528.001C528.001 214.514 530.016 212.5 532.501 212.5V211V209.5C528.359 209.5 525.001 212.857 525.001 217H526.501ZM532.501 211V212.5H657.501V211V209.5H532.501V211Z" fill="#151B37"/>
<path d="M656.501 207C659.815 207 662.501 209.686 662.501 213V279C662.501 282.313 659.815 285 656.501 285H531.501C528.187 285 525.501 282.313 525.501 279V264.475L496.5 247.732C495.167 246.962 495.167 245.038 496.5 244.268L525.501 227.524V213C525.501 209.686 528.187 207 531.501 207H656.501Z" fill="#9DA5E4"/>
<path d="M656.501 207L656.501 205.5H656.501V207ZM662.501 213L664.001 213V213L662.501 213ZM656.501 285L656.501 286.5L656.501 286.5L656.501 285ZM525.501 279L524.001 279V279L525.501 279ZM525.501 264.475H527.001V263.609L526.251 263.176L525.501 264.475ZM496.5 247.732L495.75 249.031L495.75 249.031L496.5 247.732ZM496.5 244.268L497.25 245.567L497.25 245.567L496.5 244.268ZM525.501 227.524L526.251 228.823L527.001 228.39V227.524H525.501ZM656.501 207L656.501 208.5C658.986 208.5 661.001 210.514 661.001 213L662.501 213L664.001 213C664.001 208.858 660.643 205.5 656.501 205.5L656.501 207ZM662.501 213H661.001V279H662.501H664.001V213H662.501ZM662.501 279H661.001C661.001 281.485 658.986 283.5 656.501 283.5L656.501 285L656.501 286.5C660.643 286.5 664.001 283.142 664.001 279H662.501ZM656.501 285V283.5H531.501V285V286.5H656.501V285ZM531.501 285V283.5C529.016 283.5 527.001 281.485 527.001 279L525.501 279L524.001 279C524.001 283.142 527.359 286.5 531.501 286.5V285ZM525.501 279H527.001V264.475H525.501H524.001V279H525.501ZM525.501 264.475L526.251 263.176L497.25 246.433L496.5 247.732L495.75 249.031L524.751 265.774L525.501 264.475ZM496.5 247.732L497.25 246.433C496.917 246.241 496.917 245.76 497.25 245.567L496.5 244.268L495.75 242.969C493.417 244.316 493.417 247.684 495.75 249.031L496.5 247.732ZM496.5 244.268L497.25 245.567L526.251 228.823L525.501 227.524L524.751 226.225L495.75 242.969L496.5 244.268ZM525.501 227.524H527.001V213H525.501H524.001V227.524H525.501ZM525.501 213H527.001C527.001 210.514 529.016 208.5 531.501 208.5V207V205.5C527.359 205.5 524.001 208.857 524.001 213H525.501ZM531.501 207V208.5H656.501V207V205.5H531.501V207Z" fill="#151B37"/>
<circle cx="636.5" cy="246" r="7.5" transform="rotate(180 636.5 246)" fill="#151B37"/>
<circle cx="607.5" cy="246" r="7.5" transform="rotate(180 607.5 246)" fill="#151B37"/>
<circle cx="578.5" cy="246" r="7.5" transform="rotate(180 578.5 246)" fill="#151B37"/>
<path d="M554.312 219.391C554.377 219.38 554.443 219.375 554.508 219.375L561.639 219.339C562.324 219.335 562.892 219.872 562.931 220.559L563.515 230.813C563.552 231.475 563.087 232.057 562.436 232.161L557.003 233.029C556.742 233.071 556.496 233.187 556.33 233.393C554.399 235.783 554.899 241.399 555.78 246.279L555.781 246.279C555.782 246.284 555.782 246.289 555.783 246.295C555.784 246.3 555.784 246.305 555.785 246.311C556.469 251.222 557.745 256.715 560.325 258.383C560.546 258.527 560.817 258.561 561.077 258.519L566.51 257.651C567.161 257.547 567.785 257.955 567.956 258.595L570.597 268.52C570.774 269.185 570.402 269.872 569.75 270.082L562.963 272.271C562.901 272.291 562.837 272.307 562.772 272.316C557.496 273.113 552.258 270.105 548.656 248.488L548.485 247.445C544.888 224.909 548.97 220.292 554.312 219.391Z" fill="#151B37"/>
</svg>
