<svg width="774" height="509" viewBox="0 0 774 509" fill="none" xmlns="http://www.w3.org/2000/svg">
<g filter="url(#filter0_d_398_909)">
<rect x="0.5" width="773" height="496" rx="36" fill="#FDE192" shape-rendering="crispEdges"/>
<rect x="3.5" y="3" width="767" height="490" rx="33" stroke="#151B37" stroke-width="6" shape-rendering="crispEdges"/>
<g filter="url(#filter1_d_398_909)">
<path d="M515.909 355.735H599C600.657 355.735 602 357.078 602 358.735V430.735C602 432.392 600.657 433.735 599 433.735H468C466.343 433.735 465 432.392 465 430.735V358.735C465 357.078 466.343 355.735 468 355.735H483V336.735L515.909 355.735Z" fill="#9DA5E4"/>
<path d="M515.909 355.735L515.159 357.034L515.507 357.235H515.909V355.735ZM602 358.735H603.5H602ZM602 430.735H603.5H602ZM465 430.735H463.5H465ZM465 358.735L463.5 358.735V358.735H465ZM483 355.735V357.235H484.5V355.735H483ZM483 336.735L483.75 335.436L481.5 334.137V336.735H483ZM515.909 355.735V357.235H599V355.735V354.235H515.909V355.735ZM599 355.735V357.235C599.828 357.235 600.5 357.907 600.5 358.735H602H603.5C603.5 356.25 601.485 354.235 599 354.235V355.735ZM602 358.735H600.5V430.735H602H603.5V358.735H602ZM602 430.735H600.5C600.5 431.564 599.828 432.235 599 432.235V433.735V435.235C601.485 435.235 603.5 433.22 603.5 430.735H602ZM599 433.735V432.235H468V433.735V435.235H599V433.735ZM468 433.735V432.235C467.172 432.235 466.5 431.564 466.5 430.735H465H463.5C463.5 433.22 465.515 435.235 468 435.235V433.735ZM465 430.735H466.5V358.735H465H463.5V430.735H465ZM465 358.735L466.5 358.735C466.5 357.907 467.172 357.235 468 357.235V355.735V354.235C465.515 354.235 463.5 356.25 463.5 358.735L465 358.735ZM468 355.735V357.235H483V355.735V354.235H468V355.735ZM483 355.735H484.5V336.735H483H481.5V355.735H483ZM483 336.735L482.25 338.034L515.159 357.034L515.909 355.735L516.659 354.436L483.75 335.436L483 336.735Z" fill="#151B37"/>
</g>
<circle cx="572.371" cy="394.735" r="7.5" transform="rotate(180 572.371 394.735)" fill="#151B37"/>
<circle cx="543.371" cy="394.735" r="7.5" transform="rotate(180 543.371 394.735)" fill="#151B37"/>
<circle cx="514.371" cy="394.735" r="7.5" transform="rotate(180 514.371 394.735)" fill="#151B37"/>
<path d="M490.183 368.127C490.248 368.116 490.314 368.11 490.379 368.11L497.511 368.074C498.195 368.071 498.763 368.608 498.802 369.295L499.386 379.548C499.423 380.21 498.958 380.792 498.307 380.896L492.874 381.765C492.613 381.806 492.367 381.923 492.201 382.128C490.27 384.518 490.77 390.135 491.651 395.014L491.652 395.014C491.653 395.019 491.653 395.025 491.654 395.03C491.655 395.035 491.655 395.041 491.656 395.046C492.34 399.957 493.616 405.45 496.196 407.119C496.418 407.262 496.688 407.296 496.948 407.255L502.381 406.386C503.032 406.282 503.656 406.69 503.827 407.33L506.468 417.255C506.645 417.92 506.273 418.607 505.621 418.817L498.834 421.007C498.772 421.027 498.708 421.042 498.643 421.052C493.367 421.849 488.13 418.84 484.527 397.224L484.356 396.18C480.759 373.644 484.841 369.028 490.183 368.127Z" fill="#151B37"/>
<g filter="url(#filter2_d_398_909)">
<path d="M258.091 355.735H175C173.343 355.735 172 357.078 172 358.735V430.735C172 432.392 173.343 433.735 175 433.735H306C307.657 433.735 309 432.392 309 430.735V358.735C309 357.078 307.657 355.735 306 355.735H291V336.735L258.091 355.735Z" fill="#9DA5E4"/>
<path d="M258.091 355.735L258.841 357.034L258.493 357.235H258.091V355.735ZM172 358.735H170.5H172ZM172 430.735H170.5H172ZM309 430.735H310.5H309ZM309 358.735L310.5 358.735V358.735H309ZM291 355.735V357.235H289.5V355.735H291ZM291 336.735L290.25 335.436L292.5 334.137V336.735H291ZM258.091 355.735V357.235H175V355.735V354.235H258.091V355.735ZM175 355.735V357.235C174.172 357.235 173.5 357.907 173.5 358.735H172H170.5C170.5 356.25 172.515 354.235 175 354.235V355.735ZM172 358.735H173.5V430.735H172H170.5V358.735H172ZM172 430.735H173.5C173.5 431.564 174.172 432.235 175 432.235V433.735V435.235C172.515 435.235 170.5 433.22 170.5 430.735H172ZM175 433.735V432.235H306V433.735V435.235H175V433.735ZM306 433.735V432.235C306.828 432.235 307.5 431.564 307.5 430.735H309H310.5C310.5 433.22 308.485 435.235 306 435.235V433.735ZM309 430.735H307.5V358.735H309H310.5V430.735H309ZM309 358.735L307.5 358.735C307.5 357.907 306.828 357.235 306 357.235V355.735V354.235C308.485 354.235 310.5 356.25 310.5 358.735L309 358.735ZM306 355.735V357.235H291V355.735V354.235H306V355.735ZM291 355.735H289.5V336.735H291H292.5V355.735H291ZM291 336.735L291.75 338.034L258.841 357.034L258.091 355.735L257.341 354.436L290.25 335.436L291 336.735Z" fill="#151B37"/>
</g>
<circle cx="266" cy="394.735" r="7.5" transform="rotate(180 266 394.735)" fill="#151B37"/>
<circle cx="237" cy="394.735" r="7.5" transform="rotate(180 237 394.735)" fill="#151B37"/>
<circle cx="208" cy="394.735" r="7.5" transform="rotate(180 208 394.735)" fill="#151B37"/>
<g filter="url(#filter3_d_398_909)">
<path d="M656.001 208.735C657.658 208.735 659.001 210.078 659.001 211.735V283.735C659.001 285.392 657.658 286.735 656.001 286.735H525.001C523.344 286.735 522.001 285.392 522.001 283.735V266.211L490 247.735L522.001 229.259V211.735C522.001 210.078 523.344 208.735 525.001 208.735H656.001Z" fill="#9DA5E4"/>
<path d="M659.001 211.735H660.501H659.001ZM659.001 283.735H660.501H659.001ZM522.001 283.735H520.501H522.001ZM522.001 266.211H523.501V265.345L522.751 264.912L522.001 266.211ZM490 247.735L489.25 246.436L487 247.735L489.25 249.034L490 247.735ZM522.001 229.259L522.751 230.558L523.501 230.125V229.259H522.001ZM522.001 211.735L520.501 211.735V211.735H522.001ZM656.001 208.735V210.235C656.829 210.235 657.501 210.907 657.501 211.735H659.001H660.501C660.501 209.25 658.486 207.235 656.001 207.235V208.735ZM659.001 211.735H657.501V283.735H659.001H660.501V211.735H659.001ZM659.001 283.735H657.501C657.501 284.564 656.829 285.235 656.001 285.235V286.735V288.235C658.486 288.235 660.501 286.22 660.501 283.735H659.001ZM656.001 286.735V285.235H525.001V286.735V288.235H656.001V286.735ZM525.001 286.735V285.235C524.173 285.235 523.501 284.564 523.501 283.735H522.001H520.501C520.501 286.22 522.516 288.235 525.001 288.235V286.735ZM522.001 283.735H523.501V266.211H522.001H520.501V283.735H522.001ZM522.001 266.211L522.751 264.912L490.75 246.436L490 247.735L489.25 249.034L521.251 267.51L522.001 266.211ZM490 247.735L490.75 249.034L522.751 230.558L522.001 229.259L521.251 227.96L489.25 246.436L490 247.735ZM522.001 229.259H523.501V211.735H522.001H520.501V229.259H522.001ZM522.001 211.735L523.501 211.735C523.501 210.907 524.173 210.235 525.001 210.235V208.735V207.235C522.516 207.235 520.501 209.25 520.501 211.735L522.001 211.735ZM525.001 208.735V210.235H656.001V208.735V207.235H525.001V208.735Z" fill="#151B37"/>
</g>
<circle cx="629.371" cy="247.735" r="7.5" transform="rotate(180 629.371 247.735)" fill="#151B37"/>
<circle cx="600.371" cy="247.735" r="7.5" transform="rotate(180 600.371 247.735)" fill="#151B37"/>
<circle cx="571.371" cy="247.735" r="7.5" transform="rotate(180 571.371 247.735)" fill="#151B37"/>
<path d="M547.183 221.127C547.248 221.116 547.314 221.11 547.379 221.11L554.511 221.074C555.195 221.071 555.763 221.608 555.802 222.295L556.386 232.548C556.423 233.21 555.958 233.792 555.307 233.896L549.874 234.765C549.613 234.806 549.367 234.923 549.201 235.128C547.27 237.518 547.77 243.135 548.651 248.014L548.652 248.014C548.653 248.019 548.653 248.025 548.654 248.03C548.655 248.035 548.655 248.041 548.656 248.046C549.34 252.957 550.616 258.45 553.196 260.119C553.418 260.262 553.688 260.296 553.948 260.255L559.381 259.386C560.032 259.282 560.656 259.69 560.827 260.33L563.468 270.255C563.645 270.92 563.273 271.607 562.621 271.817L555.834 274.007C555.772 274.027 555.708 274.042 555.643 274.052C550.367 274.849 545.13 271.84 541.527 250.224L541.356 249.18C537.759 226.644 541.841 222.028 547.183 221.127Z" fill="#151B37"/>
<g filter="url(#filter4_d_398_909)">
<path d="M122.999 208.735C118.581 208.735 114.999 212.317 114.999 216.735V278.735C114.999 283.153 118.581 286.735 122.999 286.735H243.999C248.417 286.735 251.999 283.153 251.999 278.735V266.211L279.5 250.334C281.5 249.179 281.5 246.292 279.5 245.137L251.999 229.26V216.735C251.999 212.317 248.417 208.735 243.999 208.735H122.999Z" fill="#9DA5E4"/>
<path d="M122.999 208.735L122.999 207.235H122.999V208.735ZM114.999 216.735H113.499H114.999ZM122.999 286.735V288.235H122.999L122.999 286.735ZM251.999 278.735H253.499H251.999ZM251.999 266.211H250.499V265.345L251.249 264.912L251.999 266.211ZM279.5 250.334L280.25 251.633L280.25 251.633L279.5 250.334ZM279.5 245.137L278.75 246.436L278.75 246.436L279.5 245.137ZM251.999 229.26L251.249 230.559L250.499 230.126V229.26H251.999ZM122.999 208.735L122.999 210.235C119.409 210.235 116.499 213.145 116.499 216.735H114.999H113.499C113.499 211.488 117.752 207.235 122.999 207.235L122.999 208.735ZM114.999 216.735H116.499V278.735H114.999H113.499V216.735H114.999ZM114.999 278.735H116.499C116.499 282.325 119.409 285.235 122.999 285.235L122.999 286.735L122.999 288.235C117.752 288.235 113.499 283.982 113.499 278.735H114.999ZM122.999 286.735V285.235H243.999V286.735V288.235H122.999V286.735ZM243.999 286.735V285.235C247.589 285.235 250.499 282.325 250.499 278.735H251.999H253.499C253.499 283.982 249.246 288.235 243.999 288.235V286.735ZM251.999 278.735H250.499V266.211H251.999H253.499V278.735H251.999ZM251.999 266.211L251.249 264.912L278.75 249.035L279.5 250.334L280.25 251.633L252.749 267.51L251.999 266.211ZM279.5 250.334L278.75 249.035C279.75 248.457 279.75 247.014 278.75 246.436L279.5 245.137L280.25 243.838C283.25 245.57 283.25 249.901 280.25 251.633L279.5 250.334ZM279.5 245.137L278.75 246.436L251.249 230.559L251.999 229.26L252.749 227.96L280.25 243.838L279.5 245.137ZM251.999 229.26H250.499V216.735H251.999H253.499V229.26H251.999ZM251.999 216.735H250.499C250.499 213.145 247.589 210.235 243.999 210.235V208.735V207.235C249.246 207.235 253.499 211.488 253.499 216.735H251.999ZM243.999 208.735V210.235H122.999V208.735V207.235H243.999V208.735Z" fill="#151B37"/>
</g>
<circle cx="222.371" cy="247.735" r="7.5" transform="rotate(180 222.371 247.735)" fill="#151B37"/>
<circle cx="193.371" cy="247.735" r="7.5" transform="rotate(180 193.371 247.735)" fill="#151B37"/>
<circle cx="164.371" cy="247.735" r="7.5" transform="rotate(180 164.371 247.735)" fill="#151B37"/>
<path d="M140.183 221.127C140.248 221.116 140.314 221.11 140.379 221.11L147.511 221.074C148.195 221.071 148.763 221.608 148.802 222.295L149.386 232.548C149.423 233.21 148.958 233.792 148.307 233.896L142.874 234.765C142.613 234.806 142.367 234.923 142.201 235.128C140.27 237.518 140.77 243.135 141.651 248.014C141.652 248.02 141.653 248.025 141.654 248.03C141.655 248.035 141.655 248.041 141.656 248.046C142.34 252.957 143.616 258.45 146.196 260.119C146.418 260.262 146.688 260.296 146.948 260.255L152.381 259.386C153.032 259.282 153.656 259.69 153.827 260.33L156.468 270.255C156.645 270.92 156.273 271.607 155.621 271.817L148.834 274.007C148.772 274.027 148.708 274.042 148.643 274.052C143.367 274.849 138.13 271.84 134.527 250.224L134.356 249.18C130.759 226.644 134.841 222.028 140.183 221.127Z" fill="#151B37"/>
<g filter="url(#filter5_d_398_909)">
<path d="M515.909 139.735H599C600.657 139.735 602 138.392 602 136.735V64.7351C602 63.0783 600.657 61.7351 599 61.7351H468C466.343 61.7351 465 63.0783 465 64.7351V136.735C465 138.392 466.343 139.735 468 139.735H483V158.735L515.909 139.735Z" fill="#9DA5E4"/>
<path d="M515.909 139.735L515.159 138.436L515.507 138.235H515.909V139.735ZM602 136.735H603.5H602ZM602 64.7351H603.5H602ZM465 64.7351H463.5H465ZM465 136.735L463.5 136.735V136.735H465ZM483 139.735V138.235H484.5V139.735H483ZM483 158.735L483.75 160.034L481.5 161.333V158.735H483ZM515.909 139.735V138.235H599V139.735V141.235H515.909V139.735ZM599 139.735V138.235C599.828 138.235 600.5 137.564 600.5 136.735H602H603.5C603.5 139.22 601.485 141.235 599 141.235V139.735ZM602 136.735H600.5V64.7351H602H603.5V136.735H602ZM602 64.7351H600.5C600.5 63.9067 599.828 63.2351 599 63.2351V61.7351V60.2351C601.485 60.2351 603.5 62.2498 603.5 64.7351H602ZM599 61.7351V63.2351H468V61.7351V60.2351H599V61.7351ZM468 61.7351V63.2351C467.172 63.2351 466.5 63.9067 466.5 64.7351H465H463.5C463.5 62.2498 465.515 60.2351 468 60.2351V61.7351ZM465 64.7351H466.5V136.735H465H463.5V64.7351H465ZM465 136.735L466.5 136.735C466.5 137.564 467.172 138.235 468 138.235V139.735V141.235C465.515 141.235 463.5 139.22 463.5 136.735L465 136.735ZM468 139.735V138.235H483V139.735V141.235H468V139.735ZM483 139.735H484.5V158.735H483H481.5V139.735H483ZM483 158.735L482.25 157.436L515.159 138.436L515.909 139.735L516.659 141.034L483.75 160.034L483 158.735Z" fill="#151B37"/>
</g>
<circle cx="559" cy="100.735" r="7.5" transform="rotate(-180 559 100.735)" fill="#151B37"/>
<circle cx="530" cy="100.735" r="7.5" transform="rotate(-180 530 100.735)" fill="#151B37"/>
<circle cx="501" cy="100.735" r="7.5" transform="rotate(-180 501 100.735)" fill="#151B37"/>
<g filter="url(#filter6_d_398_909)">
<path d="M258.091 139.735H175C173.343 139.735 172 138.392 172 136.735V64.7351C172 63.0783 173.343 61.7351 175 61.7351H306C307.657 61.7351 309 63.0783 309 64.7351V136.735C309 138.392 307.657 139.735 306 139.735H291V158.735L258.091 139.735Z" fill="#9DA5E4"/>
<path d="M258.091 139.735L258.841 138.436L258.493 138.235H258.091V139.735ZM172 136.735H170.5H172ZM172 64.7351H170.5H172ZM309 64.7351H310.5H309ZM309 136.735L310.5 136.735V136.735H309ZM291 139.735V138.235H289.5V139.735H291ZM291 158.735L290.25 160.034L292.5 161.333V158.735H291ZM258.091 139.735V138.235H175V139.735V141.235H258.091V139.735ZM175 139.735V138.235C174.172 138.235 173.5 137.564 173.5 136.735H172H170.5C170.5 139.22 172.515 141.235 175 141.235V139.735ZM172 136.735H173.5V64.7351H172H170.5V136.735H172ZM172 64.7351H173.5C173.5 63.9067 174.172 63.2351 175 63.2351V61.7351V60.2351C172.515 60.2351 170.5 62.2498 170.5 64.7351H172ZM175 61.7351V63.2351H306V61.7351V60.2351H175V61.7351ZM306 61.7351V63.2351C306.828 63.2351 307.5 63.9067 307.5 64.7351H309H310.5C310.5 62.2498 308.485 60.2351 306 60.2351V61.7351ZM309 64.7351H307.5V136.735H309H310.5V64.7351H309ZM309 136.735L307.5 136.735C307.5 137.564 306.828 138.235 306 138.235V139.735V141.235C308.485 141.235 310.5 139.22 310.5 136.735L309 136.735ZM306 139.735V138.235H291V139.735V141.235H306V139.735ZM291 139.735H289.5V158.735H291H292.5V139.735H291ZM291 158.735L291.75 157.436L258.841 138.436L258.091 139.735L257.341 141.034L290.25 160.034L291 158.735Z" fill="#151B37"/>
</g>
<circle cx="279.371" cy="100.735" r="7.5" transform="rotate(180 279.371 100.735)" fill="#151B37"/>
<circle cx="250.371" cy="100.735" r="7.5" transform="rotate(180 250.371 100.735)" fill="#151B37"/>
<circle cx="221.371" cy="100.735" r="7.5" transform="rotate(180 221.371 100.735)" fill="#151B37"/>
<path d="M197.183 74.1266C197.248 74.1157 197.314 74.1104 197.379 74.11L204.511 74.0743C205.195 74.0709 205.763 74.6075 205.802 75.2948L206.386 85.5485C206.423 86.2099 205.958 86.7921 205.307 86.896L199.874 87.7645C199.613 87.8062 199.367 87.9227 199.201 88.1283C197.27 90.5181 197.77 96.1349 198.651 101.014L198.652 101.014C198.653 101.019 198.653 101.025 198.654 101.03C198.655 101.035 198.655 101.041 198.656 101.046C199.34 105.957 200.616 111.45 203.196 113.119C203.418 113.262 203.688 113.296 203.948 113.255L209.381 112.386C210.032 112.282 210.656 112.69 210.827 113.33L213.468 123.255C213.645 123.92 213.273 124.607 212.621 124.817L205.834 127.007C205.772 127.027 205.708 127.042 205.643 127.052C200.367 127.849 195.13 124.84 191.527 103.224L191.356 102.18C187.759 79.6442 191.841 75.0275 197.183 74.1266Z" fill="#151B37"/>
<rect x="318.5" y="176.735" width="138" height="142" rx="10" fill="#151C38"/>
<path d="M407.02 228.121L421.503 228.427C427.143 228.546 429.913 235.371 425.968 239.427L407.274 258.644L412.382 269.467L417.155 266.878C420.437 265.098 424.534 266.436 426.137 269.815C427.619 272.94 426.418 276.689 423.401 278.368L396.355 293.412L384.299 271.954L367.029 289.494L344.883 267.868C342.413 265.455 342.243 261.526 344.494 258.9C346.929 256.061 351.233 255.842 353.932 258.423L357.857 262.175L365.629 253.078L352.638 229.621C349.897 224.671 354.363 218.814 359.836 220.18L373.891 223.691L392.415 205.254C392.881 204.791 393.66 204.895 393.987 205.464L407.02 228.121ZM373.178 233.532C372.316 233.343 370.313 233.639 369.195 236.331C367.799 239.692 367.633 253.474 386.375 256.016L386.375 256.02L386.48 256.034L386.48 256.031C405.23 258.502 408.693 245.161 408.23 241.551C407.858 238.662 406.003 237.849 405.122 237.804L373.178 233.532ZM385.658 223.824C383.452 223.529 381.407 225.21 381.09 227.574C380.775 229.937 382.307 232.092 384.512 232.387C386.717 232.681 388.763 231.005 389.079 228.642C389.395 226.279 387.863 224.12 385.658 223.824ZM395.636 225.159C393.43 224.864 391.385 226.544 391.069 228.908C390.753 231.272 392.285 233.427 394.491 233.722C396.695 234.015 398.741 232.339 399.057 229.976C399.373 227.613 397.84 225.455 395.636 225.159Z" fill="#F8C63B"/>
</g>
<defs>
<filter id="filter0_d_398_909" x="0.5" y="0" width="773" height="509" filterUnits="userSpaceOnUse" color-interpolation-filters="sRGB">
<feFlood flood-opacity="0" result="BackgroundImageFix"/>
<feColorMatrix in="SourceAlpha" type="matrix" values="0 0 0 0 0 0 0 0 0 0 0 0 0 0 0 0 0 0 127 0" result="hardAlpha"/>
<feOffset dy="13"/>
<feComposite in2="hardAlpha" operator="out"/>
<feColorMatrix type="matrix" values="0 0 0 0 0 0 0 0 0 0 0 0 0 0 0 0 0 0 1 0"/>
<feBlend mode="normal" in2="BackgroundImageFix" result="effect1_dropShadow_398_909"/>
<feBlend mode="normal" in="SourceGraphic" in2="effect1_dropShadow_398_909" result="shape"/>
</filter>
<filter id="filter1_d_398_909" x="463.5" y="334.137" width="144" height="105.098" filterUnits="userSpaceOnUse" color-interpolation-filters="sRGB">
<feFlood flood-opacity="0" result="BackgroundImageFix"/>
<feColorMatrix in="SourceAlpha" type="matrix" values="0 0 0 0 0 0 0 0 0 0 0 0 0 0 0 0 0 0 127 0" result="hardAlpha"/>
<feOffset dx="4" dy="4"/>
<feComposite in2="hardAlpha" operator="out"/>
<feColorMatrix type="matrix" values="0 0 0 0 0 0 0 0 0 0 0 0 0 0 0 0 0 0 1 0"/>
<feBlend mode="normal" in2="BackgroundImageFix" result="effect1_dropShadow_398_909"/>
<feBlend mode="normal" in="SourceGraphic" in2="effect1_dropShadow_398_909" result="shape"/>
</filter>
<filter id="filter2_d_398_909" x="170.5" y="334.137" width="144" height="105.098" filterUnits="userSpaceOnUse" color-interpolation-filters="sRGB">
<feFlood flood-opacity="0" result="BackgroundImageFix"/>
<feColorMatrix in="SourceAlpha" type="matrix" values="0 0 0 0 0 0 0 0 0 0 0 0 0 0 0 0 0 0 127 0" result="hardAlpha"/>
<feOffset dx="4" dy="4"/>
<feComposite in2="hardAlpha" operator="out"/>
<feColorMatrix type="matrix" values="0 0 0 0 0 0 0 0 0 0 0 0 0 0 0 0 0 0 1 0"/>
<feBlend mode="normal" in2="BackgroundImageFix" result="effect1_dropShadow_398_909"/>
<feBlend mode="normal" in="SourceGraphic" in2="effect1_dropShadow_398_909" result="shape"/>
</filter>
<filter id="filter3_d_398_909" x="487" y="207.235" width="177.5" height="85" filterUnits="userSpaceOnUse" color-interpolation-filters="sRGB">
<feFlood flood-opacity="0" result="BackgroundImageFix"/>
<feColorMatrix in="SourceAlpha" type="matrix" values="0 0 0 0 0 0 0 0 0 0 0 0 0 0 0 0 0 0 127 0" result="hardAlpha"/>
<feOffset dx="4" dy="4"/>
<feComposite in2="hardAlpha" operator="out"/>
<feColorMatrix type="matrix" values="0 0 0 0 0 0 0 0 0 0 0 0 0 0 0 0 0 0 1 0"/>
<feBlend mode="normal" in2="BackgroundImageFix" result="effect1_dropShadow_398_909"/>
<feBlend mode="normal" in="SourceGraphic" in2="effect1_dropShadow_398_909" result="shape"/>
</filter>
<filter id="filter4_d_398_909" x="113.5" y="207.235" width="173" height="85" filterUnits="userSpaceOnUse" color-interpolation-filters="sRGB">
<feFlood flood-opacity="0" result="BackgroundImageFix"/>
<feColorMatrix in="SourceAlpha" type="matrix" values="0 0 0 0 0 0 0 0 0 0 0 0 0 0 0 0 0 0 127 0" result="hardAlpha"/>
<feOffset dx="4" dy="4"/>
<feComposite in2="hardAlpha" operator="out"/>
<feColorMatrix type="matrix" values="0 0 0 0 0 0 0 0 0 0 0 0 0 0 0 0 0 0 1 0"/>
<feBlend mode="normal" in2="BackgroundImageFix" result="effect1_dropShadow_398_909"/>
<feBlend mode="normal" in="SourceGraphic" in2="effect1_dropShadow_398_909" result="shape"/>
</filter>
<filter id="filter5_d_398_909" x="463.5" y="60.2351" width="144" height="105.098" filterUnits="userSpaceOnUse" color-interpolation-filters="sRGB">
<feFlood flood-opacity="0" result="BackgroundImageFix"/>
<feColorMatrix in="SourceAlpha" type="matrix" values="0 0 0 0 0 0 0 0 0 0 0 0 0 0 0 0 0 0 127 0" result="hardAlpha"/>
<feOffset dx="4" dy="4"/>
<feComposite in2="hardAlpha" operator="out"/>
<feColorMatrix type="matrix" values="0 0 0 0 0 0 0 0 0 0 0 0 0 0 0 0 0 0 1 0"/>
<feBlend mode="normal" in2="BackgroundImageFix" result="effect1_dropShadow_398_909"/>
<feBlend mode="normal" in="SourceGraphic" in2="effect1_dropShadow_398_909" result="shape"/>
</filter>
<filter id="filter6_d_398_909" x="170.5" y="60.2351" width="144" height="105.098" filterUnits="userSpaceOnUse" color-interpolation-filters="sRGB">
<feFlood flood-opacity="0" result="BackgroundImageFix"/>
<feColorMatrix in="SourceAlpha" type="matrix" values="0 0 0 0 0 0 0 0 0 0 0 0 0 0 0 0 0 0 127 0" result="hardAlpha"/>
<feOffset dx="4" dy="4"/>
<feComposite in2="hardAlpha" operator="out"/>
<feColorMatrix type="matrix" values="0 0 0 0 0 0 0 0 0 0 0 0 0 0 0 0 0 0 1 0"/>
<feBlend mode="normal" in2="BackgroundImageFix" result="effect1_dropShadow_398_909"/>
<feBlend mode="normal" in="SourceGraphic" in2="effect1_dropShadow_398_909" result="shape"/>
</filter>
</defs>
</svg>
