<svg width="1130" height="629" viewBox="0 0 1130 629" fill="none" xmlns="http://www.w3.org/2000/svg">
<g filter="url(#filter0_d_454_1163)">
<rect width="1130" height="616" rx="36" fill="#FDE192" shape-rendering="crispEdges"/>
<rect x="3" y="3" width="1124" height="610" rx="33" stroke="#151B37" stroke-width="6" shape-rendering="crispEdges"/>
<g filter="url(#filter1_d_454_1163)">
<rect x="230.637" y="60.6882" width="687.473" height="270.525" rx="10.7139" fill="white" shape-rendering="crispEdges"/>
<rect x="231.976" y="62.0275" width="684.794" height="267.847" rx="9.37463" stroke="#151B37" stroke-width="2.67847" shape-rendering="crispEdges"/>
<path d="M412.368 114.643V120.544H408.644V105.98H412.368V111.682H418.133V105.98H421.848V120.544H418.133V114.643H412.368ZM429.653 120.889C428.481 120.889 427.435 120.648 426.504 120.157C425.572 119.665 424.85 118.985 424.338 118.116C423.815 117.248 423.553 116.254 423.553 115.155C423.553 112.948 424.652 111.127 426.504 110.144C427.435 109.652 428.481 109.411 429.653 109.411C430.814 109.411 431.861 109.652 432.792 110.144C433.712 110.635 434.434 111.326 434.957 112.194C435.481 113.063 435.742 114.057 435.742 115.155C435.742 116.254 435.481 117.248 434.957 118.116C434.434 118.985 433.712 119.665 432.792 120.157C431.861 120.648 430.814 120.889 429.653 120.889ZM429.653 118.033C431.275 118.033 432.331 116.882 432.331 115.155C432.331 113.429 431.275 112.278 429.653 112.278C428.021 112.278 426.964 113.439 426.964 115.155C426.964 116.871 428.021 118.033 429.653 118.033ZM446.425 109.767L448.256 116.704L450.16 109.767H453.445L449.94 120.544H446.456L444.73 113.931L442.961 120.544H439.488L435.983 109.767H439.551L441.423 116.704L443.254 109.767H446.425ZM461.815 105.415V120.544H458.467V105.415H461.815ZM465.77 108.501C464.651 108.501 463.824 107.706 463.824 106.67C463.824 105.634 464.651 104.85 465.77 104.85C466.9 104.85 467.727 105.634 467.727 106.67C467.727 107.706 466.9 108.501 465.77 108.501ZM467.444 109.767V120.544H464.096V109.767H467.444ZM480.743 109.767L476.735 114.988L481.077 120.544H476.871L473.063 115.448V120.544H469.715V105.415H473.063V114.831L476.746 109.767H480.743ZM492.011 114.862C492.011 115.48 491.98 115.909 491.917 116.139H483.976C484.07 117.489 485.032 118.336 486.424 118.336C487.512 118.336 488.265 117.897 488.548 117.133H491.812C491.247 119.424 489.27 120.889 486.382 120.889C484.153 120.889 482.322 119.885 481.328 118.148C480.837 117.279 480.586 116.285 480.586 115.155C480.586 112.927 481.642 111.106 483.4 110.133C484.279 109.652 485.262 109.411 486.361 109.411C488.579 109.411 490.347 110.374 491.299 112.017C491.77 112.843 492.011 113.785 492.011 114.862ZM486.424 111.933C485.053 111.933 484.132 112.812 483.976 114.12H488.767C488.736 113.45 488.506 112.916 488.077 112.519C487.648 112.132 487.093 111.933 486.424 111.933ZM497.054 105.415V120.544H493.706V105.415H497.054ZM501.856 109.767L504.367 116.84L506.826 109.767H510.3L504.127 125.043H500.653L502.484 120.533L498.153 109.767H501.856ZM520.072 109.411C523.179 109.411 524.864 110.981 524.864 113.9V120.544H522.395C522.374 120.125 522.322 119.801 522.248 119.581C522.196 119.382 522.112 119.288 521.976 119.288C521.851 119.288 521.757 119.351 521.621 119.529C520.857 120.46 519.957 120.868 518.544 120.868C517.027 120.868 515.761 120.314 515.081 119.257C514.736 118.734 514.569 118.116 514.569 117.394C514.569 115.354 516.033 114.235 518.879 114.067C520.103 113.994 521.024 113.868 521.662 113.712V113.586C521.662 112.508 521.056 111.922 519.999 111.922C519.036 111.922 518.419 112.404 518.241 113.188H514.924C515.343 110.97 517.142 109.411 520.072 109.411ZM521.328 117.53C521.547 117.133 521.662 116.599 521.662 115.93V115.637C521.254 115.783 520.543 115.909 519.507 116.003C518.367 116.128 517.917 116.505 517.917 117.227C517.917 118.054 518.513 118.514 519.507 118.514C520.334 118.514 520.961 118.2 521.328 117.53ZM530.357 120.544H527.009V109.767H529.373C529.426 110.28 529.489 110.635 529.541 110.813C529.614 111.033 529.708 111.138 529.844 111.138C529.97 111.138 530.022 111.085 530.116 110.887C530.566 110.05 531.456 109.568 532.627 109.568C532.994 109.568 533.286 109.6 533.527 109.652V112.582C533.15 112.529 532.816 112.508 532.533 112.508C531.78 112.508 531.267 112.676 530.901 113.052C530.535 113.439 530.357 114.046 530.357 114.873V120.544ZM545.622 114.862C545.622 115.48 545.591 115.909 545.528 116.139H537.587C537.681 117.489 538.643 118.336 540.035 118.336C541.123 118.336 541.876 117.897 542.159 117.133H545.423C544.858 119.424 542.881 120.889 539.993 120.889C537.765 120.889 535.934 119.885 534.94 118.148C534.448 117.279 534.197 116.285 534.197 115.155C534.197 112.927 535.253 111.106 537.011 110.133C537.89 109.652 538.874 109.411 539.972 109.411C542.19 109.411 543.959 110.374 544.911 112.017C545.381 112.843 545.622 113.785 545.622 114.862ZM540.035 111.933C538.664 111.933 537.744 112.812 537.587 114.12H542.379C542.347 113.45 542.117 112.916 541.688 112.519C541.259 112.132 540.705 111.933 540.035 111.933ZM553.626 109.767L556.137 116.84L558.596 109.767H562.07L555.897 125.043H552.423L554.254 120.533L549.922 109.767H553.626ZM568.201 120.889C567.029 120.889 565.983 120.648 565.051 120.157C564.12 119.665 563.398 118.985 562.886 118.116C562.362 117.248 562.101 116.254 562.101 115.155C562.101 112.948 563.2 111.127 565.051 110.144C565.983 109.652 567.029 109.411 568.201 109.411C569.362 109.411 570.408 109.652 571.34 110.144C572.26 110.635 572.982 111.326 573.505 112.194C574.028 113.063 574.29 114.057 574.29 115.155C574.29 116.254 574.028 117.248 573.505 118.116C572.982 118.985 572.26 119.665 571.34 120.157C570.408 120.648 569.362 120.889 568.201 120.889ZM568.201 118.033C569.822 118.033 570.879 116.882 570.879 115.155C570.879 113.429 569.822 112.278 568.201 112.278C566.569 112.278 565.512 113.439 565.512 115.155C565.512 116.871 566.569 118.033 568.201 118.033ZM579.835 120.889C577.282 120.889 575.828 119.299 575.828 116.536V109.767H579.176V115.835C579.176 117.206 579.752 117.918 580.913 117.918C581.635 117.918 582.169 117.677 582.524 117.185C582.88 116.714 583.058 116.034 583.058 115.155V109.767H586.406V120.544H583.958C583.947 120.261 583.895 119.874 583.822 119.633C583.748 119.361 583.623 119.225 583.434 119.225C583.278 119.225 583.183 119.288 583.006 119.497C582.2 120.429 581.206 120.889 579.835 120.889ZM597.946 120.701C595.153 120.701 593.855 119.539 593.855 116.746V112.456H591.888V109.767H593.092C593.876 109.767 594.284 109.495 594.494 108.857C594.651 108.355 594.776 107.675 594.891 106.817H597.141V109.767H599.819V112.456H597.141V116.411C597.141 117.583 597.601 118.054 598.731 118.054C599.139 118.054 599.558 118.001 599.976 117.897V120.397C599.484 120.565 598.647 120.701 597.946 120.701ZM606.829 120.889C605.657 120.889 604.611 120.648 603.68 120.157C602.749 119.665 602.027 118.985 601.514 118.116C600.991 117.248 600.729 116.254 600.729 115.155C600.729 112.948 601.828 111.127 603.68 110.144C604.611 109.652 605.657 109.411 606.829 109.411C607.991 109.411 609.037 109.652 609.968 110.144C610.889 110.635 611.611 111.326 612.134 112.194C612.657 113.063 612.919 114.057 612.919 115.155C612.919 116.254 612.657 117.248 612.134 118.116C611.611 118.985 610.889 119.665 609.968 120.157C609.037 120.648 607.991 120.889 606.829 120.889ZM606.829 118.033C608.451 118.033 609.508 116.882 609.508 115.155C609.508 113.429 608.451 112.278 606.829 112.278C605.197 112.278 604.14 113.439 604.14 115.155C604.14 116.871 605.197 118.033 606.829 118.033ZM622.178 120.544H618.83V109.767H621.195C621.247 110.28 621.31 110.635 621.362 110.813C621.435 111.033 621.529 111.138 621.665 111.138C621.791 111.138 621.843 111.085 621.937 110.887C622.387 110.05 623.277 109.568 624.449 109.568C624.815 109.568 625.108 109.6 625.348 109.652V112.582C624.972 112.529 624.637 112.508 624.354 112.508C623.601 112.508 623.088 112.676 622.722 113.052C622.356 113.439 622.178 114.046 622.178 114.873V120.544ZM637.443 114.862C637.443 115.48 637.412 115.909 637.349 116.139H629.408C629.502 117.489 630.465 118.336 631.856 118.336C632.944 118.336 633.698 117.897 633.98 117.133H637.244C636.679 119.424 634.702 120.889 631.814 120.889C629.586 120.889 627.755 119.885 626.761 118.148C626.269 117.279 626.018 116.285 626.018 115.155C626.018 112.927 627.075 111.106 628.832 110.133C629.711 109.652 630.695 109.411 631.793 109.411C634.011 109.411 635.78 110.374 636.732 112.017C637.203 112.843 637.443 113.785 637.443 114.862ZM631.856 111.933C630.486 111.933 629.565 112.812 629.408 114.12H634.2C634.168 113.45 633.938 112.916 633.509 112.519C633.08 112.132 632.526 111.933 631.856 111.933ZM644.495 120.889C642.162 120.889 640.289 119.864 639.285 118.116C638.782 117.248 638.531 116.254 638.531 115.155C638.531 112.937 639.588 111.127 641.398 110.144C642.298 109.652 643.334 109.411 644.495 109.411C646.828 109.411 648.523 110.384 649.423 111.839C649.873 112.571 650.124 113.366 650.187 114.214H646.902C646.703 113 645.834 112.278 644.568 112.278C642.968 112.278 641.932 113.429 641.932 115.155C641.932 116.882 642.968 118.033 644.568 118.033C645.834 118.033 646.703 117.311 646.902 116.097H650.187C650.061 117.802 649.172 119.34 647.498 120.219C646.661 120.669 645.657 120.889 644.495 120.889ZM657.26 120.889C656.088 120.889 655.042 120.648 654.11 120.157C653.179 119.665 652.457 118.985 651.945 118.116C651.421 117.248 651.16 116.254 651.16 115.155C651.16 112.948 652.259 111.127 654.11 110.144C655.042 109.652 656.088 109.411 657.26 109.411C658.421 109.411 659.467 109.652 660.399 110.144C661.319 110.635 662.041 111.326 662.564 112.194C663.087 113.063 663.349 114.057 663.349 115.155C663.349 116.254 663.087 117.248 662.564 118.116C662.041 118.985 661.319 119.665 660.399 120.157C659.467 120.648 658.421 120.889 657.26 120.889ZM657.26 118.033C658.881 118.033 659.938 116.882 659.938 115.155C659.938 113.429 658.881 112.278 657.26 112.278C655.628 112.278 654.571 113.439 654.571 115.155C654.571 116.871 655.628 118.033 657.26 118.033ZM668.34 120.544H664.992V109.767H667.43C667.461 110.091 667.503 110.395 667.576 110.677C667.649 110.981 667.785 111.127 667.963 111.127C668.12 111.127 668.193 111.075 668.392 110.855C669.261 109.882 670.244 109.411 671.447 109.411C672.86 109.411 673.749 109.903 674.387 110.939C674.565 111.232 674.67 111.305 674.837 111.305C674.994 111.305 675.109 111.221 675.329 110.939C676.218 109.84 677.108 109.411 678.447 109.411C680.738 109.411 682.119 111.023 682.119 113.732V120.544H678.771V114.287C678.771 113.073 678.258 112.372 677.254 112.372C676.595 112.372 676.082 112.644 675.706 113.199C675.392 113.67 675.235 114.35 675.235 115.218V120.544H671.887V114.287C671.887 113.073 671.374 112.372 670.37 112.372C669.71 112.372 669.198 112.644 668.832 113.199C668.507 113.67 668.34 114.35 668.34 115.218V120.544ZM687.633 120.544H684.285V109.767H686.723C686.754 110.091 686.796 110.395 686.869 110.677C686.943 110.981 687.079 111.127 687.256 111.127C687.413 111.127 687.487 111.075 687.685 110.855C688.554 109.882 689.537 109.411 690.741 109.411C692.153 109.411 693.042 109.903 693.681 110.939C693.858 111.232 693.963 111.305 694.13 111.305C694.287 111.305 694.402 111.221 694.622 110.939C695.512 109.84 696.401 109.411 697.74 109.411C700.031 109.411 701.413 111.023 701.413 113.732V120.544H698.064V114.287C698.064 113.073 697.552 112.372 696.547 112.372C695.888 112.372 695.376 112.644 694.999 113.199C694.685 113.67 694.528 114.35 694.528 115.218V120.544H691.18V114.287C691.18 113.073 690.667 112.372 689.663 112.372C689.004 112.372 688.491 112.644 688.125 113.199C687.8 113.67 687.633 114.35 687.633 115.218V120.544ZM714.407 114.862C714.407 115.48 714.376 115.909 714.313 116.139H706.372C706.466 117.489 707.429 118.336 708.82 118.336C709.908 118.336 710.662 117.897 710.944 117.133H714.209C713.644 119.424 711.666 120.889 708.778 120.889C706.55 120.889 704.719 119.885 703.725 118.148C703.233 117.279 702.982 116.285 702.982 115.155C702.982 112.927 704.039 111.106 705.796 110.133C706.675 109.652 707.659 109.411 708.757 109.411C710.976 109.411 712.744 110.374 713.696 112.017C714.167 112.843 714.407 113.785 714.407 114.862ZM708.82 111.933C707.45 111.933 706.529 112.812 706.372 114.12H711.164C711.132 113.45 710.902 112.916 710.473 112.519C710.044 112.132 709.49 111.933 708.82 111.933ZM719.44 120.544H716.092V109.767H718.561C718.571 110.06 718.624 110.458 718.697 110.709C718.77 110.981 718.896 111.117 719.074 111.117C719.241 111.117 719.314 111.054 719.513 110.834C720.34 109.882 721.344 109.411 722.736 109.411C725.257 109.411 726.722 111.012 726.722 113.764V120.544H723.374V114.413C723.374 113.084 722.788 112.393 721.689 112.393C721.009 112.393 720.465 112.644 720.057 113.136C719.649 113.659 719.44 114.392 719.44 115.323V120.544ZM733.596 120.889C731.556 120.889 729.882 119.843 728.971 118.095C728.511 117.227 728.281 116.244 728.281 115.166C728.281 114.088 728.522 113.115 728.992 112.236C729.463 111.368 730.112 110.677 730.938 110.186C731.765 109.694 732.675 109.443 733.68 109.443C734.883 109.443 735.845 109.819 736.505 110.405C736.662 110.531 736.724 110.562 736.819 110.562C736.955 110.562 737.017 110.458 737.017 110.248V105.415H740.365V120.544H737.907C737.896 120.219 737.844 119.916 737.771 119.633C737.687 119.351 737.593 119.246 737.394 119.246C737.268 119.246 737.153 119.32 736.975 119.497C736.086 120.429 734.967 120.889 733.596 120.889ZM734.37 118.033C735.103 118.033 735.709 117.813 736.201 117.373C736.756 116.871 737.101 116.097 737.101 115.166C737.101 114.245 736.756 113.471 736.201 112.969C735.709 112.529 735.103 112.31 734.37 112.31C732.769 112.31 731.713 113.46 731.713 115.166C731.713 116.882 732.769 118.033 734.37 118.033ZM441.79 141.889C439.237 141.889 437.782 140.299 437.782 137.536V130.767H441.131V136.835C441.131 138.206 441.706 138.918 442.867 138.918C443.589 138.918 444.123 138.677 444.479 138.185C444.834 137.714 445.012 137.034 445.012 136.155V130.767H448.36V141.544H445.912C445.902 141.261 445.849 140.874 445.776 140.633C445.703 140.361 445.577 140.225 445.389 140.225C445.232 140.225 445.138 140.288 444.96 140.497C444.154 141.429 443.16 141.889 441.79 141.889ZM454.994 141.889C452.116 141.889 450.244 140.508 449.909 138.196H453.225C453.351 139.085 453.979 139.587 455.015 139.587C455.883 139.587 456.396 139.211 456.396 138.614C456.396 138.007 456.019 137.662 454.68 137.432C452.514 137.066 451.29 136.511 450.704 135.59C450.411 135.13 450.264 134.544 450.264 133.843C450.264 131.771 452.085 130.411 454.795 130.411C457.588 130.411 459.189 131.656 459.482 134.011H456.26C456.145 133.121 455.695 132.713 454.826 132.713C454.031 132.713 453.529 133.058 453.529 133.644C453.529 134.303 453.947 134.607 455.423 134.837C458.478 135.318 459.671 136.302 459.671 138.384C459.671 139.755 458.854 140.853 457.442 141.439C456.73 141.742 455.914 141.889 454.994 141.889ZM470.615 141.701C467.821 141.701 466.524 140.539 466.524 137.746V133.456H464.557V130.767H465.76C466.545 130.767 466.953 130.495 467.162 129.857C467.319 129.355 467.444 128.675 467.559 127.817H469.809V130.767H472.487V133.456H469.809V137.411C469.809 138.583 470.269 139.054 471.399 139.054C471.807 139.054 472.226 139.001 472.644 138.897V141.397C472.153 141.565 471.316 141.701 470.615 141.701ZM479.497 141.889C478.326 141.889 477.279 141.648 476.348 141.157C475.417 140.665 474.695 139.985 474.182 139.116C473.659 138.248 473.398 137.254 473.398 136.155C473.398 133.948 474.496 132.127 476.348 131.144C477.279 130.652 478.326 130.411 479.497 130.411C480.659 130.411 481.705 130.652 482.636 131.144C483.557 131.635 484.279 132.326 484.802 133.194C485.325 134.063 485.587 135.057 485.587 136.155C485.587 137.254 485.325 138.248 484.802 139.116C484.279 139.985 483.557 140.665 482.636 141.157C481.705 141.648 480.659 141.889 479.497 141.889ZM479.497 139.033C481.119 139.033 482.176 137.882 482.176 136.155C482.176 134.429 481.119 133.278 479.497 133.278C477.865 133.278 476.809 134.439 476.809 136.155C476.809 137.871 477.865 139.033 479.497 139.033ZM496.405 130.411C499.513 130.411 501.197 131.981 501.197 134.9V141.544H498.728C498.707 141.125 498.655 140.801 498.582 140.581C498.529 140.382 498.446 140.288 498.309 140.288C498.184 140.288 498.09 140.351 497.954 140.529C497.19 141.46 496.29 141.868 494.878 141.868C493.361 141.868 492.095 141.314 491.415 140.257C491.069 139.734 490.902 139.116 490.902 138.394C490.902 136.354 492.367 135.235 495.213 135.067C496.437 134.994 497.357 134.868 497.996 134.712V134.586C497.996 133.508 497.389 132.922 496.332 132.922C495.369 132.922 494.752 133.404 494.574 134.188H491.258C491.676 131.97 493.476 130.411 496.405 130.411ZM497.661 138.53C497.881 138.133 497.996 137.599 497.996 136.93V136.637C497.588 136.783 496.876 136.909 495.84 137.003C494.7 137.128 494.25 137.505 494.25 138.227C494.25 139.054 494.846 139.514 495.84 139.514C496.667 139.514 497.295 139.2 497.661 138.53ZM511.901 141.544H508.615V133.456H506.648V130.767H508.615V129.961C508.615 127.325 510.007 125.996 512.727 125.996C513.449 125.996 514.255 126.122 514.726 126.32V128.831C514.328 128.695 513.92 128.633 513.512 128.633C512.434 128.633 511.901 129.124 511.901 130.118V130.767H514.579V133.456H511.901V141.544ZM519.225 141.544H515.876V130.767H518.241C518.293 131.28 518.356 131.635 518.408 131.813C518.482 132.033 518.576 132.138 518.712 132.138C518.837 132.138 518.89 132.085 518.984 131.887C519.434 131.05 520.323 130.568 521.495 130.568C521.861 130.568 522.154 130.6 522.395 130.652V133.582C522.018 133.529 521.683 133.508 521.401 133.508C520.647 133.508 520.135 133.676 519.769 134.052C519.402 134.439 519.225 135.046 519.225 135.873V141.544ZM525.575 129.501C524.456 129.501 523.629 128.706 523.629 127.67C523.629 126.634 524.456 125.85 525.575 125.85C526.705 125.85 527.532 126.634 527.532 127.67C527.532 128.706 526.705 129.501 525.575 129.501ZM527.249 130.767V141.544H523.901V130.767H527.249ZM540.349 135.862C540.349 136.48 540.317 136.909 540.255 137.139H532.313C532.408 138.489 533.37 139.336 534.762 139.336C535.85 139.336 536.603 138.897 536.886 138.133H540.15C539.585 140.424 537.608 141.889 534.72 141.889C532.491 141.889 530.66 140.885 529.666 139.148C529.175 138.279 528.924 137.285 528.924 136.155C528.924 133.927 529.98 132.106 531.738 131.133C532.617 130.652 533.6 130.411 534.699 130.411C536.917 130.411 538.685 131.374 539.637 133.017C540.108 133.843 540.349 134.785 540.349 135.862ZM534.762 132.933C533.391 132.933 532.47 133.812 532.313 135.12H537.105C537.074 134.45 536.844 133.916 536.415 133.519C535.986 133.132 535.431 132.933 534.762 132.933ZM545.381 141.544H542.033V130.767H544.503C544.513 131.06 544.565 131.458 544.639 131.709C544.712 131.981 544.837 132.117 545.015 132.117C545.183 132.117 545.256 132.054 545.455 131.834C546.281 130.882 547.286 130.411 548.677 130.411C551.199 130.411 552.664 132.012 552.664 134.764V141.544H549.315V135.413C549.315 134.084 548.73 133.393 547.631 133.393C546.951 133.393 546.407 133.644 545.999 134.136C545.591 134.659 545.381 135.392 545.381 136.323V141.544ZM559.538 141.889C557.497 141.889 555.823 140.843 554.913 139.095C554.453 138.227 554.222 137.244 554.222 136.166C554.222 135.088 554.463 134.115 554.934 133.236C555.405 132.368 556.053 131.677 556.88 131.186C557.707 130.694 558.617 130.443 559.621 130.443C560.824 130.443 561.787 130.819 562.446 131.405C562.603 131.531 562.666 131.562 562.76 131.562C562.896 131.562 562.959 131.458 562.959 131.248V126.415H566.307V141.544H563.848C563.838 141.219 563.785 140.916 563.712 140.633C563.628 140.351 563.534 140.246 563.336 140.246C563.21 140.246 563.095 140.32 562.917 140.497C562.028 141.429 560.908 141.889 559.538 141.889ZM560.312 139.033C561.044 139.033 561.651 138.813 562.143 138.373C562.697 137.871 563.043 137.097 563.043 136.166C563.043 135.245 562.697 134.471 562.143 133.969C561.651 133.529 561.044 133.31 560.312 133.31C558.711 133.31 557.654 134.46 557.654 136.166C557.654 137.882 558.711 139.033 560.312 139.033ZM578.329 141.889C577.157 141.889 576.111 141.648 575.179 141.157C574.248 140.665 573.526 139.985 573.014 139.116C572.49 138.248 572.229 137.254 572.229 136.155C572.229 133.948 573.327 132.127 575.179 131.144C576.111 130.652 577.157 130.411 578.329 130.411C579.49 130.411 580.536 130.652 581.467 131.144C582.388 131.635 583.11 132.326 583.633 133.194C584.156 134.063 584.418 135.057 584.418 136.155C584.418 137.254 584.156 138.248 583.633 139.116C583.11 139.985 582.388 140.665 581.467 141.157C580.536 141.648 579.49 141.889 578.329 141.889ZM578.329 139.033C579.95 139.033 581.007 137.882 581.007 136.155C581.007 134.429 579.95 133.278 578.329 133.278C576.696 133.278 575.64 134.439 575.64 136.155C575.64 137.871 576.696 139.033 578.329 139.033ZM589.409 141.544H586.061V130.767H588.425C588.478 131.28 588.54 131.635 588.593 131.813C588.666 132.033 588.76 132.138 588.896 132.138C589.022 132.138 589.074 132.085 589.168 131.887C589.618 131.05 590.507 130.568 591.679 130.568C592.045 130.568 592.338 130.6 592.579 130.652V133.582C592.202 133.529 591.867 133.508 591.585 133.508C590.832 133.508 590.319 133.676 589.953 134.052C589.587 134.439 589.409 135.046 589.409 135.873V141.544ZM603.293 141.889C600.96 141.889 599.087 140.864 598.082 139.116C597.58 138.248 597.329 137.254 597.329 136.155C597.329 133.937 598.386 132.127 600.196 131.144C601.096 130.652 602.131 130.411 603.293 130.411C605.626 130.411 607.321 131.384 608.221 132.839C608.671 133.571 608.922 134.366 608.985 135.214H605.699C605.5 134 604.632 133.278 603.366 133.278C601.765 133.278 600.729 134.429 600.729 136.155C600.729 137.882 601.765 139.033 603.366 139.033C604.632 139.033 605.5 138.311 605.699 137.097H608.985C608.859 138.802 607.97 140.34 606.296 141.219C605.459 141.669 604.454 141.889 603.293 141.889ZM616.057 141.889C614.886 141.889 613.839 141.648 612.908 141.157C611.977 140.665 611.255 139.985 610.742 139.116C610.219 138.248 609.958 137.254 609.958 136.155C609.958 133.948 611.056 132.127 612.908 131.144C613.839 130.652 614.886 130.411 616.057 130.411C617.219 130.411 618.265 130.652 619.196 131.144C620.117 131.635 620.839 132.326 621.362 133.194C621.885 134.063 622.147 135.057 622.147 136.155C622.147 137.254 621.885 138.248 621.362 139.116C620.839 139.985 620.117 140.665 619.196 141.157C618.265 141.648 617.219 141.889 616.057 141.889ZM616.057 139.033C617.679 139.033 618.736 137.882 618.736 136.155C618.736 134.429 617.679 133.278 616.057 133.278C614.425 133.278 613.368 134.439 613.368 136.155C613.368 137.871 614.425 139.033 616.057 139.033ZM627.148 126.415V141.544H623.8V126.415H627.148ZM632.777 126.415V141.544H629.429V126.415H632.777ZM645.876 135.862C645.876 136.48 645.845 136.909 645.782 137.139H637.841C637.935 138.489 638.898 139.336 640.289 139.336C641.377 139.336 642.131 138.897 642.413 138.133H645.677C645.112 140.424 643.135 141.889 640.247 141.889C638.019 141.889 636.188 140.885 635.194 139.148C634.702 138.279 634.451 137.285 634.451 136.155C634.451 133.927 635.508 132.106 637.265 131.133C638.144 130.652 639.128 130.411 640.226 130.411C642.444 130.411 644.213 131.374 645.165 133.017C645.636 133.843 645.876 134.785 645.876 135.862ZM640.289 132.933C638.918 132.933 637.998 133.812 637.841 135.12H642.633C642.601 134.45 642.371 133.916 641.942 133.519C641.513 133.132 640.959 132.933 640.289 132.933ZM652.468 130.411C655.575 130.411 657.26 131.981 657.26 134.9V141.544H654.79C654.77 141.125 654.717 140.801 654.644 140.581C654.592 140.382 654.508 140.288 654.372 140.288C654.246 140.288 654.152 140.351 654.016 140.529C653.252 141.46 652.353 141.868 650.94 141.868C649.423 141.868 648.157 141.314 647.477 140.257C647.132 139.734 646.964 139.116 646.964 138.394C646.964 136.354 648.429 135.235 651.275 135.067C652.499 134.994 653.42 134.868 654.058 134.712V134.586C654.058 133.508 653.451 132.922 652.395 132.922C651.432 132.922 650.815 133.404 650.637 134.188H647.32C647.739 131.97 649.538 130.411 652.468 130.411ZM653.723 138.53C653.943 138.133 654.058 137.599 654.058 136.93V136.637C653.65 136.783 652.939 136.909 651.903 137.003C650.762 137.128 650.312 137.505 650.312 138.227C650.312 139.054 650.909 139.514 651.903 139.514C652.729 139.514 653.357 139.2 653.723 138.53ZM664.981 146.231C662.753 146.231 661.1 145.404 660.147 144.149C659.677 143.521 659.363 142.831 659.227 142.077H662.575C662.857 143.124 663.768 143.73 664.992 143.73C666.467 143.73 667.304 142.967 667.304 141.429V140.194C667.304 140.037 667.252 139.964 667.147 139.964C667.053 139.964 667.001 139.995 666.875 140.131C666.195 140.811 665.243 141.157 664.029 141.157C663.056 141.157 662.167 140.926 661.382 140.466C660.587 140.016 659.97 139.388 659.52 138.583C659.07 137.788 658.84 136.898 658.84 135.904C658.84 133.728 659.823 132.012 661.382 131.112C662.156 130.662 663.014 130.443 663.945 130.443C665.149 130.443 666.153 130.861 667.084 131.751C667.335 131.97 667.419 132.023 667.576 132.023C667.733 132.023 667.848 131.897 667.921 131.635C667.974 131.405 668.015 131.112 668.047 130.767H670.506V141.136C670.506 144.442 668.308 146.231 664.981 146.231ZM664.793 138.478C665.494 138.478 666.08 138.269 666.53 137.85C667.032 137.4 667.314 136.71 667.314 135.904C667.314 135.099 667.032 134.398 666.53 133.948C666.08 133.529 665.494 133.32 664.793 133.32C663.255 133.32 662.25 134.366 662.25 135.904C662.25 137.432 663.255 138.478 664.793 138.478ZM676.658 141.889C674.105 141.889 672.65 140.299 672.65 137.536V130.767H675.998V136.835C675.998 138.206 676.574 138.918 677.735 138.918C678.457 138.918 678.991 138.677 679.347 138.185C679.702 137.714 679.88 137.034 679.88 136.155V130.767H683.228V141.544H680.78C680.77 141.261 680.717 140.874 680.644 140.633C680.571 140.361 680.445 140.225 680.257 140.225C680.1 140.225 680.006 140.288 679.828 140.497C679.022 141.429 678.028 141.889 676.658 141.889ZM696.328 135.862C696.328 136.48 696.296 136.909 696.233 137.139H688.292C688.386 138.489 689.349 139.336 690.741 139.336C691.829 139.336 692.582 138.897 692.864 138.133H696.129C695.564 140.424 693.586 141.889 690.699 141.889C688.47 141.889 686.639 140.885 685.645 139.148C685.153 138.279 684.902 137.285 684.902 136.155C684.902 133.927 685.959 132.106 687.717 131.133C688.596 130.652 689.579 130.411 690.678 130.411C692.896 130.411 694.664 131.374 695.616 133.017C696.087 133.843 696.328 134.785 696.328 135.862ZM690.741 132.933C689.37 132.933 688.449 133.812 688.292 135.12H693.084C693.053 134.45 692.823 133.916 692.394 133.519C691.965 133.132 691.41 132.933 690.741 132.933ZM704.74 136.574V136.061C704.74 135.015 704.928 134.324 705.577 133.54C705.901 133.153 706.372 132.724 707 132.274C707.45 131.949 707.753 131.656 707.91 131.405C708.067 131.165 708.151 130.882 708.151 130.558C708.151 129.773 707.586 129.26 706.707 129.26C705.608 129.26 704.959 129.909 704.823 131.112H701.496C701.81 128.266 703.829 126.613 706.738 126.613C709.437 126.613 711.321 128.089 711.321 130.505C711.321 132.096 710.703 133.09 708.841 134.387C708.475 134.649 708.234 134.91 708.098 135.151C707.962 135.402 707.899 135.737 707.899 136.145V136.574H704.74ZM706.341 141.805C705.148 141.805 704.29 140.968 704.29 139.87C704.29 138.771 705.148 137.934 706.341 137.934C707.533 137.934 708.391 138.771 708.391 139.87C708.391 140.968 707.533 141.805 706.341 141.805Z" fill="#151B37"/>
<rect width="48.2124" height="48.2124" transform="translate(273.492 191.97)" fill="#F2EEEB"/>
<path d="M297.589 222.932C295.13 222.932 293.247 221.666 292.242 219.365C291.74 218.214 291.489 216.854 291.489 215.295C291.489 212.166 292.535 209.802 294.377 208.577C295.287 207.96 296.365 207.657 297.589 207.657C300.048 207.657 301.931 208.923 302.935 211.225C303.438 212.375 303.689 213.736 303.689 215.295C303.689 218.423 302.642 220.788 300.811 222.012C299.891 222.629 298.813 222.932 297.589 222.932ZM297.589 219.971C299.221 219.971 300.069 218.318 300.069 215.295C300.069 212.271 299.221 210.618 297.589 210.618C295.967 210.618 295.12 212.271 295.12 215.295C295.12 218.318 295.967 219.971 297.589 219.971Z" fill="#151B37"/>
<rect width="48.2124" height="48.2124" transform="translate(328.848 191.97)" fill="#F2EEEB"/>
<path d="M352.944 222.932C350.486 222.932 348.602 221.666 347.598 219.365C347.096 218.214 346.845 216.854 346.845 215.295C346.845 212.166 347.891 209.802 349.732 208.577C350.643 207.96 351.72 207.657 352.944 207.657C355.403 207.657 357.286 208.923 358.291 211.225C358.793 212.375 359.044 213.736 359.044 215.295C359.044 218.423 357.998 220.788 356.167 222.012C355.246 222.629 354.169 222.932 352.944 222.932ZM352.944 219.971C354.577 219.971 355.424 218.318 355.424 215.295C355.424 212.271 354.577 210.618 352.944 210.618C351.323 210.618 350.475 212.271 350.475 215.295C350.475 218.318 351.323 219.971 352.944 219.971Z" fill="#151B37"/>
<rect width="48.2124" height="48.2124" transform="translate(384.203 191.97)" fill="#F2EEEB"/>
<path d="M408.3 222.932C405.841 222.932 403.958 221.666 402.953 219.365C402.451 218.214 402.2 216.854 402.2 215.295C402.2 212.166 403.246 209.802 405.088 208.577C405.998 207.96 407.076 207.657 408.3 207.657C410.759 207.657 412.642 208.923 413.646 211.225C414.149 212.375 414.4 213.736 414.4 215.295C414.4 218.423 413.353 220.788 411.522 222.012C410.602 222.629 409.524 222.932 408.3 222.932ZM408.3 219.971C409.932 219.971 410.78 218.318 410.78 215.295C410.78 212.271 409.932 210.618 408.3 210.618C406.678 210.618 405.831 212.271 405.831 215.295C405.831 218.318 406.678 219.971 408.3 219.971Z" fill="#151B37"/>
<rect width="48.2124" height="48.2124" transform="translate(439.559 191.97)" fill="#F2EEEB"/>
<path d="M463.655 222.932C461.197 222.932 459.313 221.666 458.309 219.365C457.807 218.214 457.556 216.854 457.556 215.295C457.556 212.166 458.602 209.802 460.443 208.577C461.353 207.96 462.431 207.657 463.655 207.657C466.114 207.657 467.997 208.923 469.002 211.225C469.504 212.375 469.755 213.736 469.755 215.295C469.755 218.423 468.709 220.788 466.878 222.012C465.957 222.629 464.879 222.932 463.655 222.932ZM463.655 219.971C465.287 219.971 466.135 218.318 466.135 215.295C466.135 212.271 465.287 210.618 463.655 210.618C462.034 210.618 461.186 212.271 461.186 215.295C461.186 218.318 462.034 219.971 463.655 219.971Z" fill="#151B37"/>
<rect width="48.2124" height="48.2124" transform="translate(494.91 191.97)" fill="#F2EEEB"/>
<path d="M519.007 222.932C516.548 222.932 514.665 221.666 513.66 219.365C513.158 218.214 512.907 216.854 512.907 215.295C512.907 212.166 513.953 209.802 515.795 208.577C516.705 207.96 517.783 207.657 519.007 207.657C521.466 207.657 523.349 208.923 524.353 211.225C524.856 212.375 525.107 213.736 525.107 215.295C525.107 218.423 524.06 220.788 522.229 222.012C521.309 222.629 520.231 222.932 519.007 222.932ZM519.007 219.971C520.639 219.971 521.487 218.318 521.487 215.295C521.487 212.271 520.639 210.618 519.007 210.618C517.385 210.618 516.538 212.271 516.538 215.295C516.538 218.318 517.385 219.971 519.007 219.971Z" fill="#151B37"/>
<rect width="48.2124" height="48.2124" transform="translate(550.266 191.97)" fill="#F2EEEB"/>
<path d="M574.362 222.932C571.904 222.932 570.02 221.666 569.016 219.365C568.514 218.214 568.263 216.854 568.263 215.295C568.263 212.166 569.309 209.802 571.15 208.577C572.061 207.96 573.138 207.657 574.362 207.657C576.821 207.657 578.704 208.923 579.709 211.225C580.211 212.375 580.462 213.736 580.462 215.295C580.462 218.423 579.416 220.788 577.585 222.012C576.664 222.629 575.586 222.932 574.362 222.932ZM574.362 219.971C575.995 219.971 576.842 218.318 576.842 215.295C576.842 212.271 575.995 210.618 574.362 210.618C572.741 210.618 571.893 212.271 571.893 215.295C571.893 218.318 572.741 219.971 574.362 219.971Z" fill="#151B37"/>
<rect width="48.2124" height="48.2124" transform="translate(605.621 191.97)" fill="#F2EEEB"/>
<path d="M629.718 222.932C627.259 222.932 625.376 221.666 624.371 219.365C623.869 218.214 623.618 216.854 623.618 215.295C623.618 212.166 624.664 209.802 626.506 208.577C627.416 207.96 628.494 207.657 629.718 207.657C632.177 207.657 634.06 208.923 635.064 211.225C635.566 212.375 635.818 213.736 635.818 215.295C635.818 218.423 634.771 220.788 632.94 222.012C632.02 222.629 630.942 222.932 629.718 222.932ZM629.718 219.971C631.35 219.971 632.197 218.318 632.197 215.295C632.197 212.271 631.35 210.618 629.718 210.618C628.096 210.618 627.249 212.271 627.249 215.295C627.249 218.318 628.096 219.971 629.718 219.971Z" fill="#151B37"/>
<rect width="48.2124" height="48.2124" transform="translate(660.977 191.97)" fill="#F2EEEB"/>
<path d="M685.073 222.932C682.615 222.932 680.731 221.666 679.727 219.365C679.225 218.214 678.973 216.854 678.973 215.295C678.973 212.166 680.02 209.802 681.861 208.577C682.771 207.96 683.849 207.657 685.073 207.657C687.532 207.657 689.415 208.923 690.42 211.225C690.922 212.375 691.173 213.736 691.173 215.295C691.173 218.423 690.127 220.788 688.296 222.012C687.375 222.629 686.297 222.932 685.073 222.932ZM685.073 219.971C686.705 219.971 687.553 218.318 687.553 215.295C687.553 212.271 686.705 210.618 685.073 210.618C683.452 210.618 682.604 212.271 682.604 215.295C682.604 218.318 683.452 219.971 685.073 219.971Z" fill="#151B37"/>
<rect width="48.2124" height="48.2124" transform="translate(716.332 191.97)" fill="#F2EEEB"/>
<path d="M740.429 222.932C737.97 222.932 736.087 221.666 735.082 219.365C734.58 218.214 734.329 216.854 734.329 215.295C734.329 212.166 735.375 209.802 737.217 208.577C738.127 207.96 739.205 207.657 740.429 207.657C742.887 207.657 744.771 208.923 745.775 211.225C746.277 212.375 746.529 213.736 746.529 215.295C746.529 218.423 745.482 220.788 743.651 222.012C742.731 222.629 741.653 222.932 740.429 222.932ZM740.429 219.971C742.061 219.971 742.908 218.318 742.908 215.295C742.908 212.271 742.061 210.618 740.429 210.618C738.807 210.618 737.96 212.271 737.96 215.295C737.96 218.318 738.807 219.971 740.429 219.971Z" fill="#151B37"/>
<rect width="48.2124" height="48.2124" transform="translate(771.688 191.97)" fill="#F2EEEB"/>
<path d="M795.784 222.932C793.325 222.932 791.442 221.666 790.438 219.365C789.936 218.214 789.684 216.854 789.684 215.295C789.684 212.166 790.731 209.802 792.572 208.577C793.482 207.96 794.56 207.657 795.784 207.657C798.243 207.657 800.126 208.923 801.131 211.225C801.633 212.375 801.884 213.736 801.884 215.295C801.884 218.423 800.838 220.788 799.007 222.012C798.086 222.629 797.008 222.932 795.784 222.932ZM795.784 219.971C797.416 219.971 798.264 218.318 798.264 215.295C798.264 212.271 797.416 210.618 795.784 210.618C794.162 210.618 793.315 212.271 793.315 215.295C793.315 218.318 794.162 219.971 795.784 219.971Z" fill="#151B37"/>
<rect width="48.2124" height="48.2124" transform="translate(827.043 191.97)" fill="#F2EEEB"/>
<path d="M851.14 222.932C848.681 222.932 846.798 221.666 845.793 219.365C845.291 218.214 845.04 216.854 845.04 215.295C845.04 212.166 846.086 209.802 847.928 208.577C848.838 207.96 849.916 207.657 851.14 207.657C853.598 207.657 855.482 208.923 856.486 211.225C856.988 212.375 857.239 213.736 857.239 215.295C857.239 218.423 856.193 220.788 854.362 222.012C853.441 222.629 852.364 222.932 851.14 222.932ZM851.14 219.971C852.772 219.971 853.619 218.318 853.619 215.295C853.619 212.271 852.772 210.618 851.14 210.618C849.518 210.618 848.67 212.271 848.67 215.295C848.67 218.318 849.518 219.971 851.14 219.971Z" fill="#151B37"/>
</g>
<g filter="url(#filter2_d_454_1163)">
<rect x="111" y="255.323" width="385.699" height="299.988" rx="10.7139" fill="white" shape-rendering="crispEdges"/>
<rect x="112.339" y="256.663" width="383.021" height="297.31" rx="9.37463" stroke="#151B37" stroke-width="2.67847" shape-rendering="crispEdges"/>
<path d="M208.25 286.33L210.856 296.96L213.524 286.33H217.05L212.927 300.894H208.648L206.2 290.536L203.793 300.894H199.462L195.35 286.33H199.179L201.868 296.981L204.379 286.33H208.25ZM221.549 300.894H218.2V285.765H221.549V290.965C221.549 291.184 221.622 291.299 221.758 291.299C221.883 291.299 221.946 291.258 222.082 291.08C222.804 290.201 223.735 289.761 225.022 289.761C227.376 289.761 228.841 291.362 228.841 294.124V300.894H225.483V294.731C225.483 293.465 224.907 292.733 223.819 292.733C223.139 292.733 222.563 293.015 222.187 293.476C221.758 293.988 221.549 294.721 221.549 295.662V300.894ZM235.914 289.761C239.021 289.761 240.706 291.331 240.706 294.25V300.894H238.237C238.216 300.475 238.163 300.151 238.09 299.931C238.038 299.732 237.954 299.638 237.818 299.638C237.693 299.638 237.598 299.701 237.462 299.879C236.699 300.81 235.799 301.218 234.386 301.218C232.869 301.218 231.603 300.664 230.923 299.607C230.578 299.084 230.411 298.466 230.411 297.745C230.411 295.704 231.875 294.585 234.721 294.417C235.945 294.344 236.866 294.219 237.504 294.062V293.936C237.504 292.858 236.897 292.272 235.841 292.272C234.878 292.272 234.261 292.754 234.083 293.538H230.766C231.185 291.32 232.984 289.761 235.914 289.761ZM237.169 297.881C237.389 297.483 237.504 296.949 237.504 296.28V295.987C237.096 296.133 236.385 296.259 235.349 296.353C234.208 296.479 233.759 296.855 233.759 297.577C233.759 298.404 234.355 298.864 235.349 298.864C236.175 298.864 236.803 298.55 237.169 297.881ZM247.831 301.051C245.037 301.051 243.74 299.889 243.74 297.096V292.806H241.773V290.117H242.976C243.761 290.117 244.169 289.845 244.378 289.207C244.535 288.705 244.661 288.025 244.776 287.167H247.025V290.117H249.704V292.806H247.025V296.761C247.025 297.933 247.486 298.404 248.616 298.404C249.024 298.404 249.442 298.351 249.861 298.247V300.747C249.369 300.915 248.532 301.051 247.831 301.051ZM260.397 301.239C258.357 301.239 256.682 300.193 255.772 298.446C255.312 297.577 255.082 296.594 255.082 295.516C255.082 294.438 255.322 293.465 255.793 292.586C256.264 291.718 256.913 291.027 257.739 290.536C258.566 290.044 259.476 289.793 260.48 289.793C261.684 289.793 262.646 290.169 263.305 290.755C263.462 290.881 263.525 290.912 263.619 290.912C263.755 290.912 263.818 290.808 263.818 290.598V285.765H267.166V300.894H264.707C264.697 300.569 264.645 300.266 264.571 299.984C264.488 299.701 264.394 299.596 264.195 299.596C264.069 299.596 263.954 299.67 263.776 299.848C262.887 300.779 261.767 301.239 260.397 301.239ZM261.171 298.383C261.903 298.383 262.51 298.163 263.002 297.724C263.557 297.221 263.902 296.447 263.902 295.516C263.902 294.595 263.557 293.821 263.002 293.319C262.51 292.879 261.903 292.66 261.171 292.66C259.57 292.66 258.513 293.811 258.513 295.516C258.513 297.232 259.57 298.383 261.171 298.383ZM274.919 301.239C273.747 301.239 272.701 300.998 271.77 300.507C270.839 300.015 270.117 299.335 269.604 298.466C269.081 297.598 268.819 296.604 268.819 295.505C268.819 293.298 269.918 291.477 271.77 290.494C272.701 290.002 273.747 289.761 274.919 289.761C276.08 289.761 277.127 290.002 278.058 290.494C278.979 290.986 279.701 291.676 280.224 292.545C280.747 293.413 281.008 294.407 281.008 295.505C281.008 296.604 280.747 297.598 280.224 298.466C279.701 299.335 278.979 300.015 278.058 300.507C277.127 300.998 276.08 301.239 274.919 301.239ZM274.919 298.383C276.541 298.383 277.598 297.232 277.598 295.505C277.598 293.779 276.541 292.628 274.919 292.628C273.287 292.628 272.23 293.79 272.23 295.505C272.23 297.221 273.287 298.383 274.919 298.383ZM288.971 290.117L291.482 297.19L293.94 290.117H297.414L291.241 305.393H287.767L289.598 300.883L285.267 290.117H288.971ZM303.545 301.239C302.373 301.239 301.327 300.998 300.396 300.507C299.465 300.015 298.743 299.335 298.23 298.466C297.707 297.598 297.445 296.604 297.445 295.505C297.445 293.298 298.544 291.477 300.396 290.494C301.327 290.002 302.373 289.761 303.545 289.761C304.707 289.761 305.753 290.002 306.684 290.494C307.605 290.986 308.327 291.676 308.85 292.545C309.373 293.413 309.635 294.407 309.635 295.505C309.635 296.604 309.373 297.598 308.85 298.466C308.327 299.335 307.605 300.015 306.684 300.507C305.753 300.998 304.707 301.239 303.545 301.239ZM303.545 298.383C305.167 298.383 306.224 297.232 306.224 295.505C306.224 293.779 305.167 292.628 303.545 292.628C301.913 292.628 300.856 293.79 300.856 295.505C300.856 297.221 301.913 298.383 303.545 298.383ZM315.18 301.239C312.627 301.239 311.173 299.649 311.173 296.887V290.117H314.521V296.186C314.521 297.556 315.096 298.268 316.257 298.268C316.979 298.268 317.513 298.027 317.869 297.535C318.224 297.064 318.402 296.384 318.402 295.505V290.117H321.75V300.894H319.302C319.292 300.611 319.239 300.224 319.166 299.984C319.093 299.712 318.967 299.575 318.779 299.575C318.622 299.575 318.528 299.638 318.35 299.848C317.544 300.779 316.55 301.239 315.18 301.239ZM333.291 301.051C330.497 301.051 329.2 299.889 329.2 297.096V292.806H327.233V290.117H328.436C329.221 290.117 329.629 289.845 329.838 289.207C329.995 288.705 330.121 288.025 330.236 287.167H332.485V290.117H335.164V292.806H332.485V296.761C332.485 297.933 332.946 298.404 334.076 298.404C334.484 298.404 334.902 298.351 335.321 298.247V300.747C334.829 300.915 333.992 301.051 333.291 301.051ZM340.217 300.894H336.869V285.765H340.217V290.965C340.217 291.184 340.29 291.299 340.426 291.299C340.552 291.299 340.615 291.258 340.751 291.08C341.473 290.201 342.404 289.761 343.691 289.761C346.045 289.761 347.51 291.362 347.51 294.124V300.894H344.151V294.731C344.151 293.465 343.576 292.733 342.488 292.733C341.807 292.733 341.232 293.015 340.855 293.476C340.426 293.988 340.217 294.721 340.217 295.662V300.894ZM351.36 288.851C350.24 288.851 349.414 288.056 349.414 287.02C349.414 285.984 350.24 285.2 351.36 285.2C352.49 285.2 353.317 285.984 353.317 287.02C353.317 288.056 352.49 288.851 351.36 288.851ZM353.034 290.117V300.894H349.686V290.117H353.034ZM358.653 300.894H355.304V290.117H357.774C357.784 290.41 357.836 290.808 357.91 291.059C357.983 291.331 358.108 291.467 358.286 291.467C358.454 291.467 358.527 291.404 358.726 291.184C359.552 290.232 360.557 289.761 361.948 289.761C364.47 289.761 365.935 291.362 365.935 294.114V300.894H362.587V294.763C362.587 293.434 362.001 292.743 360.902 292.743C360.222 292.743 359.678 292.994 359.27 293.486C358.862 294.009 358.653 294.742 358.653 295.673V300.894ZM379.118 290.117L375.11 295.338L379.452 300.894H375.246L371.438 295.798V300.894H368.09V285.765H371.438V295.181L375.121 290.117H379.118ZM393.096 290.117L394.927 297.054L396.831 290.117H400.116L396.611 300.894H393.127L391.401 294.281L389.633 300.894H386.159L382.654 290.117H386.222L388.095 297.054L389.926 290.117H393.096ZM411.814 295.213C411.814 295.83 411.782 296.259 411.72 296.489H403.778C403.873 297.839 404.835 298.686 406.227 298.686C407.315 298.686 408.068 298.247 408.351 297.483H411.615C411.05 299.774 409.073 301.239 406.185 301.239C403.956 301.239 402.125 300.235 401.131 298.498C400.64 297.629 400.388 296.635 400.388 295.505C400.388 293.277 401.445 291.456 403.203 290.483C404.082 290.002 405.065 289.761 406.164 289.761C408.382 289.761 410.15 290.724 411.102 292.367C411.573 293.193 411.814 294.135 411.814 295.213ZM406.227 292.283C404.856 292.283 403.935 293.162 403.778 294.47H408.57C408.539 293.8 408.309 293.266 407.88 292.869C407.451 292.482 406.896 292.283 406.227 292.283ZM224.321 322.239C221.988 322.239 220.115 321.214 219.111 319.466C218.609 318.598 218.357 317.604 218.357 316.505C218.357 314.287 219.414 312.477 221.224 311.494C222.124 311.002 223.16 310.761 224.321 310.761C226.654 310.761 228.349 311.734 229.249 313.189C229.699 313.921 229.95 314.716 230.013 315.564H226.728C226.529 314.35 225.66 313.628 224.394 313.628C222.794 313.628 221.758 314.779 221.758 316.505C221.758 318.232 222.794 319.383 224.394 319.383C225.66 319.383 226.529 318.661 226.728 317.447H230.013C229.887 319.153 228.998 320.691 227.324 321.569C226.487 322.019 225.483 322.239 224.321 322.239ZM237.086 322.239C235.914 322.239 234.868 321.998 233.936 321.507C233.005 321.015 232.283 320.335 231.771 319.466C231.248 318.598 230.986 317.604 230.986 316.505C230.986 314.298 232.085 312.477 233.936 311.494C234.868 311.002 235.914 310.761 237.086 310.761C238.247 310.761 239.293 311.002 240.225 311.494C241.145 311.986 241.867 312.676 242.39 313.545C242.914 314.413 243.175 315.407 243.175 316.505C243.175 317.604 242.914 318.598 242.39 319.466C241.867 320.335 241.145 321.015 240.225 321.507C239.293 321.998 238.247 322.239 237.086 322.239ZM237.086 319.383C238.707 319.383 239.764 318.232 239.764 316.505C239.764 314.779 238.707 313.628 237.086 313.628C235.454 313.628 234.397 314.79 234.397 316.505C234.397 318.221 235.454 319.383 237.086 319.383ZM248.72 322.239C246.167 322.239 244.713 320.649 244.713 317.887V311.117H248.061V317.186C248.061 318.556 248.637 319.268 249.798 319.268C250.52 319.268 251.054 319.027 251.409 318.535C251.765 318.064 251.943 317.384 251.943 316.505V311.117H255.291V321.894H252.843C252.832 321.611 252.78 321.224 252.707 320.984C252.633 320.712 252.508 320.575 252.32 320.575C252.163 320.575 252.068 320.638 251.891 320.848C251.085 321.779 250.091 322.239 248.72 322.239ZM260.92 306.765V321.894H257.572V306.765H260.92ZM267.909 322.239C265.869 322.239 264.195 321.193 263.284 319.446C262.824 318.577 262.594 317.594 262.594 316.516C262.594 315.438 262.835 314.465 263.305 313.586C263.776 312.718 264.425 312.027 265.251 311.536C266.078 311.044 266.988 310.793 267.993 310.793C269.196 310.793 270.159 311.169 270.818 311.755C270.975 311.881 271.037 311.912 271.132 311.912C271.268 311.912 271.33 311.808 271.33 311.598V306.765H274.678V321.894H272.22C272.209 321.569 272.157 321.266 272.084 320.984C272 320.701 271.906 320.596 271.707 320.596C271.581 320.596 271.466 320.67 271.289 320.848C270.399 321.779 269.28 322.239 267.909 322.239ZM268.683 319.383C269.416 319.383 270.023 319.163 270.514 318.724C271.069 318.221 271.414 317.447 271.414 316.516C271.414 315.595 271.069 314.821 270.514 314.319C270.023 313.879 269.416 313.66 268.683 313.66C267.082 313.66 266.026 314.811 266.026 316.516C266.026 318.232 267.082 319.383 268.683 319.383ZM285.926 322.239C283.886 322.239 282.212 321.193 281.301 319.446C280.841 318.577 280.611 317.594 280.611 316.516C280.611 315.438 280.851 314.465 281.322 313.586C281.793 312.718 282.442 312.027 283.268 311.536C284.095 311.044 285.005 310.793 286.01 310.793C287.213 310.793 288.175 311.169 288.835 311.755C288.991 311.881 289.054 311.912 289.148 311.912C289.284 311.912 289.347 311.808 289.347 311.598V306.765H292.695V321.894H290.237C290.226 321.569 290.174 321.266 290.101 320.984C290.017 320.701 289.923 320.596 289.724 320.596C289.598 320.596 289.483 320.67 289.305 320.848C288.416 321.779 287.297 322.239 285.926 322.239ZM286.7 319.383C287.433 319.383 288.039 319.163 288.531 318.724C289.086 318.221 289.431 317.447 289.431 316.516C289.431 315.595 289.086 314.821 288.531 314.319C288.039 313.879 287.433 313.66 286.7 313.66C285.099 313.66 284.043 314.811 284.043 316.516C284.043 318.232 285.099 319.383 286.7 319.383ZM300.448 322.239C299.276 322.239 298.23 321.998 297.299 321.507C296.368 321.015 295.646 320.335 295.133 319.466C294.61 318.598 294.348 317.604 294.348 316.505C294.348 314.298 295.447 312.477 297.299 311.494C298.23 311.002 299.276 310.761 300.448 310.761C301.61 310.761 302.656 311.002 303.587 311.494C304.508 311.986 305.23 312.676 305.753 313.545C306.276 314.413 306.538 315.407 306.538 316.505C306.538 317.604 306.276 318.598 305.753 319.466C305.23 320.335 304.508 321.015 303.587 321.507C302.656 321.998 301.61 322.239 300.448 322.239ZM300.448 319.383C302.07 319.383 303.127 318.232 303.127 316.505C303.127 314.779 302.07 313.628 300.448 313.628C298.816 313.628 297.759 314.79 297.759 316.505C297.759 318.221 298.816 319.383 300.448 319.383ZM319.218 322.239C317.848 322.239 316.728 321.779 315.839 320.848C315.661 320.67 315.546 320.596 315.42 320.596C315.222 320.596 315.127 320.722 315.054 320.984C314.971 321.256 314.918 321.559 314.908 321.894H312.449V306.765H315.797V311.598C315.797 311.808 315.86 311.912 315.996 311.912C316.09 311.912 316.153 311.881 316.31 311.755C316.969 311.169 317.931 310.793 319.135 310.793C321.133 310.793 322.88 311.85 323.822 313.586C324.293 314.465 324.533 315.438 324.533 316.516C324.533 317.594 324.303 318.577 323.853 319.446C323.393 320.314 322.765 321.004 321.96 321.496C321.154 321.988 320.233 322.239 319.218 322.239ZM318.444 319.383C320.045 319.383 321.102 318.232 321.102 316.516C321.102 314.811 320.045 313.66 318.444 313.66C317.722 313.66 317.105 313.879 316.613 314.319C316.059 314.821 315.713 315.595 315.713 316.516C315.713 317.447 316.059 318.221 316.613 318.724C317.105 319.163 317.722 319.383 318.444 319.383ZM337.026 316.213C337.026 316.83 336.995 317.259 336.932 317.489H328.991C329.085 318.839 330.047 319.686 331.439 319.686C332.527 319.686 333.28 319.247 333.563 318.483H336.827C336.262 320.774 334.285 322.239 331.397 322.239C329.168 322.239 327.337 321.235 326.344 319.498C325.852 318.629 325.601 317.635 325.601 316.505C325.601 314.277 326.657 312.456 328.415 311.483C329.294 311.002 330.278 310.761 331.376 310.761C333.594 310.761 335.362 311.724 336.315 313.367C336.785 314.193 337.026 315.135 337.026 316.213ZM331.439 313.283C330.068 313.283 329.148 314.162 328.991 315.47H333.783C333.751 314.8 333.521 314.266 333.092 313.869C332.663 313.482 332.109 313.283 331.439 313.283ZM343.67 322.051C340.876 322.051 339.579 320.889 339.579 318.096V313.806H337.612V311.117H338.815C339.6 311.117 340.008 310.845 340.217 310.207C340.374 309.705 340.5 309.025 340.615 308.167H342.864V311.117H345.543V313.806H342.864V317.761C342.864 318.933 343.325 319.404 344.455 319.404C344.863 319.404 345.281 319.351 345.7 319.247V321.747C345.208 321.915 344.371 322.051 343.67 322.051ZM352.396 322.051C349.602 322.051 348.305 320.889 348.305 318.096V313.806H346.338V311.117H347.541C348.326 311.117 348.734 310.845 348.943 310.207C349.1 309.705 349.226 309.025 349.341 308.167H351.59V311.117H354.269V313.806H351.59V317.761C351.59 318.933 352.051 319.404 353.181 319.404C353.589 319.404 354.007 319.351 354.426 319.247V321.747C353.934 321.915 353.097 322.051 352.396 322.051ZM366.615 316.213C366.615 316.83 366.583 317.259 366.521 317.489H358.579C358.673 318.839 359.636 319.686 361.028 319.686C362.116 319.686 362.869 319.247 363.152 318.483H366.416C365.851 320.774 363.873 322.239 360.986 322.239C358.757 322.239 356.926 321.235 355.932 319.498C355.44 318.629 355.189 317.635 355.189 316.505C355.189 314.277 356.246 312.456 358.004 311.483C358.883 311.002 359.866 310.761 360.965 310.761C363.183 310.761 364.951 311.724 365.903 313.367C366.374 314.193 366.615 315.135 366.615 316.213ZM361.028 313.283C359.657 313.283 358.736 314.162 358.579 315.47H363.371C363.34 314.8 363.11 314.266 362.681 313.869C362.252 313.482 361.697 313.283 361.028 313.283ZM371.647 321.894H368.299V311.117H370.664C370.716 311.63 370.779 311.986 370.831 312.163C370.904 312.383 370.999 312.488 371.135 312.488C371.26 312.488 371.312 312.435 371.407 312.237C371.857 311.4 372.746 310.918 373.918 310.918C374.284 310.918 374.577 310.95 374.817 311.002V313.932C374.441 313.879 374.106 313.858 373.824 313.858C373.07 313.858 372.558 314.026 372.191 314.402C371.825 314.79 371.647 315.396 371.647 316.223V321.894ZM382.623 316.924V316.411C382.623 315.365 382.811 314.674 383.46 313.89C383.784 313.503 384.255 313.074 384.883 312.624C385.333 312.299 385.636 312.006 385.793 311.755C385.95 311.515 386.034 311.232 386.034 310.908C386.034 310.123 385.469 309.611 384.59 309.611C383.491 309.611 382.842 310.259 382.706 311.462H379.379C379.693 308.617 381.712 306.963 384.621 306.963C387.32 306.963 389.204 308.439 389.204 310.856C389.204 312.446 388.586 313.44 386.724 314.737C386.358 314.999 386.117 315.26 385.981 315.501C385.845 315.752 385.782 316.087 385.782 316.495V316.924H382.623ZM384.224 322.155C383.031 322.155 382.173 321.318 382.173 320.22C382.173 319.121 383.031 318.284 384.224 318.284C385.416 318.284 386.274 319.121 386.274 320.22C386.274 321.318 385.416 322.155 384.224 322.155Z" fill="#151B37"/>
<rect x="139.57" y="372.321" width="328.559" height="154.421" rx="10.7139" fill="#F2EEEB"/>
<path opacity="0.2" d="M435.984 508.922L444.02 500.887" stroke="#151B37" stroke-width="1.78564"/>
<path opacity="0.2" d="M438.664 515.172L452.056 501.78" stroke="#151B37" stroke-width="1.78564"/>
</g>
<g filter="url(#filter3_d_454_1163)">
<rect x="652.051" y="282.108" width="366.95" height="247.422" rx="10.7139" fill="white" shape-rendering="crispEdges"/>
<rect x="653.39" y="283.447" width="364.271" height="244.743" rx="9.37463" stroke="#151B37" stroke-width="2.67847" shape-rendering="crispEdges"/>
<path d="M771.837 316.107V327.678H768.123V316.107H763.885V313.114H776.075V316.107H771.837ZM780.73 327.678H777.382V312.549H780.73V317.749C780.73 317.969 780.804 318.084 780.94 318.084C781.065 318.084 781.128 318.042 781.264 317.864C781.986 316.986 782.917 316.546 784.204 316.546C786.558 316.546 788.023 318.147 788.023 320.909V327.678H784.664V321.516C784.664 320.25 784.089 319.518 783.001 319.518C782.321 319.518 781.745 319.8 781.369 320.26C780.94 320.773 780.73 321.505 780.73 322.447V327.678ZM795.096 316.546C798.203 316.546 799.888 318.116 799.888 321.035V327.678H797.419C797.398 327.26 797.345 326.936 797.272 326.716C797.22 326.517 797.136 326.423 797 326.423C796.874 326.423 796.78 326.486 796.644 326.664C795.881 327.595 794.981 328.003 793.568 328.003C792.051 328.003 790.785 327.448 790.105 326.392C789.76 325.868 789.592 325.251 789.592 324.529C789.592 322.489 791.057 321.369 793.903 321.202C795.127 321.129 796.048 321.003 796.686 320.846V320.721C796.686 319.643 796.079 319.057 795.023 319.057C794.06 319.057 793.443 319.538 793.265 320.323H789.948C790.367 318.105 792.166 316.546 795.096 316.546ZM796.351 324.665C796.571 324.268 796.686 323.734 796.686 323.064V322.771C796.278 322.918 795.567 323.043 794.531 323.138C793.39 323.263 792.94 323.64 792.94 324.362C792.94 325.188 793.537 325.649 794.531 325.649C795.357 325.649 795.985 325.335 796.351 324.665ZM805.381 327.678H802.033V316.902H804.502C804.512 317.195 804.565 317.592 804.638 317.843C804.711 318.116 804.837 318.252 805.015 318.252C805.182 318.252 805.255 318.189 805.454 317.969C806.28 317.017 807.285 316.546 808.676 316.546C811.198 316.546 812.663 318.147 812.663 320.899V327.678H809.315V321.547C809.315 320.219 808.729 319.528 807.63 319.528C806.95 319.528 806.406 319.779 805.998 320.271C805.59 320.794 805.381 321.526 805.381 322.458V327.678ZM825.846 316.902L821.839 322.123L826.181 327.678H821.975L818.166 322.583V327.678H814.818V312.549H818.166V321.966L821.849 316.902H825.846ZM832.961 316.902L835.472 323.975L837.93 316.902H841.404L835.231 332.177H831.757L833.588 327.668L829.257 316.902H832.961ZM847.535 328.024C846.363 328.024 845.317 327.783 844.386 327.291C843.455 326.8 842.733 326.12 842.22 325.251C841.697 324.383 841.435 323.389 841.435 322.29C841.435 320.083 842.534 318.262 844.386 317.278C845.317 316.787 846.363 316.546 847.535 316.546C848.697 316.546 849.743 316.787 850.674 317.278C851.595 317.77 852.317 318.461 852.84 319.329C853.363 320.198 853.624 321.192 853.624 322.29C853.624 323.389 853.363 324.383 852.84 325.251C852.317 326.12 851.595 326.8 850.674 327.291C849.743 327.783 848.697 328.024 847.535 328.024ZM847.535 325.167C849.157 325.167 850.214 324.017 850.214 322.29C850.214 320.564 849.157 319.413 847.535 319.413C845.903 319.413 844.846 320.574 844.846 322.29C844.846 324.006 845.903 325.167 847.535 325.167ZM859.17 328.024C856.617 328.024 855.163 326.433 855.163 323.671V316.902H858.511V322.97C858.511 324.341 859.086 325.052 860.247 325.052C860.969 325.052 861.503 324.812 861.859 324.32C862.214 323.849 862.392 323.169 862.392 322.29V316.902H865.74V327.678H863.292C863.282 327.396 863.229 327.009 863.156 326.768C863.083 326.496 862.957 326.36 862.769 326.36C862.612 326.36 862.518 326.423 862.34 326.632C861.534 327.563 860.54 328.024 859.17 328.024ZM871.359 327.678H868.011V316.902H870.375C870.428 317.415 870.49 317.77 870.543 317.948C870.616 318.168 870.71 318.272 870.846 318.272C870.972 318.272 871.024 318.22 871.118 318.021C871.568 317.184 872.457 316.703 873.629 316.703C873.995 316.703 874.288 316.734 874.529 316.787V319.716C874.152 319.664 873.818 319.643 873.535 319.643C872.782 319.643 872.269 319.81 871.903 320.187C871.537 320.574 871.359 321.181 871.359 322.008V327.678ZM884.165 327.678H880.88V319.591H878.913V316.902H880.88V316.096C880.88 313.46 882.272 312.131 884.992 312.131C885.714 312.131 886.519 312.256 886.99 312.455V314.966C886.593 314.83 886.185 314.767 885.777 314.767C884.699 314.767 884.165 315.259 884.165 316.253V316.902H886.844V319.591H884.165V327.678ZM893.195 328.024C892.023 328.024 890.977 327.783 890.045 327.291C889.114 326.8 888.392 326.12 887.88 325.251C887.356 324.383 887.095 323.389 887.095 322.29C887.095 320.083 888.193 318.262 890.045 317.278C890.977 316.787 892.023 316.546 893.195 316.546C894.356 316.546 895.402 316.787 896.333 317.278C897.254 317.77 897.976 318.461 898.499 319.329C899.022 320.198 899.284 321.192 899.284 322.29C899.284 323.389 899.022 324.383 898.499 325.251C897.976 326.12 897.254 326.8 896.333 327.291C895.402 327.783 894.356 328.024 893.195 328.024ZM893.195 325.167C894.816 325.167 895.873 324.017 895.873 322.29C895.873 320.564 894.816 319.413 893.195 319.413C891.562 319.413 890.506 320.574 890.506 322.29C890.506 324.006 891.562 325.167 893.195 325.167ZM904.275 327.678H900.927V316.902H903.291C903.344 317.415 903.406 317.77 903.459 317.948C903.532 318.168 903.626 318.272 903.762 318.272C903.888 318.272 903.94 318.22 904.034 318.021C904.484 317.184 905.373 316.703 906.545 316.703C906.911 316.703 907.204 316.734 907.445 316.787V319.716C907.068 319.664 906.733 319.643 906.451 319.643C905.698 319.643 905.185 319.81 904.819 320.187C904.453 320.574 904.275 321.181 904.275 322.008V327.678ZM761.05 337.902L763.561 344.975L766.02 337.902H769.493L763.32 353.177H759.847L761.678 348.668L757.346 337.902H761.05ZM775.625 349.024C774.453 349.024 773.407 348.783 772.475 348.291C771.544 347.8 770.822 347.12 770.31 346.251C769.786 345.383 769.525 344.389 769.525 343.29C769.525 341.083 770.623 339.262 772.475 338.278C773.407 337.787 774.453 337.546 775.625 337.546C776.786 337.546 777.832 337.787 778.763 338.278C779.684 338.77 780.406 339.461 780.929 340.329C781.452 341.198 781.714 342.192 781.714 343.29C781.714 344.389 781.452 345.383 780.929 346.251C780.406 347.12 779.684 347.8 778.763 348.291C777.832 348.783 776.786 349.024 775.625 349.024ZM775.625 346.167C777.246 346.167 778.303 345.017 778.303 343.29C778.303 341.564 777.246 340.413 775.625 340.413C773.992 340.413 772.936 341.574 772.936 343.29C772.936 345.006 773.992 346.167 775.625 346.167ZM787.259 349.024C784.706 349.024 783.252 347.433 783.252 344.671V337.902H786.6V343.97C786.6 345.341 787.175 346.052 788.337 346.052C789.059 346.052 789.592 345.812 789.948 345.32C790.304 344.849 790.482 344.169 790.482 343.29V337.902H793.83V348.678H791.382C791.371 348.396 791.319 348.009 791.246 347.768C791.172 347.496 791.047 347.36 790.858 347.36C790.701 347.36 790.607 347.423 790.429 347.632C789.624 348.563 788.63 349.024 787.259 349.024ZM799.448 348.678H796.1V337.902H798.465C798.517 338.415 798.58 338.77 798.632 338.948C798.705 339.168 798.8 339.272 798.936 339.272C799.061 339.272 799.114 339.22 799.208 339.021C799.658 338.184 800.547 337.703 801.719 337.703C802.085 337.703 802.378 337.734 802.619 337.787V340.716C802.242 340.664 801.907 340.643 801.625 340.643C800.871 340.643 800.359 340.81 799.992 341.187C799.626 341.574 799.448 342.181 799.448 343.008V348.678ZM812.255 348.678H808.969V340.591H807.002V337.902H808.969V337.096C808.969 334.46 810.361 333.131 813.081 333.131C813.803 333.131 814.609 333.256 815.08 333.455V335.966C814.682 335.83 814.274 335.767 813.866 335.767C812.788 335.767 812.255 336.259 812.255 337.253V337.902H814.933V340.591H812.255V348.678ZM826.62 342.997C826.62 343.614 826.589 344.043 826.526 344.274H818.585C818.679 345.623 819.641 346.471 821.033 346.471C822.121 346.471 822.874 346.031 823.157 345.268H826.421C825.856 347.559 823.879 349.024 820.991 349.024C818.763 349.024 816.932 348.019 815.938 346.282C815.446 345.414 815.195 344.42 815.195 343.29C815.195 341.062 816.252 339.241 818.009 338.268C818.888 337.787 819.872 337.546 820.97 337.546C823.188 337.546 824.957 338.509 825.909 340.151C826.379 340.978 826.62 341.92 826.62 342.997ZM821.033 340.068C819.662 340.068 818.742 340.946 818.585 342.254H823.377C823.345 341.585 823.115 341.051 822.686 340.654C822.257 340.266 821.703 340.068 821.033 340.068ZM839.134 342.997C839.134 343.614 839.102 344.043 839.039 344.274H831.098C831.192 345.623 832.155 346.471 833.546 346.471C834.635 346.471 835.388 346.031 835.67 345.268H838.935C838.37 347.559 836.392 349.024 833.505 349.024C831.276 349.024 829.445 348.019 828.451 346.282C827.959 345.414 827.708 344.42 827.708 343.29C827.708 341.062 828.765 339.241 830.523 338.268C831.402 337.787 832.385 337.546 833.484 337.546C835.702 337.546 837.47 338.509 838.422 340.151C838.893 340.978 839.134 341.92 839.134 342.997ZM833.546 340.068C832.176 340.068 831.255 340.946 831.098 342.254H835.89C835.859 341.585 835.629 341.051 835.2 340.654C834.771 340.266 834.216 340.068 833.546 340.068ZM845.537 349.024C843.497 349.024 841.822 347.977 840.912 346.23C840.452 345.362 840.222 344.378 840.222 343.301C840.222 342.223 840.462 341.25 840.933 340.371C841.404 339.503 842.053 338.812 842.879 338.32C843.706 337.829 844.616 337.577 845.62 337.577C846.824 337.577 847.786 337.954 848.445 338.54C848.602 338.666 848.665 338.697 848.759 338.697C848.895 338.697 848.958 338.592 848.958 338.383V333.549H852.306V348.678H849.847C849.837 348.354 849.785 348.051 849.711 347.768C849.628 347.486 849.534 347.381 849.335 347.381C849.209 347.381 849.094 347.454 848.916 347.632C848.027 348.563 846.907 349.024 845.537 349.024ZM846.311 346.167C847.043 346.167 847.65 345.948 848.142 345.508C848.697 345.006 849.042 344.232 849.042 343.301C849.042 342.38 848.697 341.606 848.142 341.103C847.65 340.664 847.043 340.444 846.311 340.444C844.71 340.444 843.653 341.595 843.653 343.301C843.653 345.017 844.71 346.167 846.311 346.167ZM861.336 349.024C859.965 349.024 858.845 348.563 857.956 347.632C857.778 347.454 857.663 347.381 857.538 347.381C857.339 347.381 857.245 347.507 857.171 347.768C857.088 348.04 857.035 348.344 857.025 348.678H854.566V333.549H857.914V338.383C857.914 338.592 857.977 338.697 858.113 338.697C858.207 338.697 858.27 338.666 858.427 338.54C859.086 337.954 860.049 337.577 861.252 337.577C863.25 337.577 864.997 338.634 865.939 340.371C866.41 341.25 866.651 342.223 866.651 343.301C866.651 344.378 866.42 345.362 865.971 346.23C865.51 347.099 864.882 347.789 864.077 348.281C863.271 348.773 862.35 349.024 861.336 349.024ZM860.561 346.167C862.162 346.167 863.219 345.017 863.219 343.301C863.219 341.595 862.162 340.444 860.561 340.444C859.839 340.444 859.222 340.664 858.73 341.103C858.176 341.606 857.831 342.38 857.831 343.301C857.831 344.232 858.176 345.006 858.73 345.508C859.222 345.948 859.839 346.167 860.561 346.167ZM873.221 337.546C876.329 337.546 878.013 339.116 878.013 342.035V348.678H875.544C875.523 348.26 875.471 347.936 875.397 347.716C875.345 347.517 875.261 347.423 875.125 347.423C875 347.423 874.906 347.486 874.77 347.664C874.006 348.595 873.106 349.003 871.694 349.003C870.177 349.003 868.911 348.448 868.23 347.392C867.885 346.868 867.718 346.251 867.718 345.529C867.718 343.489 869.183 342.369 872.028 342.202C873.253 342.129 874.173 342.003 874.812 341.846V341.721C874.812 340.643 874.205 340.057 873.148 340.057C872.185 340.057 871.568 340.538 871.39 341.323H868.074C868.492 339.105 870.292 337.546 873.221 337.546ZM874.477 345.665C874.696 345.268 874.812 344.734 874.812 344.064V343.771C874.404 343.918 873.692 344.043 872.656 344.138C871.516 344.263 871.066 344.64 871.066 345.362C871.066 346.188 871.662 346.649 872.656 346.649C873.483 346.649 874.111 346.335 874.477 345.665ZM885.525 349.024C883.192 349.024 881.319 347.998 880.315 346.251C879.813 345.383 879.562 344.389 879.562 343.29C879.562 341.072 880.618 339.262 882.428 338.278C883.328 337.787 884.364 337.546 885.525 337.546C887.859 337.546 889.554 338.519 890.453 339.973C890.903 340.706 891.154 341.501 891.217 342.348H887.932C887.733 341.135 886.865 340.413 885.599 340.413C883.998 340.413 882.962 341.564 882.962 343.29C882.962 345.017 883.998 346.167 885.599 346.167C886.865 346.167 887.733 345.445 887.932 344.232H891.217C891.092 345.937 890.202 347.475 888.528 348.354C887.691 348.804 886.687 349.024 885.525 349.024ZM903.825 337.902L899.818 343.123L904.16 348.678H899.954L896.145 343.583V348.678H892.797V333.549H896.145V342.966L899.828 337.902H903.825ZM912.457 334.114L912.049 343.74H909.339L908.941 334.114H912.457ZM910.699 348.94C909.506 348.94 908.648 348.103 908.648 347.004C908.648 345.906 909.506 345.069 910.699 345.069C911.881 345.069 912.739 345.906 912.739 347.004C912.739 348.103 911.881 348.94 910.699 348.94Z" fill="#151B37"/>
<rect x="715.883" y="399.105" width="239.283" height="45.5703" rx="22.7852" fill="#F2EEEB"/>
<path d="M754.829 427.696C751.682 427.696 749.624 425.96 749.624 422.665V415.254H752.083V422.743C752.083 424.653 753.051 425.638 754.829 425.638C756.599 425.638 757.567 424.653 757.567 422.743V415.254H760.026V422.665C760.026 425.96 757.968 427.696 754.829 427.696ZM764.359 431.14H762.118V418.471H763.775C763.784 418.811 763.819 419.107 763.88 419.351C763.923 419.587 763.993 419.683 764.141 419.683C764.255 419.683 764.342 419.631 764.49 419.456C765.24 418.619 766.234 418.201 767.463 418.201C769.146 418.201 770.567 419.072 771.343 420.511C771.727 421.235 771.919 422.037 771.919 422.935C771.919 423.833 771.727 424.635 771.334 425.359C770.942 426.083 770.401 426.649 769.713 427.059C769.024 427.478 768.248 427.678 767.402 427.678C766.286 427.678 765.362 427.286 764.743 426.658C764.638 426.562 764.595 426.536 764.516 426.536C764.412 426.536 764.359 426.623 764.359 426.797V431.14ZM766.975 425.751C768.536 425.751 769.625 424.6 769.625 422.935C769.625 421.27 768.536 420.119 766.975 420.119C766.225 420.119 765.606 420.354 765.127 420.825C764.603 421.322 764.298 422.063 764.298 422.935C764.298 423.807 764.603 424.548 765.127 425.045C765.606 425.516 766.225 425.751 766.975 425.751ZM777.412 427.678C775.711 427.678 774.299 426.806 773.532 425.359C773.139 424.635 772.947 423.833 772.947 422.935C772.947 422.037 773.148 421.235 773.54 420.511C773.933 419.787 774.482 419.221 775.171 418.811C775.86 418.401 776.627 418.201 777.473 418.201C778.58 418.201 779.504 418.593 780.123 419.212C780.228 419.308 780.271 419.334 780.35 419.334C780.463 419.334 780.515 419.247 780.515 419.072V414.783H782.748V427.39H781.091C781.082 427.068 781.047 426.78 780.995 426.518C780.934 426.274 780.873 426.187 780.725 426.187C780.611 426.187 780.524 426.239 780.376 426.414C779.617 427.26 778.632 427.678 777.412 427.678ZM777.891 425.76C778.632 425.76 779.251 425.525 779.748 425.054C780.271 424.557 780.577 423.807 780.577 422.935C780.577 422.063 780.271 421.322 779.748 420.825C779.251 420.354 778.632 420.119 777.891 420.119C776.33 420.119 775.249 421.27 775.249 422.935C775.249 424.609 776.33 425.76 777.891 425.76ZM788.746 418.183C791.249 418.183 792.591 419.508 792.591 421.924V427.39H790.952C790.926 426.963 790.882 426.658 790.83 426.475C790.769 426.327 790.717 426.257 790.612 426.257C790.481 426.257 790.429 426.309 790.289 426.492C789.688 427.294 788.851 427.669 787.656 427.669C785.721 427.669 784.352 426.597 784.352 424.792C784.352 423.118 785.546 422.203 787.909 422.063C789.095 421.985 789.941 421.88 790.438 421.749V421.732C790.438 420.555 789.81 419.927 788.694 419.927C787.717 419.927 787.072 420.415 786.863 421.209H784.631C784.997 419.421 786.471 418.183 788.746 418.183ZM790.115 424.94C790.333 424.513 790.438 423.973 790.438 423.31V423.162C790.028 423.301 789.391 423.388 788.24 423.493C787.055 423.606 786.584 423.973 786.584 424.705C786.584 425.542 787.212 426.013 788.214 426.013C789.13 426.013 789.758 425.655 790.115 424.94ZM798.468 427.504C796.314 427.504 795.32 426.562 795.32 424.321V420.293H793.62V418.471H794.623C795.277 418.471 795.582 418.262 795.73 417.73C795.782 417.521 795.835 417.242 795.887 416.901C795.931 416.561 795.974 416.239 796 415.942H797.526V418.471H799.889V420.293H797.526V424.121C797.526 425.263 797.936 425.708 798.974 425.708C799.314 425.708 799.671 425.664 800.037 425.577V427.277C799.863 427.338 799.627 427.399 799.322 427.443C799.017 427.486 798.738 427.504 798.468 427.504ZM810.02 422.673C810.02 423.127 810.003 423.449 809.959 423.633H803.002C803.106 425.01 804.083 425.908 805.487 425.908C806.594 425.908 807.405 425.42 807.658 424.618H809.864C809.428 426.484 807.771 427.678 805.469 427.678C803.629 427.678 802.139 426.85 801.336 425.411C800.935 424.688 800.735 423.859 800.735 422.926C800.735 421.069 801.615 419.578 803.045 418.776C803.76 418.384 804.554 418.183 805.434 418.183C807.257 418.183 808.686 418.977 809.454 420.337C809.829 421.017 810.02 421.793 810.02 422.673ZM805.469 419.927C804.126 419.927 803.15 420.816 803.01 422.124H807.849C807.78 420.816 806.821 419.927 805.469 419.927ZM817.615 427.39H815.374V418.471H817.013C817.039 418.793 817.074 419.081 817.118 419.351C817.179 419.631 817.266 419.744 817.414 419.744C817.527 419.744 817.571 419.709 817.737 419.526C818.46 418.628 819.289 418.183 820.379 418.183C821.608 418.183 822.393 418.637 822.925 419.587C823.073 419.84 823.143 419.91 823.273 419.91C823.404 419.91 823.491 419.848 823.666 419.613C824.407 418.61 825.226 418.183 826.377 418.183C828.322 418.183 829.49 419.543 829.49 421.793V427.39H827.249V422.159C827.249 420.877 826.691 420.154 825.68 420.154C825.017 420.154 824.485 420.45 824.084 421.034C823.727 421.566 823.552 422.325 823.552 423.31V427.39H821.32V422.159C821.32 420.877 820.762 420.154 819.742 420.154C819.071 420.154 818.548 420.45 818.155 421.034C817.798 421.584 817.615 422.342 817.615 423.31V427.39ZM832.751 418.471L835.21 424.914L837.616 418.471H839.944L834.704 431.14H832.393L833.954 427.382L830.266 418.471H832.751ZM847.259 427.39H845.062V420.293H843.353V418.471H845.062V417.669C845.062 415.55 846.134 414.504 848.236 414.504C848.785 414.504 849.413 414.608 849.77 414.757V416.457C849.439 416.343 849.09 416.291 848.733 416.291C847.721 416.291 847.259 416.779 847.259 417.765V418.471H849.622V420.293H847.259V427.39ZM859.195 422.673C859.195 423.127 859.178 423.449 859.134 423.633H852.177C852.281 425.01 853.258 425.908 854.662 425.908C855.769 425.908 856.58 425.42 856.833 424.618H859.038C858.603 426.484 856.946 427.678 854.644 427.678C852.804 427.678 851.313 426.85 850.511 425.411C850.11 424.688 849.91 423.859 849.91 422.926C849.91 421.069 850.79 419.578 852.22 418.776C852.935 418.384 853.729 418.183 854.609 418.183C856.432 418.183 857.861 418.977 858.629 420.337C859.004 421.017 859.195 421.793 859.195 422.673ZM854.644 419.927C853.301 419.927 852.325 420.816 852.185 422.124H857.024C856.955 420.816 855.996 419.927 854.644 419.927ZM869.536 422.673C869.536 423.127 869.519 423.449 869.475 423.633H862.517C862.622 425.01 863.599 425.908 865.002 425.908C866.11 425.908 866.92 425.42 867.173 424.618H869.379C868.943 426.484 867.287 427.678 864.985 427.678C863.145 427.678 861.654 426.85 860.852 425.411C860.451 424.688 860.25 423.859 860.25 422.926C860.25 421.069 861.131 419.578 862.561 418.776C863.276 418.384 864.069 418.183 864.95 418.183C866.772 418.183 868.202 418.977 868.969 420.337C869.344 421.017 869.536 421.793 869.536 422.673ZM864.985 419.927C863.642 419.927 862.666 420.816 862.526 422.124H867.365C867.295 420.816 866.336 419.927 864.985 419.927ZM875.047 427.678C873.346 427.678 871.934 426.806 871.167 425.359C870.774 424.635 870.582 423.833 870.582 422.935C870.582 422.037 870.783 421.235 871.175 420.511C871.568 419.787 872.117 419.221 872.806 418.811C873.495 418.401 874.262 418.201 875.108 418.201C876.215 418.201 877.139 418.593 877.758 419.212C877.863 419.308 877.906 419.334 877.985 419.334C878.098 419.334 878.15 419.247 878.15 419.072V414.783H880.383V427.39H878.726C878.717 427.068 878.682 426.78 878.63 426.518C878.569 426.274 878.508 426.187 878.36 426.187C878.246 426.187 878.159 426.239 878.011 426.414C877.252 427.26 876.267 427.678 875.047 427.678ZM875.526 425.76C876.267 425.76 876.886 425.525 877.383 425.054C877.906 424.557 878.211 423.807 878.211 422.935C878.211 422.063 877.906 421.322 877.383 420.825C876.886 420.354 876.267 420.119 875.526 420.119C873.965 420.119 872.884 421.27 872.884 422.935C872.884 424.609 873.965 425.76 875.526 425.76ZM887.872 427.678C886.643 427.678 885.657 427.26 884.899 426.414C884.751 426.239 884.664 426.187 884.55 426.187C884.402 426.187 884.332 426.283 884.289 426.518C884.228 426.763 884.193 427.05 884.184 427.39H882.527V414.783H884.768V419.072C884.768 419.247 884.82 419.334 884.925 419.334C885.004 419.334 885.047 419.308 885.152 419.212C885.771 418.593 886.695 418.201 887.811 418.201C888.657 418.201 889.433 418.401 890.122 418.811C890.81 419.221 891.351 419.787 891.743 420.511C892.136 421.235 892.328 422.037 892.328 422.935C892.328 423.833 892.136 424.635 891.752 425.359C891.36 426.083 890.828 426.649 890.156 427.059C889.476 427.478 888.718 427.678 887.872 427.678ZM887.384 425.76C888.945 425.76 890.034 424.609 890.034 422.935C890.034 421.27 888.945 420.119 887.384 420.119C886.643 420.119 886.024 420.354 885.535 420.825C885.012 421.322 884.707 422.063 884.707 422.935C884.707 423.807 885.012 424.557 885.535 425.054C886.024 425.525 886.643 425.76 887.384 425.76ZM897.768 418.183C900.27 418.183 901.613 419.508 901.613 421.924V427.39H899.974C899.948 426.963 899.904 426.658 899.852 426.475C899.791 426.327 899.739 426.257 899.634 426.257C899.503 426.257 899.451 426.309 899.311 426.492C898.71 427.294 897.873 427.669 896.678 427.669C894.743 427.669 893.374 426.597 893.374 424.792C893.374 423.118 894.568 422.203 896.931 422.063C898.117 421.985 898.963 421.88 899.46 421.749V421.732C899.46 420.555 898.832 419.927 897.716 419.927C896.739 419.927 896.094 420.415 895.885 421.209H893.653C894.019 419.421 895.492 418.183 897.768 418.183ZM899.137 424.94C899.355 424.513 899.46 423.973 899.46 423.31V423.162C899.05 423.301 898.413 423.388 897.262 423.493C896.077 423.606 895.606 423.973 895.606 424.705C895.606 425.542 896.234 426.013 897.236 426.013C898.152 426.013 898.78 425.655 899.137 424.94ZM907.969 427.678C906.077 427.678 904.543 426.824 903.723 425.385C903.313 424.661 903.104 423.85 903.104 422.935C903.104 421.095 903.967 419.596 905.441 418.785C906.182 418.384 907.019 418.183 907.969 418.183C909.826 418.183 911.204 418.985 911.936 420.145C912.294 420.729 912.503 421.348 912.555 422.002H910.35C910.14 420.825 909.26 420.101 908.004 420.101C906.444 420.101 905.389 421.244 905.389 422.935C905.389 424.618 906.444 425.76 908.004 425.76C909.26 425.76 910.14 425.036 910.35 423.859H912.555C912.451 425.176 911.727 426.405 910.376 427.129C909.704 427.495 908.902 427.678 907.969 427.678ZM922.574 418.471L918.824 422.813L922.818 427.39H919.94L916.296 423.101V427.39H914.055V414.783H916.296V422.726L919.853 418.471H922.574Z" fill="#151B37"/>
<rect x="715.883" y="455.389" width="239.283" height="45.5703" rx="22.7852" fill="#105FFF"/>
<path d="M754.829 483.98C751.682 483.98 749.624 482.245 749.624 478.949V471.538H752.083V479.027C752.083 480.937 753.051 481.922 754.829 481.922C756.599 481.922 757.567 480.937 757.567 479.027V471.538H760.026V478.949C760.026 482.245 757.968 483.98 754.829 483.98ZM764.359 487.424H762.118V474.755H763.775C763.784 475.095 763.819 475.392 763.88 475.636C763.923 475.871 763.993 475.967 764.141 475.967C764.255 475.967 764.342 475.915 764.49 475.74C765.24 474.903 766.234 474.485 767.463 474.485C769.146 474.485 770.567 475.357 771.343 476.795C771.727 477.519 771.919 478.321 771.919 479.219C771.919 480.117 771.727 480.919 771.334 481.643C770.942 482.367 770.401 482.933 769.713 483.343C769.024 483.762 768.248 483.962 767.402 483.962C766.286 483.962 765.362 483.57 764.743 482.942C764.638 482.846 764.595 482.82 764.516 482.82C764.412 482.82 764.359 482.907 764.359 483.082V487.424ZM766.975 482.035C768.536 482.035 769.625 480.884 769.625 479.219C769.625 477.554 768.536 476.403 766.975 476.403C766.225 476.403 765.606 476.638 765.127 477.109C764.603 477.606 764.298 478.347 764.298 479.219C764.298 480.091 764.603 480.832 765.127 481.329C765.606 481.8 766.225 482.035 766.975 482.035ZM777.412 483.962C775.711 483.962 774.299 483.09 773.532 481.643C773.139 480.919 772.947 480.117 772.947 479.219C772.947 478.321 773.148 477.519 773.54 476.795C773.933 476.072 774.482 475.505 775.171 475.095C775.86 474.685 776.627 474.485 777.473 474.485C778.58 474.485 779.504 474.877 780.123 475.496C780.228 475.592 780.271 475.618 780.35 475.618C780.463 475.618 780.515 475.531 780.515 475.357V471.067H782.748V483.675H781.091C781.082 483.352 781.047 483.064 780.995 482.803C780.934 482.559 780.873 482.471 780.725 482.471C780.611 482.471 780.524 482.524 780.376 482.698C779.617 483.544 778.632 483.962 777.412 483.962ZM777.891 482.044C778.632 482.044 779.251 481.809 779.748 481.338C780.271 480.841 780.577 480.091 780.577 479.219C780.577 478.347 780.271 477.606 779.748 477.109C779.251 476.638 778.632 476.403 777.891 476.403C776.33 476.403 775.249 477.554 775.249 479.219C775.249 480.893 776.33 482.044 777.891 482.044ZM788.746 474.467C791.249 474.467 792.591 475.793 792.591 478.208V483.675H790.952C790.926 483.247 790.882 482.942 790.83 482.759C790.769 482.611 790.717 482.541 790.612 482.541C790.481 482.541 790.429 482.593 790.289 482.777C789.688 483.579 788.851 483.954 787.656 483.954C785.721 483.954 784.352 482.881 784.352 481.076C784.352 479.402 785.546 478.487 787.909 478.347C789.095 478.269 789.941 478.164 790.438 478.033V478.016C790.438 476.839 789.81 476.211 788.694 476.211C787.717 476.211 787.072 476.699 786.863 477.493H784.631C784.997 475.705 786.471 474.467 788.746 474.467ZM790.115 481.225C790.333 480.797 790.438 480.257 790.438 479.594V479.446C790.028 479.585 789.391 479.673 788.24 479.777C787.055 479.891 786.584 480.257 786.584 480.989C786.584 481.826 787.212 482.297 788.214 482.297C789.13 482.297 789.758 481.939 790.115 481.225ZM798.468 483.788C796.314 483.788 795.32 482.846 795.32 480.605V476.577H793.62V474.755H794.623C795.277 474.755 795.582 474.546 795.73 474.014C795.782 473.805 795.835 473.526 795.887 473.186C795.931 472.846 795.974 472.523 796 472.227H797.526V474.755H799.889V476.577H797.526V480.405C797.526 481.547 797.936 481.992 798.974 481.992C799.314 481.992 799.671 481.948 800.037 481.861V483.561C799.863 483.622 799.627 483.683 799.322 483.727C799.017 483.77 798.738 483.788 798.468 483.788ZM810.02 478.958C810.02 479.411 810.003 479.734 809.959 479.917H803.002C803.106 481.294 804.083 482.192 805.487 482.192C806.594 482.192 807.405 481.704 807.658 480.902H809.864C809.428 482.768 807.771 483.962 805.469 483.962C803.629 483.962 802.139 483.134 801.336 481.695C800.935 480.972 800.735 480.143 800.735 479.21C800.735 477.353 801.615 475.862 803.045 475.06C803.76 474.668 804.554 474.467 805.434 474.467C807.257 474.467 808.686 475.261 809.454 476.621C809.829 477.301 810.02 478.077 810.02 478.958ZM805.469 476.211C804.126 476.211 803.15 477.1 803.01 478.408H807.849C807.78 477.1 806.821 476.211 805.469 476.211ZM817.615 483.675H815.374V474.755H817.013C817.039 475.078 817.074 475.365 817.118 475.636C817.179 475.915 817.266 476.028 817.414 476.028C817.527 476.028 817.571 475.993 817.737 475.81C818.46 474.912 819.289 474.467 820.379 474.467C821.608 474.467 822.393 474.921 822.925 475.871C823.073 476.124 823.143 476.194 823.273 476.194C823.404 476.194 823.491 476.133 823.666 475.897C824.407 474.895 825.226 474.467 826.377 474.467C828.322 474.467 829.49 475.827 829.49 478.077V483.675H827.249V478.443C827.249 477.161 826.691 476.438 825.68 476.438C825.017 476.438 824.485 476.734 824.084 477.318C823.727 477.85 823.552 478.609 823.552 479.594V483.675H821.32V478.443C821.32 477.161 820.762 476.438 819.742 476.438C819.071 476.438 818.548 476.734 818.155 477.318C817.798 477.868 817.615 478.626 817.615 479.594V483.675ZM832.751 474.755L835.21 481.198L837.616 474.755H839.944L834.704 487.424H832.393L833.954 483.666L830.266 474.755H832.751ZM847.259 483.675H845.062V476.577H843.353V474.755H845.062V473.953C845.062 471.834 846.134 470.788 848.236 470.788C848.785 470.788 849.413 470.893 849.77 471.041V472.741C849.439 472.628 849.09 472.575 848.733 472.575C847.721 472.575 847.259 473.064 847.259 474.049V474.755H849.622V476.577H847.259V483.675ZM859.195 478.958C859.195 479.411 859.178 479.734 859.134 479.917H852.177C852.281 481.294 853.258 482.192 854.662 482.192C855.769 482.192 856.58 481.704 856.833 480.902H859.038C858.603 482.768 856.946 483.962 854.644 483.962C852.804 483.962 851.313 483.134 850.511 481.695C850.11 480.972 849.91 480.143 849.91 479.21C849.91 477.353 850.79 475.862 852.22 475.06C852.935 474.668 853.729 474.467 854.609 474.467C856.432 474.467 857.861 475.261 858.629 476.621C859.004 477.301 859.195 478.077 859.195 478.958ZM854.644 476.211C853.301 476.211 852.325 477.1 852.185 478.408H857.024C856.955 477.1 855.996 476.211 854.644 476.211ZM869.536 478.958C869.536 479.411 869.519 479.734 869.475 479.917H862.517C862.622 481.294 863.599 482.192 865.002 482.192C866.11 482.192 866.92 481.704 867.173 480.902H869.379C868.943 482.768 867.287 483.962 864.985 483.962C863.145 483.962 861.654 483.134 860.852 481.695C860.451 480.972 860.25 480.143 860.25 479.21C860.25 477.353 861.131 475.862 862.561 475.06C863.276 474.668 864.069 474.467 864.95 474.467C866.772 474.467 868.202 475.261 868.969 476.621C869.344 477.301 869.536 478.077 869.536 478.958ZM864.985 476.211C863.642 476.211 862.666 477.1 862.526 478.408H867.365C867.295 477.1 866.336 476.211 864.985 476.211ZM875.047 483.962C873.346 483.962 871.934 483.09 871.167 481.643C870.774 480.919 870.582 480.117 870.582 479.219C870.582 478.321 870.783 477.519 871.175 476.795C871.568 476.072 872.117 475.505 872.806 475.095C873.495 474.685 874.262 474.485 875.108 474.485C876.215 474.485 877.139 474.877 877.758 475.496C877.863 475.592 877.906 475.618 877.985 475.618C878.098 475.618 878.15 475.531 878.15 475.357V471.067H880.383V483.675H878.726C878.717 483.352 878.682 483.064 878.63 482.803C878.569 482.559 878.508 482.471 878.36 482.471C878.246 482.471 878.159 482.524 878.011 482.698C877.252 483.544 876.267 483.962 875.047 483.962ZM875.526 482.044C876.267 482.044 876.886 481.809 877.383 481.338C877.906 480.841 878.211 480.091 878.211 479.219C878.211 478.347 877.906 477.606 877.383 477.109C876.886 476.638 876.267 476.403 875.526 476.403C873.965 476.403 872.884 477.554 872.884 479.219C872.884 480.893 873.965 482.044 875.526 482.044ZM887.872 483.962C886.643 483.962 885.657 483.544 884.899 482.698C884.751 482.524 884.664 482.471 884.55 482.471C884.402 482.471 884.332 482.567 884.289 482.803C884.228 483.047 884.193 483.335 884.184 483.675H882.527V471.067H884.768V475.357C884.768 475.531 884.82 475.618 884.925 475.618C885.004 475.618 885.047 475.592 885.152 475.496C885.771 474.877 886.695 474.485 887.811 474.485C888.657 474.485 889.433 474.685 890.122 475.095C890.81 475.505 891.351 476.072 891.743 476.795C892.136 477.519 892.328 478.321 892.328 479.219C892.328 480.117 892.136 480.919 891.752 481.643C891.36 482.367 890.828 482.933 890.156 483.343C889.476 483.762 888.718 483.962 887.872 483.962ZM887.384 482.044C888.945 482.044 890.034 480.893 890.034 479.219C890.034 477.554 888.945 476.403 887.384 476.403C886.643 476.403 886.024 476.638 885.535 477.109C885.012 477.606 884.707 478.347 884.707 479.219C884.707 480.091 885.012 480.841 885.535 481.338C886.024 481.809 886.643 482.044 887.384 482.044ZM897.768 474.467C900.27 474.467 901.613 475.793 901.613 478.208V483.675H899.974C899.948 483.247 899.904 482.942 899.852 482.759C899.791 482.611 899.739 482.541 899.634 482.541C899.503 482.541 899.451 482.593 899.311 482.777C898.71 483.579 897.873 483.954 896.678 483.954C894.743 483.954 893.374 482.881 893.374 481.076C893.374 479.402 894.568 478.487 896.931 478.347C898.117 478.269 898.963 478.164 899.46 478.033V478.016C899.46 476.839 898.832 476.211 897.716 476.211C896.739 476.211 896.094 476.699 895.885 477.493H893.653C894.019 475.705 895.492 474.467 897.768 474.467ZM899.137 481.225C899.355 480.797 899.46 480.257 899.46 479.594V479.446C899.05 479.585 898.413 479.673 897.262 479.777C896.077 479.891 895.606 480.257 895.606 480.989C895.606 481.826 896.234 482.297 897.236 482.297C898.152 482.297 898.78 481.939 899.137 481.225ZM907.969 483.962C906.077 483.962 904.543 483.108 903.723 481.669C903.313 480.946 903.104 480.135 903.104 479.219C903.104 477.379 903.967 475.88 905.441 475.069C906.182 474.668 907.019 474.467 907.969 474.467C909.826 474.467 911.204 475.269 911.936 476.429C912.294 477.013 912.503 477.632 912.555 478.286H910.35C910.14 477.109 909.26 476.386 908.004 476.386C906.444 476.386 905.389 477.528 905.389 479.219C905.389 480.902 906.444 482.044 908.004 482.044C909.26 482.044 910.14 481.32 910.35 480.143H912.555C912.451 481.46 911.727 482.689 910.376 483.413C909.704 483.779 908.902 483.962 907.969 483.962ZM922.574 474.755L918.824 479.097L922.818 483.675H919.94L916.296 479.385V483.675H914.055V471.067H916.296V479.01L919.853 474.755H922.574Z" fill="white"/>
</g>
</g>
<defs>
<filter id="filter0_d_454_1163" x="0" y="0" width="1130" height="629" filterUnits="userSpaceOnUse" color-interpolation-filters="sRGB">
<feFlood flood-opacity="0" result="BackgroundImageFix"/>
<feColorMatrix in="SourceAlpha" type="matrix" values="0 0 0 0 0 0 0 0 0 0 0 0 0 0 0 0 0 0 127 0" result="hardAlpha"/>
<feOffset dy="13"/>
<feComposite in2="hardAlpha" operator="out"/>
<feColorMatrix type="matrix" values="0 0 0 0 0.0823529 0 0 0 0 0.105882 0 0 0 0 0.215686 0 0 0 1 0"/>
<feBlend mode="normal" in2="BackgroundImageFix" result="effect1_dropShadow_454_1163"/>
<feBlend mode="normal" in="SourceGraphic" in2="effect1_dropShadow_454_1163" result="shape"/>
</filter>
<filter id="filter1_d_454_1163" x="230.637" y="60.6882" width="698.187" height="281.239" filterUnits="userSpaceOnUse" color-interpolation-filters="sRGB">
<feFlood flood-opacity="0" result="BackgroundImageFix"/>
<feColorMatrix in="SourceAlpha" type="matrix" values="0 0 0 0 0 0 0 0 0 0 0 0 0 0 0 0 0 0 127 0" result="hardAlpha"/>
<feOffset dx="10.7139" dy="10.7139"/>
<feComposite in2="hardAlpha" operator="out"/>
<feColorMatrix type="matrix" values="0 0 0 0 0 0 0 0 0 0 0 0 0 0 0 0 0 0 1 0"/>
<feBlend mode="normal" in2="BackgroundImageFix" result="effect1_dropShadow_454_1163"/>
<feBlend mode="normal" in="SourceGraphic" in2="effect1_dropShadow_454_1163" result="shape"/>
</filter>
<filter id="filter2_d_454_1163" x="111" y="255.323" width="396.413" height="310.702" filterUnits="userSpaceOnUse" color-interpolation-filters="sRGB">
<feFlood flood-opacity="0" result="BackgroundImageFix"/>
<feColorMatrix in="SourceAlpha" type="matrix" values="0 0 0 0 0 0 0 0 0 0 0 0 0 0 0 0 0 0 127 0" result="hardAlpha"/>
<feOffset dx="10.7139" dy="10.7139"/>
<feComposite in2="hardAlpha" operator="out"/>
<feColorMatrix type="matrix" values="0 0 0 0 0.0823529 0 0 0 0 0.105882 0 0 0 0 0.215686 0 0 0 1 0"/>
<feBlend mode="normal" in2="BackgroundImageFix" result="effect1_dropShadow_454_1163"/>
<feBlend mode="normal" in="SourceGraphic" in2="effect1_dropShadow_454_1163" result="shape"/>
</filter>
<filter id="filter3_d_454_1163" x="652.051" y="282.108" width="377.663" height="258.136" filterUnits="userSpaceOnUse" color-interpolation-filters="sRGB">
<feFlood flood-opacity="0" result="BackgroundImageFix"/>
<feColorMatrix in="SourceAlpha" type="matrix" values="0 0 0 0 0 0 0 0 0 0 0 0 0 0 0 0 0 0 127 0" result="hardAlpha"/>
<feOffset dx="10.7139" dy="10.7139"/>
<feComposite in2="hardAlpha" operator="out"/>
<feColorMatrix type="matrix" values="0 0 0 0 0 0 0 0 0 0 0 0 0 0 0 0 0 0 1 0"/>
<feBlend mode="normal" in2="BackgroundImageFix" result="effect1_dropShadow_454_1163"/>
<feBlend mode="normal" in="SourceGraphic" in2="effect1_dropShadow_454_1163" result="shape"/>
</filter>
</defs>
</svg>
