<svg width="654" height="557" viewBox="0 0 654 557" fill="none" xmlns="http://www.w3.org/2000/svg">
<g filter="url(#filter0_d_403_737)">
<rect width="654" height="544" rx="36" fill="#FDE192"/>
<rect x="2.78069" y="2.78069" width="648.439" height="538.439" rx="33.2193" stroke="#151B37" stroke-width="5.56138"/>
<g filter="url(#filter1_d_403_737)">
<circle cx="373" cy="116.735" r="26" fill="#F5B810"/>
<circle cx="373" cy="116.735" r="24.5" stroke="#151B37" stroke-width="3"/>
</g>
<g filter="url(#filter2_d_403_737)">
<mask id="path-5-outside-1_403_737" maskUnits="userSpaceOnUse" x="55" y="59.2354" width="296" height="164" fill="black">
<rect fill="white" x="55" y="59.2354" width="296" height="164"/>
<path d="M319 62.2354C319.198 62.2354 319.394 62.2458 319.588 62.2646H343.428C346.906 62.2646 348.727 66.3952 346.382 68.9624L326.047 91.2233C325.373 91.9604 325 92.9227 325 93.9211V214.235C325 217.549 322.314 220.235 319 220.235H64C60.6863 220.235 58 217.549 58 214.235V68.2354C58 64.9216 60.6863 62.2354 64 62.2354H319Z"/>
</mask>
<path d="M319 62.2354C319.198 62.2354 319.394 62.2458 319.588 62.2646H343.428C346.906 62.2646 348.727 66.3952 346.382 68.9624L326.047 91.2233C325.373 91.9604 325 92.9227 325 93.9211V214.235C325 217.549 322.314 220.235 319 220.235H64C60.6863 220.235 58 217.549 58 214.235V68.2354C58 64.9216 60.6863 62.2354 64 62.2354H319Z" fill="white"/>
<path d="M319.588 62.2646L319.297 65.2506L319.442 65.2646H319.588V62.2646ZM319 220.235V223.235V220.235ZM58 214.235H55H58ZM64 62.2354V59.2354V62.2354ZM326.047 91.2233L328.262 93.2466L326.047 91.2233ZM346.382 68.9624L344.167 66.9391L346.382 68.9624ZM319 62.2354V65.2354C319.093 65.2354 319.191 65.2403 319.297 65.2506L319.588 62.2646L319.878 59.2787C319.597 59.2514 319.304 59.2354 319 59.2354V62.2354ZM319.588 62.2646V65.2646H343.428V62.2646V59.2646H319.588V62.2646ZM346.382 68.9624L344.167 66.9391L323.832 89.2L326.047 91.2233L328.262 93.2466L348.597 70.9858L346.382 68.9624ZM325 93.9211H322V214.235H325H328V93.9211H325ZM325 214.235H322C322 215.892 320.657 217.235 319 217.235V220.235V223.235C323.971 223.235 328 219.206 328 214.235H325ZM319 220.235V217.235H64V220.235V223.235H319V220.235ZM64 220.235V217.235C62.3431 217.235 61 215.892 61 214.235H58H55C55 219.206 59.0294 223.235 64 223.235V220.235ZM58 214.235H61V68.2354H58H55V214.235H58ZM58 68.2354H61C61 66.5785 62.3431 65.2354 64 65.2354V62.2354V59.2354C59.0294 59.2354 55 63.2648 55 68.2354H58ZM64 62.2354V65.2354H319V62.2354V59.2354H64V62.2354ZM326.047 91.2233L323.832 89.2C322.653 90.4899 322 92.1739 322 93.9211H325H328C328 93.6715 328.093 93.4309 328.262 93.2466L326.047 91.2233ZM343.428 62.2646V65.2646C344.298 65.2646 344.753 66.2973 344.167 66.9391L346.382 68.9624L348.597 70.9858C352.701 66.4931 349.513 59.2646 343.428 59.2646V62.2646Z" fill="#151B37" mask="url(#path-5-outside-1_403_737)"/>
</g>
<path d="M87.1567 90.936V95.2646H85.0913V85.0693H87.1567V89.2588H91.8003V85.0693H93.8657V95.2646H91.8003V90.936H87.1567ZM96.7734 86.7466C96.1143 86.7466 95.6162 86.2705 95.6162 85.6553C95.6162 85.0181 96.0996 84.564 96.7734 84.564C97.4326 84.564 97.9307 85.04 97.9307 85.6553C97.9307 86.2705 97.4326 86.7466 96.7734 86.7466ZM97.7109 87.772V95.2646H95.8286V87.772H97.7109ZM109.51 93.5728V95.2646H102.875V85.0693H104.94V93.5728H109.51ZM113.817 87.5303C115.919 87.5303 117.047 88.6436 117.047 90.6724V95.2646H115.67C115.648 94.9058 115.611 94.6494 115.567 94.4956C115.516 94.3711 115.472 94.3125 115.384 94.3125C115.274 94.3125 115.23 94.3564 115.113 94.5103C114.608 95.1841 113.905 95.499 112.901 95.499C111.275 95.499 110.125 94.5981 110.125 93.082C110.125 91.6758 111.129 90.9067 113.114 90.7896C114.11 90.7236 114.82 90.6357 115.238 90.5259V90.5112C115.238 89.5225 114.71 88.9951 113.773 88.9951C112.953 88.9951 112.411 89.4053 112.235 90.0718H110.36C110.667 88.5703 111.905 87.5303 113.817 87.5303ZM114.967 93.2065C115.15 92.8477 115.238 92.3936 115.238 91.8369V91.7124C114.894 91.8296 114.359 91.9028 113.392 91.9907C112.396 92.0859 112 92.3936 112 93.0088C112 93.7119 112.528 94.1074 113.37 94.1074C114.139 94.1074 114.667 93.8071 114.967 93.2065ZM121.522 95.5063C119.713 95.5063 118.68 94.3711 118.68 92.4155V87.772H120.562V92.0859C120.562 93.2212 121.075 93.8438 122.035 93.8438C122.672 93.8438 123.148 93.624 123.463 93.1772C123.778 92.7305 123.939 92.1079 123.939 91.3022V87.772H125.814V95.2646H124.437C124.43 95.0596 124.393 94.7373 124.356 94.5542C124.305 94.3271 124.247 94.2466 124.107 94.2466C124.012 94.2466 123.954 94.2905 123.829 94.437C123.25 95.1475 122.54 95.5063 121.522 95.5063ZM129.513 95.2646H127.63V87.772H128.956C128.978 88.1455 129.015 88.3945 129.059 88.519C129.103 88.6509 129.168 88.7168 129.256 88.7168C129.337 88.7168 129.374 88.6802 129.439 88.563C129.769 87.9844 130.392 87.6548 131.219 87.6548C131.468 87.6548 131.673 87.6768 131.827 87.7134V89.3613C131.556 89.3174 131.322 89.2954 131.124 89.2954C130.575 89.2954 130.201 89.4272 129.93 89.7129C129.652 90.0059 129.513 90.4819 129.513 91.1411V95.2646ZM140.155 91.3022C140.155 91.6831 140.14 91.9541 140.104 92.1079H134.259C134.347 93.2651 135.167 94.0195 136.346 94.0195C137.276 94.0195 137.958 93.6094 138.17 92.9355H140.023C139.657 94.5029 138.265 95.5063 136.332 95.5063C134.786 95.5063 133.534 94.8105 132.86 93.6021C132.523 92.9941 132.354 92.2983 132.354 91.5146C132.354 89.9546 133.094 88.7021 134.295 88.0283C134.896 87.6987 135.562 87.5303 136.302 87.5303C137.833 87.5303 139.034 88.1968 139.679 89.3394C139.994 89.9106 140.155 90.5625 140.155 91.3022ZM136.332 88.9951C135.204 88.9951 134.383 89.7422 134.266 90.8408H138.331C138.272 89.7422 137.467 88.9951 136.332 88.9951ZM143.385 95.2646H141.502V87.772H142.894C142.901 88.0283 142.931 88.2847 142.975 88.5264C143.026 88.7534 143.092 88.834 143.216 88.834C143.326 88.834 143.377 88.7974 143.502 88.6436C144.066 87.9111 144.828 87.5303 145.86 87.5303C147.647 87.5303 148.673 88.6509 148.673 90.6138V95.2646H146.798V90.9287C146.798 89.8154 146.285 89.2002 145.348 89.2002C144.725 89.2002 144.249 89.4346 143.905 89.896C143.561 90.3647 143.385 91.0312 143.385 91.8882V95.2646ZM152.372 93.3896L151.368 97.0811H149.903L150.365 93.3896H152.372ZM88.5264 135.521C86.915 135.521 85.6626 134.928 84.9595 133.902C84.6079 133.397 84.4028 132.804 84.3442 132.13H86.3511C86.5195 133.294 87.3032 133.946 88.5557 133.946C89.5884 133.946 90.2695 133.419 90.2695 132.606C90.2695 131.998 90.0352 131.632 89.4565 131.354C89.1636 131.214 88.7534 131.09 88.2334 130.965C85.7798 130.394 84.8057 129.471 84.8057 127.779C84.8057 126.6 85.4209 125.67 86.5122 125.179C87.0542 124.938 87.6914 124.813 88.4165 124.813C90.5625 124.813 91.8955 125.904 92.0859 127.816H90.123C89.9985 126.878 89.4272 126.373 88.4312 126.373C87.457 126.373 86.8564 126.871 86.8564 127.64C86.8564 128.409 87.2812 128.827 88.5483 129.12C91.1704 129.72 92.3203 130.724 92.3203 132.459C92.3203 133.697 91.6538 134.649 90.5112 135.147C89.9326 135.396 89.2734 135.521 88.5264 135.521ZM96.9126 127.53C99.0146 127.53 100.143 128.644 100.143 130.672V135.265H98.7656C98.7437 134.906 98.707 134.649 98.6631 134.496C98.6118 134.371 98.5679 134.312 98.48 134.312C98.3701 134.312 98.3262 134.356 98.209 134.51C97.7036 135.184 97.0005 135.499 95.9971 135.499C94.3711 135.499 93.2212 134.598 93.2212 133.082C93.2212 131.676 94.2246 130.907 96.2095 130.79C97.2056 130.724 97.916 130.636 98.3335 130.526V130.511C98.3335 129.522 97.8062 128.995 96.8687 128.995C96.0483 128.995 95.5063 129.405 95.3306 130.072H93.4556C93.7632 128.57 95.001 127.53 96.9126 127.53ZM98.0625 133.207C98.2456 132.848 98.3335 132.394 98.3335 131.837V131.712C97.9893 131.83 97.4546 131.903 96.4878 131.991C95.4917 132.086 95.0962 132.394 95.0962 133.009C95.0962 133.712 95.6235 134.107 96.4658 134.107C97.2349 134.107 97.7622 133.807 98.0625 133.207ZM107.76 127.772L109.203 133.075L110.741 127.772H112.601L110.162 135.265H108.17L106.778 130.072L105.365 135.265H103.387L100.948 127.772H102.948L104.471 133.075L105.921 127.772H107.76ZM119.61 135.36C117.801 135.36 116.966 134.569 116.966 132.687V129.303H115.538V127.772H116.38C116.93 127.772 117.186 127.596 117.311 127.149C117.354 126.974 117.398 126.739 117.442 126.454C117.479 126.168 117.516 125.897 117.538 125.648H118.819V127.772H120.804V129.303H118.819V132.518C118.819 133.478 119.164 133.851 120.035 133.851C120.321 133.851 120.621 133.814 120.929 133.741V135.169C120.782 135.221 120.584 135.272 120.328 135.309C120.072 135.345 119.837 135.36 119.61 135.36ZM123.99 135.265H122.108V124.674H123.99V128.49C123.99 128.644 124.034 128.717 124.122 128.717C124.203 128.717 124.247 128.688 124.356 128.541C124.891 127.875 125.587 127.53 126.554 127.53C128.253 127.53 129.278 128.666 129.278 130.621V135.265H127.403V130.921C127.403 129.808 126.898 129.193 125.968 129.193C125.353 129.193 124.847 129.442 124.518 129.889C124.166 130.35 123.99 131.017 123.99 131.881V135.265ZM134.237 127.53C136.339 127.53 137.467 128.644 137.467 130.672V135.265H136.09C136.068 134.906 136.031 134.649 135.987 134.496C135.936 134.371 135.892 134.312 135.804 134.312C135.694 134.312 135.65 134.356 135.533 134.51C135.028 135.184 134.325 135.499 133.321 135.499C131.695 135.499 130.545 134.598 130.545 133.082C130.545 131.676 131.549 130.907 133.534 130.79C134.53 130.724 135.24 130.636 135.658 130.526V130.511C135.658 129.522 135.13 128.995 134.193 128.995C133.373 128.995 132.831 129.405 132.655 130.072H130.78C131.087 128.57 132.325 127.53 134.237 127.53ZM135.387 133.207C135.57 132.848 135.658 132.394 135.658 131.837V131.712C135.313 131.83 134.779 131.903 133.812 131.991C132.816 132.086 132.42 132.394 132.42 133.009C132.42 133.712 132.948 134.107 133.79 134.107C134.559 134.107 135.086 133.807 135.387 133.207ZM142.403 135.36C140.594 135.36 139.759 134.569 139.759 132.687V129.303H138.331V127.772H139.173C139.723 127.772 139.979 127.596 140.104 127.149C140.147 126.974 140.191 126.739 140.235 126.454C140.272 126.168 140.309 125.897 140.331 125.648H141.612V127.772H143.597V129.303H141.612V132.518C141.612 133.478 141.957 133.851 142.828 133.851C143.114 133.851 143.414 133.814 143.722 133.741V135.169C143.575 135.221 143.377 135.272 143.121 135.309C142.865 135.345 142.63 135.36 142.403 135.36ZM148.922 127.772L150.987 133.185L153.009 127.772H154.964L150.562 138.414H148.622L149.933 135.257L146.834 127.772H148.922ZM159.315 135.506C157.726 135.506 156.407 134.781 155.689 133.573C155.331 132.965 155.147 132.284 155.147 131.522C155.147 130.76 155.331 130.072 155.689 129.464C156.048 128.856 156.539 128.387 157.176 128.043C157.806 127.699 158.517 127.53 159.315 127.53C160.113 127.53 160.824 127.699 161.461 128.043C162.098 128.387 162.589 128.856 162.948 129.464C163.307 130.072 163.482 130.753 163.482 131.522C163.482 133.045 162.728 134.312 161.461 134.994C160.824 135.338 160.113 135.506 159.315 135.506ZM159.315 133.895C160.655 133.895 161.563 132.921 161.563 131.522C161.563 130.116 160.655 129.142 159.315 129.142C157.975 129.142 157.066 130.116 157.066 131.522C157.066 132.921 157.975 133.895 159.315 133.895ZM167.562 135.506C165.753 135.506 164.72 134.371 164.72 132.416V127.772H166.603V132.086C166.603 133.221 167.115 133.844 168.075 133.844C168.712 133.844 169.188 133.624 169.503 133.177C169.818 132.73 169.979 132.108 169.979 131.302V127.772H171.854V135.265H170.477C170.47 135.06 170.433 134.737 170.396 134.554C170.345 134.327 170.287 134.247 170.147 134.247C170.052 134.247 169.994 134.291 169.869 134.437C169.291 135.147 168.58 135.506 167.562 135.506ZM182.525 127.772L183.968 133.075L185.506 127.772H187.367L184.928 135.265H182.936L181.544 130.072L180.13 135.265H178.153L175.714 127.772H177.713L179.237 133.075L180.687 127.772H182.525ZM195.541 131.302C195.541 131.683 195.526 131.954 195.489 132.108H189.645C189.732 133.265 190.553 134.02 191.732 134.02C192.662 134.02 193.343 133.609 193.556 132.936H195.409C195.042 134.503 193.651 135.506 191.717 135.506C190.172 135.506 188.919 134.811 188.246 133.602C187.909 132.994 187.74 132.298 187.74 131.515C187.74 129.955 188.48 128.702 189.681 128.028C190.282 127.699 190.948 127.53 191.688 127.53C193.219 127.53 194.42 128.197 195.064 129.339C195.379 129.911 195.541 130.562 195.541 131.302ZM191.717 128.995C190.589 128.995 189.769 129.742 189.652 130.841H193.717C193.658 129.742 192.853 128.995 191.717 128.995ZM198.771 135.265H196.888V127.772H198.214C198.236 128.146 198.272 128.395 198.316 128.519C198.36 128.651 198.426 128.717 198.514 128.717C198.595 128.717 198.631 128.68 198.697 128.563C199.027 127.984 199.649 127.655 200.477 127.655C200.726 127.655 200.931 127.677 201.085 127.713V129.361C200.814 129.317 200.58 129.295 200.382 129.295C199.833 129.295 199.459 129.427 199.188 129.713C198.91 130.006 198.771 130.482 198.771 131.141V135.265ZM209.413 131.302C209.413 131.683 209.398 131.954 209.361 132.108H203.517C203.604 133.265 204.425 134.02 205.604 134.02C206.534 134.02 207.215 133.609 207.428 132.936H209.281C208.915 134.503 207.523 135.506 205.589 135.506C204.044 135.506 202.792 134.811 202.118 133.602C201.781 132.994 201.612 132.298 201.612 131.515C201.612 129.955 202.352 128.702 203.553 128.028C204.154 127.699 204.82 127.53 205.56 127.53C207.091 127.53 208.292 128.197 208.937 129.339C209.251 129.911 209.413 130.562 209.413 131.302ZM205.589 128.995C204.461 128.995 203.641 129.742 203.524 130.841H207.589C207.53 129.742 206.725 128.995 205.589 128.995ZM214.869 126.747C214.21 126.747 213.712 126.271 213.712 125.655C213.712 125.018 214.195 124.564 214.869 124.564C215.528 124.564 216.026 125.04 216.026 125.655C216.026 126.271 215.528 126.747 214.869 126.747ZM215.807 127.772V135.265H213.924V127.772H215.807ZM219.513 135.265H217.63V127.772H219.022C219.029 128.028 219.059 128.285 219.103 128.526C219.154 128.753 219.22 128.834 219.344 128.834C219.454 128.834 219.505 128.797 219.63 128.644C220.194 127.911 220.956 127.53 221.988 127.53C223.775 127.53 224.801 128.651 224.801 130.614V135.265H222.926V130.929C222.926 129.815 222.413 129.2 221.476 129.2C220.853 129.2 220.377 129.435 220.033 129.896C219.688 130.365 219.513 131.031 219.513 131.888V135.265ZM229.752 135.36C227.943 135.36 227.108 134.569 227.108 132.687V129.303H225.68V127.772H226.522C227.071 127.772 227.328 127.596 227.452 127.149C227.496 126.974 227.54 126.739 227.584 126.454C227.621 126.168 227.657 125.897 227.679 125.648H228.961V127.772H230.946V129.303H228.961V132.518C228.961 133.478 229.305 133.851 230.177 133.851C230.462 133.851 230.763 133.814 231.07 133.741V135.169C230.924 135.221 230.726 135.272 230.47 135.309C230.213 135.345 229.979 135.36 229.752 135.36ZM239.457 131.302C239.457 131.683 239.442 131.954 239.405 132.108H233.561C233.648 133.265 234.469 134.02 235.648 134.02C236.578 134.02 237.259 133.609 237.472 132.936H239.325C238.958 134.503 237.567 135.506 235.633 135.506C234.088 135.506 232.835 134.811 232.162 133.602C231.825 132.994 231.656 132.298 231.656 131.515C231.656 129.955 232.396 128.702 233.597 128.028C234.198 127.699 234.864 127.53 235.604 127.53C237.135 127.53 238.336 128.197 238.98 129.339C239.295 129.911 239.457 130.562 239.457 131.302ZM235.633 128.995C234.505 128.995 233.685 129.742 233.568 130.841H237.633C237.574 129.742 236.769 128.995 235.633 128.995ZM242.687 135.265H240.804V127.772H242.13C242.152 128.146 242.188 128.395 242.232 128.519C242.276 128.651 242.342 128.717 242.43 128.717C242.511 128.717 242.547 128.68 242.613 128.563C242.943 127.984 243.565 127.655 244.393 127.655C244.642 127.655 244.847 127.677 245.001 127.713V129.361C244.73 129.317 244.496 129.295 244.298 129.295C243.749 129.295 243.375 129.427 243.104 129.713C242.826 130.006 242.687 130.482 242.687 131.141V135.265ZM253.329 131.302C253.329 131.683 253.314 131.954 253.277 132.108H247.433C247.521 133.265 248.341 134.02 249.52 134.02C250.45 134.02 251.131 133.609 251.344 132.936H253.197C252.831 134.503 251.439 135.506 249.505 135.506C247.96 135.506 246.708 134.811 246.034 133.602C245.697 132.994 245.528 132.298 245.528 131.515C245.528 129.955 246.268 128.702 247.469 128.028C248.07 127.699 248.736 127.53 249.476 127.53C251.007 127.53 252.208 128.197 252.853 129.339C253.167 129.911 253.329 130.562 253.329 131.302ZM249.505 128.995C248.377 128.995 247.557 129.742 247.44 130.841H251.505C251.446 129.742 250.641 128.995 249.505 128.995ZM257.54 135.506C255.584 135.506 254.339 134.562 254.105 132.994H255.973C256.09 133.705 256.639 134.129 257.555 134.129C258.338 134.129 258.822 133.792 258.822 133.265C258.822 132.701 258.5 132.445 257.32 132.24C255.196 131.859 254.405 131.229 254.405 129.823C254.405 128.453 255.614 127.53 257.394 127.53C259.239 127.53 260.316 128.38 260.514 129.955H258.697C258.58 129.229 258.177 128.9 257.408 128.9C256.683 128.9 256.229 129.208 256.229 129.713C256.229 130.277 256.595 130.519 257.701 130.709C259.166 130.951 259.986 131.332 260.375 131.954C260.565 132.269 260.66 132.665 260.66 133.148C260.66 134.056 260.104 134.803 259.159 135.206C258.683 135.404 258.148 135.506 257.54 135.506ZM265.289 135.36C263.48 135.36 262.645 134.569 262.645 132.687V129.303H261.217V127.772H262.059C262.608 127.772 262.865 127.596 262.989 127.149C263.033 126.974 263.077 126.739 263.121 126.454C263.158 126.168 263.194 125.897 263.216 125.648H264.498V127.772H266.483V129.303H264.498V132.518C264.498 133.478 264.842 133.851 265.714 133.851C266 133.851 266.3 133.814 266.607 133.741V135.169C266.461 135.221 266.263 135.272 266.007 135.309C265.75 135.345 265.516 135.36 265.289 135.36ZM274.994 131.302C274.994 131.683 274.979 131.954 274.942 132.108H269.098C269.186 133.265 270.006 134.02 271.185 134.02C272.115 134.02 272.796 133.609 273.009 132.936H274.862C274.496 134.503 273.104 135.506 271.17 135.506C269.625 135.506 268.373 134.811 267.699 133.602C267.362 132.994 267.193 132.298 267.193 131.515C267.193 129.955 267.933 128.702 269.134 128.028C269.735 127.699 270.401 127.53 271.141 127.53C272.672 127.53 273.873 128.197 274.518 129.339C274.833 129.911 274.994 130.562 274.994 131.302ZM271.17 128.995C270.042 128.995 269.222 129.742 269.105 130.841H273.17C273.111 129.742 272.306 128.995 271.17 128.995ZM279.623 135.506C278.194 135.506 277.008 134.774 276.363 133.558C276.034 132.95 275.873 132.276 275.873 131.522C275.873 130.768 276.041 130.094 276.371 129.486C276.7 128.878 277.162 128.402 277.74 128.058C278.319 127.713 278.963 127.545 279.674 127.545C280.604 127.545 281.38 127.875 281.9 128.395C281.988 128.475 282.025 128.497 282.091 128.497C282.186 128.497 282.23 128.424 282.23 128.277V124.674H284.105V135.265H282.713C282.706 134.994 282.677 134.752 282.633 134.532C282.582 134.327 282.53 134.254 282.406 134.254C282.311 134.254 282.237 134.298 282.113 134.444C281.476 135.155 280.648 135.506 279.623 135.506ZM280.025 133.895C280.648 133.895 281.168 133.697 281.585 133.302C282.025 132.884 282.281 132.254 282.281 131.522C282.281 130.79 282.025 130.167 281.585 129.75C281.168 129.354 280.648 129.156 280.025 129.156C278.714 129.156 277.806 130.123 277.806 131.522C277.806 132.928 278.714 133.895 280.025 133.895ZM85.8604 146.747C85.2012 146.747 84.7031 146.271 84.7031 145.655C84.7031 145.018 85.1865 144.564 85.8604 144.564C86.5195 144.564 87.0176 145.04 87.0176 145.655C87.0176 146.271 86.5195 146.747 85.8604 146.747ZM86.7979 147.772V155.265H84.9155V147.772H86.7979ZM90.5039 155.265H88.6216V147.772H90.0132C90.0205 148.028 90.0498 148.285 90.0938 148.526C90.145 148.753 90.2109 148.834 90.3354 148.834C90.4453 148.834 90.4966 148.797 90.6211 148.644C91.1851 147.911 91.9468 147.53 92.9795 147.53C94.7666 147.53 95.792 148.651 95.792 150.614V155.265H93.917V150.929C93.917 149.815 93.4043 149.2 92.4668 149.2C91.8442 149.2 91.3682 149.435 91.0239 149.896C90.6797 150.365 90.5039 151.031 90.5039 151.888V155.265ZM104.354 155.506C102.765 155.506 101.446 154.781 100.729 153.573C100.37 152.965 100.187 152.284 100.187 151.522C100.187 150.76 100.37 150.072 100.729 149.464C101.087 148.856 101.578 148.387 102.215 148.043C102.845 147.699 103.556 147.53 104.354 147.53C105.152 147.53 105.863 147.699 106.5 148.043C107.137 148.387 107.628 148.856 107.987 149.464C108.346 150.072 108.521 150.753 108.521 151.522C108.521 153.045 107.767 154.312 106.5 154.994C105.863 155.338 105.152 155.506 104.354 155.506ZM104.354 153.895C105.694 153.895 106.603 152.921 106.603 151.522C106.603 150.116 105.694 149.142 104.354 149.142C103.014 149.142 102.105 150.116 102.105 151.522C102.105 152.921 103.014 153.895 104.354 153.895ZM112.601 155.506C110.792 155.506 109.759 154.371 109.759 152.416V147.772H111.642V152.086C111.642 153.221 112.154 153.844 113.114 153.844C113.751 153.844 114.227 153.624 114.542 153.177C114.857 152.73 115.018 152.108 115.018 151.302V147.772H116.893V155.265H115.516C115.509 155.06 115.472 154.737 115.436 154.554C115.384 154.327 115.326 154.247 115.187 154.247C115.091 154.247 115.033 154.291 114.908 154.437C114.33 155.147 113.619 155.506 112.601 155.506ZM120.592 155.265H118.709V147.772H120.035C120.057 148.146 120.094 148.395 120.138 148.519C120.182 148.651 120.248 148.717 120.335 148.717C120.416 148.717 120.453 148.68 120.519 148.563C120.848 147.984 121.471 147.655 122.298 147.655C122.547 147.655 122.752 147.677 122.906 147.713V149.361C122.635 149.317 122.401 149.295 122.203 149.295C121.654 149.295 121.28 149.427 121.009 149.713C120.731 150.006 120.592 150.482 120.592 151.141V155.265ZM130.523 155.521C128.912 155.521 127.66 154.928 126.957 153.902C126.605 153.397 126.4 152.804 126.341 152.13H128.348C128.517 153.294 129.3 153.946 130.553 153.946C131.585 153.946 132.267 153.419 132.267 152.606C132.267 151.998 132.032 151.632 131.454 151.354C131.161 151.214 130.75 151.09 130.23 150.965C127.777 150.394 126.803 149.471 126.803 147.779C126.803 146.6 127.418 145.67 128.509 145.179C129.051 144.938 129.688 144.813 130.414 144.813C132.56 144.813 133.893 145.904 134.083 147.816H132.12C131.996 146.878 131.424 146.373 130.428 146.373C129.454 146.373 128.854 146.871 128.854 147.64C128.854 148.409 129.278 148.827 130.545 149.12C133.167 149.72 134.317 150.724 134.317 152.459C134.317 153.697 133.651 154.649 132.508 155.147C131.93 155.396 131.271 155.521 130.523 155.521ZM138.426 155.506C136.617 155.506 135.584 154.371 135.584 152.416V147.772H137.467V152.086C137.467 153.221 137.979 153.844 138.939 153.844C139.576 153.844 140.052 153.624 140.367 153.177C140.682 152.73 140.843 152.108 140.843 151.302V147.772H142.718V155.265H141.341C141.334 155.06 141.297 154.737 141.261 154.554C141.209 154.327 141.151 154.247 141.012 154.247C140.917 154.247 140.858 154.291 140.733 154.437C140.155 155.147 139.444 155.506 138.426 155.506ZM146.417 155.265H144.535V147.772H145.912C145.934 148.043 145.963 148.285 146 148.512C146.051 148.746 146.124 148.841 146.249 148.841C146.344 148.841 146.38 148.812 146.52 148.658C147.127 147.904 147.823 147.53 148.739 147.53C149.771 147.53 150.431 147.911 150.877 148.709C151.002 148.922 151.061 148.98 151.17 148.98C151.28 148.98 151.354 148.929 151.5 148.731C152.123 147.889 152.811 147.53 153.778 147.53C155.411 147.53 156.393 148.673 156.393 150.562V155.265H154.51V150.87C154.51 149.793 154.042 149.186 153.192 149.186C152.635 149.186 152.188 149.435 151.852 149.925C151.551 150.372 151.405 151.009 151.405 151.837V155.265H149.53V150.87C149.53 149.793 149.061 149.186 148.204 149.186C147.64 149.186 147.201 149.435 146.871 149.925C146.571 150.387 146.417 151.024 146.417 151.837V155.265ZM159.996 155.265H158.114V147.772H159.491C159.513 148.043 159.542 148.285 159.579 148.512C159.63 148.746 159.703 148.841 159.828 148.841C159.923 148.841 159.959 148.812 160.099 148.658C160.707 147.904 161.402 147.53 162.318 147.53C163.351 147.53 164.01 147.911 164.457 148.709C164.581 148.922 164.64 148.98 164.75 148.98C164.859 148.98 164.933 148.929 165.079 148.731C165.702 147.889 166.39 147.53 167.357 147.53C168.99 147.53 169.972 148.673 169.972 150.562V155.265H168.089V150.87C168.089 149.793 167.621 149.186 166.771 149.186C166.214 149.186 165.768 149.435 165.431 149.925C165.13 150.372 164.984 151.009 164.984 151.837V155.265H163.109V150.87C163.109 149.793 162.64 149.186 161.783 149.186C161.219 149.186 160.78 149.435 160.45 149.925C160.15 150.387 159.996 151.024 159.996 151.837V155.265ZM179.032 151.302C179.032 151.683 179.017 151.954 178.98 152.108H173.136C173.224 153.265 174.044 154.02 175.223 154.02C176.153 154.02 176.834 153.609 177.047 152.936H178.9C178.534 154.503 177.142 155.506 175.208 155.506C173.663 155.506 172.411 154.811 171.737 153.602C171.4 152.994 171.231 152.298 171.231 151.515C171.231 149.955 171.971 148.702 173.172 148.028C173.773 147.699 174.439 147.53 175.179 147.53C176.71 147.53 177.911 148.197 178.556 149.339C178.871 149.911 179.032 150.562 179.032 151.302ZM175.208 148.995C174.081 148.995 173.26 149.742 173.143 150.841H177.208C177.149 149.742 176.344 148.995 175.208 148.995ZM182.262 155.265H180.379V147.772H181.705C181.727 148.146 181.764 148.395 181.808 148.519C181.852 148.651 181.917 148.717 182.005 148.717C182.086 148.717 182.123 148.68 182.188 148.563C182.518 147.984 183.141 147.655 183.968 147.655C184.217 147.655 184.422 147.677 184.576 147.713V149.361C184.305 149.317 184.071 149.295 183.873 149.295C183.324 149.295 182.95 149.427 182.679 149.713C182.401 150.006 182.262 150.482 182.262 151.141V155.265ZM192.193 155.521C190.582 155.521 189.33 154.928 188.626 153.902C188.275 153.397 188.07 152.804 188.011 152.13H190.018C190.187 153.294 190.97 153.946 192.223 153.946C193.255 153.946 193.937 153.419 193.937 152.606C193.937 151.998 193.702 151.632 193.124 151.354C192.831 151.214 192.42 151.09 191.9 150.965C189.447 150.394 188.473 149.471 188.473 147.779C188.473 146.6 189.088 145.67 190.179 145.179C190.721 144.938 191.358 144.813 192.083 144.813C194.229 144.813 195.562 145.904 195.753 147.816H193.79C193.666 146.878 193.094 146.373 192.098 146.373C191.124 146.373 190.523 146.871 190.523 147.64C190.523 148.409 190.948 148.827 192.215 149.12C194.837 149.72 195.987 150.724 195.987 152.459C195.987 153.697 195.321 154.649 194.178 155.147C193.6 155.396 192.94 155.521 192.193 155.521ZM199.225 158.414H197.342V147.772H198.734C198.741 148.058 198.771 148.307 198.822 148.512C198.858 148.709 198.917 148.79 199.042 148.79C199.137 148.79 199.21 148.746 199.334 148.6C199.964 147.896 200.799 147.545 201.832 147.545C203.246 147.545 204.439 148.277 205.091 149.486C205.414 150.094 205.575 150.768 205.575 151.522C205.575 152.276 205.414 152.95 205.084 153.558C204.754 154.166 204.3 154.642 203.722 154.986C203.143 155.338 202.491 155.506 201.781 155.506C200.843 155.506 200.067 155.177 199.547 154.649C199.459 154.569 199.422 154.547 199.356 154.547C199.269 154.547 199.225 154.62 199.225 154.767V158.414ZM201.422 153.888C202.733 153.888 203.648 152.921 203.648 151.522C203.648 150.123 202.733 149.156 201.422 149.156C200.792 149.156 200.272 149.354 199.869 149.75C199.43 150.167 199.173 150.79 199.173 151.522C199.173 152.254 199.43 152.877 199.869 153.294C200.272 153.69 200.792 153.888 201.422 153.888ZM214.247 151.302C214.247 151.683 214.232 151.954 214.195 152.108H208.351C208.438 153.265 209.259 154.02 210.438 154.02C211.368 154.02 212.049 153.609 212.262 152.936H214.115C213.749 154.503 212.357 155.506 210.423 155.506C208.878 155.506 207.625 154.811 206.952 153.602C206.615 152.994 206.446 152.298 206.446 151.515C206.446 149.955 207.186 148.702 208.387 148.028C208.988 147.699 209.654 147.53 210.394 147.53C211.925 147.53 213.126 148.197 213.771 149.339C214.085 149.911 214.247 150.562 214.247 151.302ZM210.423 148.995C209.295 148.995 208.475 149.742 208.358 150.841H212.423C212.364 149.742 211.559 148.995 210.423 148.995ZM219.212 155.506C217.623 155.506 216.334 154.789 215.646 153.58C215.301 152.972 215.125 152.291 215.125 151.522C215.125 149.977 215.851 148.717 217.088 148.036C217.711 147.699 218.414 147.53 219.212 147.53C220.772 147.53 221.93 148.204 222.545 149.178C222.845 149.669 223.021 150.189 223.065 150.738H221.212C221.036 149.75 220.296 149.142 219.242 149.142C217.931 149.142 217.044 150.101 217.044 151.522C217.044 152.936 217.931 153.895 219.242 153.895C220.296 153.895 221.036 153.287 221.212 152.298H223.065C222.977 153.404 222.369 154.437 221.234 155.045C220.67 155.353 219.996 155.506 219.212 155.506ZM225.284 146.747C224.625 146.747 224.127 146.271 224.127 145.655C224.127 145.018 224.61 144.564 225.284 144.564C225.943 144.564 226.441 145.04 226.441 145.655C226.441 146.271 225.943 146.747 225.284 146.747ZM226.222 147.772V155.265H224.339V147.772H226.222ZM231.283 147.53C233.385 147.53 234.513 148.644 234.513 150.672V155.265H233.136C233.114 154.906 233.077 154.649 233.033 154.496C232.982 154.371 232.938 154.312 232.85 154.312C232.74 154.312 232.696 154.356 232.579 154.51C232.074 155.184 231.371 155.499 230.367 155.499C228.741 155.499 227.591 154.598 227.591 153.082C227.591 151.676 228.595 150.907 230.58 150.79C231.576 150.724 232.286 150.636 232.704 150.526V150.511C232.704 149.522 232.176 148.995 231.239 148.995C230.418 148.995 229.876 149.405 229.701 150.072H227.826C228.133 148.57 229.371 147.53 231.283 147.53ZM232.433 153.207C232.616 152.848 232.704 152.394 232.704 151.837V151.712C232.359 151.83 231.825 151.903 230.858 151.991C229.862 152.086 229.466 152.394 229.466 153.009C229.466 153.712 229.994 154.107 230.836 154.107C231.605 154.107 232.132 153.807 232.433 153.207ZM238.131 144.674V155.265H236.249V144.674H238.131ZM245.155 145.069L244.935 151.954H243.397L243.177 145.069H245.155ZM244.166 155.411C243.448 155.411 242.921 154.906 242.921 154.232C242.921 153.558 243.448 153.053 244.166 153.053C244.869 153.053 245.404 153.558 245.404 154.232C245.404 154.898 244.869 155.411 244.166 155.411ZM255.313 145.069L258.99 155.265H256.72L255.885 152.862H251.886L251.051 155.265H248.912L252.516 145.069H255.313ZM252.296 151.368H255.489L253.878 146.593L252.296 151.368ZM261.788 155.265H259.906V147.772H261.231C261.253 148.146 261.29 148.395 261.334 148.519C261.378 148.651 261.444 148.717 261.532 148.717C261.612 148.717 261.649 148.68 261.715 148.563C262.044 147.984 262.667 147.655 263.495 147.655C263.744 147.655 263.949 147.677 264.103 147.713V149.361C263.832 149.317 263.597 149.295 263.399 149.295C262.85 149.295 262.477 149.427 262.206 149.713C261.927 150.006 261.788 150.482 261.788 151.141V155.265ZM272.43 151.302C272.43 151.683 272.416 151.954 272.379 152.108H266.534C266.622 153.265 267.442 154.02 268.622 154.02C269.552 154.02 270.233 153.609 270.445 152.936H272.298C271.932 154.503 270.541 155.506 268.607 155.506C267.062 155.506 265.809 154.811 265.135 153.602C264.798 152.994 264.63 152.298 264.63 151.515C264.63 149.955 265.37 148.702 266.571 148.028C267.171 147.699 267.838 147.53 268.578 147.53C270.108 147.53 271.31 148.197 271.954 149.339C272.269 149.911 272.43 150.562 272.43 151.302ZM268.607 148.995C267.479 148.995 266.659 149.742 266.542 150.841H270.606C270.548 149.742 269.742 148.995 268.607 148.995ZM86.1094 167.772L88.1748 173.185L90.1963 167.772H92.1519L87.75 178.414H85.8091L87.1201 175.257L84.022 167.772H86.1094ZM96.5024 175.506C94.9131 175.506 93.5947 174.781 92.877 173.573C92.5181 172.965 92.335 172.284 92.335 171.522C92.335 170.76 92.5181 170.072 92.877 169.464C93.2358 168.856 93.7266 168.387 94.3638 168.043C94.9937 167.699 95.7041 167.53 96.5024 167.53C97.3008 167.53 98.0112 167.699 98.6484 168.043C99.2856 168.387 99.7764 168.856 100.135 169.464C100.494 170.072 100.67 170.753 100.67 171.522C100.67 173.045 99.9155 174.312 98.6484 174.994C98.0112 175.338 97.3008 175.506 96.5024 175.506ZM96.5024 173.895C97.8428 173.895 98.751 172.921 98.751 171.522C98.751 170.116 97.8428 169.142 96.5024 169.142C95.1621 169.142 94.2539 170.116 94.2539 171.522C94.2539 172.921 95.1621 173.895 96.5024 173.895ZM104.75 175.506C102.94 175.506 101.908 174.371 101.908 172.416V167.772H103.79V172.086C103.79 173.221 104.303 173.844 105.262 173.844C105.899 173.844 106.375 173.624 106.69 173.177C107.005 172.73 107.167 172.108 107.167 171.302V167.772H109.042V175.265H107.665C107.657 175.06 107.621 174.737 107.584 174.554C107.533 174.327 107.474 174.247 107.335 174.247C107.24 174.247 107.181 174.291 107.057 174.437C106.478 175.147 105.768 175.506 104.75 175.506ZM117.245 167.53C119.347 167.53 120.475 168.644 120.475 170.672V175.265H119.098C119.076 174.906 119.039 174.649 118.995 174.496C118.944 174.371 118.9 174.312 118.812 174.312C118.702 174.312 118.658 174.356 118.541 174.51C118.036 175.184 117.333 175.499 116.329 175.499C114.703 175.499 113.553 174.598 113.553 173.082C113.553 171.676 114.557 170.907 116.542 170.79C117.538 170.724 118.248 170.636 118.666 170.526V170.511C118.666 169.522 118.138 168.995 117.201 168.995C116.38 168.995 115.838 169.405 115.663 170.072H113.788C114.095 168.57 115.333 167.53 117.245 167.53ZM118.395 173.207C118.578 172.848 118.666 172.394 118.666 171.837V171.712C118.321 171.83 117.787 171.903 116.82 171.991C115.824 172.086 115.428 172.394 115.428 173.009C115.428 173.712 115.956 174.107 116.798 174.107C117.567 174.107 118.094 173.807 118.395 173.207ZM123.177 167.772L125.323 173.434L127.418 167.772H129.396L126.349 175.265H124.188L121.083 167.772H123.177ZM133.329 167.53C135.431 167.53 136.559 168.644 136.559 170.672V175.265H135.182C135.16 174.906 135.123 174.649 135.079 174.496C135.028 174.371 134.984 174.312 134.896 174.312C134.786 174.312 134.742 174.356 134.625 174.51C134.12 175.184 133.417 175.499 132.413 175.499C130.787 175.499 129.637 174.598 129.637 173.082C129.637 171.676 130.641 170.907 132.625 170.79C133.622 170.724 134.332 170.636 134.75 170.526V170.511C134.75 169.522 134.222 168.995 133.285 168.995C132.464 168.995 131.922 169.405 131.747 170.072H129.872C130.179 168.57 131.417 167.53 133.329 167.53ZM134.479 173.207C134.662 172.848 134.75 172.394 134.75 171.837V171.712C134.405 171.83 133.871 171.903 132.904 171.991C131.908 172.086 131.512 172.394 131.512 173.009C131.512 173.712 132.04 174.107 132.882 174.107C133.651 174.107 134.178 173.807 134.479 173.207ZM139.239 166.747C138.58 166.747 138.082 166.271 138.082 165.655C138.082 165.018 138.565 164.564 139.239 164.564C139.898 164.564 140.396 165.04 140.396 165.655C140.396 166.271 139.898 166.747 139.239 166.747ZM140.177 167.772V175.265H138.294V167.772H140.177ZM146.49 175.506C145.458 175.506 144.63 175.155 143.993 174.444C143.868 174.298 143.795 174.254 143.7 174.254C143.575 174.254 143.517 174.334 143.48 174.532C143.429 174.737 143.399 174.979 143.392 175.265H142V164.674H143.883V168.277C143.883 168.424 143.927 168.497 144.015 168.497C144.081 168.497 144.117 168.475 144.205 168.395C144.725 167.875 145.501 167.545 146.439 167.545C147.149 167.545 147.801 167.713 148.38 168.058C148.958 168.402 149.413 168.878 149.742 169.486C150.072 170.094 150.233 170.768 150.233 171.522C150.233 172.276 150.072 172.95 149.75 173.558C149.42 174.166 148.973 174.642 148.409 174.986C147.838 175.338 147.201 175.506 146.49 175.506ZM146.08 173.895C147.391 173.895 148.307 172.928 148.307 171.522C148.307 170.123 147.391 169.156 146.08 169.156C145.458 169.156 144.938 169.354 144.527 169.75C144.088 170.167 143.832 170.79 143.832 171.522C143.832 172.254 144.088 172.884 144.527 173.302C144.938 173.697 145.458 173.895 146.08 173.895ZM153.463 164.674V175.265H151.581V164.674H153.463ZM162.625 171.302C162.625 171.683 162.611 171.954 162.574 172.108H156.729C156.817 173.265 157.638 174.02 158.817 174.02C159.747 174.02 160.428 173.609 160.641 172.936H162.494C162.127 174.503 160.736 175.506 158.802 175.506C157.257 175.506 156.004 174.811 155.331 173.602C154.994 172.994 154.825 172.298 154.825 171.515C154.825 169.955 155.565 168.702 156.766 168.028C157.367 167.699 158.033 167.53 158.773 167.53C160.304 167.53 161.505 168.197 162.149 169.339C162.464 169.911 162.625 170.562 162.625 171.302ZM158.802 168.995C157.674 168.995 156.854 169.742 156.737 170.841H160.802C160.743 169.742 159.938 168.995 158.802 168.995ZM170.279 175.36C168.47 175.36 167.635 174.569 167.635 172.687V169.303H166.207V167.772H167.049C167.599 167.772 167.855 167.596 167.979 167.149C168.023 166.974 168.067 166.739 168.111 166.454C168.148 166.168 168.185 165.897 168.207 165.648H169.488V167.772H171.473V169.303H169.488V172.518C169.488 173.478 169.833 173.851 170.704 173.851C170.99 173.851 171.29 173.814 171.598 173.741V175.169C171.451 175.221 171.253 175.272 170.997 175.309C170.741 175.345 170.506 175.36 170.279 175.36ZM176.336 175.506C174.747 175.506 173.429 174.781 172.711 173.573C172.352 172.965 172.169 172.284 172.169 171.522C172.169 170.76 172.352 170.072 172.711 169.464C173.07 168.856 173.561 168.387 174.198 168.043C174.828 167.699 175.538 167.53 176.336 167.53C177.135 167.53 177.845 167.699 178.482 168.043C179.12 168.387 179.61 168.856 179.969 169.464C180.328 170.072 180.504 170.753 180.504 171.522C180.504 173.045 179.75 174.312 178.482 174.994C177.845 175.338 177.135 175.506 176.336 175.506ZM176.336 173.895C177.677 173.895 178.585 172.921 178.585 171.522C178.585 170.116 177.677 169.142 176.336 169.142C174.996 169.142 174.088 170.116 174.088 171.522C174.088 172.921 174.996 173.895 176.336 173.895ZM187.843 175.506C185.887 175.506 184.642 174.562 184.408 172.994H186.275C186.393 173.705 186.942 174.129 187.857 174.129C188.641 174.129 189.125 173.792 189.125 173.265C189.125 172.701 188.802 172.445 187.623 172.24C185.499 171.859 184.708 171.229 184.708 169.823C184.708 168.453 185.917 167.53 187.696 167.53C189.542 167.53 190.619 168.38 190.816 169.955H189C188.883 169.229 188.48 168.9 187.711 168.9C186.986 168.9 186.532 169.208 186.532 169.713C186.532 170.277 186.898 170.519 188.004 170.709C189.469 170.951 190.289 171.332 190.677 171.954C190.868 172.269 190.963 172.665 190.963 173.148C190.963 174.056 190.406 174.803 189.461 175.206C188.985 175.404 188.451 175.506 187.843 175.506ZM195.921 175.506C194.332 175.506 193.043 174.789 192.354 173.58C192.01 172.972 191.834 172.291 191.834 171.522C191.834 169.977 192.56 168.717 193.797 168.036C194.42 167.699 195.123 167.53 195.921 167.53C197.481 167.53 198.639 168.204 199.254 169.178C199.554 169.669 199.73 170.189 199.774 170.738H197.921C197.745 169.75 197.005 169.142 195.951 169.142C194.64 169.142 193.753 170.101 193.753 171.522C193.753 172.936 194.64 173.895 195.951 173.895C197.005 173.895 197.745 173.287 197.921 172.298H199.774C199.686 173.404 199.078 174.437 197.943 175.045C197.379 175.353 196.705 175.506 195.921 175.506ZM202.916 175.265H201.034V164.674H202.916V168.49C202.916 168.644 202.96 168.717 203.048 168.717C203.128 168.717 203.172 168.688 203.282 168.541C203.817 167.875 204.513 167.53 205.479 167.53C207.179 167.53 208.204 168.666 208.204 170.621V175.265H206.329V170.921C206.329 169.808 205.824 169.193 204.894 169.193C204.278 169.193 203.773 169.442 203.443 169.889C203.092 170.35 202.916 171.017 202.916 171.881V175.265ZM217.264 171.302C217.264 171.683 217.25 171.954 217.213 172.108H211.368C211.456 173.265 212.276 174.02 213.456 174.02C214.386 174.02 215.067 173.609 215.279 172.936H217.132C216.766 174.503 215.375 175.506 213.441 175.506C211.896 175.506 210.643 174.811 209.969 173.602C209.632 172.994 209.464 172.298 209.464 171.515C209.464 169.955 210.204 168.702 211.405 168.028C212.005 167.699 212.672 167.53 213.412 167.53C214.942 167.53 216.144 168.197 216.788 169.339C217.103 169.911 217.264 170.562 217.264 171.302ZM213.441 168.995C212.313 168.995 211.493 169.742 211.375 170.841H215.44C215.382 169.742 214.576 168.995 213.441 168.995ZM221.893 175.506C220.465 175.506 219.278 174.774 218.634 173.558C218.304 172.95 218.143 172.276 218.143 171.522C218.143 170.768 218.312 170.094 218.641 169.486C218.971 168.878 219.432 168.402 220.011 168.058C220.589 167.713 221.234 167.545 221.944 167.545C222.875 167.545 223.651 167.875 224.171 168.395C224.259 168.475 224.295 168.497 224.361 168.497C224.457 168.497 224.5 168.424 224.5 168.277V164.674H226.375V175.265H224.984C224.977 174.994 224.947 174.752 224.903 174.532C224.852 174.327 224.801 174.254 224.676 174.254C224.581 174.254 224.508 174.298 224.383 174.444C223.746 175.155 222.918 175.506 221.893 175.506ZM222.296 173.895C222.918 173.895 223.438 173.697 223.856 173.302C224.295 172.884 224.552 172.254 224.552 171.522C224.552 170.79 224.295 170.167 223.856 169.75C223.438 169.354 222.918 169.156 222.296 169.156C220.985 169.156 220.077 170.123 220.077 171.522C220.077 172.928 220.985 173.895 222.296 173.895ZM230.931 175.506C229.122 175.506 228.089 174.371 228.089 172.416V167.772H229.972V172.086C229.972 173.221 230.484 173.844 231.444 173.844C232.081 173.844 232.557 173.624 232.872 173.177C233.187 172.73 233.348 172.108 233.348 171.302V167.772H235.223V175.265H233.846C233.839 175.06 233.802 174.737 233.766 174.554C233.714 174.327 233.656 174.247 233.517 174.247C233.421 174.247 233.363 174.291 233.238 174.437C232.66 175.147 231.949 175.506 230.931 175.506ZM238.937 164.674V175.265H237.054V164.674H238.937ZM248.099 171.302C248.099 171.683 248.084 171.954 248.048 172.108H242.203C242.291 173.265 243.111 174.02 244.291 174.02C245.221 174.02 245.902 173.609 246.114 172.936H247.967C247.601 174.503 246.209 175.506 244.276 175.506C242.73 175.506 241.478 174.811 240.804 173.602C240.467 172.994 240.299 172.298 240.299 171.515C240.299 169.955 241.039 168.702 242.24 168.028C242.84 167.699 243.507 167.53 244.247 167.53C245.777 167.53 246.979 168.197 247.623 169.339C247.938 169.911 248.099 170.562 248.099 171.302ZM244.276 168.995C243.148 168.995 242.328 169.742 242.21 170.841H246.275C246.217 169.742 245.411 168.995 244.276 168.995ZM255.833 167.53C257.936 167.53 259.063 168.644 259.063 170.672V175.265H257.687C257.665 174.906 257.628 174.649 257.584 174.496C257.533 174.371 257.489 174.312 257.401 174.312C257.291 174.312 257.247 174.356 257.13 174.51C256.625 175.184 255.921 175.499 254.918 175.499C253.292 175.499 252.142 174.598 252.142 173.082C252.142 171.676 253.146 170.907 255.13 170.79C256.126 170.724 256.837 170.636 257.254 170.526V170.511C257.254 169.522 256.727 168.995 255.79 168.995C254.969 168.995 254.427 169.405 254.251 170.072H252.376C252.684 168.57 253.922 167.53 255.833 167.53ZM256.983 173.207C257.167 172.848 257.254 172.394 257.254 171.837V171.712C256.91 171.83 256.375 171.903 255.409 171.991C254.413 172.086 254.017 172.394 254.017 173.009C254.017 173.712 254.544 174.107 255.387 174.107C256.156 174.107 256.683 173.807 256.983 173.207ZM262.667 175.265H260.785V167.772H262.176C262.184 168.028 262.213 168.285 262.257 168.526C262.308 168.753 262.374 168.834 262.499 168.834C262.608 168.834 262.66 168.797 262.784 168.644C263.348 167.911 264.11 167.53 265.143 167.53C266.93 167.53 267.955 168.651 267.955 170.614V175.265H266.08V170.929C266.08 169.815 265.567 169.2 264.63 169.2C264.007 169.2 263.531 169.435 263.187 169.896C262.843 170.365 262.667 171.031 262.667 171.888V175.265ZM88.1382 187.53C90.2402 187.53 91.3682 188.644 91.3682 190.672V195.265H89.9912C89.9692 194.906 89.9326 194.649 89.8887 194.496C89.8374 194.371 89.7935 194.312 89.7056 194.312C89.5957 194.312 89.5518 194.356 89.4346 194.51C88.9292 195.184 88.2261 195.499 87.2227 195.499C85.5967 195.499 84.4468 194.598 84.4468 193.082C84.4468 191.676 85.4502 190.907 87.4351 190.79C88.4312 190.724 89.1416 190.636 89.5591 190.526V190.511C89.5591 189.522 89.0317 188.995 88.0942 188.995C87.2739 188.995 86.7319 189.405 86.5562 190.072H84.6812C84.9888 188.57 86.2266 187.53 88.1382 187.53ZM89.2881 193.207C89.4712 192.848 89.5591 192.394 89.5591 191.837V191.712C89.2148 191.83 88.6802 191.903 87.7134 191.991C86.7173 192.086 86.3218 192.394 86.3218 193.009C86.3218 193.712 86.8491 194.107 87.6914 194.107C88.4604 194.107 88.9878 193.807 89.2881 193.207ZM94.9717 198.414H93.0894V187.772H94.481C94.4883 188.058 94.5176 188.307 94.5688 188.512C94.6055 188.709 94.6641 188.79 94.7886 188.79C94.8838 188.79 94.957 188.746 95.0815 188.6C95.7114 187.896 96.5464 187.545 97.5791 187.545C98.9927 187.545 100.187 188.277 100.838 189.486C101.161 190.094 101.322 190.768 101.322 191.522C101.322 192.276 101.161 192.95 100.831 193.558C100.501 194.166 100.047 194.642 99.4688 194.986C98.8901 195.338 98.2383 195.506 97.5278 195.506C96.5903 195.506 95.814 195.177 95.2939 194.649C95.2061 194.569 95.1694 194.547 95.1035 194.547C95.0156 194.547 94.9717 194.62 94.9717 194.767V198.414ZM97.1689 193.888C98.48 193.888 99.3955 192.921 99.3955 191.522C99.3955 190.123 98.48 189.156 97.1689 189.156C96.5391 189.156 96.019 189.354 95.6162 189.75C95.1768 190.167 94.9204 190.79 94.9204 191.522C94.9204 192.254 95.1768 192.877 95.6162 193.294C96.019 193.69 96.5391 193.888 97.1689 193.888ZM104.537 198.414H102.655V187.772H104.046C104.054 188.058 104.083 188.307 104.134 188.512C104.171 188.709 104.229 188.79 104.354 188.79C104.449 188.79 104.522 188.746 104.647 188.6C105.277 187.896 106.112 187.545 107.145 187.545C108.558 187.545 109.752 188.277 110.404 189.486C110.726 190.094 110.887 190.768 110.887 191.522C110.887 192.276 110.726 192.95 110.396 193.558C110.067 194.166 109.613 194.642 109.034 194.986C108.456 195.338 107.804 195.506 107.093 195.506C106.156 195.506 105.379 195.177 104.859 194.649C104.771 194.569 104.735 194.547 104.669 194.547C104.581 194.547 104.537 194.62 104.537 194.767V198.414ZM106.734 193.888C108.045 193.888 108.961 192.921 108.961 191.522C108.961 190.123 108.045 189.156 106.734 189.156C106.104 189.156 105.584 189.354 105.182 189.75C104.742 190.167 104.486 190.79 104.486 191.522C104.486 192.254 104.742 192.877 105.182 193.294C105.584 193.69 106.104 193.888 106.734 193.888ZM115.912 195.506C114.322 195.506 113.004 194.781 112.286 193.573C111.927 192.965 111.744 192.284 111.744 191.522C111.744 190.76 111.927 190.072 112.286 189.464C112.645 188.856 113.136 188.387 113.773 188.043C114.403 187.699 115.113 187.53 115.912 187.53C116.71 187.53 117.42 187.699 118.058 188.043C118.695 188.387 119.186 188.856 119.544 189.464C119.903 190.072 120.079 190.753 120.079 191.522C120.079 193.045 119.325 194.312 118.058 194.994C117.42 195.338 116.71 195.506 115.912 195.506ZM115.912 193.895C117.252 193.895 118.16 192.921 118.16 191.522C118.16 190.116 117.252 189.142 115.912 189.142C114.571 189.142 113.663 190.116 113.663 191.522C113.663 192.921 114.571 193.895 115.912 193.895ZM122.364 186.747C121.705 186.747 121.207 186.271 121.207 185.655C121.207 185.018 121.69 184.564 122.364 184.564C123.023 184.564 123.521 185.04 123.521 185.655C123.521 186.271 123.023 186.747 122.364 186.747ZM123.302 187.772V195.265H121.419V187.772H123.302ZM128.458 195.36C126.649 195.36 125.814 194.569 125.814 192.687V189.303H124.386V187.772H125.228C125.777 187.772 126.034 187.596 126.158 187.149C126.202 186.974 126.246 186.739 126.29 186.454C126.327 186.168 126.363 185.897 126.385 185.648H127.667V187.772H129.652V189.303H127.667V192.518C127.667 193.478 128.011 193.851 128.883 193.851C129.168 193.851 129.469 193.814 129.776 193.741V195.169C129.63 195.221 129.432 195.272 129.176 195.309C128.919 195.345 128.685 195.36 128.458 195.36ZM132.838 195.265H130.956V187.772H132.333C132.354 188.043 132.384 188.285 132.42 188.512C132.472 188.746 132.545 188.841 132.669 188.841C132.765 188.841 132.801 188.812 132.94 188.658C133.548 187.904 134.244 187.53 135.16 187.53C136.192 187.53 136.852 187.911 137.298 188.709C137.423 188.922 137.481 188.98 137.591 188.98C137.701 188.98 137.774 188.929 137.921 188.731C138.543 187.889 139.232 187.53 140.199 187.53C141.832 187.53 142.813 188.673 142.813 190.562V195.265H140.931V190.87C140.931 189.793 140.462 189.186 139.613 189.186C139.056 189.186 138.609 189.435 138.272 189.925C137.972 190.372 137.826 191.009 137.826 191.837V195.265H135.951V190.87C135.951 189.793 135.482 189.186 134.625 189.186C134.061 189.186 133.622 189.435 133.292 189.925C132.992 190.387 132.838 191.024 132.838 191.837V195.265ZM151.874 191.302C151.874 191.683 151.859 191.954 151.822 192.108H145.978C146.065 193.265 146.886 194.02 148.065 194.02C148.995 194.02 149.676 193.609 149.889 192.936H151.742C151.375 194.503 149.984 195.506 148.05 195.506C146.505 195.506 145.252 194.811 144.579 193.602C144.242 192.994 144.073 192.298 144.073 191.515C144.073 189.955 144.813 188.702 146.014 188.028C146.615 187.699 147.281 187.53 148.021 187.53C149.552 187.53 150.753 188.197 151.397 189.339C151.712 189.911 151.874 190.562 151.874 191.302ZM148.05 188.995C146.922 188.995 146.102 189.742 145.985 190.841H150.05C149.991 189.742 149.186 188.995 148.05 188.995ZM155.104 195.265H153.221V187.772H154.613C154.62 188.028 154.649 188.285 154.693 188.526C154.745 188.753 154.811 188.834 154.935 188.834C155.045 188.834 155.096 188.797 155.221 188.644C155.785 187.911 156.546 187.53 157.579 187.53C159.366 187.53 160.392 188.651 160.392 190.614V195.265H158.517V190.929C158.517 189.815 158.004 189.2 157.066 189.2C156.444 189.2 155.968 189.435 155.624 189.896C155.279 190.365 155.104 191.031 155.104 191.888V195.265ZM165.343 195.36C163.534 195.36 162.699 194.569 162.699 192.687V189.303H161.271V187.772H162.113C162.662 187.772 162.918 187.596 163.043 187.149C163.087 186.974 163.131 186.739 163.175 186.454C163.211 186.168 163.248 185.897 163.27 185.648H164.552V187.772H166.537V189.303H164.552V192.518C164.552 193.478 164.896 193.851 165.768 193.851C166.053 193.851 166.354 193.814 166.661 193.741V195.169C166.515 195.221 166.317 195.272 166.061 195.309C165.804 195.345 165.57 195.36 165.343 195.36ZM169.664 191.881V191.485C169.664 190.775 169.774 190.292 170.213 189.735C170.426 189.464 170.748 189.164 171.173 188.849C171.51 188.592 171.744 188.365 171.869 188.167C171.993 187.97 172.059 187.735 172.059 187.464C172.059 186.783 171.576 186.351 170.807 186.351C169.869 186.351 169.327 186.893 169.203 187.867H167.306C167.511 185.985 168.866 184.813 170.829 184.813C172.645 184.813 173.89 185.846 173.89 187.45C173.89 188.153 173.685 188.673 173.194 189.222C172.945 189.493 172.608 189.793 172.176 190.108C171.905 190.321 171.715 190.526 171.62 190.724C171.524 190.921 171.473 191.192 171.473 191.529V191.881H169.664ZM170.587 195.411C169.869 195.411 169.342 194.906 169.342 194.232C169.342 193.558 169.869 193.053 170.587 193.053C171.297 193.053 171.832 193.558 171.832 194.232C171.832 194.898 171.297 195.411 170.587 195.411Z" fill="#151B37"/>
<g filter="url(#filter3_d_403_737)">
<mask id="path-8-outside-2_403_737" maskUnits="userSpaceOnUse" x="422" y="255.971" width="175" height="100" fill="black">
<rect fill="white" x="422" y="255.971" width="175" height="100"/>
<path d="M454 258.971C453.802 258.971 453.606 258.981 453.412 259H429.572C426.094 259 424.273 263.131 426.618 265.698L446.953 287.959C447.627 288.696 448 289.658 448 290.656V346.971C448 350.284 450.686 352.971 454 352.971H588C591.314 352.971 594 350.284 594 346.971V264.971C594 261.657 591.314 258.971 588 258.971H454Z"/>
</mask>
<path d="M454 258.971C453.802 258.971 453.606 258.981 453.412 259H429.572C426.094 259 424.273 263.131 426.618 265.698L446.953 287.959C447.627 288.696 448 289.658 448 290.656V346.971C448 350.284 450.686 352.971 454 352.971H588C591.314 352.971 594 350.284 594 346.971V264.971C594 261.657 591.314 258.971 588 258.971H454Z" fill="#F5B810"/>
<path d="M454 258.971V255.971V258.971ZM453.412 259L453.703 261.986L453.558 262H453.412V259ZM588 352.971L588 355.971H588V352.971ZM446.953 287.959L444.738 289.982L446.953 287.959ZM426.618 265.698L424.403 267.721L426.618 265.698ZM454 258.971V261.971C453.907 261.971 453.809 261.976 453.703 261.986L453.412 259L453.122 256.014C453.403 255.987 453.696 255.971 454 255.971V258.971ZM453.412 259V262H429.572V259V256H453.412V259ZM426.618 265.698L428.833 263.674L449.168 285.935L446.953 287.959L444.738 289.982L424.403 267.721L426.618 265.698ZM448 290.656H451V346.971H448H445V290.656H448ZM448 346.971H451C451 348.628 452.343 349.971 454 349.971V352.971V355.971C449.029 355.971 445 351.941 445 346.971H448ZM454 352.971V349.971H588V352.971V355.971H454V352.971ZM588 352.971L588 349.971C589.657 349.971 591 348.628 591 346.971H594H597C597 351.941 592.971 355.971 588 355.971L588 352.971ZM594 346.971H591V264.971H594H597V346.971H594ZM594 264.971H591C591 263.314 589.657 261.971 588 261.971V258.971V255.971C592.971 255.971 597 260 597 264.971H594ZM588 258.971V261.971H454V258.971V255.971H588V258.971ZM446.953 287.959L449.168 285.935C450.347 287.225 451 288.909 451 290.656H448H445C445 290.407 444.907 290.166 444.738 289.982L446.953 287.959ZM429.572 259V262C428.702 262 428.247 263.033 428.833 263.674L426.618 265.698L424.403 267.721C420.299 263.228 423.487 256 429.572 256V259Z" fill="#151B37" mask="url(#path-8-outside-2_403_737)"/>
</g>
<path d="M477.091 290.256C475.479 290.256 474.227 289.663 473.524 288.638C473.172 288.132 472.967 287.539 472.909 286.865H474.916C475.084 288.03 475.868 288.682 477.12 288.682C478.153 288.682 478.834 288.154 478.834 287.341C478.834 286.733 478.6 286.367 478.021 286.089C477.728 285.95 477.318 285.825 476.798 285.701C474.344 285.129 473.37 284.207 473.37 282.515C473.37 281.335 473.985 280.405 475.077 279.915C475.619 279.673 476.256 279.548 476.981 279.548C479.127 279.548 480.46 280.64 480.65 282.551H478.688C478.563 281.614 477.992 281.108 476.996 281.108C476.021 281.108 475.421 281.606 475.421 282.375C475.421 283.145 475.846 283.562 477.113 283.855C479.735 284.456 480.885 285.459 480.885 287.195C480.885 288.433 480.218 289.385 479.076 289.883C478.497 290.132 477.838 290.256 477.091 290.256ZM485.931 290.242C484.342 290.242 483.023 289.517 482.306 288.308C481.947 287.7 481.764 287.019 481.764 286.257C481.764 285.496 481.947 284.807 482.306 284.199C482.665 283.591 483.155 283.123 483.792 282.778C484.422 282.434 485.133 282.266 485.931 282.266C486.729 282.266 487.44 282.434 488.077 282.778C488.714 283.123 489.205 283.591 489.564 284.199C489.923 284.807 490.099 285.488 490.099 286.257C490.099 287.781 489.344 289.048 488.077 289.729C487.44 290.073 486.729 290.242 485.931 290.242ZM485.931 288.63C487.271 288.63 488.18 287.656 488.18 286.257C488.18 284.851 487.271 283.877 485.931 283.877C484.591 283.877 483.683 284.851 483.683 286.257C483.683 287.656 484.591 288.63 485.931 288.63ZM494.178 290.242C492.369 290.242 491.336 289.106 491.336 287.151V282.507H493.219V286.821C493.219 287.957 493.731 288.579 494.691 288.579C495.328 288.579 495.804 288.359 496.119 287.913C496.434 287.466 496.595 286.843 496.595 286.038V282.507H498.47V290H497.093C497.086 289.795 497.049 289.473 497.013 289.29C496.961 289.062 496.903 288.982 496.764 288.982C496.668 288.982 496.61 289.026 496.485 289.172C495.907 289.883 495.196 290.242 494.178 290.242ZM502.169 290H500.287V282.507H501.678C501.686 282.764 501.715 283.02 501.759 283.262C501.81 283.489 501.876 283.569 502 283.569C502.11 283.569 502.162 283.533 502.286 283.379C502.85 282.646 503.612 282.266 504.645 282.266C506.432 282.266 507.457 283.386 507.457 285.349V290H505.582V285.664C505.582 284.551 505.069 283.936 504.132 283.936C503.509 283.936 503.033 284.17 502.689 284.631C502.345 285.1 502.169 285.767 502.169 286.624V290ZM512.459 290.242C511.031 290.242 509.845 289.509 509.2 288.293C508.871 287.686 508.709 287.012 508.709 286.257C508.709 285.503 508.878 284.829 509.208 284.221C509.537 283.613 509.999 283.137 510.577 282.793C511.156 282.449 511.8 282.28 512.511 282.28C513.441 282.28 514.217 282.61 514.737 283.13C514.825 283.21 514.862 283.232 514.928 283.232C515.023 283.232 515.067 283.159 515.067 283.013V279.409H516.942V290H515.55C515.543 289.729 515.514 289.487 515.47 289.268C515.418 289.062 515.367 288.989 515.243 288.989C515.147 288.989 515.074 289.033 514.95 289.18C514.312 289.89 513.485 290.242 512.459 290.242ZM512.862 288.63C513.485 288.63 514.005 288.433 514.422 288.037C514.862 287.62 515.118 286.99 515.118 286.257C515.118 285.525 514.862 284.902 514.422 284.485C514.005 284.089 513.485 283.892 512.862 283.892C511.551 283.892 510.643 284.858 510.643 286.257C510.643 287.664 511.551 288.63 512.862 288.63ZM521.607 290.242C519.652 290.242 518.407 289.297 518.172 287.729H520.04C520.157 288.44 520.707 288.865 521.622 288.865C522.406 288.865 522.889 288.528 522.889 288C522.889 287.437 522.567 287.18 521.388 286.975C519.264 286.594 518.473 285.964 518.473 284.558C518.473 283.188 519.681 282.266 521.461 282.266C523.307 282.266 524.383 283.115 524.581 284.69H522.765C522.647 283.965 522.245 283.635 521.476 283.635C520.75 283.635 520.296 283.943 520.296 284.448C520.296 285.012 520.663 285.254 521.769 285.444C523.233 285.686 524.054 286.067 524.442 286.689C524.632 287.004 524.728 287.4 524.728 287.883C524.728 288.792 524.171 289.539 523.226 289.941C522.75 290.139 522.215 290.242 521.607 290.242ZM532.96 293.281C530.77 293.281 529.371 292.029 529.042 290.454H530.924C531.166 291.304 531.942 291.816 532.975 291.816C534.234 291.816 534.923 291.165 534.923 289.905V289.026C534.923 288.901 534.886 288.843 534.806 288.843C534.747 288.843 534.703 288.872 534.623 288.96C534.103 289.509 533.348 289.788 532.44 289.788C531.056 289.788 529.884 289.106 529.247 287.979C528.932 287.415 528.771 286.785 528.771 286.082C528.771 284.587 529.466 283.394 530.565 282.756C531.114 282.441 531.715 282.28 532.374 282.28C533.333 282.28 534.073 282.603 534.74 283.276C534.894 283.43 534.959 283.474 535.055 283.474C535.165 283.474 535.23 283.394 535.267 283.196C535.304 283.042 535.333 282.808 535.355 282.507H536.739V289.788C536.739 292.007 535.252 293.281 532.96 293.281ZM532.828 288.264C533.421 288.264 533.941 288.074 534.3 287.722C534.71 287.334 534.945 286.755 534.945 286.082C534.945 285.415 534.71 284.836 534.3 284.448C533.941 284.097 533.421 283.899 532.828 283.899C531.561 283.899 530.697 284.792 530.697 286.082C530.697 287.371 531.561 288.264 532.828 288.264ZM540.416 290H538.534V282.507H539.859C539.881 282.881 539.918 283.13 539.962 283.254C540.006 283.386 540.072 283.452 540.16 283.452C540.24 283.452 540.277 283.416 540.343 283.298C540.672 282.72 541.295 282.39 542.123 282.39C542.372 282.39 542.577 282.412 542.73 282.449V284.097C542.459 284.053 542.225 284.031 542.027 284.031C541.478 284.031 541.104 284.163 540.833 284.448C540.555 284.741 540.416 285.217 540.416 285.876V290ZM551.058 286.038C551.058 286.418 551.043 286.689 551.007 286.843H545.162C545.25 288 546.07 288.755 547.25 288.755C548.18 288.755 548.861 288.345 549.073 287.671H550.926C550.56 289.238 549.168 290.242 547.235 290.242C545.689 290.242 544.437 289.546 543.763 288.337C543.426 287.729 543.258 287.034 543.258 286.25C543.258 284.69 543.998 283.438 545.199 282.764C545.799 282.434 546.466 282.266 547.206 282.266C548.736 282.266 549.938 282.932 550.582 284.075C550.897 284.646 551.058 285.298 551.058 286.038ZM547.235 283.73C546.107 283.73 545.287 284.478 545.169 285.576H549.234C549.176 284.478 548.37 283.73 547.235 283.73ZM555.643 282.266C557.745 282.266 558.873 283.379 558.873 285.408V290H557.496C557.474 289.641 557.438 289.385 557.394 289.231C557.342 289.106 557.298 289.048 557.21 289.048C557.101 289.048 557.057 289.092 556.939 289.246C556.434 289.919 555.731 290.234 554.728 290.234C553.102 290.234 551.952 289.333 551.952 287.817C551.952 286.411 552.955 285.642 554.94 285.525C555.936 285.459 556.646 285.371 557.064 285.261V285.247C557.064 284.258 556.537 283.73 555.599 283.73C554.779 283.73 554.237 284.141 554.061 284.807H552.186C552.494 283.306 553.731 282.266 555.643 282.266ZM556.793 287.942C556.976 287.583 557.064 287.129 557.064 286.572V286.448C556.72 286.565 556.185 286.638 555.218 286.726C554.222 286.821 553.827 287.129 553.827 287.744C553.827 288.447 554.354 288.843 555.196 288.843C555.965 288.843 556.493 288.542 556.793 287.942ZM563.81 290.095C562 290.095 561.166 289.304 561.166 287.422V284.038H559.737V282.507H560.58C561.129 282.507 561.385 282.332 561.51 281.885C561.554 281.709 561.598 281.475 561.642 281.189C561.678 280.903 561.715 280.632 561.737 280.383H563.019V282.507H565.003V284.038H563.019V287.253C563.019 288.213 563.363 288.586 564.234 288.586C564.52 288.586 564.82 288.55 565.128 288.477V289.905C564.981 289.956 564.784 290.007 564.527 290.044C564.271 290.081 564.037 290.095 563.81 290.095ZM568.358 279.805L568.138 286.689H566.6L566.38 279.805H568.358ZM567.369 290.146C566.651 290.146 566.124 289.641 566.124 288.967C566.124 288.293 566.651 287.788 567.369 287.788C568.072 287.788 568.607 288.293 568.607 288.967C568.607 289.634 568.072 290.146 567.369 290.146ZM475.721 299.805V310H473.656V299.805H475.721ZM477.369 302.852L477.882 299.409H479.72L478.819 302.852H477.369ZM482.599 310H480.716V302.507H482.093C482.115 302.778 482.145 303.02 482.181 303.247C482.232 303.481 482.306 303.577 482.43 303.577C482.525 303.577 482.562 303.547 482.701 303.394C483.309 302.639 484.005 302.266 484.92 302.266C485.953 302.266 486.612 302.646 487.059 303.445C487.184 303.657 487.242 303.716 487.352 303.716C487.462 303.716 487.535 303.665 487.682 303.467C488.304 302.625 488.993 302.266 489.959 302.266C491.593 302.266 492.574 303.408 492.574 305.298V310H490.692V305.605C490.692 304.529 490.223 303.921 489.374 303.921C488.817 303.921 488.37 304.17 488.033 304.661C487.733 305.107 487.586 305.745 487.586 306.572V310H485.711V305.605C485.711 304.529 485.243 303.921 484.386 303.921C483.822 303.921 483.382 304.17 483.053 304.661C482.752 305.122 482.599 305.759 482.599 306.572V310ZM500.682 302.266C502.784 302.266 503.912 303.379 503.912 305.408V310H502.535C502.513 309.641 502.477 309.385 502.433 309.231C502.381 309.106 502.337 309.048 502.25 309.048C502.14 309.048 502.096 309.092 501.979 309.246C501.473 309.919 500.77 310.234 499.767 310.234C498.141 310.234 496.991 309.333 496.991 307.817C496.991 306.411 497.994 305.642 499.979 305.525C500.975 305.459 501.686 305.371 502.103 305.261V305.247C502.103 304.258 501.576 303.73 500.638 303.73C499.818 303.73 499.276 304.141 499.1 304.807H497.225C497.533 303.306 498.771 302.266 500.682 302.266ZM501.832 307.942C502.015 307.583 502.103 307.129 502.103 306.572V306.448C501.759 306.565 501.224 306.638 500.257 306.726C499.261 306.821 498.866 307.129 498.866 307.744C498.866 308.447 499.393 308.843 500.235 308.843C501.004 308.843 501.532 308.542 501.832 307.942ZM506.615 302.507L508.761 308.169L510.855 302.507H512.833L509.786 310H507.625L504.52 302.507H506.615ZM516.766 302.266C518.868 302.266 519.996 303.379 519.996 305.408V310H518.619C518.597 309.641 518.561 309.385 518.517 309.231C518.465 309.106 518.421 309.048 518.333 309.048C518.224 309.048 518.18 309.092 518.062 309.246C517.557 309.919 516.854 310.234 515.851 310.234C514.225 310.234 513.075 309.333 513.075 307.817C513.075 306.411 514.078 305.642 516.063 305.525C517.059 305.459 517.77 305.371 518.187 305.261V305.247C518.187 304.258 517.66 303.73 516.722 303.73C515.902 303.73 515.36 304.141 515.184 304.807H513.309C513.617 303.306 514.854 302.266 516.766 302.266ZM517.916 307.942C518.099 307.583 518.187 307.129 518.187 306.572V306.448C517.843 306.565 517.308 306.638 516.341 306.726C515.345 306.821 514.95 307.129 514.95 307.744C514.95 308.447 515.477 308.843 516.319 308.843C517.088 308.843 517.616 308.542 517.916 307.942ZM522.677 301.482C522.018 301.482 521.52 301.006 521.52 300.391C521.52 299.753 522.003 299.299 522.677 299.299C523.336 299.299 523.834 299.775 523.834 300.391C523.834 301.006 523.336 301.482 522.677 301.482ZM523.614 302.507V310H521.732V302.507H523.614ZM529.928 310.242C528.895 310.242 528.067 309.89 527.43 309.18C527.306 309.033 527.232 308.989 527.137 308.989C527.013 308.989 526.954 309.07 526.917 309.268C526.866 309.473 526.837 309.714 526.83 310H525.438V299.409H527.32V303.013C527.32 303.159 527.364 303.232 527.452 303.232C527.518 303.232 527.555 303.21 527.643 303.13C528.163 302.61 528.939 302.28 529.876 302.28C530.587 302.28 531.239 302.449 531.817 302.793C532.396 303.137 532.85 303.613 533.18 304.221C533.509 304.829 533.67 305.503 533.67 306.257C533.67 307.012 533.509 307.686 533.187 308.293C532.857 308.901 532.411 309.377 531.847 309.722C531.275 310.073 530.638 310.242 529.928 310.242ZM529.518 308.63C530.829 308.63 531.744 307.664 531.744 306.257C531.744 304.858 530.829 303.892 529.518 303.892C528.895 303.892 528.375 304.089 527.965 304.485C527.525 304.902 527.269 305.525 527.269 306.257C527.269 306.99 527.525 307.62 527.965 308.037C528.375 308.433 528.895 308.63 529.518 308.63ZM536.9 299.409V310H535.018V299.409H536.9ZM546.063 306.038C546.063 306.418 546.048 306.689 546.012 306.843H540.167C540.255 308 541.075 308.755 542.254 308.755C543.185 308.755 543.866 308.345 544.078 307.671H545.931C545.565 309.238 544.173 310.242 542.24 310.242C540.694 310.242 539.442 309.546 538.768 308.337C538.431 307.729 538.263 307.034 538.263 306.25C538.263 304.69 539.002 303.438 540.204 302.764C540.804 302.434 541.471 302.266 542.21 302.266C543.741 302.266 544.942 302.932 545.587 304.075C545.902 304.646 546.063 305.298 546.063 306.038ZM542.24 303.73C541.112 303.73 540.292 304.478 540.174 305.576H544.239C544.181 304.478 543.375 303.73 542.24 303.73ZM475.348 330H473.465V322.507H474.857C474.864 322.764 474.894 323.02 474.938 323.262C474.989 323.489 475.055 323.569 475.179 323.569C475.289 323.569 475.34 323.533 475.465 323.379C476.029 322.646 476.791 322.266 477.823 322.266C479.61 322.266 480.636 323.386 480.636 325.349V330H478.761V325.664C478.761 324.551 478.248 323.936 477.311 323.936C476.688 323.936 476.212 324.17 475.868 324.631C475.523 325.1 475.348 325.767 475.348 326.624V330ZM486.048 330.242C484.459 330.242 483.141 329.517 482.423 328.308C482.064 327.7 481.881 327.019 481.881 326.257C481.881 325.496 482.064 324.807 482.423 324.199C482.782 323.591 483.272 323.123 483.91 322.778C484.54 322.434 485.25 322.266 486.048 322.266C486.847 322.266 487.557 322.434 488.194 322.778C488.832 323.123 489.322 323.591 489.681 324.199C490.04 324.807 490.216 325.488 490.216 326.257C490.216 327.781 489.461 329.048 488.194 329.729C487.557 330.073 486.847 330.242 486.048 330.242ZM486.048 328.63C487.389 328.63 488.297 327.656 488.297 326.257C488.297 324.851 487.389 323.877 486.048 323.877C484.708 323.877 483.8 324.851 483.8 326.257C483.8 327.656 484.708 328.63 486.048 328.63ZM497.379 322.507L498.822 327.81L500.36 322.507H502.22L499.781 330H497.789L496.397 324.807L494.984 330H493.006L490.567 322.507H492.567L494.09 327.81L495.541 322.507H497.379ZM503.495 330.146C502.777 330.146 502.25 329.641 502.25 328.967C502.25 328.293 502.777 327.788 503.495 327.788C504.198 327.788 504.732 328.293 504.732 328.967C504.732 329.634 504.198 330.146 503.495 330.146Z" fill="#151B37"/>
<g filter="url(#filter4_d_403_737)">
<rect x="386.564" y="287.471" width="52" height="52" rx="26" fill="#3649A6" shape-rendering="crispEdges"/>
<rect x="388.064" y="288.971" width="49" height="49" rx="24.5" stroke="#151B37" stroke-width="3" shape-rendering="crispEdges"/>
<path d="M420.768 306.971L426.108 307.783C428.187 308.099 428.889 310.734 427.241 312.029L419.428 318.165L420.807 322.378L422.693 321.66C423.99 321.167 425.441 321.855 425.875 323.17C426.276 324.387 425.656 325.703 424.461 326.172L413.757 330.376L410.31 321.931L403.102 327.522L395.933 318.528C395.133 317.524 395.255 316.077 396.21 315.223C397.244 314.301 398.845 314.429 399.721 315.505L400.996 317.069L404.296 314.112L400.597 304.89C399.817 302.944 401.743 301.014 403.701 301.779L408.731 303.745L416.082 298.162C416.459 297.875 417.009 298.023 417.193 298.459L420.768 306.971ZM408.005 307.316C407.696 307.205 406.941 307.217 406.401 308.149C405.728 309.313 405.018 314.354 411.826 316.192L411.826 316.194L411.864 316.204L411.865 316.202C418.679 318.015 420.586 313.294 420.584 311.949C420.583 310.873 419.935 310.485 419.612 310.426L408.005 307.316ZM413.074 304.363C412.273 304.148 411.438 304.665 411.21 305.516C410.982 306.367 411.447 307.23 412.249 307.445C413.05 307.659 413.884 307.144 414.113 306.294C414.34 305.443 413.875 304.578 413.074 304.363ZM416.7 305.335C415.898 305.12 415.063 305.637 414.835 306.487C414.608 307.338 415.073 308.202 415.874 308.416C416.675 308.631 417.51 308.115 417.738 307.265C417.966 306.415 417.501 305.55 416.7 305.335Z" fill="#F5B810"/>
</g>
<g filter="url(#filter5_d_403_737)">
<circle cx="372" cy="445.735" r="26" fill="#F5B810"/>
<circle cx="372" cy="445.735" r="24.5" stroke="#151B37" stroke-width="3"/>
</g>
<g filter="url(#filter6_d_403_737)">
<mask id="path-16-outside-3_403_737" maskUnits="userSpaceOnUse" x="214" y="397.735" width="139" height="63" fill="black">
<rect fill="white" x="214" y="397.735" width="139" height="63"/>
<path d="M345.428 400.735C348.906 400.735 350.727 404.866 348.382 407.433L328.047 429.694C327.373 430.431 327 431.393 327 432.392V451.735C327 455.049 324.314 457.735 321 457.735H223C219.686 457.735 217 455.049 217 451.735V406.735C217 403.422 219.686 400.735 223 400.735H345.428Z"/>
</mask>
<path d="M345.428 400.735C348.906 400.735 350.727 404.866 348.382 407.433L328.047 429.694C327.373 430.431 327 431.393 327 432.392V451.735C327 455.049 324.314 457.735 321 457.735H223C219.686 457.735 217 455.049 217 451.735V406.735C217 403.422 219.686 400.735 223 400.735H345.428Z" fill="white"/>
<path d="M327 451.735H330H327ZM321 457.735V460.735V457.735ZM223 457.735L223 460.735H223V457.735ZM217 451.735H214H217ZM217 406.735L214 406.735V406.735H217ZM223 400.735V397.735V400.735ZM328.047 429.694L325.832 427.671L328.047 429.694ZM348.382 407.433L346.167 405.41L348.382 407.433ZM348.382 407.433L346.167 405.41L325.832 427.671L328.047 429.694L330.262 431.717L350.597 409.456L348.382 407.433ZM327 432.392H324V451.735H327H330V432.392H327ZM327 451.735H324C324 453.392 322.657 454.735 321 454.735V457.735V460.735C325.971 460.735 330 456.706 330 451.735H327ZM321 457.735V454.735H223V457.735V460.735H321V457.735ZM223 457.735L223 454.735C221.343 454.735 220 453.392 220 451.735H217H214C214 456.706 218.029 460.735 223 460.735L223 457.735ZM217 451.735H220V406.735H217H214V451.735H217ZM217 406.735L220 406.735C220 405.078 221.343 403.735 223 403.735V400.735V397.735C218.029 397.735 214 401.765 214 406.735L217 406.735ZM223 400.735V403.735H345.428V400.735V397.735H223V400.735ZM328.047 429.694L325.832 427.671C324.653 428.961 324 430.645 324 432.392H327H330C330 432.142 330.093 431.902 330.262 431.717L328.047 429.694ZM348.382 407.433L350.597 409.456C354.701 404.964 351.513 397.735 345.428 397.735V400.735V403.735C346.298 403.735 346.753 404.768 346.167 405.41L348.382 407.433Z" fill="#151B37" mask="url(#path-16-outside-3_403_737)"/>
</g>
<path d="M253.5 438.654L251.535 436.163C251.064 435.564 250.354 435.223 249.6 435.226L247.871 435.233C247.195 435.235 246.588 434.798 246.421 434.139C245.634 431.042 245.645 427.774 246.465 424.667C246.635 424.023 247.228 423.597 247.89 423.594L249.663 423.587C250.418 423.584 251.13 423.237 251.606 422.634L253.573 420.145C254.358 419.144 254.284 417.723 253.393 416.826L251.881 415.304C250.893 414.31 249.243 414.317 248.309 415.38C241.248 423.418 241.21 435.471 248.198 443.443C249.124 444.499 250.774 444.493 251.77 443.491L253.294 441.957C254.192 441.071 254.277 439.649 253.5 438.654Z" fill="#151B37"/>
<circle cx="267" cy="429.735" r="4" fill="#151B37"/>
<circle cx="284" cy="429.735" r="4" fill="#151B37"/>
<circle cx="300" cy="429.735" r="4" fill="#151B37"/>
</g>
<defs>
<filter id="filter0_d_403_737" x="0" y="0" width="654" height="556.05" filterUnits="userSpaceOnUse" color-interpolation-filters="sRGB">
<feFlood flood-opacity="0" result="BackgroundImageFix"/>
<feColorMatrix in="SourceAlpha" type="matrix" values="0 0 0 0 0 0 0 0 0 0 0 0 0 0 0 0 0 0 127 0" result="hardAlpha"/>
<feOffset dy="12.0497"/>
<feComposite in2="hardAlpha" operator="out"/>
<feColorMatrix type="matrix" values="0 0 0 0 0 0 0 0 0 0 0 0 0 0 0 0 0 0 1 0"/>
<feBlend mode="normal" in2="BackgroundImageFix" result="effect1_dropShadow_403_737"/>
<feBlend mode="normal" in="SourceGraphic" in2="effect1_dropShadow_403_737" result="shape"/>
</filter>
<filter id="filter1_d_403_737" x="347" y="90.7354" width="52" height="54" filterUnits="userSpaceOnUse" color-interpolation-filters="sRGB">
<feFlood flood-opacity="0" result="BackgroundImageFix"/>
<feColorMatrix in="SourceAlpha" type="matrix" values="0 0 0 0 0 0 0 0 0 0 0 0 0 0 0 0 0 0 127 0" result="hardAlpha"/>
<feOffset dy="2"/>
<feComposite in2="hardAlpha" operator="out"/>
<feColorMatrix type="matrix" values="0 0 0 0 0.0823529 0 0 0 0 0.105882 0 0 0 0 0.215686 0 0 0 1 0"/>
<feBlend mode="normal" in2="BackgroundImageFix" result="effect1_dropShadow_403_737"/>
<feBlend mode="normal" in="SourceGraphic" in2="effect1_dropShadow_403_737" result="shape"/>
</filter>
<filter id="filter2_d_403_737" x="55" y="59.2354" width="301.218" height="168.126" filterUnits="userSpaceOnUse" color-interpolation-filters="sRGB">
<feFlood flood-opacity="0" result="BackgroundImageFix"/>
<feColorMatrix in="SourceAlpha" type="matrix" values="0 0 0 0 0 0 0 0 0 0 0 0 0 0 0 0 0 0 127 0" result="hardAlpha"/>
<feOffset dx="5.77623" dy="4.12588"/>
<feComposite in2="hardAlpha" operator="out"/>
<feColorMatrix type="matrix" values="0 0 0 0 0 0 0 0 0 0 0 0 0 0 0 0 0 0 1 0"/>
<feBlend mode="normal" in2="BackgroundImageFix" result="effect1_dropShadow_403_737"/>
<feBlend mode="normal" in="SourceGraphic" in2="effect1_dropShadow_403_737" result="shape"/>
</filter>
<filter id="filter3_d_403_737" x="422.559" y="255.971" width="180.218" height="104.126" filterUnits="userSpaceOnUse" color-interpolation-filters="sRGB">
<feFlood flood-opacity="0" result="BackgroundImageFix"/>
<feColorMatrix in="SourceAlpha" type="matrix" values="0 0 0 0 0 0 0 0 0 0 0 0 0 0 0 0 0 0 127 0" result="hardAlpha"/>
<feOffset dx="5.77623" dy="4.12588"/>
<feComposite in2="hardAlpha" operator="out"/>
<feColorMatrix type="matrix" values="0 0 0 0 0 0 0 0 0 0 0 0 0 0 0 0 0 0 1 0"/>
<feBlend mode="normal" in2="BackgroundImageFix" result="effect1_dropShadow_403_737"/>
<feBlend mode="normal" in="SourceGraphic" in2="effect1_dropShadow_403_737" result="shape"/>
</filter>
<filter id="filter4_d_403_737" x="386.564" y="287.471" width="52" height="54" filterUnits="userSpaceOnUse" color-interpolation-filters="sRGB">
<feFlood flood-opacity="0" result="BackgroundImageFix"/>
<feColorMatrix in="SourceAlpha" type="matrix" values="0 0 0 0 0 0 0 0 0 0 0 0 0 0 0 0 0 0 127 0" result="hardAlpha"/>
<feOffset dy="2"/>
<feComposite in2="hardAlpha" operator="out"/>
<feColorMatrix type="matrix" values="0 0 0 0 0.0823529 0 0 0 0 0.105882 0 0 0 0 0.215686 0 0 0 1 0"/>
<feBlend mode="normal" in2="BackgroundImageFix" result="effect1_dropShadow_403_737"/>
<feBlend mode="normal" in="SourceGraphic" in2="effect1_dropShadow_403_737" result="shape"/>
</filter>
<filter id="filter5_d_403_737" x="346" y="419.735" width="52" height="54" filterUnits="userSpaceOnUse" color-interpolation-filters="sRGB">
<feFlood flood-opacity="0" result="BackgroundImageFix"/>
<feColorMatrix in="SourceAlpha" type="matrix" values="0 0 0 0 0 0 0 0 0 0 0 0 0 0 0 0 0 0 127 0" result="hardAlpha"/>
<feOffset dy="2"/>
<feComposite in2="hardAlpha" operator="out"/>
<feColorMatrix type="matrix" values="0 0 0 0 0.0823529 0 0 0 0 0.105882 0 0 0 0 0.215686 0 0 0 1 0"/>
<feBlend mode="normal" in2="BackgroundImageFix" result="effect1_dropShadow_403_737"/>
<feBlend mode="normal" in="SourceGraphic" in2="effect1_dropShadow_403_737" result="shape"/>
</filter>
<filter id="filter6_d_403_737" x="214" y="397.735" width="144.218" height="67.1259" filterUnits="userSpaceOnUse" color-interpolation-filters="sRGB">
<feFlood flood-opacity="0" result="BackgroundImageFix"/>
<feColorMatrix in="SourceAlpha" type="matrix" values="0 0 0 0 0 0 0 0 0 0 0 0 0 0 0 0 0 0 127 0" result="hardAlpha"/>
<feOffset dx="5.77623" dy="4.12588"/>
<feComposite in2="hardAlpha" operator="out"/>
<feColorMatrix type="matrix" values="0 0 0 0 0 0 0 0 0 0 0 0 0 0 0 0 0 0 1 0"/>
<feBlend mode="normal" in2="BackgroundImageFix" result="effect1_dropShadow_403_737"/>
<feBlend mode="normal" in="SourceGraphic" in2="effect1_dropShadow_403_737" result="shape"/>
</filter>
</defs>
</svg>
