<svg width="881" height="915" viewBox="0 0 881 915" fill="none" xmlns="http://www.w3.org/2000/svg">
<g filter="url(#filter0_d_374_428)">
<rect width="881" height="881" rx="50.8269" fill="#3649A6" shape-rendering="crispEdges"/>
<rect x="16.9423" y="16.9423" width="847.115" height="847.115" rx="33.8846" stroke="#151B37" stroke-width="33.8846" shape-rendering="crispEdges"/>
<path d="M579.485 330.371L669.941 344.134C705.165 349.498 717.074 394.13 689.14 416.075L556.768 520.038L580.136 591.406L612.09 579.247C634.061 570.888 658.648 582.546 665.997 604.833C672.79 625.447 662.286 647.735 642.051 655.686L460.7 726.907L402.294 583.836L280.17 678.559L158.709 526.174C145.163 509.173 147.228 484.648 163.414 470.192C180.926 454.563 208.052 456.732 222.899 474.964L244.493 501.47L300.407 451.372L237.734 295.121C224.511 262.149 257.144 229.454 290.331 242.417L375.549 275.727L500.093 181.131C506.481 176.28 515.796 178.775 518.903 186.17L579.485 330.371ZM363.249 336.231C358.002 334.35 345.22 334.547 336.075 350.336C324.659 370.056 312.644 455.471 427.986 486.607L427.979 486.631L428.628 486.804L428.634 486.78C544.082 517.482 576.39 437.511 576.366 414.722C576.34 396.485 565.372 389.918 559.885 388.92L363.249 336.231ZM449.129 286.197C435.549 282.558 421.405 291.312 417.542 305.727C413.684 320.14 421.561 334.772 435.138 338.41C448.712 342.04 462.855 333.31 466.719 318.904C470.581 304.493 462.701 289.841 449.129 286.197ZM510.552 302.655C496.973 299.016 482.828 307.77 478.965 322.185C475.108 336.598 482.984 351.231 496.562 354.869C510.134 358.496 524.279 349.767 528.142 335.362C532.004 320.953 524.122 306.301 510.552 302.655Z" fill="#F5B810"/>
</g>
<defs>
<filter id="filter0_d_374_428" x="0" y="0" width="881" height="914.885" filterUnits="userSpaceOnUse" color-interpolation-filters="sRGB">
<feFlood flood-opacity="0" result="BackgroundImageFix"/>
<feColorMatrix in="SourceAlpha" type="matrix" values="0 0 0 0 0 0 0 0 0 0 0 0 0 0 0 0 0 0 127 0" result="hardAlpha"/>
<feOffset dy="33.8846"/>
<feComposite in2="hardAlpha" operator="out"/>
<feColorMatrix type="matrix" values="0 0 0 0 0.0823529 0 0 0 0 0.105882 0 0 0 0 0.215686 0 0 0 1 0"/>
<feBlend mode="normal" in2="BackgroundImageFix" result="effect1_dropShadow_374_428"/>
<feBlend mode="normal" in="SourceGraphic" in2="effect1_dropShadow_374_428" result="shape"/>
</filter>
</defs>
</svg>
