<svg width="39" height="40" viewBox="0 0 39 40" fill="none" xmlns="http://www.w3.org/2000/svg">
<path d="M26.6944 9.90032L33.2129 9.18634C35.7514 8.90867 37.404 11.7332 35.877 13.7391L28.6403 23.2426L31.5824 27.6801L33.5693 26.2678C34.9355 25.2968 36.8542 25.6424 37.7766 27.0272C38.6293 28.3082 38.3155 30.0191 37.062 30.9305L25.8266 39.0968L19.1281 30.4121L12.4296 39.0986L1.19247 30.9305C-0.0608378 30.0191 -0.372903 28.3098 0.479672 27.0289C1.40219 25.6439 3.32068 25.2963 4.68693 26.2678L6.67384 27.6801L9.6159 23.2443L2.37748 13.7391C0.850238 11.7333 2.50312 8.90885 5.04155 9.18634L11.56 9.90032L18.4285 1.17831C18.7807 0.730962 19.472 0.730923 19.8243 1.17823L26.6944 9.90032ZM11.8309 14.2488C11.4327 14.2164 10.5513 14.4633 10.2111 15.7065C9.78645 17.259 10.5392 23.3002 19.1032 23.3159V23.3176H19.1513V23.3159C27.7145 23.3 28.4679 17.2593 28.0434 15.7065C27.7032 14.464 26.822 14.2167 26.4236 14.2488H11.8309ZM16.849 9.27013C15.8412 9.27013 15.0242 10.1251 15.0242 11.1782C15.0245 12.231 15.8414 13.0844 16.849 13.0844C17.8561 13.0839 18.6734 12.2306 18.6737 11.1782C18.6737 10.1254 17.8563 9.27067 16.849 9.27013ZM21.4073 9.27013C20.3995 9.27013 19.5825 10.1251 19.5825 11.1782C19.5828 12.231 20.3997 13.0844 21.4073 13.0844C22.4143 13.0838 23.2317 12.2306 23.232 11.1782C23.232 10.1255 22.4145 9.27081 21.4073 9.27013Z" fill="#F5B810"/>
</svg>
