<svg width="214" height="263" viewBox="0 0 214 263" fill="none" xmlns="http://www.w3.org/2000/svg">
<path d="M89.8367 262.015C72.5017 262.015 57.0534 257.769 43.4919 249.279C30.0484 240.67 19.553 228.936 12.0058 214.078C4.57648 199.219 0.861816 182.651 0.861816 164.372C0.861816 145.976 4.87132 129.348 12.8903 114.49C20.9092 99.5131 31.8173 87.7795 45.6146 79.2888C59.5298 70.7982 74.8012 66.5529 91.4287 66.5529C99.8014 66.5529 107.29 67.4963 113.894 69.3831C120.615 71.2699 126.217 73.7463 130.698 76.8124C132.349 77.8737 133.528 78.5813 134.236 78.9351C135.061 79.2889 135.946 79.4657 136.889 79.4657C138.068 79.4657 138.953 79.053 139.542 78.2275C140.132 77.2841 140.427 75.928 140.427 74.1591V0.219727H213.128V256H159.885C159.767 254.114 159.472 252.05 159 249.809C158.528 247.569 157.939 245.564 157.231 243.795C156.406 241.908 155.344 240.434 154.047 239.373C152.868 238.312 151.453 237.781 149.802 237.781C148.623 237.781 147.502 238.076 146.441 238.665C145.498 239.137 144.259 240.021 142.726 241.319C135.061 248.512 126.865 253.76 118.139 257.062C109.53 260.364 100.096 262.015 89.8367 262.015ZM107.702 200.104C112.066 200.104 115.898 199.632 119.2 198.689C122.62 197.627 125.922 195.917 129.106 193.559C132.998 190.611 136.123 186.66 138.481 181.707C140.84 176.636 142.019 170.858 142.019 164.372C142.019 157.886 140.84 152.167 138.481 147.214C136.123 142.143 132.998 138.134 129.106 135.186C125.922 132.827 122.62 131.176 119.2 130.233C115.898 129.171 112.066 128.641 107.702 128.641C101.099 128.641 95.3202 130.115 90.3674 133.063C85.5324 136.011 81.8178 140.197 79.2234 145.622C76.629 150.929 75.3318 157.179 75.3318 164.372C75.3318 171.566 76.629 177.875 79.2234 183.299C81.8178 188.606 85.5324 192.733 90.3674 195.681C95.3202 198.63 101.099 200.104 107.702 200.104Z" fill="#FFFCF5"/>
</svg>
