<svg width="214" height="198" viewBox="0 0 214 198" fill="none" xmlns="http://www.w3.org/2000/svg">
<path d="M106.951 197.014C86.4321 197.014 68.0947 192.887 51.9389 184.632C35.7831 176.259 23.165 164.643 14.0848 149.785C5.00449 134.808 0.464355 117.886 0.464355 99.0178C0.464355 80.1497 5.00449 63.2863 14.0848 48.4277C23.165 33.4512 35.7831 21.7765 51.9389 13.4038C68.0947 5.03108 86.4321 0.844727 106.951 0.844727C127.352 0.844727 145.631 5.03108 161.787 13.4038C177.942 21.7765 190.56 33.4512 199.641 48.4277C208.721 63.2863 213.261 80.1497 213.261 99.0178C213.261 117.886 208.721 134.808 199.641 149.785C190.56 164.643 177.942 176.259 161.787 184.632C145.631 192.887 127.352 197.014 106.951 197.014ZM106.951 135.103C113.673 135.103 119.51 133.629 124.463 130.681C129.416 127.733 133.19 123.546 135.784 118.122C138.378 112.697 139.676 106.329 139.676 99.0178C139.676 91.7064 138.378 85.3384 135.784 79.9139C133.19 74.3714 129.416 70.126 124.463 67.1779C119.51 64.2297 113.673 62.7557 106.951 62.7557C100.229 62.7557 94.3921 64.2297 89.4392 67.1779C84.4864 70.126 80.7127 74.3714 78.1184 79.9139C75.524 85.3384 74.2268 91.7064 74.2268 99.0178C74.2268 106.329 75.524 112.697 78.1184 118.122C80.7127 123.546 84.4864 127.733 89.4392 130.681C94.3921 133.629 100.229 135.103 106.951 135.103Z" fill="#FFFCF5"/>
</svg>
