<svg width="124" height="189" viewBox="0 0 124 189" fill="none" xmlns="http://www.w3.org/2000/svg">
<path d="M0.37207 189V4.85932H52.0235C52.2593 7.68954 52.6131 10.6377 53.0848 13.7037C53.6744 16.7698 54.3231 19.5411 55.0306 22.0175C55.7382 24.1402 56.5047 25.7911 57.3301 26.9704C58.2735 28.0317 59.3938 28.5624 60.691 28.5624C61.8703 28.5624 62.7547 28.2086 63.3444 27.501C64.0519 26.7935 64.8184 25.5553 65.6439 23.7864C68.9458 16.475 74.1935 10.8735 81.387 6.98198C88.6984 2.97251 97.4249 0.967773 107.566 0.967773C113.817 0.967773 119.064 1.49844 123.31 2.55977V65.8858C120.479 65.5321 117.708 65.2962 114.996 65.1783C112.283 64.9424 109.63 64.8245 107.036 64.8245C100.904 64.8245 95.7739 65.4731 91.6465 66.7703C87.5191 68.0674 83.9813 70.1901 81.0332 73.1382C78.3209 75.8505 76.3162 79.3293 75.019 83.5747C73.7218 87.7021 73.0732 92.6549 73.0732 98.4333V189H0.37207Z" fill="#FFFCF5"/>
</svg>
