<svg width="176" height="198" viewBox="0 0 176 198" fill="none" xmlns="http://www.w3.org/2000/svg">
<path d="M90.9378 197.014C74.0745 197.014 59.1569 194.42 46.1851 189.231C33.3312 184.042 22.9537 176.554 15.0527 166.766C7.26961 156.978 2.43466 145.304 0.547852 131.742H72.3645C72.7183 135.634 73.7207 138.936 75.3717 141.648C77.0226 144.242 79.1453 146.247 81.7396 147.662C84.4519 149.077 87.577 149.785 91.1147 149.785C94.0629 149.785 96.4803 149.372 98.3671 148.547C100.372 147.721 101.846 146.601 102.789 145.186C103.733 143.653 104.204 141.825 104.204 139.702C104.204 137.579 103.674 135.693 102.612 134.042C101.551 132.391 99.6054 130.976 96.7751 129.796C94.0629 128.499 90.3482 127.438 85.6312 126.612C65.8197 123.31 50.0766 119.124 38.402 114.053C26.8453 108.865 18.3546 102.202 12.93 94.0649C7.62339 85.8101 4.97006 75.3737 4.97006 62.7557C4.97006 50.3735 8.38991 39.5243 15.2296 30.2082C22.0693 20.7742 31.7392 13.5217 44.2393 8.45093C56.7394 3.38013 71.2443 0.844727 87.7538 0.844727C113.108 0.844727 132.919 6.26931 147.188 17.1185C161.457 27.8497 169.948 43.7696 172.66 64.8783H102.966C102.612 59.1 101.256 54.8547 98.8978 52.1424C96.5393 49.4301 93.0605 48.0739 88.4614 48.0739C85.985 48.0739 83.8033 48.4867 81.9165 49.3122C80.0297 50.1376 78.5556 51.3169 77.4943 52.8499C76.433 54.265 75.9023 56.0339 75.9023 58.1566C75.9023 60.7509 76.6099 62.9326 78.025 64.7014C79.558 66.4703 82.2113 68.0034 85.985 69.3005C89.8765 70.5977 95.478 71.777 102.789 72.8383C119.653 75.3147 133.391 79.0884 144.004 84.1592C154.736 89.112 162.637 95.7159 167.707 103.971C172.896 112.108 175.49 122.19 175.49 134.219C175.49 146.719 172.012 157.745 165.054 167.297C158.096 176.731 148.191 184.042 135.337 189.231C122.601 194.42 107.801 197.014 90.9378 197.014Z" fill="#FFFCF5"/>
</svg>
