<svg width="190" height="192" viewBox="0 0 190 192" fill="none" xmlns="http://www.w3.org/2000/svg">
<path d="M67.471 191.014C53.5558 191.014 41.5863 188.184 31.5626 182.524C21.6569 176.745 14.0507 168.491 8.74402 157.759C3.55529 146.91 0.960938 133.938 0.960938 118.844V0.859375H73.662V101.332C73.662 106.874 74.3696 111.533 75.7847 115.306C77.1998 118.962 79.3814 121.733 82.3296 123.62C85.3957 125.507 89.2872 126.45 94.0042 126.45C97.8958 126.45 101.257 125.861 104.087 124.681C106.917 123.384 109.335 121.556 111.339 119.198C113.108 117.075 114.464 114.422 115.408 111.238C116.351 108.054 116.823 104.457 116.823 100.448V0.859375H189.524V185H136.457C136.222 180.047 135.337 175.802 133.804 172.264C132.979 170.377 131.917 168.903 130.62 167.842C129.441 166.781 128.026 166.25 126.375 166.25C124.842 166.25 123.545 166.604 122.483 167.311C121.422 167.901 120.007 169.08 118.238 170.849C111.398 177.689 103.91 182.76 95.7731 186.062C87.6363 189.363 78.2022 191.014 67.471 191.014Z" fill="#FFFCF5"/>
</svg>
